<svg width="64" height="65" viewBox="0 0 64 65" fill="none" xmlns="http://www.w3.org/2000/svg">
<g clip-path="url(#clip0)">
<path d="M31.93 38.4098C38.3807 38.4098 43.61 33.1805 43.61 26.7298C43.61 20.2791 38.3807 15.0498 31.93 15.0498C25.4793 15.0498 20.25 20.2791 20.25 26.7298C20.25 33.1805 25.4793 38.4098 31.93 38.4098Z" fill="#741213"/>
<path d="M37.2502 61.4699V45.6698C37.2508 44.9121 37.4398 44.1664 37.8002 43.4998C35.8731 43.0692 33.9047 42.8512 31.9302 42.8498C27.4944 42.831 23.126 43.9352 19.232 46.0597C15.338 48.1842 12.0451 51.2597 9.66016 54.9998C15.6607 60.7354 23.6295 63.9558 31.9302 63.9998C33.8285 63.9951 35.7227 63.821 37.5902 63.4798C37.3712 62.8321 37.2564 62.1536 37.2502 61.4699Z" fill="#741213"/>
<path d="M63.3705 45.0002H61.4705V42.5102C61.4705 40.163 60.5381 37.912 58.8784 36.2523C57.2187 34.5926 54.9677 33.6602 52.6205 33.6602C50.2733 33.6602 48.0223 34.5926 46.3626 36.2523C44.7029 37.912 43.7705 40.163 43.7705 42.5102V45.0002H41.8805C41.7134 45.0002 41.5532 45.0665 41.435 45.1847C41.3169 45.3028 41.2505 45.4631 41.2505 45.6302V61.4302C41.2438 61.7653 41.3041 62.0983 41.4278 62.4099C41.5514 62.7214 41.736 63.0052 41.9707 63.2445C42.2053 63.4838 42.4854 63.6739 42.7944 63.8037C43.1035 63.9334 43.4353 64.0002 43.7705 64.0002H61.4705C62.1415 64.0002 62.785 63.7336 63.2595 63.2591C63.7339 62.7847 64.0005 62.1412 64.0005 61.4702V45.6702C64.006 45.5841 63.9937 45.4979 63.9645 45.4168C63.9353 45.3357 63.8898 45.2614 63.8307 45.1986C63.7717 45.1358 63.7004 45.0858 63.6212 45.0516C63.542 45.0175 63.4567 45 63.3705 45.0002ZM54.5205 58.2002C54.5305 58.2885 54.5214 58.378 54.4938 58.4626C54.4662 58.5471 54.4208 58.6247 54.3605 58.6902C54.3022 58.7573 54.2299 58.8109 54.1487 58.8472C54.0675 58.8834 53.9794 58.9015 53.8905 58.9002H51.3605C51.2716 58.9015 51.1834 58.8834 51.1023 58.8472C51.0211 58.8109 50.9488 58.7573 50.8905 58.6902C50.8302 58.6247 50.7848 58.5471 50.7572 58.4626C50.7296 58.378 50.7205 58.2885 50.7305 58.2002L51.1305 54.6202C50.8206 54.3868 50.569 54.0847 50.3955 53.7377C50.222 53.3906 50.1313 53.0081 50.1305 52.6202C50.1204 52.184 50.2232 51.7527 50.429 51.3681C50.6347 50.9835 50.9365 50.6586 51.3049 50.4249C51.6733 50.1913 52.0958 50.0569 52.5315 50.0348C52.9671 50.0126 53.4011 50.1035 53.7913 50.2986C54.1814 50.4937 54.5145 50.7864 54.7582 51.1482C55.0019 51.51 55.1479 51.9286 55.1821 52.3635C55.2162 52.7984 55.1373 53.2347 54.9531 53.6301C54.7688 54.0255 54.4854 54.3666 54.1305 54.6202L54.5205 58.2002ZM57.6805 45.0002H47.5705V42.5102C47.5401 41.8274 47.6484 41.1456 47.8887 40.5058C48.129 39.866 48.4965 39.2816 48.9689 38.7877C49.4413 38.2938 50.0088 37.9008 50.6373 37.6322C51.2657 37.3637 51.9421 37.2253 52.6255 37.2253C53.3089 37.2253 53.9853 37.3637 54.6137 37.6322C55.2422 37.9008 55.8097 38.2938 56.2821 38.7877C56.7545 39.2816 57.1219 39.866 57.3623 40.5058C57.6026 41.1456 57.7109 41.8274 57.6805 42.5102V45.0002Z" fill="#B6B6B5"/>
</g>
<defs>
<clipPath id="clip0">
<rect width="64" height="64.06" fill="white"/>
</clipPath>
</defs>
</svg>
