<svg width="64" height="64" viewBox="0 0 64 64" fill="none" xmlns="http://www.w3.org/2000/svg">
<g clip-path="url(#clip0)">
<path d="M3 44V12H1.5H0V44C0 46.2 1.8 48 4 48H7V45H4C3.4 45 3 44.6 3 44Z" fill="#B6B6B5"/>
<path d="M3 9H51H52.5H54V4C54 1.8 52.2 0 50 0H4C1.8 0 0 1.8 0 4V9H1.5H3ZM48.2 3C49 3 49.6 3.7 49.6 4.5C49.6 5.3 49 6 48.2 6C47.4 6 46.8 5.3 46.8 4.5C46.8 3.7 47.4 3 48.2 3ZM42.4 3C43.2 3 43.8 3.7 43.8 4.5C43.8 5.3 43.2 6 42.4 6C41.6 6 41 5.3 41 4.5C41 3.7 41.6 3 42.4 3ZM36.6 3C37.4 3 38 3.7 38 4.5C38 5.3 37.4 6 36.6 6C35.8 6 35.2 5.3 35.2 4.5C35.2 3.7 35.8 3 36.6 3Z" fill="#741113"/>
<path d="M51 16H14C11.8 16 10 17.8 10 20V25H11.5H13H51H54H61H62.5H64V20C64 17.8 62.2 16 60 16H54H51ZM46.6 22C45.8 22 45.2 21.3 45.2 20.5C45.2 19.7 45.8 19 46.6 19C47.4 19 48 19.7 48 20.5C48 21.3 47.4 22 46.6 22ZM52.4 22C51.7 22 51.1 21.4 51 20.7V20.3C51.1 19.6 51.7 19 52.4 19C53.2 19 53.8 19.7 53.8 20.5C53.8 21.3 53.2 22 52.4 22ZM58.2 19C59 19 59.6 19.7 59.6 20.5C59.6 21.3 59 22 58.2 22C57.4 22 56.8 21.3 56.8 20.5C56.8 19.7 57.4 19 58.2 19Z" fill="#741113"/>
<path d="M14 61C13.4 61 13 60.6 13 60V48V45V28H11.5H10V45V48V60C10 62.2 11.8 64 14 64H30.2L30.3 63.9L30.8 63C31.1 62.4 31.5 61.8 31.8 61.2C31.8 61.1 31.7 61.1 31.7 61H14Z" fill="#B6B6B5"/>
<path d="M61.4992 35.0001C61.3992 35.0001 61.3992 35.1001 61.2992 35.1001C61.1992 35.1001 61.1992 35.1001 61.0992 35.0001C61.0992 35.0001 61.0992 35.0001 60.9992 35.0001C59.3992 34.0001 57.6992 33.4001 55.8992 32.9001C55.7992 32.9001 55.6992 32.8001 55.5992 32.7001C55.1992 31.3001 54.7992 29.8001 54.3992 28.4001C54.2992 28.2001 54.2992 28.1001 54.0992 28.1001C53.1992 28.1001 52.2992 28.1001 51.2992 28.1001C50.3992 28.1001 49.3992 28.1001 48.4992 28.1001C48.2992 28.1001 48.1992 28.2001 48.1992 28.3001C47.7992 29.7001 47.3992 31.1001 46.9992 32.6001C46.8992 32.8001 46.7992 32.9001 46.5992 33.0001C44.7992 33.4001 43.0992 34.1001 41.5992 35.1001C41.4992 35.1001 41.4992 35.2001 41.3992 35.2001C41.2992 35.2001 41.2992 35.2001 41.1992 35.1001C39.8992 34.4001 38.5992 33.6001 37.2992 32.9001C37.1992 32.9001 37.1992 32.8001 37.0992 32.8001C36.9992 32.8001 36.9992 32.9001 36.8992 32.9001C35.5992 34.2001 34.2992 35.5001 32.8992 36.9001C32.7992 37.0001 32.7992 37.1001 32.8992 37.3001C33.5992 38.6001 34.3992 40.0001 35.0992 41.3001C35.1992 41.4001 35.1992 41.5001 35.0992 41.7001C34.0992 43.3001 33.3992 45.0001 32.9992 46.9001C32.9992 47.0001 32.8992 47.1001 32.7992 47.1001C31.2992 47.5001 29.8992 47.9001 28.3992 48.3001C28.1992 48.4001 28.1992 48.4001 28.1992 48.6001C28.1992 50.4001 28.1992 52.3001 28.1992 54.1001C28.1992 54.3001 28.2992 54.4001 28.4992 54.5001C29.8992 54.9001 31.3992 55.3001 32.7992 55.7001C32.8992 55.7001 32.9992 55.8001 32.9992 56.0001C33.3992 57.8001 34.0992 59.5001 35.0992 61.1001C35.0992 61.1001 35.0992 61.1001 35.0992 61.2001C35.1992 61.3001 35.1992 61.5001 35.0992 61.6001C34.5992 62.5001 34.0992 63.3001 33.6992 64.2001H48.7992C46.4992 63.7001 44.4992 62.7001 42.7992 61.2001C40.0992 58.8001 38.3992 55.4001 38.3992 51.5001C38.3992 44.3001 44.1992 38.5001 51.2992 38.4001C55.1992 38.4001 58.6992 40.1001 61.0992 42.7001C62.4992 44.3001 63.5992 46.3001 64.0992 48.5001V33.6001C63.1992 34.0001 62.2992 34.5001 61.4992 35.0001Z" fill="#B6B6B5"/>
</g>
<defs>
<clipPath id="clip0">
<rect width="64" height="64" fill="white"/>
</clipPath>
</defs>
</svg>
