<svg width="64" height="64" viewBox="0 0 64 64" fill="none" xmlns="http://www.w3.org/2000/svg">
<path d="M63.7 27.6137C61.7 27.0156 59.7 26.5171 57.7 25.919C57.5 25.8193 57.4 25.8193 57.4 25.6199C57.1 24.5234 56.8 23.5265 56.4 22.5296L51.5 27.4143C51.8 28.9097 52 30.405 52 31.9003C52 42.866 43 51.838 32 51.838C21 51.838 12 42.866 12 31.9003C12 20.9346 21 11.9626 32 11.9626C34.8 11.9626 37.5 12.5607 39.9 13.5576L44.5 8.97196C42.6 7.97508 40.6 7.17757 38.5 6.57944C38.2 6.47975 38.1 6.38006 38 6.081C37.5 4.08723 36.9 2.19315 36.3 0.199377C36.2 0.0996885 36.1 0 35.8 0C33.3 0 30.7 0 28.2 0C27.9 0 27.8 0.0996885 27.7 0.398754C27.1 2.39252 26.6 4.38629 26 6.38006C25.9 6.57944 25.8 6.67913 25.6 6.67913C23.1 7.27726 20.7 8.27414 18.5 9.57009C18.3 9.66978 18.1 9.66978 17.9 9.57009C16.1 8.57321 14.3 7.57632 12.5 6.57944C12.3 6.47975 12.2 6.47975 12 6.67913C10.2 8.47352 8.4 10.2679 6.6 12.0623C6.4 12.2617 6.4 12.3614 6.5 12.5607C7.5 14.3551 8.5 16.1495 9.5 17.9439C9.6 18.1433 9.6 18.3427 9.5 18.5421C8.2 20.7352 7.2 23.028 6.6 25.5203C6.5 25.8193 6.4 25.919 6.2 26.0187C4.2 26.6168 2.2 27.1153 0.3 27.7134C0.1 27.7134 0 27.8131 0 28.1122C0 30.7041 0 33.1963 0 35.7882C0 36.0872 0.1 36.1869 0.3 36.2866C2.3 36.8847 4.3 37.3832 6.3 37.9813C6.5 38.081 6.6 38.081 6.7 38.3801C7.3 40.8723 8.3 43.2648 9.6 45.4579C9.7 45.6573 9.7 45.757 9.6 45.9564C8.6 47.7508 7.6 49.5452 6.6 51.4393C6.5 51.6386 6.5 51.838 6.7 51.9377C7.5 52.7352 8.4 53.5327 9.2 54.4299C10.2 55.4268 11.3 56.5234 12.4 57.6199C12.5 57.5202 12.6 57.5202 12.7 57.4206C14.5 56.4237 16.3 55.4268 18.1 54.4299C18.3 54.3302 18.5 54.3302 18.7 54.4299C20.9 55.7259 23.2 56.7227 25.6 57.3209C25.9 57.4206 26 57.5203 26.1 57.8193C26.7 59.8131 27.2 61.8069 27.8 63.7009C27.9 63.9003 28 64 28.2 64C30.8 64 33.3 64 35.9 64C36.2 64 36.3 63.9003 36.3 63.7009C36.9 61.7072 37.4 59.7134 38 57.7196C38.1 57.5203 38.2 57.4206 38.4 57.3209C40.9 56.7227 43.3 55.7259 45.5 54.4299C45.7 54.3302 45.8 54.3302 46 54.4299C47 55.028 48 55.5265 49 56.1246C49.9 56.6231 50.9 57.1215 51.7 57.6199C53.7 55.6262 55.6 53.7321 57.6 51.7383C57.6 51.6386 57.5 51.6386 57.5 51.5389C56.5 49.7445 55.5 47.9502 54.5 46.1558C54.4 45.8567 54.4 45.757 54.5 45.4579C55.8 43.2648 56.8 40.972 57.4 38.4798C57.4 38.2804 57.5 38.1807 57.7 38.1807C59.7 37.5826 61.7 37.0841 63.6 36.486C63.9 36.3863 64 36.2866 64 35.9875C64 33.4953 64 30.9034 64 28.4112C64 27.8131 63.9 27.7134 63.7 27.6137Z" fill="#B7B6B5"/>
<path d="M58.8998 10.0691L56.0998 7.27782C55.6998 6.87906 55.1998 6.67969 54.6998 6.67969C54.1998 6.67969 53.6998 6.87906 53.2998 7.27782L52.9998 7.57688L44.3998 16.1501L42.8998 17.6454L31.9998 28.4118L24.9998 21.3339C24.5998 20.9351 24.0998 20.7358 23.5998 20.7358C23.0998 20.7358 22.5998 20.9351 22.1998 21.3339L19.3998 24.1252C18.5998 24.9227 18.5998 26.1189 19.3998 26.9164L27.8998 35.39L30.6998 38.1812C30.9998 38.6797 31.4998 38.8791 31.9998 38.8791C32.4998 38.8791 32.9998 38.6797 33.3998 38.2809L36.1998 35.4897L47.9998 23.8261L49.4998 22.3308L55.0998 16.7482L58.8998 12.9601C59.6998 12.1626 59.6998 10.8666 58.8998 10.0691Z" fill="#74060E"/>
</svg>
