<svg width="64" height="62" viewBox="0 0 64 62" fill="none" xmlns="http://www.w3.org/2000/svg">
<g clip-path="url(#clip0)">
<path d="M63.4502 42.7202L57.3902 36.6602L44.8402 49.2002C42.6391 51.4128 39.8117 52.8963 36.7402 53.4502L44.7402 61.4502C45.0924 61.8001 45.5688 61.9964 46.0652 61.9964C46.5617 61.9964 47.038 61.8001 47.3902 61.4502L63.4502 45.3802C63.8008 45.0262 63.9974 44.5483 63.9974 44.0502C63.9974 43.552 63.8008 43.0741 63.4502 42.7202Z" fill="#B6B6B5"/>
<path d="M54.9201 33.83C55.9332 32.8108 56.5018 31.4321 56.5018 29.995C56.5018 28.5579 55.9332 27.1792 54.9201 26.16C54.4009 25.6555 53.7853 25.261 53.1101 25C53.4995 24.0162 53.5924 22.9399 53.3774 21.904C53.1623 20.868 52.6488 19.9176 51.9001 19.17C51.3855 18.6645 50.7775 18.2637 50.1101 17.99C50.4995 17.0062 50.5924 15.9299 50.3774 14.894C50.1623 13.858 49.6488 12.9076 48.9001 12.16C48.3897 11.6396 47.7768 11.231 47.1001 10.96C47.4895 9.9762 47.5824 8.89994 47.3674 7.86397C47.1523 6.82799 46.6388 5.8776 45.8901 5.13C45.3867 4.62597 44.7889 4.2261 44.1309 3.95328C43.4728 3.68046 42.7675 3.54004 42.0551 3.54004C41.3427 3.54004 40.6374 3.68046 39.9793 3.95328C39.3213 4.2261 38.7235 4.62597 38.2201 5.13L34.6501 8.62L36.4701 10.44C37.9283 11.8989 38.7475 13.8773 38.7475 15.94C38.7475 18.0028 37.9283 19.9811 36.4701 21.44C35.4698 22.447 34.2097 23.1566 32.8301 23.49C32.4937 24.8658 31.7862 26.123 30.7846 27.1245C29.7831 28.1261 28.5259 28.8336 27.1501 29.17C26.8331 30.5421 26.1406 31.799 25.1501 32.8C24.15 33.8041 22.895 34.5163 21.5201 34.86C21.1833 36.1874 20.5022 37.4023 19.5455 38.3821C18.5887 39.3619 17.3904 40.0718 16.0714 40.44C14.7525 40.8083 13.3597 40.822 12.0338 40.4796C10.7079 40.1372 9.49581 39.4509 8.5201 38.49L6.6101 36.66L0.550097 42.72C0.199571 43.0739 0.00292969 43.5519 0.00292969 44.05C0.00292969 44.5481 0.199571 45.0261 0.550097 45.38L16.6201 61.44C16.9723 61.7899 17.4486 61.9863 17.9451 61.9863C18.4416 61.9863 18.9179 61.7899 19.2701 61.44L30.7701 49.94H34.0001C35.5203 49.9457 37.0264 49.649 38.4307 49.067C39.8351 48.485 41.1096 47.6294 42.1801 46.55L54.9201 33.83Z" fill="#741213"/>
<path d="M11.0802 35.8304C11.4538 36.204 11.8973 36.5004 12.3855 36.7026C12.8736 36.9048 13.3968 37.0089 13.9252 37.0089C14.4536 37.0089 14.9768 36.9048 15.4649 36.7026C15.953 36.5004 16.3966 36.204 16.7702 35.8304C17.1438 35.4568 17.4402 35.0133 17.6424 34.5251C17.8446 34.037 17.9486 33.5138 17.9486 32.9854C17.9486 32.4571 17.8446 31.9339 17.6424 31.4457C17.4402 30.9576 17.1438 30.514 16.7702 30.1404C17.5234 30.8936 18.545 31.3168 19.6102 31.3168C20.6754 31.3168 21.697 30.8936 22.4502 30.1404C23.2034 29.3872 23.6266 28.3656 23.6266 27.3004C23.6266 26.2352 23.2034 25.2136 22.4502 24.4604C23.2034 25.2136 24.225 25.6368 25.2902 25.6368C26.3554 25.6368 27.377 25.2136 28.1302 24.4604C28.8834 23.7072 29.3066 22.6856 29.3066 21.6204C29.3066 20.5552 28.8834 19.5336 28.1302 18.7804C28.5038 19.154 28.9473 19.4504 29.4355 19.6526C29.9236 19.8548 30.4468 19.9589 30.9752 19.9589C31.5036 19.9589 32.0268 19.8548 32.5149 19.6526C33.003 19.4504 33.4466 19.154 33.8202 18.7804C34.1938 18.4068 34.4902 17.9633 34.6924 17.4751C34.8946 16.987 34.9986 16.4638 34.9986 15.9354C34.9986 15.4071 34.8946 14.8839 34.6924 14.3957C34.4902 13.9076 34.1938 13.464 33.8202 13.0904L25.8202 5.09043C25.4472 4.71747 25.0045 4.42163 24.5172 4.21979C24.0299 4.01795 23.5076 3.91406 22.9802 3.91406C21.915 3.91406 20.8934 4.33721 20.1402 5.09043C19.387 5.84364 18.9638 6.86522 18.9638 7.93043C18.9638 8.99564 19.387 10.0172 20.1402 10.7704L21.1402 11.7704C20.7672 11.3975 20.3245 11.1016 19.8372 10.8998C19.3499 10.6979 18.8276 10.5941 18.3002 10.5941C17.7728 10.5941 17.2505 10.6979 16.7632 10.8998C16.2759 11.1016 15.8331 11.3975 15.4602 11.7704C14.707 12.5236 14.2838 13.5452 14.2838 14.6104C14.2838 15.6756 14.707 16.6972 15.4602 17.4504L17.4602 19.4504C17.0872 19.0775 16.6445 18.7816 16.1572 18.5798C15.6699 18.3779 15.1476 18.2741 14.6202 18.2741C13.555 18.2741 12.5334 18.6972 11.7802 19.4504C11.4072 19.8234 11.1114 20.2661 10.9096 20.7534C10.7077 21.2407 10.6038 21.763 10.6038 22.2904C10.6038 23.3556 11.027 24.3772 11.7802 25.1304L13.7802 27.1304C13.4072 26.7575 12.9645 26.4616 12.4772 26.2598C11.9899 26.0579 11.4676 25.9541 10.9402 25.9541C9.87499 25.9541 8.85341 26.3772 8.10019 27.1304C7.72724 27.5034 7.4314 27.9461 7.22956 28.4334C7.02771 28.9207 6.92383 29.443 6.92383 29.9704C6.92383 31.0356 7.34698 32.0572 8.10019 32.8104L11.0802 35.8304Z" fill="#B6B6B5"/>
<path d="M35.55 2.40995C35.829 2.1404 36.1228 1.88667 36.43 1.64995L35.33 0.549947C35.0524 0.27216 34.6943 0.0888545 34.3066 0.0260313C33.9189 -0.0367919 33.5212 0.0240569 33.17 0.199947L28.54 2.50995L32 5.99995L35.55 2.40995Z" fill="#B6B6B5"/>
</g>
<defs>
<clipPath id="clip0">
<rect width="64" height="61.99" fill="white"/>
</clipPath>
</defs>
</svg>
