<svg width="64" height="64" viewBox="0 0 64 64" fill="none" xmlns="http://www.w3.org/2000/svg">
<g clip-path="url(#clip0)">
<path d="M28.5 63.3002C31 63.7002 33.7 64.0002 36.5 64.0002C49.8 64.0002 60.5 58.6002 60.5 51.9002V44.2002C60.5 45.5002 60.1 46.8002 59.3 48.0002C56.1 52.8002 47.1 56.3002 36.5 56.3002C35.6 56.3002 34.7 56.3002 33.8 56.2002C32.7 59.0002 30.9 61.5002 28.5 63.3002Z" fill="#B6B6B5"/>
<path d="M34.8002 52.6004C35.4002 52.6004 35.9002 52.6004 36.5002 52.6004C45.7002 52.6004 53.7002 50.0004 57.7002 46.2004C58.9002 45.0004 59.8002 43.7004 60.2002 42.4004C60.4002 41.8004 60.5002 41.2004 60.5002 40.6004V32.9004C60.5002 34.2004 60.1002 35.5004 59.3002 36.7004C58.9002 37.3004 58.4002 38.0004 57.7002 38.5004C56.1002 40.0004 53.9002 41.3004 51.3002 42.3004C47.2002 43.9004 42.1002 44.9004 36.5002 44.9004C35.7002 44.9004 35.0002 44.9004 34.2002 44.8004C34.7002 46.4004 35.0002 48.2004 35.0002 49.9004C35.0002 50.9004 34.9002 51.7004 34.8002 52.6004Z" fill="#B6B6B5"/>
<path d="M57.7 27.1C56.1 28.6 53.9 29.9 51.3 30.9C49.3 31.7 47.2 32.3 44.8 32.7C42.2 33.2 39.4 33.4 36.5 33.4C33.6 33.4 30.8 33.1 28.2 32.7C25.8 32.3 23.6 31.6 21.7 30.9C19.1 29.9 16.9 28.5 15.3 27.1C14.7 26.5 14.2 25.9 13.7 25.3C12.9 24.1 12.5 22.8 12.5 21.5V29.2C12.5 29.8 12.6 30.4 12.8 31C13.1 31.9 13.5 32.7 14.2 33.5C15.4 33.2 16.7 33 18.1 33C24.2 33 29.5 36.2 32.5 41C33.8 41.1 35.2 41.2 36.6 41.2C39.5 41.2 42.3 40.9 44.9 40.5C49.1 39.7 52.7 38.4 55.4 36.7C56.3 36.1 57.1 35.5 57.8 34.9C59 33.7 59.9 32.4 60.3 31.1C60.5 30.5 60.6 29.9 60.6 29.3V21.6C60.6 22.9 60.2 24.2 59.4 25.4C58.8 25.9 58.3 26.5 57.7 27.1Z" fill="#B6B6B5"/>
<path d="M36.5 0C23.2 0 12.5 5.4 12.5 12V17.7C12.5 18.3 12.6 18.9 12.8 19.5C13.2 20.9 14.1 22.2 15.4 23.3C16.1 24 16.9 24.6 17.8 25.1C20.6 26.8 24.3 28.2 28.6 28.9C31.1 29.3 33.8 29.6 36.5 29.6C39.2 29.6 42 29.4 44.4 28.9C48.7 28.1 52.4 26.8 55.2 25.1C56.1 24.5 56.9 23.9 57.6 23.3C58.9 22.1 59.7 20.8 60.2 19.5C60.4 18.9 60.5 18.3 60.5 17.7V12C60.5 5.4 49.8 0 36.5 0ZM53.9 13C52.7 15.1 49.7 16.8 45.7 17.8C43 18.6 39.9 19 36.5 19C33.1 19 30 18.6 27.3 17.9C23.3 16.8 20.3 15.1 19.1 13.1C18.7 12.5 18.5 11.8 18.5 11.1C18.5 10.6 18.6 10.2 18.8 9.7C20.3 5.8 27.6 3 36.5 3C45.4 3 52.7 5.8 54.2 9.6C54.4 10.1 54.5 10.5 54.5 11C54.5 11.7 54.3 12.4 53.9 13Z" fill="#B6B6B5"/>
<path d="M30.9 44.6C30.3 43.1 29.3 41.7 28.2 40.5C25.7 37.7 22.1 36 18 36C17.6 36 17.3 36 16.9 36.1C15.8 36.2 14.8 36.4 13.8 36.7C13.4 36.8 12.9 37 12.5 37.2C7.5 39.3 4 44.2 4 50C4 53.6 5.4 56.9 7.6 59.3C7.3 58.5 7.1 57.7 7 56.8C6.9 55.4 7.1 54.1 7.6 52.8C8.2 51.2 9.2 49.8 10.5 48.8C11.1 48.3 11.8 47.9 12.5 47.6C12.8 47.5 13 47.4 13.3 47.3C13.6 47.2 13.9 47.1 14.3 47C14.9 46.9 15.4 46.8 16 46.8C16.1 46.8 16.1 46.8 16.1 46.7C16.1 45.9 16.1 45.2 16.1 44.4C16.1 44 16.4 43.7 16.7 43.8C16.8 43.8 17 43.9 17.1 44C17.8 44.7 18.5 45.4 19.2 46C20.4 47.1 21.6 48.3 22.7 49.4C23 49.7 23 50.1 22.7 50.4C21.8 51.3 20.9 52.1 20 53C19 54 18 54.9 17 55.9C16.8 56.1 16.6 56.1 16.4 56C16.2 55.9 16.1 55.7 16.1 55.4C16.1 55 16.1 54.6 16.1 54.2C16.1 53.8 16.1 53.4 16.1 53C16.1 52.9 16.1 52.9 16 52.9C14.9 52.9 13.8 53.1 12.7 53.5C12.2 53.7 11.8 53.8 11.3 54.1C10.3 54.6 9.5 55.3 8.9 56.3C8.7 56.6 8.5 57 8.4 57.4C8.1 58.3 7.9 59.7 8.8 60.5C11.2 62.7 14.5 64 18 64C20.4 64 22.6 63.4 24.5 62.4C27.2 61 29.3 58.7 30.6 56C31.1 54.9 31.5 53.7 31.7 52.4C31.8 51.6 31.9 50.8 31.9 50C32 48.1 31.6 46.2 30.9 44.6Z" fill="#741113"/>
</g>
<defs>
<clipPath id="clip0">
<rect width="56.5" height="64" fill="white" transform="translate(4)"/>
</clipPath>
</defs>
</svg>
