<svg width="32" height="32" viewBox="0 0 32 32" fill="none" xmlns="http://www.w3.org/2000/svg">
<g clip-path="url(#clip0)">
<path d="M31.3457 15.6264C31.2657 15.3331 31.1724 15.0531 31.0657 14.7597C30.959 14.4664 30.8657 14.1997 30.7457 13.9197L30.6657 13.7197H30.5857L29.7724 13.9997L28.9724 14.3197L28.6124 14.4664C27.6395 14.8848 26.6991 15.375 25.799 15.9331C25.3857 16.1997 24.959 16.4931 24.4657 16.7997L23.879 17.2397C23.0059 17.9283 22.194 18.6912 21.4524 19.5197C21.119 19.8797 20.799 20.2664 20.4924 20.6664C19.5228 21.9267 18.7039 23.296 18.0524 24.7464C17.8257 25.2531 17.599 25.7997 17.399 26.3597C17.1857 26.9731 16.9857 27.6131 16.799 28.2797C16.799 28.4797 16.6924 28.6664 16.6524 28.8531C16.6124 29.0397 16.519 29.3864 16.4657 29.6664V29.8397L16.3457 30.4797H17.5057C17.5057 30.3197 17.6924 30.1064 17.7857 29.9064L17.9057 29.6664L18.0924 29.3197L18.3324 28.8531C18.9866 27.6959 19.7597 26.61 20.639 25.6131C21.7622 24.3517 23.0705 23.2682 24.519 22.3997L25.079 22.0664L25.2124 21.9997L26.0924 21.5597L26.5324 21.3597L26.8924 21.2264C27.5668 20.958 28.257 20.7309 28.959 20.5464L29.759 20.3597C30.0257 20.3597 30.3057 20.2531 30.5724 20.1997C30.839 20.1464 31.5057 20.0531 31.9857 19.9997C31.9728 18.5196 31.7575 17.0482 31.3457 15.6264Z" fill="#FDB813"/>
<path d="M17.8926 2V10.3067C19.1394 10.6272 20.2531 11.3337 21.0744 12.325C21.8958 13.3164 22.3828 14.542 22.4659 15.8267L22.6792 15.6667C23.3286 15.1446 24.0099 14.6637 24.7192 14.2267C25.8255 13.5356 26.9899 12.9422 28.1992 12.4533L28.4926 12.3333C28.0881 9.69325 26.8348 7.25671 24.9223 5.39231C23.0098 3.52791 20.5421 2.33709 17.8926 2Z" fill="white"/>
<path d="M16.3602 22.3733H8.17349L11.6402 20.16C10.9808 19.3649 10.533 18.4162 10.3382 17.4018C10.1433 16.3875 10.2078 15.3404 10.5257 14.3576C10.8435 13.3748 11.4044 12.4882 12.1563 11.7801C12.9082 11.0719 13.8268 10.5651 14.8268 10.3067V2C11.8753 2.39116 9.16633 3.84135 7.20416 6.08068C5.24198 8.32001 4.16021 11.196 4.16016 14.1733V23.72C4.16689 24.3054 4.29912 24.8826 4.54793 25.4125C4.79673 25.9425 5.15633 26.4129 5.60243 26.792C6.04854 27.1711 6.57079 27.4502 7.13393 27.6103C7.69706 27.7703 8.28799 27.8078 8.86682 27.72L12.3335 27.1867V30.5333H14.3468V30.1733L14.4668 29.56V29.4267C14.4606 29.3824 14.4606 29.3376 14.4668 29.2933C14.4668 29 14.5868 28.7067 14.6668 28.4267C14.6945 28.2738 14.7301 28.1225 14.7735 27.9733V27.8C14.8668 27.4533 14.9735 27.1067 15.0802 26.7733L15.2002 26.3867C15.6564 24.9804 16.2411 23.6191 16.9468 22.32C16.7523 22.3476 16.5565 22.3654 16.3602 22.3733Z" fill="white"/>
<path d="M0.987339 22.3466H3.06734V16.2666L0.160672 20.7599C0.0612604 20.9125 0.00420466 21.0887 -0.00464562 21.2706C-0.0134959 21.4524 0.0261777 21.6334 0.110308 21.7949C0.194438 21.9563 0.319997 22.0925 0.474114 22.1895C0.62823 22.2864 0.805358 22.3407 0.987339 22.3466Z" fill="white"/>
<path d="M17.8944 12.4402C17.4062 12.2471 16.886 12.1476 16.3611 12.1468C15.6446 12.1372 14.9387 12.3202 14.3171 12.6767C13.6955 13.0333 13.1812 13.5502 12.8277 14.1735C12.4552 14.8078 12.2616 15.5313 12.2677 16.2668C12.2666 16.8884 12.4067 17.5021 12.6772 18.0617C12.9478 18.6212 13.3419 19.1121 13.8297 19.4972C14.3176 19.8824 14.8865 20.1517 15.4935 20.2851C16.1006 20.4184 16.7301 20.4121 17.3344 20.2668C17.8593 20.1348 18.3526 19.8994 18.7853 19.5743C19.218 19.2491 19.5815 18.8409 19.8544 18.3735C20.2427 17.7391 20.4502 17.0106 20.4544 16.2668C20.4625 15.4454 20.2225 14.6407 19.7657 13.9579C19.3089 13.2752 18.6567 12.7462 17.8944 12.4402Z" fill="white"/>
</g>
<defs>
<clipPath id="clip0">
<rect width="32" height="28.5333" fill="white" transform="translate(0 2)"/>
</clipPath>
</defs>
</svg>
