<svg width="64" height="64" viewBox="0 0 64 64" fill="none" xmlns="http://www.w3.org/2000/svg">
<path d="M18.4008 24C22.1008 20.9 26.8008 19 32.0008 19C37.2008 19 41.9008 20.9 45.6008 24H47.0008C48.1008 24 49.2008 24.1 50.2008 24.3C46.1008 19.5 40.2008 16.4 33.5008 16V9.7C35.5008 9.1 37.0008 7.2 37.0008 5C37.0008 2.2 34.8008 0 32.0008 0C29.2008 0 27.0008 2.2 27.0008 5C27.0008 7.2 28.5008 9.1 30.5008 9.7V16C23.8008 16.4 17.9008 19.5 13.8008 24.3C14.8008 24.1 15.9008 24 17.0008 24H18.4008ZM30.0008 5C30.0008 3.9 30.9008 3 32.0008 3C33.1008 3 34.0008 3.9 34.0008 5C34.0008 6.1 33.1008 7 32.0008 7C30.9008 7 30.0008 6.1 30.0008 5Z" fill="#B6B6B5"/>
<path d="M45.6008 56.0001C41.9008 59.1001 37.2008 61.0001 32.0008 61.0001C26.8008 61.0001 22.1008 59.1001 18.4008 56.0001H17.0008C15.9008 56.0001 14.8008 55.9001 13.8008 55.7001C18.2008 60.8001 24.7008 64.0001 32.0008 64.0001C39.3008 64.0001 45.8008 60.8001 50.2008 55.6001C49.2008 55.8001 48.1008 55.9001 47.0008 55.9001H45.6008V56.0001Z" fill="#B6B6B5"/>
<path d="M53.1 28.5C51.7 27.8 50.2 27.3 48.6 27.1C48.1 27 47.5 27 47 27H17C16.5 27 15.9 27 15.4 27.1C13.8 27.3 12.2 27.8 10.9 28.5C6.8 30.7 4 35 4 40C4 45 6.8 49.3 10.9 51.5C12.3 52.2 13.8 52.7 15.4 52.9C15.9 53 16.4 53 17 53H47C47.5 53 48.1 53 48.6 52.9C50.2 52.7 51.8 52.2 53.1 51.5C57.2 49.2 60 44.9 60 40C60 35.1 57.2 30.7 53.1 28.5ZM24 43C24 44.1 23.1 45 22 45C20.9 45 20 44.1 20 43V37C20 35.9 20.9 35 22 35C23.1 35 24 35.9 24 37V43ZM44 43C44 44.1 43.1 45 42 45C40.9 45 40 44.1 40 43V37C40 35.9 40.9 35 42 35C43.1 35 44 35.9 44 37V43Z" fill="#741113"/>
</svg>
