<svg width="32" height="32" viewBox="0 0 32 32" fill="none" xmlns="http://www.w3.org/2000/svg">
<g clip-path="url(#clip0)">
<path d="M4.60047 12.6569L5.82047 11.4407L7.02047 12.6819L11.6805 17.5164L11.9355 17.7817L14.1755 15.4595C18.8105 10.645 24.6755 4.55427 24.9805 4.23897L26.1805 3.00282L27.4005 4.21896L30.5205 7.33187L32.0205 5.79543L26.2055 0L11.9355 14.8139C10.2755 13.0873 6.19047 8.8533 5.80047 8.44292L-0.0195312 14.2333C0.0804688 14.3334 0.635469 14.904 1.48047 15.7698L4.60047 12.6569Z" fill="#FDB813"/>
<path d="M26.2055 5.41016C25.8105 5.81554 16.3105 15.6848 11.9355 20.219L5.80047 13.8531L2.66047 17.016L-0.0195312 19.6385L11.9105 32.0301L11.9605 31.7599C12.0105 31.4796 12.0655 31.1843 12.1355 30.864C12.2055 30.5437 12.2605 30.2885 12.3355 29.9682C12.8517 27.8175 13.6415 25.7419 14.6855 23.7924C16.1213 21.1068 18.0939 18.7457 20.4805 16.8559C21.1499 16.3277 21.8476 15.8365 22.5705 15.3845L22.9955 15.1343C24.0005 14.5341 25.0483 14.0089 26.1305 13.5628C26.4355 13.4377 26.7355 13.3226 27.0405 13.2075C27.3455 13.0924 27.6705 13.0123 27.9805 12.8972H28.0355L29.4805 12.4067L29.9005 13.3676L31.9805 11.1956L29.3255 8.5481L26.2055 5.41016Z" fill="#FDB813"/>
<path d="M29.2709 16.4755C29.1809 16.1652 29.0809 15.8599 28.9759 15.5597C28.8709 15.2594 28.7609 14.9791 28.6359 14.6888L28.5559 14.4836L28.4809 14.5137C28.2159 14.5988 27.9309 14.6938 27.6359 14.8039C27.3409 14.914 27.0809 15.0091 26.7859 15.1292C25.6393 15.6006 24.5339 16.1664 23.4809 16.8208C22.8102 17.2368 22.1641 17.6914 21.5459 18.1821C17.8796 21.1173 15.2794 25.1778 14.1459 29.7379C14.0959 29.9381 14.0409 30.1383 13.9909 30.3385C13.9209 30.6188 13.8559 30.899 13.7959 31.1843C13.7959 31.2444 13.7959 31.3044 13.7609 31.3595C13.7159 31.5797 13.6709 31.7749 13.6309 32.0051H14.8759C14.9809 31.7749 15.1409 31.4195 15.2609 31.1843C15.3159 31.0692 15.3859 30.9491 15.4509 30.829C15.5159 30.7089 15.6159 30.5037 15.7109 30.3285C17.3282 27.3453 19.7685 24.8905 22.7409 23.2569L22.8809 23.1768C23.3209 22.9416 23.7709 22.7214 24.2509 22.5162C25.0729 22.1728 25.9184 21.8885 26.7809 21.6654C27.0609 21.5903 27.3409 21.5252 27.6309 21.4602C27.9209 21.3951 28.1909 21.3501 28.4759 21.3C28.9492 21.2133 29.4392 21.1432 29.9459 21.0898C29.9372 19.5277 29.71 17.9745 29.2709 16.4755Z" fill="#74060E"/>
</g>
<defs>
<clipPath id="clip0">
<rect width="32" height="32" fill="white"/>
</clipPath>
</defs>
</svg>
