<svg width="64" height="63" viewBox="0 0 64 63" fill="none" xmlns="http://www.w3.org/2000/svg">
<g clip-path="url(#clip0)">
<path d="M25.55 12.5303L40 26.9203H43.82L27.5 10.5803L35 3.0803C35.0988 2.97869 35.2169 2.89793 35.3475 2.84278C35.478 2.78763 35.6183 2.75922 35.76 2.75922C35.9017 2.75922 36.042 2.78763 36.1725 2.84278C36.3031 2.89793 36.4212 2.97869 36.52 3.0803L42.23 8.7903C42.3685 8.92896 42.4631 9.10525 42.5022 9.29725C42.5413 9.48926 42.5232 9.68852 42.45 9.8703C42.0083 10.8895 41.8808 12.0173 42.0839 13.1094C42.287 14.2014 42.8114 15.208 43.59 16.0003C44.6433 17.03 46.057 17.6077 47.53 17.6103C48.2947 17.6108 49.0511 17.4507 49.75 17.1403C49.8702 17.0891 49.9993 17.0619 50.13 17.0603C50.3938 17.0641 50.6454 17.1719 50.83 17.3603L56.54 23.0703C56.6404 23.1698 56.7201 23.2882 56.7744 23.4186C56.8288 23.549 56.8568 23.689 56.8568 23.8303C56.8568 23.9716 56.8288 24.1115 56.7744 24.242C56.7201 24.3724 56.6404 24.4908 56.54 24.5903L54 26.9203H58.2L58.82 26.2003C59.3905 25.462 59.6727 24.5412 59.6138 23.61C59.5549 22.6788 59.159 21.8009 58.5 21.1403L52.79 15.4303C52.08 14.7257 51.1203 14.3303 50.12 14.3303C49.6063 14.3303 49.0984 14.4394 48.63 14.6503C48.1173 14.8718 47.5501 14.935 47.0012 14.8316C46.4524 14.7282 45.947 14.4631 45.55 14.0703C45.1642 13.6708 44.9059 13.1656 44.808 12.619C44.71 12.0723 44.7769 11.5089 45 11.0003C45.2999 10.3082 45.3858 9.54223 45.2468 8.80089C45.1078 8.05955 44.7502 7.37675 44.22 6.8403L38.48 1.1203C37.7586 0.402775 36.7825 0 35.765 0C34.7475 0 33.7714 0.402775 33.05 1.1203L7 26.9203H11L25.55 12.5303Z" fill="#B6B6B5"/>
<path d="M61.12 42.4202C61.8214 42.1419 62.4232 41.6596 62.8475 41.0357C63.2718 40.4117 63.4991 39.6747 63.5 38.9202V30.8502C63.5013 30.345 63.403 29.8446 63.2106 29.3776C63.0182 28.9105 62.7355 28.486 62.3788 28.1284C62.0221 27.7708 61.5984 27.487 61.1318 27.2934C60.6653 27.0998 60.1651 27.0002 59.66 27.0002L58.2 26.9102H7.00001L4.34001 27.0002C3.83489 27.0002 3.33474 27.0998 2.8682 27.2934C2.40165 27.487 1.97789 27.7708 1.62118 28.1284C1.26447 28.486 0.98183 28.9105 0.78944 29.3776C0.597051 29.8446 0.498698 30.345 0.500013 30.8502V37.6502C1.31874 36.6398 2.24784 35.7241 3.27001 34.9202V30.8502C3.26869 30.7088 3.29539 30.5686 3.34857 30.4376C3.40175 30.3066 3.48036 30.1875 3.57985 30.0871C3.67934 29.9867 3.79774 29.9069 3.92822 29.8526C4.05869 29.7982 4.19865 29.7702 4.34001 29.7702H47.56V60.2302H26.56C25.5937 61.2865 24.4985 62.2171 23.3 63.0002H59.66C60.1643 63.0002 60.6636 62.9008 61.1295 62.7079C61.5954 62.5149 62.0187 62.232 62.3753 61.8754C62.7319 61.5189 63.0147 61.0956 63.2077 60.6297C63.4007 60.1638 63.5 59.6644 63.5 59.1602V51.0802C63.4985 50.327 63.2708 49.5916 62.8464 48.9693C62.4221 48.3471 61.8206 47.8666 61.12 47.5902C60.5977 47.389 60.1485 47.0344 59.8317 46.5729C59.5149 46.1115 59.3453 45.5649 59.3453 45.0052C59.3453 44.4454 59.5149 43.8988 59.8317 43.4374C60.1485 42.9759 60.5977 42.6213 61.12 42.4202ZM60.12 50.1702C60.2992 50.246 60.4524 50.3726 60.5607 50.5342C60.6691 50.6958 60.7279 50.8856 60.73 51.0802V59.1602C60.73 59.4439 60.6173 59.7161 60.4166 59.9168C60.216 60.1174 59.9438 60.2302 59.66 60.2302H50.32V29.7702H59.66C59.8014 29.7702 59.9413 29.7982 60.0718 29.8526C60.2023 29.9069 60.3207 29.9867 60.4202 30.0871C60.5197 30.1875 60.5983 30.3066 60.6515 30.4376C60.7046 30.5686 60.7313 30.7088 60.73 30.8502V38.9202C60.7299 39.1164 60.6719 39.3084 60.5635 39.472C60.455 39.6355 60.3008 39.7636 60.12 39.8402C59.0785 40.2442 58.1835 40.9536 57.5524 41.8753C56.9213 42.7971 56.5836 43.8881 56.5836 45.0052C56.5836 46.1223 56.9213 47.2132 57.5524 48.135C58.1835 49.0567 59.0785 49.7661 60.12 50.1702Z" fill="#B6B6B5"/>
<path d="M31.05 50.8203C30.9315 51.7586 30.7342 52.6852 30.46 53.5903H40.91V50.8203H31.05Z" fill="#B6B6B5"/>
<path d="M30.4297 43.29C30.697 44.1958 30.8876 45.1224 30.9997 46.06H40.8697V43.29H30.4297Z" fill="#B6B6B5"/>
<path d="M25.6201 35.7607C26.5296 36.5947 27.3475 37.5233 28.0601 38.5307H40.9101V35.7607H25.6201Z" fill="#B6B6B5"/>
<path d="M14.52 34.0001C11.7377 33.9955 9.01279 34.791 6.66993 36.2917C4.32706 37.7925 2.46506 39.9351 1.30581 42.4644C0.146551 44.9937 -0.261076 47.8029 0.131501 50.5574C0.524078 53.3119 1.7003 55.8954 3.52002 58.0001C3.62773 57.6933 3.79038 57.4086 4.00002 57.1601L7.90002 53.2701C7.94218 53.2157 7.96507 53.1489 7.96507 53.0801C7.96507 53.0113 7.94218 52.9444 7.90002 52.8901C7.02842 51.4492 6.66784 49.7565 6.8765 48.0855C7.08515 46.4144 7.85086 44.8625 9.05002 43.6801C10.4809 42.24 12.4252 41.4272 14.4553 41.4207C16.4853 41.4141 18.4349 42.2142 19.875 43.6451C21.3151 45.0759 22.1279 47.0203 22.1344 49.0503C22.141 51.0804 21.3409 53.03 19.91 54.4701C18.7267 55.6677 17.1749 56.4323 15.5043 56.6409C13.8337 56.8495 12.1415 56.4899 10.7 55.6201C10.6387 55.5838 10.5671 55.5691 10.4964 55.5781C10.4258 55.5872 10.3602 55.6195 10.31 55.6701L6.43002 59.5501C6.23296 59.7466 6.00702 59.9119 5.76002 60.0401C7.59296 61.4404 9.73335 62.3836 12.0037 62.7914C14.274 63.1992 16.6088 63.0599 18.8145 62.385C21.0203 61.7101 23.0333 60.519 24.6867 58.9106C26.34 57.3022 27.5861 55.3227 28.3216 53.1365C29.0571 50.9502 29.2607 48.6201 28.9157 46.3394C28.5706 44.0587 27.6868 41.8931 26.3375 40.0223C24.9882 38.1514 23.2123 36.6292 21.1571 35.5819C19.1019 34.5346 16.8267 33.9923 14.52 34.0001Z" fill="#741213"/>
<path d="M18.5004 53.0605C19.2857 52.2704 19.8196 51.2654 20.0344 50.1722C20.2493 49.0791 20.1357 47.9468 19.7078 46.9182C19.2799 45.8896 18.557 45.0107 17.6303 44.3925C16.7035 43.7743 15.6144 43.4443 14.5004 43.4443C13.3863 43.4443 12.2972 43.7743 11.3704 44.3925C10.4437 45.0107 9.72078 45.8896 9.29291 46.9182C8.86504 47.9468 8.75138 49.0791 8.96627 50.1722C9.18116 51.2654 9.71496 52.2704 10.5004 53.0605C11.0245 53.5878 11.6478 54.0062 12.3342 54.2918C13.0207 54.5773 13.7569 54.7243 14.5004 54.7243C15.2439 54.7243 15.98 54.5773 16.6665 54.2918C17.353 54.0062 17.9762 53.5878 18.5004 53.0605ZM10.2904 47.5305C10.8104 46.3253 11.7835 45.373 12.9996 44.8791C14.2157 44.3852 15.5772 44.3893 16.7904 44.8905C16.9748 44.9721 17.121 45.1211 17.1991 45.307C17.2772 45.4929 17.2812 45.7017 17.2104 45.8905C17.1269 46.0733 16.9777 46.218 16.7924 46.2958C16.6071 46.3736 16.3993 46.3789 16.2104 46.3105C15.384 45.9641 14.4541 45.9591 13.6239 46.2963C12.7938 46.6336 12.131 47.2859 11.7804 48.1105C11.72 48.2518 11.6198 48.3726 11.4919 48.4578C11.364 48.5431 11.2141 48.5892 11.0604 48.5905C10.9541 48.591 10.8488 48.5706 10.7504 48.5305C10.5587 48.4564 10.4034 48.3105 10.3175 48.1238C10.2316 47.9371 10.2219 47.7242 10.2904 47.5305Z" fill="#741213"/>
</g>
<defs>
<clipPath id="clip0">
<rect width="63.5" height="63" fill="white"/>
</clipPath>
</defs>
</svg>
