<svg width="64" height="64" viewBox="0 0 64 64" fill="none" xmlns="http://www.w3.org/2000/svg">
<g clip-path="url(#clip0)">
<path d="M9.20045 25.3137L11.6405 22.8815L14.0405 25.3638L23.3605 35.0328L23.8705 35.5633L28.3505 30.919C37.6205 21.29 49.3505 9.10854 49.9605 8.47795L52.3605 6.00563L54.8005 8.43791L61.0405 14.6637L64.0405 11.5909L52.4105 0L23.8705 29.6278C20.5505 26.1745 12.3805 17.7066 11.6005 16.8858L-0.0395508 28.4667C0.160449 28.6669 1.27045 29.8079 2.96045 31.5396L9.20045 25.3137Z" fill="#FDB813"/>
<path d="M52.4104 10.8203C51.6204 11.6311 32.6204 31.3696 23.8704 40.4381L11.6004 27.7061L5.32045 34.0321L-0.0395508 39.277L23.8204 64.0602L23.9204 63.5197C24.0204 62.9592 24.1304 62.3687 24.2704 61.7281C24.4104 61.0875 24.5204 60.577 24.6704 59.9364C25.703 55.635 27.2826 51.4839 29.3704 47.5848C32.2421 42.2136 36.1872 37.4913 40.9604 33.7118C42.2992 32.6555 43.6947 31.6731 45.1404 30.769L45.9904 30.2686C48.0005 29.0682 50.0962 28.0177 52.2604 27.1256C52.8704 26.8754 53.4704 26.6452 54.0804 26.4149C54.6904 26.1847 55.3405 26.0246 55.9604 25.7944H56.0704L58.9604 24.8134L59.8004 26.7352L63.9604 22.3912L58.6504 17.0962L52.4104 10.8203Z" fill="#FDB813"/>
<path d="M58.5401 32.9515C58.3601 32.3309 58.1601 31.7204 57.9501 31.1198C57.7401 30.5192 57.5201 29.9587 57.2701 29.3782L57.1101 28.9678L56.9601 29.0278C56.4301 29.198 55.8601 29.3882 55.2701 29.6084C54.6801 29.8286 54.1601 30.0188 53.5701 30.259C51.2771 31.2017 49.0661 32.3333 46.9601 33.6422C45.6187 34.4742 44.3266 35.3832 43.0901 36.3647C35.7576 42.2351 30.5572 50.3561 28.2901 59.4764C28.1901 59.8768 28.0801 60.2771 27.9801 60.6775C27.8401 61.238 27.7101 61.7986 27.5901 62.3691C27.5901 62.4892 27.5901 62.6093 27.5201 62.7194C27.4301 63.1599 27.3401 63.5502 27.2601 64.0107H29.7501C29.9601 63.5502 30.2801 62.8396 30.5201 62.3691C30.6301 62.1389 30.7701 61.8987 30.9001 61.6584C31.0301 61.4182 31.2301 61.0078 31.4201 60.6575C34.6548 54.691 39.5354 49.7815 45.4801 46.5142L45.7601 46.3541C46.6401 45.8836 47.5401 45.4432 48.5001 45.0328C50.1443 44.3461 51.8352 43.7775 53.5601 43.3312C54.1201 43.1811 54.6801 43.051 55.2601 42.9209C55.8401 42.7907 56.3801 42.7007 56.9501 42.6006C57.8968 42.4271 58.8768 42.2869 59.8901 42.1802C59.8729 39.0559 59.4185 35.9495 58.5401 32.9515Z" fill="#74060E"/>
</g>
<defs>
<clipPath id="clip0">
<rect width="64" height="64" fill="white"/>
</clipPath>
</defs>
</svg>
