<svg width="64" height="64" viewBox="0 0 64 64" fill="none" xmlns="http://www.w3.org/2000/svg">
<path d="M42.67 48.4298C42.67 48.6084 42.6348 48.7852 42.5665 48.9502C42.4981 49.1152 42.398 49.2651 42.2717 49.3914C42.1454 49.5177 41.9955 49.6179 41.8305 49.6862C41.6654 49.7546 41.4886 49.7898 41.31 49.7898C41.1314 49.7898 40.9546 49.7546 40.7896 49.6862C40.6245 49.6179 40.4746 49.5177 40.3483 49.3914C40.222 49.2651 40.1219 49.1152 40.0535 48.9502C39.9852 48.7852 39.95 48.6084 39.95 48.4298V46.7598H23.61V48.4298C23.61 48.7905 23.4667 49.1364 23.2117 49.3914C22.9566 49.6465 22.6107 49.7898 22.25 49.7898C21.8893 49.7898 21.5434 49.6465 21.2883 49.3914C21.0333 49.1364 20.89 48.7905 20.89 48.4298V46.7598H10V58.9998C10 60.3258 10.5268 61.5976 11.4645 62.5353C12.4021 63.473 13.6739 63.9998 15 63.9998H48.57C49.8961 63.9998 51.1679 63.473 52.1055 62.5353C53.0432 61.5976 53.57 60.3258 53.57 58.9998V46.7598H42.67V48.4298Z" fill="#B6B6B5"/>
<path d="M48.57 33.1502H39V31.3302C38.9974 30.3683 38.6141 29.4465 37.9339 28.7663C37.2537 28.0861 36.3319 27.7028 35.37 27.7002H28.15C27.1881 27.7028 26.2663 28.0861 25.5861 28.7663C24.9059 29.4465 24.5226 30.3683 24.52 31.3302V33.1502H15C13.6739 33.1502 12.4021 33.677 11.4645 34.6147C10.5268 35.5523 10 36.8241 10 38.1502L10 44.0002H20.89V41.7702C20.89 41.4095 21.0333 41.0636 21.2883 40.8085C21.5434 40.5535 21.8893 40.4102 22.25 40.4102C22.6107 40.4102 22.9566 40.5535 23.2117 40.8085C23.4667 41.0636 23.61 41.4095 23.61 41.7702V44.0002H40V41.7702C40 41.5916 40.0352 41.4147 40.1035 41.2497C40.1719 41.0847 40.272 40.9348 40.3983 40.8085C40.5246 40.6822 40.6745 40.5821 40.8396 40.5137C41.0046 40.4454 41.1814 40.4102 41.36 40.4102C41.5386 40.4102 41.7154 40.4454 41.8804 40.5137C42.0455 40.5821 42.1954 40.6822 42.3217 40.8085C42.448 40.9348 42.5481 41.0847 42.6165 41.2497C42.6848 41.4147 42.72 41.5916 42.72 41.7702V44.0002H53.56V38.1002C53.5468 36.7845 53.0156 35.5271 52.0815 34.6005C51.1474 33.6738 49.8857 33.1528 48.57 33.1502ZM28.15 31.3302H35.41V33.1502H28.15V31.3302Z" fill="#B6B6B5"/>
<path d="M31.7802 0L34.2102 4.92L39.6402 5.71L35.7102 9.55L36.6402 14.96L31.7802 12.4L26.9202 14.96L27.8502 9.55L23.9102 5.71L29.3502 4.92L31.7802 0Z" fill="#741213"/>
<path d="M45.2896 12.6699L47.0396 16.2099L50.9496 16.7799L48.1196 19.5299L48.7896 23.4199L45.2896 21.5799L41.7996 23.4199L42.4697 19.5299L39.6396 16.7799L43.5496 16.2099L45.2896 12.6699Z" fill="#741213"/>
<path d="M17.7301 12.6699L19.4701 16.2099L23.3801 16.7799L20.5501 19.5299L21.2201 23.4199L17.7301 21.5799L14.2301 23.4199L14.9001 19.5299L12.0801 16.7799L15.9801 16.2099L17.7301 12.6699Z" fill="#741213"/>
</svg>
