<svg width="105" height="65" viewBox="0 0 105 65" fill="none" xmlns="http://www.w3.org/2000/svg">
<path d="M75.8048 23.8183C76.0473 36.0608 65.623 47.0911 52.2897 46.8486C39.6836 46.485 29.5018 36.3032 29.7442 23.2123C29.9867 10.485 40.6533 0.181982 53.7442 0.66683C65.9867 1.03047 76.0473 11.4547 75.8048 23.8183ZM62.1079 4.78804C61.2594 5.03047 60.6533 5.03047 59.8048 5.27289C57.3806 5.75774 55.0776 6.60622 52.8957 8.06077C50.5927 9.51531 48.8957 11.4547 48.2897 14.1214C47.4412 16.788 47.8048 19.3335 48.5321 22.0002C48.7745 23.0911 49.3806 24.182 49.8654 25.2729C45.7442 21.6365 41.1382 19.9396 35.6836 20.4244C36.1685 20.6668 36.6533 20.6668 37.017 20.9093C39.8048 21.879 42.4715 23.2123 44.8957 25.0305C46.1079 25.8789 47.32 26.9699 47.926 28.4244C48.1685 29.1517 48.0473 29.7577 47.32 30.1214C46.7139 30.3638 46.1079 30.485 45.3806 30.6062C44.6533 30.7274 44.0473 30.6062 43.32 30.6062C43.32 30.7274 43.4412 30.7274 43.4412 30.8486C43.6836 30.9699 43.6836 31.0911 43.926 31.0911C46.2291 32.3032 48.6533 33.2729 51.1988 33.8789C53.017 34.3638 54.8351 34.7274 56.7745 34.485C58.4715 34.2426 59.8048 32.788 59.926 30.9699C60.0473 28.9093 59.32 26.9699 58.5927 25.1517C57.623 22.3638 56.2897 19.5759 55.6836 16.6668C55.4412 15.0911 55.1988 13.5153 55.5624 11.9396C56.4109 8.30319 58.9564 6.24259 62.3503 5.27289C63.1988 5.15168 63.926 5.03047 64.7745 4.66683C63.8048 4.30319 63.0776 4.66683 62.1079 4.78804C62.1079 4.66683 62.1079 4.78804 62.1079 4.78804Z" fill="#E31C23"/>
<path d="M11.3207 60.1831C11.6844 58.8497 12.1692 57.5164 12.6541 56.0618C13.5026 53.7588 14.3511 51.4558 15.0783 49.1528C15.3207 48.5467 15.3207 47.8194 15.1995 47.2134C15.1995 46.8497 15.3207 46.7285 15.6844 46.7285C16.5329 46.7285 17.5026 46.7285 18.3511 46.7285C18.5935 46.7285 18.8359 46.7285 18.5935 47.0922C17.1389 49.88 16.2904 52.9103 15.3207 55.9406C14.5935 58.1225 13.745 60.1831 13.0177 62.3649C12.8965 62.8497 12.8965 63.4558 12.5329 63.6982C12.1692 63.9406 11.5632 63.8194 11.0783 63.8194C9.62378 63.8194 8.16923 63.8194 6.71469 63.8194C6.47226 63.8194 6.22984 63.6982 6.10863 63.4558C4.77529 58.7285 3.07832 54.0012 1.62378 49.3952C1.38135 48.6679 1.13893 47.9406 0.775293 47.2134C0.532869 46.8497 0.654081 46.7285 1.01772 46.8497C2.95711 46.8497 5.13893 46.8497 7.07832 46.8497C7.32075 46.8497 7.56317 46.8497 7.44196 47.2134C7.19954 48.4255 7.68438 49.5164 7.92681 50.6073C8.77529 53.5164 9.74499 56.3043 10.5935 59.0921C10.9571 59.3346 10.9571 59.8194 11.3207 60.1831Z" fill="#E21D26"/>
<path d="M62.4711 59.2116C62.8347 60.0601 63.1984 60.6661 63.562 61.5146C63.8044 62.2419 64.2893 62.8479 64.6529 63.5752C64.8953 63.8176 64.7741 63.9389 64.4105 63.9389C63.0772 63.9389 61.6226 63.9389 60.2893 63.9389C60.0469 63.9389 59.9256 63.6964 59.8044 63.5752C59.3196 62.2419 58.8347 61.0298 58.3499 59.8176C58.2287 59.5752 58.1075 59.2116 57.5014 59.2116C56.6529 59.2116 56.6529 59.2116 56.6529 60.0601C56.6529 60.7873 56.6529 61.5146 56.6529 62.2419C56.6529 62.7267 56.6529 63.2116 56.8953 63.6964C57.1378 63.9389 57.0166 64.0601 56.6529 64.0601C55.1984 64.0601 53.7438 64.0601 52.2893 64.0601C52.0469 64.0601 51.9256 63.9389 52.0469 63.6964C52.2893 63.3328 52.2893 62.8479 52.2893 62.2419C52.2893 59.6964 52.2893 57.0298 52.2893 54.4843C52.2893 53.8783 52.2893 53.3934 52.0469 52.9086C51.9256 52.6661 51.9256 52.5449 52.2893 52.5449C55.4408 52.6661 58.5923 52.4237 61.7438 52.6661C63.1984 52.7873 64.0469 53.6358 64.0469 55.0904C64.0469 55.8176 64.0469 56.5449 64.0469 57.2722C64.1681 58.7267 63.8044 58.9692 62.4711 59.2116ZM58.1075 57.151C58.4711 57.151 58.8347 57.151 59.1984 57.151C59.562 57.151 59.8044 56.9086 59.8044 56.5449C59.8044 56.0601 59.8044 55.6964 59.8044 55.2116C59.8044 54.7267 59.562 54.4843 59.0772 54.4843C58.7135 54.4843 58.2287 54.4843 57.9862 54.4843C56.6529 54.4843 56.6529 54.4843 56.6529 55.8176C56.7741 57.151 56.7741 57.151 58.1075 57.151Z" fill="#970731"/>
<path d="M71.5625 64.0611C70.4716 64.0611 69.3807 64.0611 68.2898 64.0611C66.4716 64.0611 65.5019 63.0914 65.3807 61.2733C65.2595 59.3339 65.2595 57.3945 65.3807 55.5763C65.5019 53.6369 66.2292 52.6672 68.2898 52.546C70.4716 52.4248 72.6534 52.4248 74.8352 52.546C76.1686 52.546 76.8958 53.2733 77.2595 54.6066C77.3807 55.0914 77.5019 55.5763 77.5019 56.0611C77.5019 57.8793 77.6231 59.5763 77.5019 61.3945C77.5019 63.0914 76.2898 64.0611 74.5928 64.0611C73.5019 64.0611 72.5322 64.0611 71.5625 64.0611ZM73.2595 55.2127C73.0171 54.9702 73.0171 54.6066 72.5322 54.6066C71.6837 54.4854 71.0777 54.4854 70.2292 54.6066C69.8655 54.7278 69.5019 54.849 69.5019 55.3339C69.5019 57.2733 69.5019 59.3339 69.5019 61.2733C69.5019 61.7581 69.7443 62.1217 70.3504 62.1217C70.5928 62.1217 70.9565 62.243 71.1989 62.243C71.9261 62.1217 72.7746 62.4854 73.1383 61.3945C73.3807 61.2733 73.2595 61.1521 73.2595 61.0308C73.2595 59.2127 73.2595 57.5157 73.2595 55.6975C73.3807 55.4551 73.3807 55.3339 73.2595 55.2127Z" fill="#97052F"/>
<path d="M45.6236 52.5449C46.8357 52.5449 48.0478 52.5449 49.2599 52.5449C49.7448 52.5449 50.1084 52.7873 50.1084 53.2722C50.1084 53.5146 50.2296 53.5146 50.2296 53.757C50.2296 53.9995 50.4721 54.4843 50.2296 54.7267C49.9872 54.9692 49.6236 54.6055 49.3812 54.6055C47.563 54.6055 45.866 54.6055 44.169 54.6055C43.6842 54.6055 43.4418 54.9692 43.4418 55.454C43.4418 57.3934 43.4418 59.3328 43.4418 61.2722C43.4418 61.8783 43.6842 62.1207 44.2902 62.1207C44.7751 62.1207 45.1387 62.1207 45.6236 62.1207C46.1084 62.1207 46.3509 61.8783 46.4721 61.3934C46.4721 60.6661 46.4721 60.0601 46.4721 59.454C46.4721 59.2116 46.3509 59.0904 46.1084 59.2116C45.6236 59.2116 45.0175 59.0904 44.5327 59.3328C44.2902 59.454 44.169 59.454 44.169 59.0904C44.169 58.6055 44.169 58.1207 44.169 57.757C44.169 57.5146 44.2902 57.5146 44.5327 57.5146C46.5933 57.5146 48.6539 57.5146 50.7145 57.5146C50.9569 57.5146 51.0781 57.6358 50.9569 57.757C50.7145 58.4843 50.7145 59.0904 50.7145 59.8176C50.7145 60.6661 50.7145 61.757 50.7145 62.6055C50.7145 63.0904 50.7145 63.5752 50.9569 63.9389C51.0781 64.1813 51.1993 64.1813 50.8357 64.1813C49.9872 64.1813 49.0175 64.3025 48.169 64.1813C47.9266 64.0601 47.4418 64.1813 47.3205 63.5752C47.3205 63.3328 47.0781 63.454 47.0781 63.5752C46.8357 64.0601 46.2296 64.0601 45.7448 64.1813C44.169 64.1813 42.7145 64.3025 41.1387 64.0601C40.0478 63.9389 39.4418 63.3328 39.1993 62.2419C39.1993 61.9995 39.0781 61.6358 39.0781 61.3934C39.0781 59.454 39.0781 57.3934 39.0781 55.454C39.0781 53.5146 39.9266 52.6661 41.866 52.6661C42.4721 52.6661 43.1993 52.6661 43.8054 52.6661C44.4115 52.5449 45.0175 52.5449 45.6236 52.5449Z" fill="#970731"/>
<path d="M35.3203 61.0299C35.5627 60.7875 35.4415 60.6663 35.4415 60.545C35.4415 58.6056 35.4415 56.545 35.4415 54.6057C35.4415 53.9996 35.4415 53.3935 35.1991 52.9087C34.9566 52.6663 35.0779 52.545 35.4415 52.545C36.1688 52.545 36.7748 52.545 37.3809 52.545C37.6233 52.545 37.7445 52.6663 37.6233 52.9087C37.2597 53.5147 37.2597 54.242 37.2597 54.8481C37.2597 57.7572 37.2597 60.545 37.2597 63.4541C37.2597 63.8178 37.1385 64.0602 36.6536 64.0602C35.3203 64.0602 34.1082 64.0602 32.7748 64.0602C32.1688 64.0602 31.9263 63.8178 31.5627 63.3329C30.7142 61.5147 29.8657 59.6966 29.0172 57.8784C28.6536 57.0299 28.1688 55.939 27.5627 55.0905C27.6839 57.5147 27.3203 59.8178 27.5627 62.1208C27.6839 62.6056 27.6839 63.0905 27.8051 63.5753C27.9263 63.8178 27.8051 63.939 27.5627 63.939C26.9566 63.939 26.3506 63.939 25.6233 63.939C25.2597 63.939 25.2597 63.6966 25.3809 63.4541C25.6233 62.8481 25.6233 62.1208 25.6233 61.5147C25.6233 59.2117 25.6233 56.9087 25.6233 54.6057C25.6233 53.8784 25.6233 53.2723 25.2597 52.7875C25.0172 52.545 25.1385 52.4238 25.5021 52.4238C27.3203 52.4238 29.0172 52.4238 30.7142 52.545C30.9566 52.545 31.1991 52.6663 31.3203 52.9087C32.5324 55.3329 33.7445 57.8784 34.8354 60.4238C35.0779 60.6663 35.1991 60.9087 35.3203 61.0299ZM37.0173 53.8784C36.896 56.9087 36.896 60.1814 36.896 63.3329C36.896 63.3329 36.896 63.3329 37.0173 63.3329C37.0173 60.3026 37.0173 57.0299 37.0173 53.8784Z" fill="#E21D26"/>
<path d="M104.775 58.3631C104.533 59.3328 103.684 59.8176 102.472 59.8176C101.017 59.8176 99.5629 59.8176 98.1083 59.8176C97.6235 59.8176 97.5023 59.9389 97.5023 60.4237C97.6235 61.2722 97.5023 61.9995 97.6235 62.8479C97.6235 63.0904 97.6235 63.0904 97.7447 63.3328C97.9871 64.0601 97.9871 64.0601 97.1386 64.0601C95.8053 64.0601 94.7144 64.0601 93.381 64.0601C93.0174 64.0601 92.775 64.0601 93.1386 63.5752C93.381 63.3328 93.381 62.9692 93.381 62.6055C93.381 59.8176 93.381 57.0298 93.381 54.2419C93.381 53.8783 93.2598 53.3934 93.1386 52.9086C93.0174 52.6661 92.8962 52.5449 93.381 52.5449C96.5326 52.6661 99.8053 52.4237 102.957 52.6661C103.805 52.7873 104.775 53.151 104.896 54.1207C104.654 55.0904 104.775 56.0601 104.775 57.151C104.654 57.6358 104.533 57.9995 104.775 58.3631ZM98.8356 58.1207C99.078 58.1207 99.1992 58.1207 99.5629 58.1207C100.411 58.1207 100.533 57.8783 100.654 57.151C100.775 56.5449 100.654 55.8176 100.654 55.2116C100.654 54.848 100.411 54.4843 99.9265 54.4843C99.1992 54.4843 98.5932 54.4843 97.9871 54.4843C97.7447 54.4843 97.5023 54.6055 97.6235 54.9692C97.6235 55.5752 97.6235 56.1813 97.6235 56.6661C97.5023 58.1207 97.5023 58.1207 98.8356 58.1207Z" fill="#97052F"/>
<path d="M88.8966 57.636C88.8966 56.6663 88.8966 55.6966 88.8966 54.6057C88.8966 53.9996 88.8966 53.3935 88.6542 52.9087C88.533 52.6663 88.533 52.545 88.8966 52.545C89.6239 52.545 90.23 52.545 91.0784 52.545C91.3209 52.545 91.4421 52.6663 91.3209 52.9087C90.9572 53.5147 91.0784 54.242 91.0784 54.8481C91.0784 56.7875 91.0784 58.9693 91.0784 60.9087C91.0784 62.3632 90.23 63.6966 89.0178 63.939C88.7754 64.0602 88.6542 64.0602 88.4118 64.0602C86.3512 64.0602 84.2906 64.0602 82.23 64.0602C80.6542 64.0602 79.9269 63.4541 79.5633 61.8784C79.3209 60.545 79.3209 59.0905 79.3209 57.7572C79.3209 56.3026 79.5633 54.7269 79.0784 53.2723C78.836 52.4238 78.836 52.4238 79.6845 52.4238C80.8966 52.4238 82.1087 52.4238 83.3209 52.4238C83.8057 52.4238 84.0481 52.4238 83.6845 52.9087C83.4421 53.3935 83.4421 53.8784 83.4421 54.4844C83.4421 56.545 83.4421 58.7269 83.4421 60.7875C83.4421 61.636 83.5633 61.8784 84.533 61.8784C85.7451 61.8784 86.836 61.8784 88.0481 61.8784C88.7754 61.8784 88.8966 61.636 88.8966 61.0299C88.8966 59.939 88.8966 58.7269 88.8966 57.636Z" fill="#970731"/>
<path d="M21.3808 52.545C22.1081 52.545 22.7141 52.545 23.4414 52.545C23.805 52.545 24.0475 52.6663 23.8051 53.0299C23.5626 53.5147 23.5626 54.1208 23.5626 54.6057C23.5626 57.0299 23.5626 59.6966 23.5626 62.1208C23.5626 62.6056 23.5626 63.0905 23.8051 63.5753C24.0475 63.8178 23.9263 64.0602 23.5626 63.939C22.2293 63.939 20.896 63.939 19.4414 63.939C18.9566 63.939 18.8354 63.6966 19.0778 63.3329C19.3202 62.9693 19.3202 62.6057 19.3202 62.242C19.3202 59.5753 19.3202 57.0299 19.3202 54.3632C19.3202 53.7572 19.199 53.2723 19.0778 52.7875C18.8354 52.545 18.9566 52.4238 19.3202 52.4238C19.9263 52.545 20.5323 52.545 21.3808 52.545Z" fill="#E21D26"/>
<path d="M104.775 58.3636C104.533 58 104.654 57.5152 104.654 57.0303C104.654 56.0606 104.533 55.0909 104.775 54C105.017 54.7273 104.896 55.3333 104.896 55.9394C104.896 56.9091 105.017 57.6364 104.775 58.3636Z" fill="#970731"/>
<path d="M62.4721 5.15477C58.9569 6.12447 56.5327 8.18507 55.6842 11.8214C55.3206 13.3972 55.4418 14.973 55.8054 16.5487C56.4115 19.579 57.7448 22.2457 58.7145 25.0336C59.4418 26.973 60.0478 28.7911 60.0478 30.8517C59.9266 32.5487 58.5933 34.0033 56.8963 34.3669C54.9569 34.6093 53.1388 34.2457 51.3206 33.7608C48.8963 33.0336 46.3509 32.1851 44.0478 30.973C43.8054 30.8517 43.8054 30.7305 43.563 30.7305C43.563 30.7305 43.563 30.6093 43.4418 30.4881C44.1691 30.4881 44.7751 30.6093 45.5024 30.4881C46.2297 30.3669 46.8357 30.3669 47.4418 30.0033C48.1691 29.6396 48.2903 29.1548 48.0478 28.3063C47.4418 26.8517 46.2297 25.882 45.0175 24.9123C42.5933 22.973 40.0478 21.7608 37.1388 20.7911C36.6539 20.5487 36.1691 20.5487 35.8054 20.3063C41.26 19.8214 45.866 21.5184 49.9872 25.1548C49.5024 24.0639 49.1387 22.973 48.6539 21.882C47.8054 19.3366 47.563 16.6699 48.4115 14.0033C49.1388 11.4578 50.8357 9.39719 53.0175 7.94265C55.1994 6.60932 57.5024 5.76083 59.9266 5.15477C60.7751 4.91235 61.3812 4.91235 62.2297 4.66992C62.2297 4.91235 62.5933 4.66992 62.4721 5.15477Z" fill="#FDEF03"/>
<path d="M62.4727 5.15277C62.7151 4.78913 62.2302 4.91034 62.2302 4.91034C62.2302 4.91034 62.2302 4.78913 62.3514 4.78913C63.1999 4.66792 64.0484 4.4255 64.8969 4.54671C64.0484 4.91034 63.1999 5.03156 62.4727 5.15277Z" fill="#E21D26"/>
<path d="M73.26 61.3947C73.26 59.3341 73.26 57.2735 73.26 55.2129C73.5024 55.3341 73.5024 55.4553 73.5024 55.5765C73.5024 57.3947 73.5024 59.0917 73.5024 60.9099C73.3812 61.1523 73.3812 61.2735 73.26 61.3947Z" fill="#970731"/>
<path d="M37.0175 53.8789C37.0175 57.0304 37.0175 60.1819 37.0175 63.3335C37.0175 63.3335 37.0175 63.3335 36.8962 63.3335C36.8962 60.1819 36.8962 57.0304 37.0175 53.8789Z" fill="#E31C23"/>
<path d="M52.7751 38L53.5023 39.5758L55.1993 39.8182L53.9872 41.0303L54.3508 42.7273L52.7751 41.8788L51.3205 42.7273L51.5629 41.0303L50.3508 39.8182L52.0478 39.5758L52.7751 38Z" fill="#FDEF03"/>
<path d="M45.3808 36.9102L45.6232 38.4859L47.199 39.3344L45.6232 40.0617L45.502 41.7586L44.2899 40.5465L42.5929 40.9102L43.4414 39.3344L42.4717 37.8799L44.1687 38.1223L45.3808 36.9102Z" fill="#FDEF03"/>
<path d="M39.6846 33.879L39.3209 35.576L40.4118 36.7881L38.8361 36.9093L37.9876 38.4851L37.2603 36.9093L35.6846 36.5457L36.8967 35.4548L36.6543 33.7578L38.1088 34.7275L39.6846 33.879Z" fill="#FDEF03"/>
<path d="M60.2902 37.0312L61.3811 38.2434L63.0781 38.0009L62.2296 39.5767L63.0781 41.0312L61.3811 40.6676L60.169 41.8797L59.9266 40.1828L58.3508 39.4555L59.9266 38.7282L60.2902 37.0312Z" fill="#FDEF03"/>
<path d="M65.9873 34.1214L67.563 34.7275L69.0176 33.7578L68.8964 35.4548L70.1085 36.5457L68.5327 36.9093L67.9267 38.4851L66.957 37.0305L65.26 36.9093L66.3509 35.6972L65.9873 34.1214Z" fill="#FDEF03"/>
</svg>
