<svg width="126" height="32" viewBox="0 0 126 32" fill="none" xmlns="http://www.w3.org/2000/svg">
<path d="M14.0257 7.40966H18.5147V25.4161H14.0257V23.5151C13.2632 24.2734 12.3711 24.8869 11.3923 25.3264C10.4819 25.7001 9.50704 25.8887 8.5239 25.8812C7.39195 25.884 6.2724 25.6439 5.23986 25.1768C4.20733 24.7097 3.28552 24.0264 2.53588 23.1724C0.844807 21.3554 -0.0639772 18.9387 0.00778455 16.4496C-0.0924834 13.9395 0.779037 11.4883 2.43865 9.61253C3.17956 8.76411 4.09399 8.08712 5.1192 7.62802C6.1444 7.16892 7.25611 6.93856 8.37805 6.95277C9.41566 6.94641 10.4438 7.15179 11.4004 7.55652C12.3859 7.99411 13.2775 8.62034 14.0257 9.4004V7.40966ZM9.34229 11.1056C8.69969 11.0955 8.06232 11.2234 7.47269 11.4809C6.88306 11.7383 6.35471 12.1194 5.92288 12.5986C4.9834 13.6333 4.48825 14.9999 4.54539 16.4006C4.48843 17.8111 4.98298 19.1879 5.92288 20.2353C6.3593 20.712 6.89116 21.0901 7.48338 21.3447C8.07559 21.5992 8.7147 21.7244 9.3585 21.712C10.0144 21.7286 10.6663 21.6049 11.2711 21.3489C11.8759 21.0929 12.4199 20.7106 12.867 20.2271C13.8189 19.1669 14.3168 17.7713 14.2526 16.3435C14.2816 15.6492 14.1741 14.9559 13.9364 14.3034C13.6986 13.651 13.3352 13.0522 12.867 12.5415C12.4116 12.0677 11.8627 11.6952 11.2556 11.4479C10.6486 11.2006 9.9968 11.084 9.34229 11.1056Z" fill="white"/>
<path d="M27.5344 7.40983V9.40057C28.2866 8.62153 29.1807 7.99552 30.1679 7.55668C31.1245 7.15196 32.1526 6.94658 33.1902 6.95293C34.3148 6.93691 35.4295 7.16636 36.4576 7.62551C37.4857 8.08465 38.4028 8.7626 39.1458 9.6127C40.8092 11.4862 41.6813 13.939 41.5767 16.4498C41.6485 18.9389 40.7397 21.3556 39.0486 23.1726C38.2977 24.0272 37.3746 24.7109 36.3406 25.1779C35.3067 25.645 34.1857 25.8848 33.0525 25.8813C32.0667 25.8889 31.0892 25.7003 30.176 25.3265C29.19 24.8914 28.2918 24.2774 27.5263 23.5153V32.0004H23.0859V7.40983H27.5344ZM32.2503 11.1058C31.5959 11.0869 30.9448 11.2064 30.3391 11.4565C29.7334 11.7067 29.1865 12.0819 28.7336 12.558C28.2626 13.067 27.8967 13.6653 27.6575 14.318C27.4182 14.9708 27.3103 15.6649 27.34 16.36C27.3075 17.0678 27.4139 17.7751 27.653 18.4414C27.8922 19.1078 28.2594 19.7202 28.7336 20.2436C29.1838 20.7243 29.7298 21.1037 30.3359 21.3568C30.942 21.6099 31.5944 21.731 32.2503 21.7122C32.9005 21.7234 33.5457 21.5946 34.1424 21.3343C34.7391 21.074 35.2737 20.6882 35.7102 20.2028C36.6642 19.1619 37.1709 17.7836 37.1201 16.3682C37.1742 14.9665 36.6762 13.6 35.7345 12.5662C35.2909 12.0865 34.7504 11.7081 34.1494 11.4562C33.5485 11.2043 32.9009 11.0848 32.2503 11.1058Z" fill="white"/>
<path d="M49.7532 7.4093V9.40004C50.5083 8.62451 51.4017 7.999 52.3866 7.55615C53.9099 6.92629 55.5893 6.78576 57.1949 7.1538C58.8006 7.52184 60.2541 8.38046 61.3565 9.61217C63.0191 11.4861 63.8911 13.9386 63.7874 16.4492C63.856 18.9393 62.9444 21.3559 61.2512 23.1721C60.5003 24.0267 59.5771 24.7103 58.5431 25.1774C57.5092 25.6445 56.3882 25.8843 55.255 25.8808C54.2693 25.8877 53.2919 25.6992 52.3785 25.326C51.3939 24.8883 50.4962 24.2746 49.7289 23.5147V31.9999H45.3047V7.4093H49.7532ZM54.4771 11.1052C53.8225 11.0848 53.171 11.2036 52.5651 11.4539C51.9591 11.7041 51.4124 12.0801 50.9605 12.5575C50.4883 13.0661 50.1213 13.6641 49.8806 14.3168C49.64 14.9695 49.5305 15.6638 49.5587 16.3595C49.4963 17.7899 50.0005 19.1868 50.9605 20.2431C51.4097 20.725 51.9555 21.1052 52.5619 21.3584C53.1682 21.6116 53.8211 21.732 54.4771 21.7116C55.1272 21.7213 55.7718 21.5918 56.3683 21.3316C56.9648 21.0713 57.4995 20.6864 57.9371 20.2023C58.885 19.1582 59.3884 17.7814 59.3389 16.3676C59.3925 14.9675 58.8978 13.6021 57.9614 12.5656C57.5171 12.0869 56.9765 11.7089 56.3757 11.4571C55.7749 11.2053 55.1276 11.0853 54.4771 11.1052Z" fill="white"/>
<path d="M64.9688 7.40918H69.5469L74.0602 18.0156L78.5653 7.40918H83.1192L75.5106 25.4156H72.6016L64.9688 7.40918Z" fill="white"/>
<path d="M88.5725 0.00116027C88.9464 -0.00922153 89.3184 0.0578395 89.6655 0.198185C90.0125 0.338531 90.3273 0.549169 90.5901 0.817039C90.8586 1.09184 91.0688 1.41865 91.2081 1.77767C91.3474 2.13669 91.4128 2.52045 91.4004 2.90569C91.4098 3.28567 91.3428 3.66364 91.2036 4.01694C91.0644 4.37023 90.8557 4.69158 90.5901 4.9617C90.3353 5.24555 90.0239 5.47216 89.6763 5.62679C89.3286 5.78142 88.9526 5.8606 88.5725 5.85917C88.1906 5.8646 87.8117 5.78977 87.4601 5.63946C87.1086 5.48914 86.792 5.26665 86.5306 4.98618C86.2617 4.70835 86.0513 4.37868 85.9121 4.01697C85.7728 3.65525 85.7076 3.26894 85.7203 2.88121C85.7103 2.50359 85.777 2.12789 85.9164 1.77716C86.0557 1.42642 86.2647 1.10803 86.5306 0.841515C86.7939 0.565745 87.1116 0.348511 87.4632 0.203781C87.8149 0.0590522 88.1928 -0.00996772 88.5725 0.00116027ZM86.328 7.40934H90.8089V25.4158H86.328V7.40934Z" fill="white"/>
<path d="M96.6762 0.776367H101.165V7.40946H103.823V11.3012H101.165V25.4159H96.6762V11.3012H94.375V7.40946H96.6762V0.776367Z" fill="white"/>
<path d="M106.488 7.40918H111.075L115.717 18.7091L120.838 7.40918H125.441L114.243 31.9998H109.64L113.319 24.0694L106.488 7.40918Z" fill="white"/>
</svg>
