<svg width="12" height="12" viewBox="0 0 12 12" fill="none" xmlns="http://www.w3.org/2000/svg">
<g clip-path="url(#clip0)">
<path d="M4.37008 6.62039C4.37008 6.47006 4.24815 6.34828 4.09771 6.34828H3.14723C2.99695 6.34828 2.875 6.47006 2.875 6.62039V7.57074C2.875 7.72126 2.99695 7.84309 3.14723 7.84309H4.09771C4.24815 7.84309 4.37008 7.72126 4.37008 7.57074V6.62039Z" fill="#3E3D3D"/>
<path d="M6.74886 6.62039C6.74886 6.47006 6.6269 6.34828 6.47675 6.34828H5.52614C5.37586 6.34828 5.25391 6.47006 5.25391 6.62039V7.57074C5.25391 7.72126 5.37586 7.84309 5.52614 7.84309H6.47675C6.6269 7.84309 6.74886 7.72126 6.74886 7.57074V6.62039Z" fill="#3E3D3D"/>
<path d="M9.12399 6.62039C9.12399 6.47006 9.00203 6.34828 8.85176 6.34828H7.90128C7.75083 6.34828 7.62891 6.47006 7.62891 6.62039V7.57074C7.62891 7.72126 7.75083 7.84309 7.90128 7.84309H8.85176C9.00203 7.84309 9.12399 7.72126 9.12399 7.57074V6.62039Z" fill="#3E3D3D"/>
<path d="M4.37008 8.99598C4.37008 8.84541 4.24815 8.72372 4.09771 8.72372H3.14723C2.99695 8.72372 2.875 8.84541 2.875 8.99598V9.94616C2.875 10.0966 2.99695 10.2184 3.14723 10.2184H4.09771C4.24815 10.2184 4.37008 10.0966 4.37008 9.94616V8.99598Z" fill="#3E3D3D"/>
<path d="M6.74886 8.99598C6.74886 8.84541 6.6269 8.72372 6.47675 8.72372H5.52614C5.37586 8.72372 5.25391 8.84541 5.25391 8.99598V9.94616C5.25391 10.0966 5.37586 10.2184 5.52614 10.2184H6.47675C6.6269 10.2184 6.74886 10.0966 6.74886 9.94616V8.99598Z" fill="#3E3D3D"/>
<path d="M9.12399 8.99598C9.12399 8.84541 9.00203 8.72372 8.85188 8.72372H7.90128C7.75083 8.72372 7.62891 8.84541 7.62891 8.99598V9.94616C7.62891 10.0966 7.75083 10.2184 7.90128 10.2184H8.85188C9.00203 10.2184 9.12399 10.0966 9.12399 9.94616V8.99598Z" fill="#3E3D3D"/>
<path d="M10.8223 1.33617V2.78777C10.8223 3.44388 10.2901 3.9726 9.63407 3.9726H8.88448C8.22842 3.9726 7.68911 3.44388 7.68911 2.78777V1.33096H4.31049V2.78777C4.31049 3.44388 3.7712 3.9726 3.11524 3.9726H2.36549C1.70951 3.9726 1.17727 3.44388 1.17727 2.78777V1.33617C0.603936 1.35346 0.132812 1.82787 0.132812 2.411V10.918C0.132812 11.5121 0.614335 12 1.20842 12H10.7912C11.3844 12 11.8668 11.5111 11.8668 10.918V2.411C11.8668 1.82787 11.3957 1.35346 10.8223 1.33617ZM10.4742 10.3883C10.4742 10.645 10.266 10.8533 10.0092 10.8533H1.96994C1.7131 10.8533 1.50493 10.645 1.50493 10.3883V5.99409C1.50493 5.73726 1.71307 5.52897 1.96994 5.52897H10.0092C10.266 5.52897 10.4742 5.73726 10.4742 5.99409L10.4742 10.3883Z" fill="#3E3D3D"/>
<path d="M2.36456 3.19437H3.10602C3.33107 3.19437 3.51355 3.01217 3.51355 2.78712V0.407406C3.51355 0.182328 3.33107 0 3.10602 0H2.36456C2.13948 0 1.95703 0.182328 1.95703 0.407406V2.78712C1.95703 3.01217 2.13948 3.19437 2.36456 3.19437Z" fill="#3E3D3D"/>
<path d="M8.87625 3.19437H9.61771C9.84262 3.19437 10.0251 3.01217 10.0251 2.78712V0.407406C10.0251 0.182328 9.84264 0 9.61771 0H8.87625C8.65123 0 8.46875 0.182328 8.46875 0.407406V2.78712C8.46875 3.01217 8.65123 3.19437 8.87625 3.19437Z" fill="#3E3D3D"/>
</g>
<defs>
<clipPath id="clip0">
<rect width="12" height="12" fill="white"/>
</clipPath>
</defs>
</svg>
