<svg width="64" height="64" viewBox="0 0 64 64" fill="none" xmlns="http://www.w3.org/2000/svg">
<path fill-rule="evenodd" clip-rule="evenodd" d="M24.8713 8C15.9206 8 8.52021 14.8015 7.42181 23.444C3.04458 25.3628 0 29.7268 0 34.6535C0 38.7626 2.07696 42.4493 5.26893 44.6862L6.47528 41.6239C4.44861 39.9379 3.16832 37.4163 3.16832 34.6535C3.16832 30.7842 5.7509 27.3147 9.41438 26.0656L10.4115 25.7256L10.4836 24.6746C10.9977 17.1832 17.2737 11.1683 24.8713 11.1683C28.9516 11.1683 32.6978 12.8333 35.4286 15.8212L36.2675 16.7391L37.3583 16.1422C39.034 15.2253 40.8416 14.7327 42.6931 14.7327C48.3375 14.7327 53.0204 19.1572 53.519 24.7079L53.6113 25.7353L54.5883 26.0665C58.1936 27.2886 60.8317 30.6709 60.8317 34.6535C60.8317 38.0244 58.9085 41.0261 56.0799 42.5997V46.0921C60.695 44.2976 64 39.8247 64 34.6535C64 29.5879 60.8747 25.3032 56.5494 23.4297C55.4666 16.7621 49.6794 11.5644 42.6931 11.5644C40.6783 11.5644 38.7318 12.0112 36.9251 12.8219C33.6842 9.72115 29.4378 8 24.8713 8Z" fill="#B7B6B5"/>
<path d="M13.3874 32.666H18.3814L27.0485 55.4779H22.2478L20.3146 50.0298H11.4864L9.55327 55.4779H4.75256L13.3874 32.666ZM18.8969 46.0791L16.8671 40.3443L16.0294 37.6043H15.7716L14.9339 40.3443L12.8719 46.0791H18.8969Z" fill="#74060E"/>
<path d="M30.1634 32.666H38.2828C39.7434 32.666 41.0751 32.974 42.278 33.59C43.4808 34.1847 44.4259 35.0343 45.1133 36.1388C45.8006 37.222 46.1443 38.4646 46.1443 39.8664C46.1443 41.2683 45.8006 42.5214 45.1133 43.6259C44.4259 44.7304 43.4808 45.5906 42.278 46.2066C41.0751 46.8013 39.7434 47.0987 38.2828 47.0987H34.5131V55.4779H30.1634V32.666ZM38.4116 43.0206C39.4856 43.0206 40.3233 42.7126 40.9248 42.0966C41.5477 41.4807 41.8591 40.7373 41.8591 39.8664C41.8591 38.9956 41.5477 38.2628 40.9248 37.6681C40.3233 37.0521 39.4856 36.7441 38.4116 36.7441H34.5131V43.0206H38.4116Z" fill="#74060E"/>
<path d="M49.6666 32.666H54.0163V55.4779H49.6666V32.666Z" fill="#74060E"/>
</svg>
