<svg width="64" height="64" viewBox="0 0 64 64" fill="none" xmlns="http://www.w3.org/2000/svg">
<g clip-path="url(#clip0)">
<path d="M4 45C3.73478 45 3.48043 44.8946 3.29289 44.7071C3.10536 44.5196 3 44.2652 3 44V12H0V44C0 45.0609 0.421427 46.0783 1.17157 46.8284C1.92172 47.5786 2.93913 48 4 48H7V45H4Z" fill="#B7B6B5"/>
<path d="M3 9H54V4C54 2.93913 53.5786 1.92172 52.8284 1.17157C52.0783 0.421427 51.0609 0 50 0L4 0C2.93913 0 1.92172 0.421427 1.17157 1.17157C0.421427 1.92172 0 2.93913 0 4L0 9H3ZM48.21 3C48.6008 3.00789 48.9726 3.17004 49.2442 3.45107C49.5159 3.73209 49.6654 4.10917 49.66 4.5C49.6766 4.69987 49.6516 4.90101 49.5866 5.09072C49.5215 5.28043 49.4178 5.45458 49.282 5.60216C49.1462 5.74974 48.9812 5.86754 48.7976 5.94813C48.6139 6.02871 48.4156 6.07031 48.215 6.07031C48.0144 6.07031 47.8161 6.02871 47.6324 5.94813C47.4488 5.86754 47.2838 5.74974 47.148 5.60216C47.0122 5.45458 46.9085 5.28043 46.8434 5.09072C46.7784 4.90101 46.7534 4.69987 46.77 4.5C46.766 4.30695 46.8001 4.115 46.8703 3.93513C46.9406 3.75525 47.0455 3.59097 47.1792 3.45168C47.313 3.31238 47.4728 3.2008 47.6497 3.1233C47.8265 3.0458 48.0169 3.0039 48.21 3ZM42.43 3C42.8208 3.00789 43.1926 3.17004 43.4642 3.45107C43.7359 3.73209 43.8854 4.10917 43.88 4.5C43.88 4.69042 43.8425 4.87897 43.7696 5.05489C43.6968 5.23081 43.5899 5.39066 43.4553 5.5253C43.3207 5.65995 43.1608 5.76676 42.9849 5.83963C42.809 5.91249 42.6204 5.95 42.43 5.95C42.2396 5.95 42.051 5.91249 41.8751 5.83963C41.6992 5.76676 41.5393 5.65995 41.4047 5.5253C41.2701 5.39066 41.1632 5.23081 41.0904 5.05489C41.0175 4.87897 40.98 4.69042 40.98 4.5C40.9746 4.10917 41.1241 3.73209 41.3958 3.45107C41.6674 3.17004 42.0392 3.00789 42.43 3ZM36.64 3C37.0308 3.00789 37.4026 3.17004 37.6742 3.45107C37.9459 3.73209 38.0954 4.10917 38.09 4.5C38.1066 4.69987 38.0816 4.90101 38.0166 5.09072C37.9515 5.28043 37.8478 5.45458 37.712 5.60216C37.5762 5.74974 37.4112 5.86754 37.2276 5.94813C37.0439 6.02871 36.8456 6.07031 36.645 6.07031C36.4444 6.07031 36.2461 6.02871 36.0624 5.94813C35.8788 5.86754 35.7138 5.74974 35.578 5.60216C35.4422 5.45458 35.3385 5.28043 35.2734 5.09072C35.2084 4.90101 35.1834 4.69987 35.2 4.5C35.196 4.30695 35.2301 4.115 35.3003 3.93513C35.3706 3.75525 35.4755 3.59097 35.6092 3.45168C35.743 3.31238 35.9028 3.2008 36.0797 3.1233C36.2565 3.0458 36.4469 3.0039 36.64 3Z" fill="#74060E"/>
<path d="M60 16H14C12.9391 16 11.9217 16.4214 11.1716 17.1716C10.4214 17.9217 10 18.9391 10 20V25H64V20C64 18.9391 63.5786 17.9217 62.8284 17.1716C62.0783 16.4214 61.0609 16 60 16ZM46.64 22C46.3414 22.01 46.0466 21.9305 45.7935 21.7719C45.5403 21.6132 45.3403 21.3826 45.2191 21.1095C45.0978 20.8365 45.0609 20.5334 45.113 20.2392C45.1651 19.945 45.3039 19.6731 45.5115 19.4583C45.7192 19.2435 45.9862 19.0956 46.2785 19.0335C46.5707 18.9715 46.8749 18.9981 47.1519 19.11C47.4289 19.222 47.6662 19.414 47.8333 19.6617C48.0005 19.9093 48.0898 20.2012 48.09 20.5C48.094 20.6939 48.0595 20.8866 47.9887 21.0672C47.9179 21.2477 47.812 21.4124 47.6772 21.5518C47.5424 21.6912 47.3814 21.8026 47.2034 21.8795C47.0254 21.9565 46.8339 21.9974 46.64 22ZM52.43 22C52.0717 21.9921 51.7286 21.8536 51.4653 21.6105C51.202 21.3674 51.0365 21.0365 51 20.68V20.32C51.0439 20.0465 51.1653 19.7913 51.3498 19.5846C51.5342 19.3779 51.774 19.2284 52.0408 19.1537C52.3075 19.079 52.5901 19.0823 52.8551 19.1632C53.12 19.2441 53.3562 19.3992 53.5358 19.6101C53.7154 19.8211 53.8307 20.0791 53.8683 20.3535C53.9058 20.628 53.8639 20.9075 53.7476 21.1589C53.6313 21.4103 53.4454 21.6231 53.2118 21.7722C52.9783 21.9213 52.707 22.0003 52.43 22ZM58.21 22C57.9114 22.01 57.6166 21.9305 57.3635 21.7719C57.1103 21.6132 56.9103 21.3826 56.7891 21.1095C56.6678 20.8365 56.6309 20.5334 56.683 20.2392C56.7351 19.945 56.8739 19.6731 57.0815 19.4583C57.2892 19.2435 57.5562 19.0956 57.8485 19.0335C58.1407 18.9715 58.4449 18.9981 58.7219 19.11C58.9989 19.222 59.2362 19.414 59.4033 19.6617C59.5705 19.9093 59.6598 20.2012 59.66 20.5C59.664 20.6939 59.6295 20.8866 59.5587 21.0672C59.4879 21.2477 59.382 21.4124 59.2472 21.5518C59.1124 21.6912 58.9514 21.8026 58.7734 21.8795C58.5954 21.9565 58.4039 21.9974 58.21 22Z" fill="#74060E"/>
<path d="M62.5 28H61V60C61 60.2652 60.8946 60.5196 60.7071 60.7071C60.5196 60.8946 60.2652 61 60 61H14C13.7348 61 13.4804 60.8946 13.2929 60.7071C13.1054 60.5196 13 60.2652 13 60V28H10V60C10 61.0609 10.4214 62.0783 11.1716 62.8284C11.9217 63.5786 12.9391 64 14 64H60C61.0609 64 62.0783 63.5786 62.8284 62.8284C63.5786 62.0783 64 61.0609 64 60V28H62.5Z" fill="#B7B6B5"/>
<path d="M54 38.3896H57V34.3896H54H51H25V38.3896H51H54Z" fill="#B7B6B5"/>
<path d="M21 34.3896H17V38.3896H21V34.3896Z" fill="#B7B6B5"/>
<path d="M57 46.3896V42.3896H54H51H25V44.9996V46.3896H53.19H57Z" fill="#B7B6B5"/>
<path d="M21 44.9996V42.3896H17V44.9996V46.3896H21V44.9996Z" fill="#B7B6B5"/>
<path d="M57 50.3896H25V54.3896H57V50.3896Z" fill="#B7B6B5"/>
<path d="M21 50.3896H17V54.3896H21V50.3896Z" fill="#B7B6B5"/>
</g>
<defs>
<clipPath id="clip0">
<rect width="64" height="64" fill="white"/>
</clipPath>
</defs>
</svg>
