<svg width="40" height="40" viewBox="0 0 40 40" fill="none" xmlns="http://www.w3.org/2000/svg">
<g clip-path="url(#clip0)">
<path d="M5.74961 15.8211L7.27461 14.3009L8.77461 15.8524L14.5996 21.8955L14.9184 22.2271L17.7184 19.3244C23.5121 13.3062 30.8434 5.69284 31.2246 5.29872L32.7246 3.75352L34.2496 5.27369L38.1496 9.16484L40.0246 7.24429L32.7559 0L14.9184 18.5174C12.8434 16.3591 7.73711 11.0666 7.24961 10.5536L-0.0253906 17.7917C0.0996094 17.9168 0.793359 18.63 1.84961 19.7122L5.74961 15.8211Z" fill="white"/>
<path d="M32.7568 6.7627C32.2631 7.26942 20.3881 19.606 14.9193 25.2738L7.25058 17.3163L3.32559 21.27L-0.0244141 24.5481L14.8881 40.0376L14.9506 39.6998C15.0131 39.3495 15.0818 38.9804 15.1693 38.58C15.2568 38.1797 15.3256 37.8606 15.4193 37.4602C16.0647 34.7718 17.0519 32.1774 18.3568 29.7405C20.1516 26.3835 22.6173 23.4321 25.6006 21.0699C26.4373 20.4097 27.3095 19.7957 28.2131 19.2306L28.7443 18.9178C30.0006 18.1676 31.3104 17.5111 32.6631 16.9535C33.0443 16.7971 33.4193 16.6532 33.8006 16.5093C34.1818 16.3654 34.5881 16.2654 34.9756 16.1215H35.0443L36.8506 15.5084L37.3756 16.7095L39.9756 13.9945L36.6568 10.6851L32.7568 6.7627Z" fill="white"/>
<path d="M36.5871 20.5943C36.4746 20.2065 36.3496 19.8249 36.2184 19.4495C36.0871 19.0742 35.9496 18.7238 35.7934 18.361L35.6934 18.1045L35.5996 18.142C35.2684 18.2484 34.9121 18.3672 34.5434 18.5049C34.1746 18.6425 33.8496 18.7614 33.4809 18.9115C32.0477 19.5007 30.6659 20.2079 29.3496 21.026C28.5112 21.546 27.7036 22.1142 26.9309 22.7276C22.348 26.3966 19.0977 31.4722 17.6809 37.1724C17.6184 37.4226 17.5496 37.6728 17.4871 37.9231C17.3996 38.2734 17.3184 38.6237 17.2434 38.9803C17.2434 39.0554 17.2434 39.1305 17.1996 39.1993C17.1434 39.4745 17.0871 39.7185 17.0371 40.0063H18.5934C18.7246 39.7185 18.9246 39.2744 19.0746 38.9803C19.1434 38.8364 19.2309 38.6863 19.3121 38.5362C19.3934 38.386 19.5184 38.1295 19.6371 37.9106C21.6588 34.1815 24.7091 31.1131 28.4246 29.071L28.5996 28.9709C29.1496 28.6769 29.7121 28.4017 30.3121 28.1452C31.3397 27.716 32.3966 27.3606 33.4746 27.0817C33.8246 26.9878 34.1746 26.9065 34.5371 26.8252C34.8996 26.7438 35.2371 26.6875 35.5934 26.625C36.185 26.5166 36.7975 26.429 37.4309 26.3622C37.4201 24.4096 37.1361 22.4681 36.5871 20.5943Z" fill="#FDB813"/>
</g>
<defs>
<clipPath id="clip0">
<rect width="40" height="40" fill="white"/>
</clipPath>
</defs>
</svg>
