<svg width="64" height="64" viewBox="0 0 64 64" fill="none" xmlns="http://www.w3.org/2000/svg">
<path d="M25.7003 45C23.9294 44.9962 22.1864 45.4408 20.6337 46.2924C19.0809 47.1439 17.7691 48.3747 16.8203 49.87C19.2032 52.1723 22.387 53.4591 25.7003 53.4591C29.0136 53.4591 32.1975 52.1723 34.5803 49.87C33.6323 48.3741 32.3205 47.1428 30.7676 46.2911C29.2148 45.4395 27.4714 44.9953 25.7003 45Z" fill="#741213"/>
<path d="M28.1006 42.2C28.95 41.6805 29.606 40.8972 29.9684 39.9699C30.3309 39.0425 30.3798 38.0219 30.1078 37.0641C29.8357 36.1063 29.2577 35.2639 28.4619 34.6655C27.6661 34.067 26.6963 33.7455 25.7006 33.75C24.7985 33.7613 23.9189 34.0336 23.1682 34.534C22.4176 35.0345 21.8279 35.7416 21.4706 36.57C21.2461 37.13 21.1275 37.7268 21.1206 38.33C21.106 38.8378 21.2016 39.3427 21.4006 39.81C21.7412 40.801 22.412 41.6448 23.3006 42.2C24.0152 42.6636 24.8488 42.9103 25.7006 42.9103C26.5524 42.9103 27.386 42.6636 28.1006 42.2Z" fill="#741213"/>
<path d="M4 45C3.73478 45 3.48043 44.8946 3.29289 44.7071C3.10536 44.5196 3 44.2652 3 44V12H0V44C0 45.0609 0.421427 46.0783 1.17157 46.8284C1.92172 47.5786 2.93913 48 4 48H7V45H4Z" fill="#B7B6B5"/>
<path d="M3 9H54V4C54 2.93913 53.5786 1.92172 52.8284 1.17157C52.0783 0.421427 51.0609 0 50 0L4 0C2.93913 0 1.92172 0.421427 1.17157 1.17157C0.421427 1.92172 0 2.93913 0 4L0 9H3ZM48.21 3C48.5887 3.01642 48.9466 3.17749 49.21 3.45C49.4759 3.71525 49.6268 4.07445 49.63 4.45C49.6493 4.64988 49.6253 4.85156 49.5597 5.04136C49.4941 5.23115 49.3885 5.40463 49.25 5.55C49.1371 5.73301 48.983 5.88711 48.8 6C48.6151 6.07895 48.4161 6.11964 48.215 6.11964C48.0139 6.11964 47.8149 6.07895 47.63 6C47.4465 5.91956 47.2827 5.80013 47.15 5.65C47.0115 5.50463 46.9058 5.33115 46.8403 5.14136C46.7747 4.95156 46.7507 4.74988 46.77 4.55C46.7673 4.35866 46.8013 4.16858 46.87 3.99C46.942 3.80884 47.0471 3.64267 47.18 3.5C47.3127 3.35935 47.4726 3.24709 47.65 3.17C47.8243 3.07851 48.0143 3.02083 48.21 3ZM42.43 3C42.8087 3.01642 43.1666 3.17749 43.43 3.45C43.6959 3.71525 43.8467 4.07445 43.85 4.45C43.8492 4.63872 43.8119 4.8255 43.74 5C43.6679 5.17816 43.5627 5.34104 43.43 5.48C43.291 5.61275 43.1282 5.71794 42.95 5.79C42.7757 5.86261 42.5888 5.9 42.4 5.9C42.2112 5.9 42.0243 5.86261 41.85 5.79C41.6718 5.71794 41.509 5.61275 41.37 5.48C41.2373 5.34104 41.1321 5.17816 41.06 5C41.0112 4.83807 40.9909 4.66888 41 4.5C41.0033 4.12445 41.1541 3.76525 41.42 3.5C41.6776 3.20666 42.0406 3.02695 42.43 3ZM36.64 3C37.0187 3.01642 37.3766 3.17749 37.64 3.45C37.9059 3.71525 38.0568 4.07445 38.06 4.45C38.0793 4.64988 38.0553 4.85156 37.9897 5.04136C37.9241 5.23115 37.8185 5.40463 37.68 5.55C37.5473 5.70013 37.3835 5.81956 37.2 5.9C37.0151 5.97895 36.8161 6.01964 36.615 6.01964C36.4139 6.01964 36.2149 5.97895 36.03 5.9C35.8465 5.81956 35.6827 5.70013 35.55 5.55C35.4115 5.40463 35.3059 5.23115 35.2403 5.04136C35.1747 4.85156 35.1507 4.64988 35.17 4.45C35.1673 4.25866 35.2013 4.06858 35.27 3.89C35.342 3.70884 35.4471 3.54267 35.58 3.4C35.7127 3.25935 35.8726 3.14709 36.05 3.07C36.2404 3.00909 36.4407 2.98532 36.64 3Z" fill="#741112"/>
<path d="M60 16H14C12.9391 16 11.9217 16.4214 11.1716 17.1716C10.4214 17.9217 10 18.9391 10 20V25H64V20C64 18.9391 63.5786 17.9217 62.8284 17.1716C62.0783 16.4214 61.0609 16 60 16ZM46.64 22C46.3416 22.0098 46.0471 21.9304 45.7941 21.7718C45.5411 21.6133 45.3413 21.3828 45.22 21.11C45.0992 20.8369 45.061 20.5345 45.11 20.24C45.1627 19.946 45.302 19.6744 45.51 19.46C45.72 19.2456 45.9873 19.0963 46.28 19.03C46.5716 18.9715 46.8739 18.9993 47.15 19.11C47.4289 19.2172 47.6668 19.4097 47.83 19.66C47.9992 19.9075 48.0898 20.2002 48.09 20.5C48.0918 20.6945 48.0579 20.8877 47.99 21.07C47.9179 21.2482 47.8127 21.411 47.68 21.55C47.5418 21.6888 47.3791 21.8007 47.2 21.88C47.0242 21.9599 46.8331 22.0008 46.64 22ZM52.43 22C52.0594 22.0007 51.7023 21.8614 51.43 21.61C51.1627 21.3695 50.9951 21.0378 50.96 20.68V20.32C51.0001 20.0508 51.1151 19.7983 51.292 19.5914C51.4688 19.3845 51.7003 19.2315 51.96 19.15C52.2282 19.0749 52.5118 19.0749 52.78 19.15C53.0443 19.2334 53.2799 19.3893 53.46 19.6C53.6371 19.8109 53.7515 20.0673 53.79 20.34C53.8264 20.6159 53.7849 20.8965 53.67 21.15C53.552 21.4008 53.3646 21.6125 53.13 21.76C52.922 21.9005 52.6804 21.9833 52.43 22ZM58.21 22C57.9116 22.0098 57.6171 21.9304 57.3641 21.7718C57.1111 21.6133 56.9113 21.3828 56.79 21.11C56.6692 20.8369 56.631 20.5345 56.68 20.24C56.7327 19.946 56.872 19.6744 57.08 19.46C57.29 19.2456 57.5573 19.0963 57.85 19.03C58.1416 18.9715 58.4439 18.9993 58.72 19.11C58.9989 19.2172 59.2368 19.4097 59.4 19.66C59.5692 19.9075 59.6598 20.2002 59.66 20.5C59.6618 20.6945 59.6279 20.8877 59.56 21.07C59.4879 21.2482 59.3827 21.411 59.25 21.55C59.1118 21.6888 58.9491 21.8007 58.77 21.88C58.5942 21.9599 58.4031 22.0008 58.21 22Z" fill="#741112"/>
<path d="M62.5 28H61V60C61 60.2652 60.8946 60.5196 60.7071 60.7071C60.5196 60.8946 60.2652 61 60 61H14C13.7348 61 13.4804 60.8946 13.2929 60.7071C13.1054 60.5196 13 60.2652 13 60V28H10V60C10 61.0609 10.4214 62.0783 11.1716 62.8284C11.9217 63.5786 12.9391 64 14 64H60C61.0609 64 62.0783 63.5786 62.8284 62.8284C63.5786 62.0783 64 61.0609 64 60V28H62.5Z" fill="#B7B6B5"/>
<path d="M55.4705 43.7499H57.2205V40.3799H38.5605V43.7499H55.4705Z" fill="#B7B6B5"/>
<path d="M52.5605 49.66H54.0005V46.29H38.5605V49.66H52.5605Z" fill="#B7B6B5"/>
</svg>
