<svg width="32" height="32" viewBox="0 0 32 32" fill="none" xmlns="http://www.w3.org/2000/svg">
<g clip-path="url(#clip0)">
<path d="M31.3457 15.6265C31.2657 15.3332 31.1724 15.0532 31.0657 14.7598C30.959 14.4665 30.8657 14.1998 30.7457 13.9198L30.6657 13.7198H30.5857L29.7724 13.9998L28.9724 14.3198L28.6124 14.4665C27.6395 14.8849 26.6991 15.3751 25.799 15.9332C25.3857 16.1998 24.959 16.4932 24.4657 16.7998L23.879 17.2398C23.0059 17.9284 22.194 18.6913 21.4524 19.5198C21.119 19.8798 20.799 20.2665 20.4924 20.6665C19.5228 21.9268 18.7039 23.2961 18.0524 24.7465C17.8257 25.2532 17.599 25.7998 17.399 26.3598C17.1857 26.9732 16.9857 27.6132 16.799 28.2798C16.799 28.4798 16.6924 28.6665 16.6524 28.8532C16.6124 29.0398 16.519 29.3865 16.4657 29.6665V29.8398L16.3457 30.4798H17.5057C17.5057 30.3198 17.6924 30.1065 17.7857 29.9065L17.9057 29.6665L18.0924 29.3198L18.3324 28.8532C18.9866 27.696 19.7597 26.6101 20.639 25.6132C21.7622 24.3518 23.0705 23.2683 24.519 22.3998L25.079 22.0665L25.2124 21.9998L26.0924 21.5598L26.5324 21.3598L26.8924 21.2265C27.5668 20.9581 28.257 20.731 28.959 20.5465L29.759 20.3598C30.0257 20.3598 30.3057 20.2532 30.5724 20.1998C30.839 20.1465 31.5057 20.0532 31.9857 19.9998C31.9728 18.5197 31.7575 17.0483 31.3457 15.6265Z" fill="#74060E"/>
<path d="M17.8926 2V10.3067C19.1394 10.6272 20.2531 11.3337 21.0744 12.325C21.8958 13.3164 22.3828 14.542 22.4659 15.8267L22.6792 15.6667C23.3286 15.1446 24.0099 14.6637 24.7192 14.2267C25.8255 13.5356 26.9899 12.9422 28.1992 12.4533L28.4926 12.3333C28.0881 9.69325 26.8348 7.25671 24.9223 5.39231C23.0098 3.52791 20.5421 2.33709 17.8926 2Z" fill="#FDB813"/>
<path d="M16.3602 22.3733H8.17349L11.6402 20.16C10.9808 19.3649 10.533 18.4162 10.3382 17.4018C10.1433 16.3875 10.2078 15.3404 10.5257 14.3576C10.8435 13.3748 11.4044 12.4882 12.1563 11.7801C12.9082 11.0719 13.8268 10.5651 14.8268 10.3067V2C11.8753 2.39116 9.16633 3.84135 7.20416 6.08068C5.24198 8.32001 4.16021 11.196 4.16016 14.1733V23.72C4.16689 24.3054 4.29912 24.8826 4.54793 25.4125C4.79674 25.9425 5.15633 26.4129 5.60244 26.792C6.04854 27.1711 6.57079 27.4502 7.13393 27.6102C7.69706 27.7703 8.28799 27.8078 8.86682 27.72L12.3335 27.1867V30.5333H14.3468V30.1733L14.4668 29.56V29.4267C14.4606 29.3824 14.4606 29.3376 14.4668 29.2933C14.4668 29 14.5868 28.7067 14.6668 28.4267C14.6945 28.2738 14.7301 28.1225 14.7735 27.9733V27.8C14.8668 27.4533 14.9735 27.1067 15.0802 26.7733L15.2002 26.3867C15.6564 24.9804 16.2411 23.6191 16.9468 22.32C16.7523 22.3476 16.5565 22.3654 16.3602 22.3733Z" fill="#FDB813"/>
<path d="M0.987339 22.3466H3.06734V16.2666L0.160672 20.7599C0.0612604 20.9125 0.00420466 21.0887 -0.00464562 21.2706C-0.0134959 21.4524 0.0261777 21.6334 0.110308 21.7949C0.194438 21.9563 0.319997 22.0925 0.474114 22.1895C0.62823 22.2864 0.805358 22.3407 0.987339 22.3466Z" fill="#FDB813"/>
<path d="M17.8924 12.4401C17.4042 12.247 16.8841 12.1475 16.3591 12.1467C15.6426 12.1371 14.9367 12.3201 14.3151 12.6766C13.6936 13.0331 13.1792 13.5501 12.8258 14.1734C12.4532 14.8077 12.2597 15.5311 12.2658 16.2667C12.2647 16.8883 12.4047 17.502 12.6753 18.0615C12.9458 18.6211 13.3399 19.112 13.8278 19.4971C14.3156 19.8822 14.8845 20.1516 15.4916 20.2849C16.0987 20.4182 16.7281 20.412 17.3324 20.2667C17.8573 20.1347 18.3506 19.8992 18.7833 19.5741C19.216 19.249 19.5795 18.8408 19.8524 18.3734C20.2407 17.739 20.4482 17.0105 20.4524 16.2667C20.4605 15.4453 20.2205 14.6406 19.7638 13.9578C19.307 13.275 18.6548 12.7461 17.8924 12.4401Z" fill="#FDB813"/>
</g>
<defs>
<clipPath id="clip0">
<rect width="32" height="28.5333" fill="white" transform="translate(0 2)"/>
</clipPath>
</defs>
</svg>
