<svg width="64" height="64" viewBox="0 0 64 64" fill="none" xmlns="http://www.w3.org/2000/svg">
<g clip-path="url(#clip0)">
<path d="M57.7994 40.2C57.3994 39.1 56.9994 38 56.5994 36.9C56.2994 36 55.6994 35.2 54.8994 34.8C53.3994 33.9 52.0994 32.7 50.9994 31.3C50.5994 30.9 50.2994 30.4 49.8994 29.9C48.8994 30.3 47.8994 30.6 46.7994 30.7C47.3994 31.6 47.9994 32.4 48.5994 33.1C49.6994 34.4 51.1994 36 53.2994 37.2C53.3994 37.3 53.5994 37.4 53.6994 37.8C53.9994 38.7 54.2994 39.5 54.5994 40.4L45.9994 43.5L41.6994 45.1L34.1994 47.8L12.8994 55.7L12.7994 55.5C12.4994 54.7 12.2994 54 11.9994 53.2C11.8994 52.8 11.8994 52.6 11.9994 52.4C12.4994 51 12.7994 49.4 12.8994 47.6C13.0994 45.2 12.8994 42.8 12.4994 40.1C11.9994 37.3 11.2994 34.4 10.2994 31.6C9.29937 28.8 8.89937 26.2 9.09937 23.7C9.29937 21.2 10.0994 18.9 11.4994 16.8C12.4994 15.3 13.7994 13.9 15.3994 12.7C16.6994 11.7 17.0994 10.2 16.4994 8.7C16.3994 8.4 16.2994 8.2 16.1994 7.9L16.0994 7.6C15.8994 6.9 15.7994 6.3 15.8994 5.8C16.1994 4.1 17.3994 3 18.9994 3C19.0994 3 19.2994 3 19.3994 3C20.6994 3.1 21.4994 3.8 22.0994 5.1C22.1994 5.4 22.2994 5.7 22.3994 6.1L22.4994 6.4C22.8994 7.8 24.1994 8.7 25.5994 8.7H25.6994H25.7994C25.8994 8.7 25.8994 8.7 25.9994 8.7H26.2994H26.5994H27.1994C27.2994 8.7 27.4994 8.7 27.5994 8.7C27.8994 7.7 28.2994 6.7 28.7994 5.8C27.9994 5.7 27.1994 5.7 26.4994 5.6V5.7C26.2994 5.7 26.0994 5.7 25.8994 5.7C25.7994 5.7 25.5994 5.7 25.4994 5.7C25.2994 5.7 25.2994 5.6 25.1994 5.5C24.9994 5 24.8994 4.5 24.6994 4C23.7994 1.7 21.9994 0.3 19.5994 0C19.2994 0 19.0994 0 18.8994 0C15.8994 0 13.3994 2.1 12.7994 5.2C12.7994 6.3 12.8994 7.4 13.1994 8.4C13.2994 8.8 13.4994 9.2 13.5994 9.6C13.6994 9.8 13.5994 10 13.3994 10.1C11.5994 11.5 10.0994 13.1 8.89937 14.9C7.19937 17.4 6.29937 20.2 5.99937 23.2C5.69937 26.4 6.29937 29.4 7.29937 32.4C8.19937 35 8.89937 37.7 9.39937 40.4C9.79937 42.7 9.89937 44.9 9.79937 47.2C9.69937 48.6 9.49937 49.9 9.09937 51.2C8.79937 52.1 8.79937 53.1 9.09937 54C9.49937 55.1 9.89937 56.2 10.2994 57.3C10.5994 58.2 11.2994 58.7 12.1994 58.7C12.4994 58.7 12.6994 58.6 12.9994 58.5C22.9994 55.2 32.8994 51.6 42.8994 48C47.4994 46.3 51.9994 44.7 56.5994 43C57.7994 42.5 58.2994 41.4 57.7994 40.2Z" fill="#B6B6B6"/>
<path d="M41.1985 52.2002C40.0985 52.6002 39.0985 52.9002 37.9985 53.3002C35.5985 54.2002 33.2985 55.0002 30.8985 55.9002C29.9985 56.2002 29.5985 56.9002 29.7985 57.9002C30.2985 60.7002 31.8985 62.7002 34.5985 63.7002C38.5985 65.1002 43.0985 62.5002 43.7985 58.2002C43.8985 57.8002 43.8985 57.3002 43.9985 56.8002C43.9985 55.3002 43.4985 53.9002 42.5985 52.7002C42.2985 52.2002 41.6985 52.0002 41.1985 52.2002Z" fill="#B6B6B6"/>
<path d="M44 0C39 0 34.7 2.6 32.2 6.5C31.7 7.4 31.2 8.3 30.9 9.2C30.3 10.7 30 12.3 30 14C30 21.7 36.3 28 44 28C44.4 28 44.8 28 45.2 27.9C46.3 27.8 47.3 27.6 48.3 27.3C53.9 25.5 58 20.2 58 14C58 6.3 51.7 0 44 0ZM48.6 18.3L44.6 15.1L44.2 18.3L43.9 20.2L41.5 19.7L41 19.6L41.2 19L42.6 14.9V14.8H42.5L39.4 15.5L38 15.8L37.9 13.5V12.9H41.3H42.6L40.2 8.4L43 7.2L44.4 12.1L47.8 8.8L49.7 11L45.7 13.5L50.2 15.9L48.6 18.3Z" fill="#741314"/>
</g>
<defs>
<clipPath id="clip0">
<rect width="52" height="64" fill="white" transform="translate(6)"/>
</clipPath>
</defs>
</svg>
