<svg width="135" height="40" viewBox="0 0 135 40" fill="none" xmlns="http://www.w3.org/2000/svg">
<path d="M3.73743 20C3.73743 8.95705 12.6696 0 23.682 0C34.6943 0 43.6265 8.95705 43.6265 20C43.6265 31.0429 34.6943 40 23.682 40C12.6696 40 3.73743 31.0429 3.73743 20Z" fill="#DAA427"/>
<path d="M4.65466 19.938C4.65466 9.38583 13.2198 0.796875 23.7427 0.796875C34.2656 0.796875 42.8307 9.38583 42.8307 19.938C42.8307 30.4901 34.2656 39.0791 23.7427 39.0791C13.1586 39.0791 4.65466 30.4901 4.65466 19.938Z" fill="#205264"/>
<path d="M23.6817 30.673C23.2534 30.9184 20.3168 33.4337 14.4435 33.4337C9.48799 33.4337 4.16537 30.9184 2.51352 30.9797C1.96291 30.9797 1.47347 31.1024 1.1064 31.2251C0.43342 31.5319 -0.0560165 31.0411 0.00516305 30.673C0.0663426 30.3049 0.616958 29.5687 1.04522 29.0165C1.53465 28.3417 2.32999 27.6668 3.1865 27.0533C5.5725 25.4582 7.71379 25.3969 8.69266 25.5809C8.81502 25.5809 9.24328 25.6423 9.91625 26.2558C11.5069 27.7895 14.4435 29.7527 16.646 30.1208C16.8907 30.1208 17.8696 30.2435 17.9308 29.9368C17.9308 29.7527 17.6861 29.6914 17.5637 29.6914C14.0153 28.8938 11.9352 27.1147 9.97743 25.3355C8.38676 23.8631 7.16317 22.084 6.24548 20.3049C5.51132 18.8938 4.53245 16.1331 2.63588 15.2128C2.20763 15.0288 2.20763 14.2312 3.06414 14.0472C3.67594 13.9245 7.28553 13.5564 11.6293 15.8877C13.3423 16.8079 13.8929 17.8509 13.9541 18.0963C13.9541 18.0963 14.0765 18.1576 14.0765 18.5871C14.3212 24.8447 17.0743 26.992 18.4202 27.9122C18.9708 28.3417 19.6438 28.5257 19.8273 28.3417C19.8885 28.2803 19.705 28.0349 19.5214 27.9736C15.6671 25.4582 14.933 22.1453 14.7494 18.5871C14.5659 15.0288 16.0342 12.0227 16.9519 9.50732C17.0743 9.13922 17.6249 7.54413 17.1966 6.19443C16.9519 5.27419 17.1966 5.02879 17.7472 4.96744C18.2367 4.90609 19.032 5.94903 19.3379 6.31713C19.5214 6.56253 20.2556 7.36008 21.2956 9.44597C23.3146 13.5564 23.3758 18.0349 23.3758 18.5871C23.3146 21.5319 22.8251 21.7159 21.418 22.3908C20.2556 22.8202 19.5826 23.8018 19.5826 24.6607C19.5826 25.5809 20.2556 26.2558 21.5404 26.8079C21.6015 26.8079 21.7851 26.8693 21.8463 26.8693C22.3969 26.992 22.8863 26.8693 22.8863 26.6852C22.8863 26.5012 22.3357 26.4398 22.3357 26.4398C21.1121 26.1331 20.2556 25.4582 20.2556 24.6607C20.2556 23.5564 21.7851 22.5134 23.6817 22.5134H23.804H23.9264C25.8841 22.5134 27.3524 23.6177 27.3524 24.6607C27.3524 25.4582 26.4959 26.1331 25.2723 26.4398C25.2723 26.4398 24.7217 26.5012 24.7217 26.6852C24.7217 26.8693 25.15 26.992 25.7618 26.8693C25.8229 26.8693 25.9453 26.8079 26.0677 26.8079C27.3524 26.2558 28.0254 25.5809 28.0254 24.6607C28.0254 23.7404 27.3524 22.8202 26.19 22.3908C24.7829 21.7159 24.2323 21.5319 24.2323 18.5871C24.2323 18.0963 24.2323 13.5564 26.3124 9.44597C27.3524 7.36008 28.0254 6.56253 28.2701 6.31713C28.5148 6.01038 29.3102 4.90609 29.8608 4.96744C30.3502 5.02879 30.6561 5.27419 30.4114 6.19443C29.9831 7.54413 30.5338 9.20057 30.6561 9.50732C31.5738 12.0227 33.1033 15.0901 32.8586 18.5871C32.4303 22.1453 31.6962 25.3969 27.8419 27.9736C27.7195 28.0963 27.4748 28.2803 27.536 28.3417C27.7195 28.5257 28.3925 28.3417 28.9431 27.9122C30.289 26.9306 33.0421 24.8447 33.2868 18.5871C33.2868 18.1576 33.4092 18.0963 33.4092 18.0963C33.4704 17.8509 34.021 16.8079 35.734 15.8877C40.0778 13.5564 43.7485 13.8631 44.2992 14.0472C45.1557 14.2312 45.1557 15.0288 44.7274 15.2128C42.892 16.1331 41.852 18.9552 41.1178 20.3049C40.2001 22.084 38.9765 23.8631 37.3859 25.3355C35.4281 27.1147 33.348 28.8938 29.7996 29.6914C29.6772 29.6914 29.4325 29.7527 29.4325 29.9368C29.4325 30.2435 30.4726 30.1208 30.7173 30.1208C32.9198 29.7527 35.8564 27.7895 37.447 26.2558C38.12 25.5809 38.5483 25.5809 38.6706 25.5809C39.6495 25.3969 41.7908 25.4582 44.1768 27.0533C45.0333 27.6055 45.8286 28.3417 46.3181 29.0165C46.7463 29.5687 47.297 30.3049 47.3581 30.673C47.4193 31.0411 46.9911 31.5319 46.2569 31.2251C45.8898 31.0411 45.4004 30.9184 44.8498 30.9797C43.1979 30.9184 37.8753 33.4337 32.9198 33.4337C27.0465 33.3723 24.1099 30.857 23.6817 30.673Z" fill="#DCA50F"/>
<path d="M83.1492 34.9082H82.721L81.9256 36.1965C81.8645 36.3192 81.8645 36.3806 81.8033 36.4419C81.8033 36.3806 81.7421 36.3192 81.6809 36.1965L80.8244 34.9082H80.2738L81.4974 36.7487V37.9143H81.9256V36.6873L83.1492 34.9082Z" fill="#205264"/>
<path d="M52.4967 36.81L53.0473 35.7671C53.1085 35.6444 53.1085 35.583 53.1697 35.5217C53.1697 35.583 53.2308 35.6444 53.292 35.7671L53.7815 36.81H52.4967ZM53.2309 34.9082H53.1085L51.5178 37.9143H51.9461L52.3743 37.0554H53.8426L54.2709 37.9143H54.7603L53.2309 34.9082Z" fill="#205264"/>
<path d="M58.3708 35.6441C58.432 35.6441 58.432 35.6441 58.4931 35.5827C58.432 35.0306 58.0037 34.7852 57.4531 34.7852C56.7801 34.7852 56.3518 35.2146 56.3518 35.6441C56.3518 36.2576 56.9636 36.3803 57.1472 36.4416C57.2084 36.4416 57.4531 36.503 57.5143 36.503C57.8202 36.5643 57.9425 36.6257 58.0649 36.7484C58.1261 36.871 58.1872 36.9937 58.1872 37.0551C58.1872 37.4232 57.8202 37.6686 57.3919 37.6686C57.2084 37.6686 56.9636 37.6072 56.7189 37.4845C56.4742 37.3005 56.413 37.1778 56.3518 37.0551C56.2907 37.0551 56.2295 37.0551 56.2295 37.1164C56.2295 37.5459 56.5354 37.9753 57.3919 37.9753C58.2484 37.9753 58.6155 37.4845 58.6155 37.0551C58.6155 36.4416 58.0037 36.3189 57.8202 36.2576C57.759 36.2576 57.3307 36.1349 57.2695 36.1349C57.0248 36.0735 56.7801 35.9508 56.7801 35.6441C56.7801 35.3373 57.0248 35.0919 57.4531 35.0919C58.0037 35.0919 58.2484 35.5214 58.3708 35.6441Z" fill="#205264"/>
<path d="M61.918 34.9082H61.4286V37.2395C61.1839 37.4849 60.8168 37.7303 60.3885 37.7303C60.0826 37.7303 59.8379 37.6076 59.7156 37.4235C59.6544 37.3008 59.5932 37.1168 59.5932 36.81V34.9082H59.1038V36.9941C59.1038 37.3008 59.1649 37.5462 59.3485 37.7303C59.532 37.9143 59.8379 38.037 60.2662 38.037C60.6944 38.037 61.1227 37.9143 61.4286 37.4849V37.9143H61.918C61.918 37.9143 61.918 34.9082 61.918 34.9082Z" fill="#205264"/>
<path d="M63.3262 35.1536H63.7545C63.938 35.1536 64.5498 35.1536 64.5498 35.6444C64.5498 36.1965 63.8157 36.2579 63.3262 36.2579V35.1536ZM63.3262 36.4419C63.9992 36.4419 64.7334 36.4419 64.7334 37.1168C64.7334 37.2395 64.6722 37.4235 64.5498 37.4849C64.3051 37.6689 63.9992 37.6689 63.8157 37.6689H63.3262V36.4419ZM63.9992 37.9143C64.4275 37.9143 64.6722 37.853 64.9169 37.6689C65.1616 37.4849 65.2228 37.2395 65.2228 37.0554C65.2228 36.81 65.1004 36.626 64.9169 36.5033C64.6722 36.3192 64.4275 36.3192 64.2439 36.3192C64.3663 36.3192 64.611 36.2579 64.7945 36.0738C64.9169 35.9511 64.9781 35.7671 64.9781 35.6444C64.9781 35.4603 64.9169 35.2763 64.6722 35.0922C64.4275 34.9082 64.1216 34.9082 63.8768 34.9082H62.8368V37.9143C62.8368 37.9143 63.9992 37.9143 63.9992 37.9143Z" fill="#205264"/>
<path d="M67.7311 35.6441C67.7923 35.6441 67.7923 35.6441 67.8535 35.5827C67.7923 35.0306 67.364 34.7852 66.8134 34.7852C66.1405 34.7852 65.7122 35.2146 65.7122 35.6441C65.7122 36.2576 66.324 36.3803 66.5075 36.4416C66.5687 36.4416 66.8134 36.503 66.8746 36.503C67.1805 36.5643 67.3029 36.6257 67.4252 36.7484C67.4864 36.871 67.5476 36.9937 67.5476 37.0551C67.5476 37.4232 67.1805 37.6686 66.7523 37.6686C66.5687 37.6686 66.324 37.6072 66.0793 37.4845C65.8346 37.3005 65.7734 37.1778 65.7122 37.0551C65.651 37.0551 65.651 37.0551 65.5898 37.1164C65.5898 37.5459 65.8957 37.9753 66.7523 37.9753C67.6088 37.9753 67.9758 37.4845 67.9758 37.0551C67.9758 36.4416 67.3641 36.3189 67.1805 36.2576C67.1193 36.2576 66.6911 36.1349 66.6299 36.1349C66.3852 36.0735 66.1405 35.9508 66.1405 35.6441C66.1405 35.3373 66.3852 35.0919 66.8134 35.0919C67.364 35.0919 67.6088 35.5214 67.7311 35.6441Z" fill="#205264"/>
<path d="M69.0148 34.9082H68.5254V37.9143H69.0148V34.9082Z" fill="#205264"/>
<path d="M70.3617 35.1544H70.79C71.157 35.1544 71.6465 35.1544 72.0136 35.5225C72.1971 35.7066 72.3195 36.0133 72.3195 36.4428C72.3195 37.0562 71.9524 37.363 71.7688 37.4857C71.5241 37.6697 71.2794 37.6697 70.79 37.6697H70.3617V35.1544ZM70.9735 37.9151C71.5853 37.9151 72.0136 37.7924 72.3806 37.4857C72.6865 37.2403 72.8701 36.8722 72.8701 36.3814C72.8701 35.8906 72.6253 35.4612 72.3195 35.2158C71.9524 34.9704 71.5241 34.8477 71.0959 34.8477H69.9946V37.8538L70.9735 37.9151Z" fill="#205264"/>
<path d="M73.9704 34.9082H73.481V37.9143H73.9704V34.9082Z" fill="#205264"/>
<path d="M75.2559 36.81L75.8065 35.7671C75.8676 35.6444 75.8677 35.583 75.9288 35.5217C75.9288 35.583 75.99 35.6444 76.0512 35.7671L76.5406 36.81H75.2559ZM75.99 34.9082H75.8677L74.277 37.9143H74.7052L75.1335 37.0554H76.663L77.0912 37.9143H77.5807L75.99 34.9082Z" fill="#205264"/>
<path d="M78.3141 35.1544H78.8036C79.1095 35.1544 79.293 35.2158 79.4765 35.3385C79.5989 35.4612 79.5989 35.5839 79.5989 35.7066C79.5989 36.136 79.1095 36.4427 78.3141 36.3814V35.1544ZM79.4765 36.4428C79.5989 36.3814 79.7824 36.3201 79.9048 36.136C80.0272 36.0133 80.0883 35.8293 80.0883 35.6452C80.0883 35.3998 79.966 35.1544 79.7824 35.0317C79.5377 34.909 79.293 34.8477 78.8036 34.8477H77.8859V37.8538H78.3753V36.5655C78.4365 36.5655 78.4977 36.5655 78.62 36.5655C78.8647 36.5655 78.9871 36.5655 79.0483 36.5655L79.966 37.9765H80.4554L79.4765 36.4428Z" fill="#205264"/>
<path d="M87.4301 36.3802C87.4301 37.1778 87.0018 37.7299 86.2677 37.7299C85.6559 37.7299 85.1053 37.2391 85.1053 36.3802C85.1053 35.6441 85.5335 35.0306 86.2677 35.0306C87.063 35.0919 87.4301 35.7054 87.4301 36.3802ZM87.9195 36.3802C87.9195 35.5827 87.3689 34.7852 86.2677 34.7852C85.1665 34.7852 84.6158 35.5214 84.6158 36.3802C84.6158 37.3618 85.2888 37.9753 86.2677 37.9753C87.3077 38.0367 87.9195 37.3005 87.9195 36.3802Z" fill="#205264"/>
<path d="M89.0209 36.5033H90.4281V36.2579H89.0209V35.1536H90.6728V34.9082H88.5315V37.9143H89.0209V36.5033Z" fill="#205264"/>
<path d="M94.8332 34.9082L93.732 37.0554C93.6708 37.2395 93.6096 37.2395 93.6096 37.3008C93.5484 37.2395 93.5484 37.1781 93.4873 37.0554L92.4472 34.9082H91.9578L93.5484 37.9757H93.6708L95.2615 34.9082H94.8332Z" fill="#205264"/>
<path d="M95.9963 34.9082H95.5068V37.9143H95.9963V34.9082Z" fill="#205264"/>
<path d="M97.3416 37.6689V36.5033H98.7487V36.1965H97.3416V35.1536H98.9323V34.9082H96.9133V37.9143H99.177V37.6689H97.3416Z" fill="#205264"/>
<path d="M100.707 35.1536H101.747V34.9082H99.1771V35.1536H100.217V37.9143H100.707V35.1536Z" fill="#205264"/>
<path d="M104.928 34.9082H104.5V37.1781C104.378 37.0554 104.378 36.9941 104.194 36.81L102.42 34.9082H102.053V37.9143H102.481V35.4603C102.542 35.583 102.665 35.7057 102.787 35.7671L104.806 37.9143H104.928V34.9082Z" fill="#205264"/>
<path d="M106.273 36.81L106.823 35.7671C106.884 35.6444 106.884 35.583 106.946 35.5217C106.946 35.583 107.007 35.6444 107.068 35.7671L107.557 36.81H106.273ZM107.007 34.9082H106.884L105.294 37.9143H105.722L106.15 37.0554H107.68L108.108 37.9143H108.597L107.007 34.9082Z" fill="#205264"/>
<path d="M112.087 34.9082H111.842L110.863 36.9941C110.802 37.1781 110.741 37.3008 110.679 37.4235C110.618 37.3008 110.557 37.1168 110.496 36.9327L109.517 34.9082H109.272L108.783 37.9143H109.15L109.395 36.4419C109.456 36.0125 109.456 35.8284 109.456 35.6444C109.517 35.7671 109.517 35.8898 109.701 36.2579L110.496 37.9143H110.741L111.536 36.2579C111.658 36.0125 111.719 35.9511 111.781 35.6444C111.781 35.8284 111.781 35.9511 111.842 36.3806L112.087 37.9757H112.576L112.087 34.9082Z" fill="#205264"/>
<path d="M115.022 36.81L115.573 35.7671C115.634 35.6444 115.634 35.583 115.695 35.5217C115.695 35.583 115.757 35.6444 115.818 35.7671L116.307 36.81H115.022ZM115.757 34.9082H115.634L114.044 37.9143H114.472L114.9 37.0554H116.43L116.858 37.9143H117.347L115.757 34.9082Z" fill="#205264"/>
<path d="M118.205 34.9082H117.715V37.9143H118.205V34.9082Z" fill="#205264"/>
<path d="M119.49 35.1544H119.979C120.285 35.1544 120.469 35.2158 120.652 35.3385C120.775 35.4612 120.775 35.5839 120.775 35.7066C120.775 36.136 120.285 36.4427 119.49 36.3814V35.1544ZM120.591 36.4428C120.714 36.3814 120.897 36.3201 121.02 36.136C121.142 36.0133 121.203 35.8293 121.203 35.6452C121.203 35.3998 121.081 35.1544 120.897 35.0317C120.652 34.909 120.408 34.8477 119.918 34.8477H119.001V37.8538H119.49V36.5655C119.551 36.5655 119.612 36.5655 119.735 36.5655C119.979 36.5655 120.102 36.5655 120.163 36.5655L121.081 37.9765H121.57L120.591 36.4428Z" fill="#205264"/>
<path d="M122.548 37.6689V34.9082H122.059V37.9143H124.2V37.6689H122.548Z" fill="#205264"/>
<path d="M125.056 34.9082H124.567V37.9143H125.056V34.9082Z" fill="#205264"/>
<path d="M128.789 34.9082H128.36V37.1781C128.238 37.0554 128.238 36.9941 128.054 36.81L126.28 34.9082H125.913V37.9143H126.341V35.4603C126.403 35.583 126.525 35.7057 126.647 35.7671L128.666 37.9143H128.789V34.9082Z" fill="#205264"/>
<path d="M130.134 37.6689V36.5033H131.541V36.1965H130.134V35.1536H131.786V34.9082H129.706V37.9143H131.97V37.6689H130.134Z" fill="#205264"/>
<path d="M134.355 35.6441C134.416 35.6441 134.416 35.6441 134.477 35.5827C134.416 35.0306 133.988 34.7852 133.437 34.7852C132.764 34.7852 132.336 35.2146 132.336 35.6441C132.336 36.2576 132.948 36.3803 133.131 36.4416C133.193 36.4416 133.437 36.503 133.499 36.503C133.804 36.5643 133.927 36.6257 134.049 36.7484C134.171 36.871 134.171 36.9937 134.171 37.0551C134.171 37.4232 133.804 37.6686 133.376 37.6686C133.193 37.6686 132.948 37.6072 132.703 37.4845C132.458 37.3005 132.397 37.1778 132.336 37.0551C132.275 37.0551 132.275 37.0551 132.214 37.1164C132.214 37.5459 132.52 37.9753 133.376 37.9753C134.233 37.9753 134.6 37.4845 134.6 37.0551C134.6 36.4416 133.988 36.3189 133.804 36.2576C133.743 36.2576 133.315 36.1349 133.254 36.1349C133.009 36.0735 132.764 35.9508 132.764 35.6441C132.764 35.3373 133.009 35.0919 133.437 35.0919C134.049 35.0919 134.233 35.46 134.355 35.6441Z" fill="#205264"/>
<path d="M68.5264 15.7056L61.0013 31.4725H60.4507L52.9868 16.135C52.6197 15.2761 51.7632 14.2946 50.662 13.1289H55.0057L61.7967 27.0553L68.4652 13.1289H70.1783C69.5053 13.9265 68.9547 14.7853 68.5264 15.7056Z" fill="#205264"/>
<path d="M72.3798 31.2271C72.7468 30.3682 72.9304 29.4479 72.9304 28.3436V15.951C72.9304 14.908 72.7468 13.9878 72.3798 13.1289H76.6623C76.2953 13.9265 76.1117 14.8467 76.1117 15.951V28.3436C76.1117 29.4479 76.2953 30.3682 76.6623 31.2271H72.3798V31.2271Z" fill="#205264"/>
<path d="M93.4874 31.2283L90.2449 24.4799H83.2092L79.9667 31.2283H78.1925C78.8655 30.4308 79.4161 29.5719 79.8444 28.6516L87.4306 12.8848H87.9812L95.4451 28.2222C95.8122 29.0811 96.6687 30.0627 97.77 31.2283C97.77 31.2283 93.4874 31.2283 93.4874 31.2283ZM86.6965 17.2406L83.821 23.1915H89.5719L86.6965 17.2406Z" fill="#205264"/>
<path d="M116.492 25.5199V29.9985C114.412 30.9187 112.026 31.3482 109.273 31.3482C106.887 31.3482 104.807 30.9187 102.971 29.9985C100.83 28.9555 99.3003 27.3604 98.3827 25.3359C98.0156 24.4157 97.832 23.4954 97.832 22.4525C97.832 19.8144 98.9333 17.5445 101.258 15.704C103.461 13.9249 106.152 13.0046 109.211 13.0046C111.475 12.9433 113.8 13.4954 116.002 14.5997L116.247 17.0537C113.983 15.2132 111.659 14.293 109.211 14.293C106.397 14.293 104.256 15.2132 102.849 17.0537C101.748 18.5261 101.197 20.1825 101.319 22.0844C101.442 24.1089 102.237 25.888 103.705 27.5445C105.357 29.3236 107.254 30.1825 109.517 30.1825C111.108 30.1212 112.393 29.9371 113.372 29.5077V25.5199C113.372 24.9065 113.188 24.1703 112.821 23.4341H117.104C116.675 24.293 116.492 25.0292 116.492 25.5199Z" fill="#205264"/>
<path d="M131.358 30.4902C129.767 31.1037 128.115 31.4718 126.463 31.4105C124.322 31.3491 121.997 30.7356 119.55 29.57L119.183 26.9933C121.691 29.0792 124.139 30.1221 126.525 30.2448C127.687 30.3062 128.666 30.1222 129.522 29.6927C130.44 29.2633 130.991 28.5271 131.174 27.6068C131.235 27.3614 131.235 27.0547 131.235 26.8093C131.235 25.889 130.685 24.9688 129.584 24.2326C129.033 23.8645 128.054 23.3123 126.525 22.6375C124.016 21.4718 122.487 20.7356 121.875 20.3062C120.529 19.386 119.795 18.343 119.795 17.2387C119.795 15.889 120.59 14.7847 122.181 13.9258C123.527 13.1896 125.056 12.8215 126.769 12.8215C128.727 12.7602 130.807 13.251 133.071 14.1712L133.316 16.1958C131.419 14.662 129.461 13.9258 127.442 13.9258C127.014 13.9258 126.647 13.9872 126.28 14.0485C124.2 14.4166 123.16 15.2142 123.16 16.3185C123.16 17.5455 124.628 18.8338 127.626 20.0608C130.134 21.1651 131.786 21.9626 132.643 22.6375C133.927 23.6191 134.6 24.7847 134.6 26.1344C134.6 26.5025 134.539 26.932 134.478 27.3001C134.294 28.7111 133.254 29.6927 131.358 30.4902Z" fill="#205264"/>
</svg>
