<svg width="64" height="64" viewBox="0 0 64 64" fill="none" xmlns="http://www.w3.org/2000/svg">
<g clip-path="url(#clip0)">
<path d="M12.1499 16.54L10.8299 13.3H4.72992L3.40992 16.54H0.169922L6.35992 2H9.28992L15.4799 16.54H12.1499ZM7.77992 5.82L5.85992 10.5H9.69992L7.77992 5.82Z" fill="#741213"/>
<path d="M28.6802 9.33955C28.3852 9.95484 27.9585 10.4977 27.4302 10.9296C26.8836 11.3843 26.251 11.7244 25.5702 11.9296C24.8296 12.1456 24.0616 12.2534 23.2902 12.2495H20.8802V16.5795H17.7002V2.09955H23.6002C24.3884 2.08673 25.173 2.20847 25.9202 2.45955C26.5614 2.66616 27.1511 3.00707 27.6502 3.45955C28.1263 3.89696 28.5017 4.43267 28.7502 5.02955C29.0044 5.66554 29.1335 6.34464 29.1302 7.02955C29.1627 7.82413 29.0086 8.61528 28.6802 9.33955ZM25.9102 7.15955C25.928 6.85313 25.875 6.54672 25.7553 6.26406C25.6357 5.98141 25.4526 5.73008 25.2202 5.52955C24.6695 5.14158 24.0023 4.95448 23.3302 4.99955H20.8802V9.37955H23.3902C24.0689 9.42185 24.7369 9.19557 25.2502 8.74955C25.4663 8.55475 25.6374 8.31514 25.7514 8.04743C25.8653 7.77972 25.9196 7.49037 25.9102 7.19955V7.15955Z" fill="#741213"/>
<path d="M31.6299 16.5396V2.09961H34.7999V16.5396H31.6299Z" fill="#741213"/>
<path d="M2.29002 34.1401C2.59028 34.1401 2.88758 34.0808 3.16486 33.9656C3.44213 33.8504 3.69392 33.6816 3.90577 33.4688C4.11762 33.256 4.28536 33.0035 4.39935 32.7257C4.51334 32.448 4.57134 32.1504 4.57002 31.8501V25.0001H11.43V31.8501C11.4093 32.1629 11.4531 32.4766 11.5585 32.7718C11.664 33.067 11.8289 33.3374 12.0431 33.5663C12.2573 33.7951 12.5163 33.9776 12.8038 34.1023C13.0914 34.227 13.4016 34.2914 13.715 34.2914C14.0285 34.2914 14.3386 34.227 14.6262 34.1023C14.9138 33.9776 15.1727 33.7951 15.3869 33.5663C15.6011 33.3374 15.7661 33.067 15.8715 32.7718C15.977 32.4766 16.0207 32.1629 16 31.8501V25.0001H36.77C37.343 28.3924 39.1695 31.4456 41.8875 33.5546C44.6055 35.6637 48.0167 36.6746 51.4449 36.3872C54.8732 36.0997 58.0683 34.5347 60.3971 32.0025C62.7259 29.4702 64.0184 26.1554 64.0184 22.7151C64.0184 19.2748 62.7259 15.9601 60.3971 13.4278C58.0683 10.8956 54.8732 9.33062 51.4449 9.04313C48.0167 8.75564 44.6055 9.7666 41.8875 11.8756C39.1695 13.9847 37.343 17.0379 36.77 20.4301H2.29002C1.98977 20.4288 1.69221 20.4868 1.41443 20.6008C1.13665 20.7148 0.884128 20.8825 0.67135 21.0944C0.458572 21.3062 0.289734 21.558 0.174528 21.8353C0.0593228 22.1126 1.91406e-05 22.4099 2.20286e-05 22.7101V31.8501C-0.0013015 32.1512 0.0570276 32.4496 0.171642 32.7281C0.286257 33.0065 0.454886 33.2595 0.667797 33.4724C0.880707 33.6853 1.13368 33.8539 1.41211 33.9685C1.69055 34.0831 1.98892 34.1415 2.29002 34.1401ZM50.29 13.5701C52.0977 13.5701 53.8649 14.1062 55.3679 15.1105C56.871 16.1148 58.0425 17.5423 58.7343 19.2124C59.4261 20.8825 59.6071 22.7203 59.2544 24.4933C58.9017 26.2663 58.0312 27.8948 56.753 29.1731C55.4747 30.4514 53.8461 31.3219 52.0731 31.6745C50.3002 32.0272 48.4624 31.8462 46.7923 31.1544C45.1222 30.4626 43.6947 29.2911 42.6904 27.7881C41.6861 26.285 41.15 24.5179 41.15 22.7101C41.15 20.2895 42.1102 17.9678 43.82 16.2542C45.5298 14.5407 47.8494 13.5754 50.27 13.5701H50.29Z" fill="#B6B6B5"/>
<path d="M19.2599 61.0796C19.7396 60.7081 20.0521 60.1613 20.129 59.5595C20.2059 58.9576 20.0408 58.3499 19.6699 57.8696L15.4899 52.4396L20.9099 48.2596L25.0999 53.6796C25.2747 53.9396 25.5009 54.1609 25.7646 54.3299C26.0282 54.499 26.3238 54.6121 26.633 54.6624C26.9421 54.7126 27.2583 54.6989 27.5619 54.6221C27.8656 54.5453 28.1503 54.4071 28.3983 54.2159C28.6464 54.0247 28.8527 53.7846 29.0043 53.5105C29.1559 53.2364 29.2496 52.9342 29.2798 52.6224C29.3099 52.3107 29.2758 51.996 29.1795 51.698C29.0832 51.3999 28.9268 51.1248 28.7199 50.8896L24.5299 45.4596L40.9999 32.7796C43.5246 35.1167 46.8351 36.42 50.2753 36.4312C53.7156 36.4424 57.0345 35.1608 59.5744 32.8403C62.1142 30.5198 63.6896 27.3298 63.9883 23.9025C64.287 20.4752 63.2872 17.0608 61.1871 14.3359C59.087 11.611 56.0398 9.77451 52.6495 9.19043C49.2591 8.60635 45.7731 9.31728 42.8822 11.1823C39.9913 13.0474 37.9066 15.9304 37.0413 19.2601C36.1759 22.5898 36.593 26.123 38.2099 29.1596L10.8899 50.2196C10.4087 50.5898 10.0942 51.1358 10.0155 51.7377C9.9367 52.3396 10.1002 52.9482 10.4699 53.4296L16.0499 60.6596C16.42 61.1408 16.9661 61.4553 17.568 61.5341C18.1699 61.6129 18.7785 61.4494 19.2599 61.0796ZM44.6999 15.4796C46.1353 14.3814 47.8641 13.7335 49.6678 13.6176C51.4714 13.5018 53.2689 13.9232 54.833 14.8287C56.3971 15.7343 57.6577 17.0832 58.4554 18.705C59.253 20.3268 59.5519 22.1487 59.3144 23.9403C59.0768 25.732 58.3133 27.413 57.1206 28.7708C55.9278 30.1287 54.3592 31.1024 52.6132 31.569C50.8671 32.0356 49.0219 31.974 47.3108 31.3921C45.5997 30.8102 44.0995 29.734 42.9999 28.2996C42.2692 27.3465 41.7335 26.2586 41.4235 25.0983C41.1134 23.938 41.0351 22.7279 41.193 21.5373C41.3509 20.3467 41.7418 19.1989 42.3436 18.1595C42.9453 17.1201 43.746 16.2094 44.6999 15.4796Z" fill="#B6B6B5"/>
</g>
<defs>
<clipPath id="clip0">
<rect width="64" height="64" fill="white"/>
</clipPath>
</defs>
</svg>
