<svg width="64" height="64" viewBox="0 0 64 64" fill="none" xmlns="http://www.w3.org/2000/svg">
<path d="M54.7953 38.9565V25.0435C55.8393 25.0055 56.8555 24.6969 57.7444 24.1479C58.6332 23.5988 59.3641 22.8283 59.8655 21.9117C60.3668 20.9952 60.6214 19.9641 60.6042 18.9195C60.5871 17.8749 60.2988 16.8527 59.7676 15.9531C59.2365 15.0535 58.4806 14.3074 57.5743 13.7879C56.6679 13.2683 55.6421 12.9932 54.5974 12.9895C53.5527 12.9858 52.5249 13.2537 51.6149 13.7668C50.7049 14.2799 49.9438 15.0207 49.4063 15.9165L37.5153 9.04348C38.0503 8.12899 38.332 7.08848 38.3315 6.02899C38.3315 4.43 37.6963 2.8965 36.5657 1.76585C35.435 0.635195 33.9015 0 32.3025 0C30.7035 0 29.17 0.635195 28.0394 1.76585C26.9087 2.8965 26.2735 4.43 26.2735 6.02899C26.273 7.08848 26.5548 8.12899 27.0898 9.04348L15.1988 15.9072C14.66 15.013 13.8982 14.274 12.988 13.7626C12.0779 13.2512 11.0505 12.9849 10.0065 12.9898C8.96252 12.9946 7.93768 13.2705 7.03234 13.7904C6.127 14.3103 5.37217 15.0564 4.84176 15.9557C4.31136 16.8549 4.02354 17.8764 4.00651 18.9203C3.98947 19.9642 4.24379 20.9946 4.74457 21.9106C5.24535 22.8267 5.97542 23.597 6.86331 24.1462C7.75121 24.6953 8.76649 25.0045 9.80977 25.0435V38.9565C8.76575 38.9945 7.74951 39.3031 6.86068 39.8521C5.97185 40.4012 5.24094 41.1717 4.73959 42.0883C4.23824 43.0048 3.98366 44.0359 4.00081 45.0805C4.01796 46.1251 4.30625 47.1473 4.83742 48.0469C5.36859 48.9465 6.12441 49.6926 7.03078 50.2121C7.93715 50.7317 8.96297 51.0068 10.0077 51.0105C11.0524 51.0142 12.0801 50.7463 12.9901 50.2332C13.9002 49.7201 14.6612 48.9793 15.1988 48.0835L27.0898 54.9473C26.5532 55.8645 26.2714 56.9084 26.2735 57.971C26.2735 59.57 26.9087 61.1035 28.0394 62.2341C29.17 63.3648 30.7035 64 32.3025 64C33.9015 64 35.435 63.3648 36.5657 62.2341C37.6963 61.1035 38.3315 59.57 38.3315 57.971C38.332 56.9115 38.0503 55.871 37.5153 54.9565L49.4063 48.0928C49.9451 48.987 50.7069 49.726 51.617 50.2374C52.5272 50.7488 53.5546 51.0151 54.5985 51.0102C55.6425 51.0054 56.6674 50.7295 57.5727 50.2096C58.4781 49.6897 59.2329 48.9436 59.7633 48.0443C60.2937 47.1451 60.5815 46.1236 60.5985 45.0797C60.6156 44.0358 60.3613 43.0054 59.8605 42.0894C59.3597 41.1733 58.6296 40.403 57.7417 39.8538C56.8538 39.3047 55.8386 38.9955 54.7953 38.9565ZM54.5634 15.7681C55.4244 15.7374 56.2623 16.0499 56.8929 16.637C57.5234 17.224 57.895 18.0376 57.9257 18.8986C57.9565 19.7595 57.6439 20.5975 57.0569 21.228C56.4698 21.8586 55.6563 22.2301 54.7953 22.2609C54.7181 22.266 54.6406 22.266 54.5634 22.2609C54.0706 22.2567 53.5851 22.1411 53.1434 21.9227C52.7016 21.7042 52.3151 21.3886 52.0127 20.9994C51.8697 20.8143 51.7454 20.6154 51.6417 20.4058C51.4802 20.0883 51.3706 19.7469 51.317 19.3948C51.317 19.2649 51.317 19.1443 51.317 19.0145C51.3243 18.1557 51.6686 17.3342 52.2759 16.727C52.8831 16.1197 53.7047 15.7754 54.5634 15.7681ZM29.0561 6.02899C29.0561 5.16799 29.3982 4.34226 30.007 3.73345C30.6158 3.12464 31.4415 2.78261 32.3025 2.78261C33.1635 2.78261 33.9892 3.12464 34.5981 3.73345C35.2069 4.34226 35.5489 5.16799 35.5489 6.02899C35.5482 6.59718 35.3944 7.15468 35.1037 7.6429C34.7735 8.20871 34.2828 8.66385 33.6938 8.95072C33.2748 9.15513 32.8152 9.2629 32.3489 9.26609H32.2561C31.7899 9.2629 31.3303 9.15513 30.9112 8.95072C30.3222 8.66385 29.8316 8.20871 29.5014 7.6429C29.2107 7.15468 29.0569 6.59718 29.0561 6.02899ZM6.79528 19.0145C6.79179 18.3086 7.0191 17.621 7.4426 17.0563C7.86609 16.4916 8.46255 16.0808 9.14113 15.8865C9.81971 15.6922 10.5432 15.7249 11.2014 15.9799C11.8596 16.2348 12.4165 16.6979 12.7872 17.2986C13.1137 17.8113 13.2875 18.4065 13.288 19.0145C13.288 19.1443 13.288 19.2649 13.288 19.3948C13.2344 19.7469 13.1248 20.0883 12.9634 20.4058C12.8596 20.6154 12.7353 20.8143 12.5924 20.9994C12.29 21.3886 11.9034 21.7042 11.4617 21.9227C11.0199 22.1411 10.5345 22.2567 10.0417 22.2609H9.80977C8.98879 22.2043 8.22017 21.8372 7.66021 21.2341C7.10024 20.6311 6.79097 19.8374 6.79528 19.0145ZM10.0417 48.2319C9.61533 48.2471 9.19019 48.1782 8.79049 48.0291C8.3908 47.8801 8.02438 47.6537 7.71216 47.363C7.0816 46.776 6.71009 45.9624 6.67934 45.1015C6.64859 44.2405 6.96112 43.4025 7.54819 42.772C8.13526 42.1414 8.94878 41.7699 9.80977 41.7391H10.0417C10.5345 41.7433 11.0199 41.8589 11.4617 42.0773C11.9034 42.2958 12.29 42.6114 12.5924 43.0006C12.7353 43.1857 12.8596 43.3846 12.9634 43.5942C13.126 43.9112 13.2357 44.2528 13.288 44.6052C13.288 44.7351 13.288 44.8557 13.288 44.9855C13.2808 45.8443 12.9364 46.6658 12.3292 47.273C11.7219 47.8803 10.9004 48.2246 10.0417 48.2319ZM35.5489 57.971C35.5489 58.832 35.2069 59.6577 34.5981 60.2666C33.9892 60.8754 33.1635 61.2174 32.3025 61.2174C31.4415 61.2174 30.6158 60.8754 30.007 60.2666C29.3982 59.6577 29.0561 58.832 29.0561 57.971C29.0569 57.4028 29.2107 56.8453 29.5014 56.3571C29.8316 55.7913 30.3222 55.3362 30.9112 55.0493C31.3295 54.8417 31.7892 54.7307 32.2561 54.7246H32.3489C32.8152 54.7278 33.2748 54.8356 33.6938 55.04C34.2828 55.3269 34.7735 55.782 35.1037 56.3478C35.396 56.8387 35.5498 57.3997 35.5489 57.971ZM35.5489 52.8696C34.9767 52.5114 34.3502 52.2483 33.6938 52.0904V49.1594C33.6938 48.7904 33.5472 48.4365 33.2863 48.1756C33.0254 47.9147 32.6715 47.7681 32.3025 47.7681C31.9335 47.7681 31.5796 47.9147 31.3187 48.1756C31.0578 48.4365 30.9112 48.7904 30.9112 49.1594V52.0997C30.2554 52.2547 29.629 52.5146 29.0561 52.8696L16.0706 45.3565C16.0706 45.2267 16.0706 45.0968 16.0706 44.967C16.0729 44.3373 15.9758 43.7113 15.7831 43.1119L18.1298 41.7577C18.4405 41.5719 18.6671 41.2729 18.7623 40.9236C18.8574 40.5743 18.8135 40.2017 18.6399 39.8841C18.4559 39.5764 18.1604 39.3517 17.8148 39.2567C17.4692 39.1616 17.1002 39.2036 16.7848 39.3739L14.3361 40.8116C13.834 40.2986 13.2432 39.8807 12.5924 39.578V24.4684C13.2432 24.1657 13.834 23.7477 14.3361 23.2348L16.7385 24.6168C16.9488 24.7416 17.1896 24.8058 17.4341 24.8023C17.7407 24.8027 18.0388 24.7017 18.2821 24.5152C18.5254 24.3288 18.7003 24.0671 18.7796 23.771C18.8589 23.4749 18.8382 23.1608 18.7207 22.8777C18.6032 22.5946 18.3955 22.3582 18.1298 22.2052L15.7831 20.851C15.9758 20.2516 16.0729 19.6256 16.0706 18.9959C16.0706 18.8661 16.0706 18.7362 16.0706 18.6064L29.0561 11.1304C29.6275 11.4902 30.2543 11.7535 30.9112 11.9096V14.8406C30.9112 15.2096 31.0578 15.5635 31.3187 15.8244C31.5796 16.0853 31.9335 16.2319 32.3025 16.2319C32.6715 16.2319 33.0254 16.0853 33.2863 15.8244C33.5472 15.5635 33.6938 15.2096 33.6938 14.8406V11.891C34.3496 11.7407 34.9763 11.4837 35.5489 11.1304L48.5344 18.6435C48.5344 18.7733 48.5344 18.9032 48.5344 19.033C48.5322 19.6627 48.6292 20.2887 48.8219 20.8881L46.4753 22.2423C46.2089 22.3956 46.0008 22.6329 45.8834 22.917C45.7661 23.201 45.7461 23.516 45.8266 23.8126C45.9071 24.1092 46.0836 24.3709 46.3285 24.5566C46.5733 24.7424 46.8729 24.8418 47.1802 24.8394C47.4217 24.8417 47.6591 24.7775 47.8666 24.6539L50.2689 23.2719C50.7711 23.7848 51.3618 24.2028 52.0127 24.5055V39.5316C51.3581 39.8482 50.7671 40.282 50.2689 40.8116L47.8666 39.4296C47.5522 39.2545 47.1817 39.2099 46.8347 39.3053C46.4878 39.4007 46.1922 39.6285 46.0115 39.9397C45.826 40.2583 45.7746 40.6376 45.8685 40.9941C45.9624 41.3506 46.194 41.6553 46.5124 41.8412L48.859 43.1954C48.6663 43.7948 48.5693 44.4208 48.5715 45.0504C48.5715 45.1803 48.5715 45.3101 48.5715 45.44L35.5489 52.8696ZM54.5634 48.2319C53.7047 48.2246 52.8831 47.8803 52.2759 47.273C51.6686 46.6658 51.3243 45.8443 51.317 44.9855C51.317 44.8557 51.317 44.7351 51.317 44.6052C51.3693 44.2528 51.479 43.9112 51.6417 43.5942L52.0127 43.0006C52.3151 42.6114 52.7016 42.2958 53.1434 42.0773C53.5851 41.8589 54.0706 41.7433 54.5634 41.7391C54.6406 41.734 54.7181 41.734 54.7953 41.7391C55.6563 41.7699 56.4698 42.1414 57.0569 42.772C57.6439 43.4025 57.9565 44.2405 57.9257 45.1015C57.895 45.9624 57.5234 46.776 56.8929 47.363C56.2623 47.9501 55.4244 48.2626 54.5634 48.2319Z" fill="#B6B6B5"/>
<path d="M31.0497 22.8827C30.8168 22.0209 30.3558 21.2378 29.7151 20.6161C29.0745 19.9944 28.278 19.557 27.4096 19.35C26.5412 19.1431 25.633 19.1742 24.7808 19.4402C23.9286 19.7061 23.164 20.1971 22.5674 20.8612C21.9709 21.5254 21.5646 22.3381 21.3913 23.2139C21.218 24.0896 21.2841 24.9959 21.5828 25.8372C21.8814 26.6785 22.4015 27.4237 23.0882 27.9941C23.7748 28.5646 24.6027 28.9393 25.4845 29.0786C25.5985 27.5766 26.2062 26.1544 27.2128 25.0337C28.2194 23.913 29.5684 23.1567 31.0497 22.8827Z" fill="#741213"/>
<path d="M38.6933 19.209C37.5947 19.2083 36.527 19.5723 35.6575 20.2437C34.788 20.9151 34.1659 21.8561 33.8887 22.9191C35.2996 23.2595 36.5659 24.0395 37.5045 25.1466C38.4432 26.2536 39.0056 27.6304 39.1107 29.078C40.3839 28.9676 41.5655 28.3703 42.4092 27.4104C43.253 26.4505 43.6939 25.2021 43.6401 23.9253C43.5863 22.6484 43.0419 21.4415 42.1204 20.5561C41.1989 19.6706 39.9713 19.1747 38.6933 19.1719V19.209Z" fill="#741213"/>
<path d="M32.3017 34.5604C35.0474 34.5604 37.2733 32.3345 37.2733 29.5888C37.2733 26.843 35.0474 24.6172 32.3017 24.6172C29.5559 24.6172 27.3301 26.843 27.3301 29.5888C27.3301 32.3345 29.5559 34.5604 32.3017 34.5604Z" fill="#741213"/>
<path d="M28.1289 35.005C26.7881 33.9787 25.8759 32.4914 25.5689 30.8311C23.7656 30.9316 22.012 31.4591 20.4526 32.3703C18.8932 33.2814 17.5726 34.55 16.5996 36.0716C18.1327 37.5108 19.9581 38.6023 21.9515 39.2716C23.5571 37.2846 25.7021 35.8031 28.1289 35.005Z" fill="#741213"/>
<path d="M42.7003 39.3737C44.803 38.7138 46.7282 37.5846 48.3305 36.0716C47.3314 34.5042 45.9637 33.2054 44.3468 32.2886C42.7299 31.3719 40.9131 30.865 39.0551 30.8125C38.7426 32.4804 37.8242 33.9737 36.4766 35.005C38.935 35.8186 41.0996 37.338 42.7003 39.3737Z" fill="#741213"/>
<path d="M32.3031 36.1739C30.3817 36.1678 28.4901 36.6486 26.8048 37.5715C25.1196 38.4944 23.6957 39.8293 22.666 41.4516C25.251 43.9557 28.7088 45.3559 32.3078 45.3559C35.9067 45.3559 39.3645 43.9557 41.9495 41.4516C40.9171 39.8298 39.4913 38.4955 37.8047 37.5728C36.1181 36.65 34.2256 36.1688 32.3031 36.1739Z" fill="#741213"/>
</svg>
