<svg width="64" height="64" viewBox="0 0 64 64" fill="none" xmlns="http://www.w3.org/2000/svg">
<path d="M48.5926 3.33301H4.74074C2.13333 3.33301 0 5.46634 0 8.07375V13.9997H1.77778H3.55556H48.5926H52.1481H60.4444H62.2222H64V8.07375C64 5.46634 61.8667 3.33301 59.2593 3.33301H52.1481H48.5926ZM43.3778 10.4441C42.4296 10.4441 41.7185 9.61449 41.7185 8.66634C41.7185 7.71819 42.4296 6.88856 43.3778 6.88856C44.3259 6.88856 45.037 7.71819 45.037 8.66634C45.037 9.61449 44.3259 10.4441 43.3778 10.4441ZM50.2519 10.4441C49.4222 10.4441 48.7111 9.73301 48.5926 8.90338V8.4293C48.7111 7.59967 49.4222 6.88856 50.2519 6.88856C51.2 6.88856 51.9111 7.71819 51.9111 8.66634C51.9111 9.61449 51.2 10.4441 50.2519 10.4441ZM57.1259 6.88856C58.0741 6.88856 58.7852 7.71819 58.7852 8.66634C58.7852 9.61449 58.0741 10.4441 57.1259 10.4441C56.1778 10.4441 55.4667 9.61449 55.4667 8.66634C55.4667 7.71819 56.1778 6.88856 57.1259 6.88856Z" fill="#74060E"/>
<path d="M3.55556 55.2589C3.55556 55.97 4.02963 56.4441 4.74074 56.4441H59.2593C59.9704 56.4441 60.4445 55.97 60.4445 55.2589V17.333H64V55.2589C64 57.8663 61.8667 59.9997 59.2593 59.9997H4.74074C2.13333 59.9997 0 57.8663 0 55.2589V17.333H3.55556V55.2589Z" fill="#B6B6B5"/>
<path d="M53.8573 20.3861C53.4667 20.0627 52.9533 19.9331 52.4583 20.033C41.8928 22.1697 34.2528 31.564 34.2528 42.4854V47.2593L10.3517 47.2594C9.42096 47.2594 8.66663 48.0221 8.66663 48.9631C8.66663 49.9041 9.42096 50.6668 10.3517 50.6668L35.9379 50.6667C36.8687 50.6667 37.623 49.904 37.623 48.963V46.9088C41.8252 45.7898 45.5732 43.5018 48.5291 40.2377C48.942 39.7816 49.0781 39.1352 48.8845 38.5482L48.3865 37.0371H50.0027C50.6056 37.0371 51.1625 36.7114 51.4631 36.183C53.433 32.7211 54.4738 28.7759 54.4738 24.7736V21.7038C54.4738 21.1936 54.2474 20.71 53.8573 20.3861ZM51.1037 24.774C51.1037 27.8558 50.3787 30.8971 49 33.6297H46.0484C45.5069 33.6297 44.9979 33.8928 44.6815 34.3374C44.3647 34.7815 44.2787 35.3525 44.4498 35.872L45.3652 38.6489C43.1776 40.8358 40.5421 42.4388 37.623 43.3638V42.4854C37.623 33.9354 43.1807 26.4267 51.1037 23.8978V24.774Z" fill="#74060E"/>
<path d="M8.66663 23.0367C8.66663 22.0957 9.42096 21.333 10.3517 21.333H26.2963C27.2372 21.333 28 22.0958 28 23.0367C28 23.9776 27.2372 24.7404 26.2963 24.7404H10.3517C9.42096 24.7404 8.66663 23.9777 8.66663 23.0367Z" fill="#B6B6B5"/>
<path d="M8.66663 31.7779C8.66663 30.8369 9.42096 30.0742 10.3517 30.0742H31.3333C32.2742 30.0742 33.037 30.837 33.037 31.7779C33.037 32.7188 32.2742 33.4816 31.3333 33.4816H10.3517C9.42096 33.4816 8.66663 32.7189 8.66663 31.7779Z" fill="#B6B6B5"/>
<path d="M8.66663 40.5181C8.66663 39.5771 9.42096 38.8145 10.3517 38.8145H28C28.9409 38.8145 29.7037 39.5772 29.7037 40.5182C29.7037 41.4591 28.9409 42.2218 28 42.2218H10.3517C9.42096 42.2218 8.66663 41.4592 8.66663 40.5181Z" fill="#B6B6B5"/>
</svg>
