<svg width="65" height="64" viewBox="0 0 65 64" fill="none" xmlns="http://www.w3.org/2000/svg">
<path d="M8.50116 15.6886C8.99219 11.9568 12.1731 9.16699 15.9371 9.16699H53.098C57.6287 9.16699 61.125 13.1534 60.5339 17.6454L56.4988 48.3121C56.0078 52.0438 52.8269 54.8337 49.0629 54.8337H11.902C7.37125 54.8337 3.87502 50.8473 4.46608 46.3552L8.50116 15.6886Z" stroke="#B7B6B5" stroke-width="5"/>
<path fill-rule="evenodd" clip-rule="evenodd" d="M34.3174 32.1609L24.1449 20.7989C23.0287 19.5521 23.2069 17.617 24.5321 16.5961C25.7049 15.6926 27.3706 15.8301 28.3801 16.9138L40.2824 29.6907C41.6356 31.1435 41.4092 33.4568 39.8001 34.6183L20.8907 48.2226C19.9018 48.9364 18.5325 48.7739 17.7372 47.8484C16.8527 46.819 17.0184 45.2551 18.0989 44.4348L34.3174 32.1609Z" fill="#74060E"/>
<rect x="30.5" y="43.334" width="16.6667" height="5.33334" rx="2.66667" fill="#74060E"/>
</svg>
