<svg width="64" height="64" viewBox="0 0 64 64" fill="none" xmlns="http://www.w3.org/2000/svg">
<g clip-path="url(#clip0)">
<path d="M36 63.2999C33.5 63.6999 30.8 64 28 64C14.7 64 4 58.6 4 51.9V44.2C4 45.5 4.4 46.8 5.2 48C8.4 52.8 17.4 56.2999 28 56.2999C28.9 56.2999 29.8 56.3 30.7 56.2C31.8 59 33.6 61.4999 36 63.2999Z" fill="#B6B6B6"/>
<path d="M29.7 52.6C29.1 52.6 28.6 52.6 28 52.6C18.8 52.6 10.8 50.0001 6.8 46.2001C5.6 45.0001 4.7 43.7001 4.3 42.4001C4.1 41.7001 4 41.1 4 40.5V32.8C4 34.1 4.4 35.4 5.2 36.6C5.6 37.2 6.1 37.9001 6.8 38.4001C8.4 39.9001 10.6 41.2001 13.2 42.2001C17.3 43.8001 22.4 44.8 28 44.8C28.8 44.8 29.5 44.8001 30.3 44.7001C29.8 46.3001 29.5 48.1 29.5 49.8C29.5 50.9 29.6 51.7 29.7 52.6Z" fill="#B6B6B6"/>
<path d="M6.8 27.0999C8.4 28.5999 10.6 29.8999 13.2 30.8999C15.2 31.6999 17.3 32.2999 19.7 32.6999C22.3 33.1999 25.1 33.3999 28 33.3999C30.9 33.3999 33.7 33.0999 36.3 32.6999C38.7 32.2999 40.9 31.5999 42.8 30.8999C45.4 29.8999 47.6 28.4999 49.2 27.0999C49.8 26.4999 50.3 25.8999 50.8 25.2999C51.6 24.0999 52 22.7999 52 21.4999V29.1999C52 29.7999 51.9 30.3999 51.7 30.9999C51.4 31.8999 51 32.6999 50.3 33.4999C49.1 33.1999 47.8 32.9999 46.4 32.9999C40.3 32.9999 35 36.1999 32 40.9999C30.7 41.0999 29.3 41.1999 27.9 41.1999C25 41.1999 22.2 40.8999 19.6 40.4999C15.4 39.6999 11.8 38.3999 9.1 36.6999C8.2 36.0999 7.4 35.4999 6.7 34.8999C5.5 33.6999 4.6 32.3999 4.2 31.0999C4.1 30.2999 4 29.6999 4 29.0999V21.3999C4 22.6999 4.4 23.9999 5.2 25.1999C5.7 25.8999 6.2 26.4999 6.8 27.0999Z" fill="#B6B6B6"/>
<path d="M4 12V17.7C4 18.3 4.1 18.9 4.3 19.5C4.7 20.9 5.6 22.2 6.9 23.3C7.6 24 8.4 24.6 9.3 25.1C12.1 26.8 15.8 28.2 20.1 28.9C22.6 29.3 25.3 29.6 28 29.6C30.7 29.6 33.5 29.4 35.9 28.9C40.2 28.1 43.9 26.8 46.7 25.1C47.6 24.5 48.4 23.9 49.1 23.3C50.4 22.1 51.2 20.8 51.7 19.5C51.9 18.9 52 18.3 52 17.7V12C52 5.4 41.3 0 28 0C14.7 0 4 5.4 4 12ZM10 11C10 10.5 10.1 10.1 10.3 9.6C11.8 5.8 19.1 3 28 3C36.9 3 44.2 5.8 45.7 9.6C45.9 10.1 46 10.5 46 11C46 11.7 45.8 12.4 45.4 13C44.2 15.1 41.2 16.8 37.2 17.8C34.5 18.6 31.4 19 28 19C24.6 19 21.5 18.6 18.8 17.9C14.8 16.8 11.8 15.1 10.6 13.1C10.2 12.4 10 11.7 10 11Z" fill="#B6B6B6"/>
<path d="M59.4 55.3999C58.8 56.8999 57.8 58.2999 56.7 59.4999C54.1 62.2999 50.5 63.9999 46.5 63.9999C46.1 63.9999 45.8 63.9999 45.4 63.8999C44.3 63.7999 43.3 63.5999 42.3 63.2999C41.9 63.1999 41.4 62.9999 41 62.7999C36 60.6999 32.5 55.6999 32.5 49.8999C32.5 46.2999 33.9 42.9999 36.1 40.5999C35.8 41.3999 35.6 42.1999 35.5 43.0999C35.4 44.4999 35.6 45.7999 36.1 47.0999C36.7 48.6999 37.7 50.0999 39 51.0999C39.6 51.5999 40.3 51.9999 41 52.2999C41.3 52.3999 41.5 52.4999 41.8 52.5999C42.1 52.6999 42.4 52.7999 42.8 52.8999C43.4 52.9999 43.9 53.0999 44.5 53.0999C44.6 53.0999 44.6 53.0999 44.6 53.1999C44.6 53.9999 44.6 54.6999 44.6 55.4999C44.6 55.8999 44.9 56.1999 45.2 56.0999C45.3 56.0999 45.5 55.9999 45.6 55.8999C46.3 55.1999 47 54.4999 47.7 53.8999C48.9 52.7999 50.1 51.5999 51.2 50.4999C51.5 50.1999 51.5 49.7999 51.2 49.4999C50.3 48.5999 49.4 47.7999 48.5 46.8999C47.5 45.8999 46.5 44.9999 45.5 43.9999C45.3 43.7999 45.1 43.7999 44.9 43.8999C44.7 43.9999 44.6 44.1999 44.6 44.4999C44.6 44.8999 44.6 45.2999 44.6 45.6999C44.6 46.0999 44.6 46.4999 44.6 46.8999C44.6 46.9999 44.6 46.9999 44.5 46.9999C43.4 46.9999 42.3 46.7999 41.2 46.3999C40.7 46.1999 40.3 46.0999 39.8 45.7999C38.8 45.2999 38 44.5999 37.4 43.5999C37.2 43.2999 37 42.8999 36.9 42.4999C36.6 41.5999 36.4 40.1999 37.3 39.3999C39.8 37.1999 43 35.8999 46.5 35.8999C48.9 35.8999 51.1 36.4999 53 37.4999C55.7 38.8999 57.8 41.1999 59.1 43.8999C59.6 44.9999 60 46.1999 60.2 47.4999C60.3 48.2999 60.4 49.0999 60.4 49.8999C60.5 51.8999 60.1 53.7999 59.4 55.3999Z" fill="#741314"/>
</g>
<defs>
<clipPath id="clip0">
<rect width="56.5" height="64" fill="white" transform="translate(4)"/>
</clipPath>
</defs>
</svg>
