<svg width="64" height="64" viewBox="0 0 64 64" fill="none" xmlns="http://www.w3.org/2000/svg">
<g clip-path="url(#clip0)">
<path d="M62.1309 63.8803L37.6909 64.0003C34.2474 64.0121 30.8354 63.3443 27.6505 62.035C25.9184 61.3229 24.2721 60.4288 22.7381 59.3703C21.4514 58.4825 20.2437 57.479 19.1309 56.3703H26.3109C30.9595 56.3619 35.5431 55.2772 39.7024 53.2012C43.8618 51.1252 47.484 48.1144 50.2853 44.4046C53.0865 40.6947 54.9908 36.3867 55.8488 31.8179C56.3605 29.0929 56.4918 26.3194 56.2462 23.5755C56.08 21.7188 55.7412 19.8757 55.2309 18.0703C56.7077 19.3926 58.0184 20.8663 59.1471 22.4584C61.9487 26.4104 63.6288 31.0925 63.9434 36.0026C64.3848 42.891 62.1036 49.6773 57.5909 54.9003L63.4409 60.6703C63.7029 60.932 63.8817 61.2653 63.955 61.6283C64.0283 61.9913 63.9928 62.3679 63.8529 62.7108C63.7129 63.0536 63.4749 63.3475 63.1685 63.5556C62.8622 63.7637 62.5012 63.8766 62.1309 63.8803Z" fill="#BEBDBC"/>
<path d="M26.3104 52.62C32.3157 52.6201 38.1403 50.5659 42.8168 46.7984C47.4933 43.0309 50.7402 37.777 52.0183 31.9093C53.2963 26.0416 52.5285 19.9132 49.8425 14.5421C47.1565 9.17102 42.7138 4.88045 37.2525 2.38304C31.7911 -0.114359 25.6397 -0.668286 19.8201 0.813269C14.0004 2.29482 8.86273 5.7227 5.26036 10.5275C1.65799 15.3323 -0.192253 21.225 0.0169564 27.2266C0.226166 33.2282 2.48223 38.9777 6.41043 43.52L0.560433 49.29C0.298426 49.5517 0.119551 49.885 0.0462534 50.248C-0.0270439 50.611 0.00850163 50.9876 0.14843 51.3305C0.288358 51.6733 0.526435 51.9673 0.832788 52.1753C1.13914 52.3834 1.50012 52.4963 1.87043 52.5L26.3104 52.62ZM15.1304 17H37.6204C37.8782 16.9812 38.137 17.0157 38.3808 17.1014C38.6247 17.1871 38.8482 17.3221 39.0375 17.4981C39.2267 17.674 39.3777 17.8871 39.4809 18.124C39.5842 18.3609 39.6375 18.6166 39.6375 18.875C39.6375 19.1334 39.5842 19.3891 39.4809 19.626C39.3777 19.8629 39.2267 20.076 39.0375 20.252C38.8482 20.4279 38.6247 20.563 38.3808 20.6487C38.137 20.7344 37.8782 20.7689 37.6204 20.75H15.1304C14.8727 20.7689 14.6138 20.7344 14.37 20.6487C14.1262 20.563 13.9027 20.4279 13.7134 20.252C13.5241 20.076 13.3732 19.8629 13.2699 19.626C13.1667 19.3891 13.1134 19.1334 13.1134 18.875C13.1134 18.6166 13.1667 18.3609 13.2699 18.124C13.3732 17.8871 13.5241 17.674 13.7134 17.4981C13.9027 17.3221 14.1262 17.1871 14.37 17.1014C14.6138 17.0157 14.8727 16.9812 15.1304 17ZM15.1304 24.5H37.6204C37.8782 24.4812 38.137 24.5157 38.3808 24.6014C38.6247 24.6871 38.8482 24.8221 39.0375 24.9981C39.2267 25.174 39.3777 25.3871 39.4809 25.624C39.5842 25.8609 39.6375 26.1166 39.6375 26.375C39.6375 26.6334 39.5842 26.8891 39.4809 27.126C39.3777 27.3629 39.2267 27.576 39.0375 27.752C38.8482 27.9279 38.6247 28.063 38.3808 28.1487C38.137 28.2344 37.8782 28.2689 37.6204 28.25H15.1304C14.8727 28.2689 14.6138 28.2344 14.37 28.1487C14.1262 28.063 13.9027 27.9279 13.7134 27.752C13.5241 27.576 13.3732 27.3629 13.2699 27.126C13.1667 26.8891 13.1134 26.6334 13.1134 26.375C13.1134 26.1166 13.1667 25.8609 13.2699 25.624C13.3732 25.3871 13.5241 25.174 13.7134 24.9981C13.9027 24.8221 14.1262 24.6871 14.37 24.6014C14.6138 24.5157 14.8727 24.4812 15.1304 24.5ZM13.2504 33.88C13.2504 33.3814 13.4485 32.9032 13.8011 32.5507C14.1536 32.1981 14.6318 32 15.1304 32H37.6204C37.8782 31.9812 38.137 32.0157 38.3808 32.1014C38.6247 32.1871 38.8482 32.3221 39.0375 32.4981C39.2267 32.674 39.3777 32.8871 39.4809 33.124C39.5842 33.3609 39.6375 33.6166 39.6375 33.875C39.6375 34.1334 39.5842 34.3891 39.4809 34.626C39.3777 34.8629 39.2267 35.076 39.0375 35.252C38.8482 35.4279 38.6247 35.563 38.3808 35.6487C38.137 35.7343 37.8782 35.7689 37.6204 35.75H15.1304C14.6336 35.75 14.1569 35.5533 13.8046 35.2029C13.4523 34.8525 13.2531 34.3769 13.2504 33.88Z" fill="#741213"/>
</g>
<defs>
<clipPath id="clip0">
<rect width="64" height="64" fill="white"/>
</clipPath>
</defs>
</svg>
