<svg width="64" height="64" viewBox="0 0 64 64" fill="none" xmlns="http://www.w3.org/2000/svg">
<g clip-path="url(#clip0)">
<path d="M34.2397 18.7598H20.6396V21.7598H34.2397V18.7598Z" fill="#B6B6B5"/>
<path d="M40.9396 24.0801H20.6396V27.0801H40.9396V24.0801Z" fill="#B6B6B5"/>
<path d="M57.79 3.82V29.25C57.788 29.3764 57.8149 29.5015 57.8686 29.6159C57.9224 29.7302 58.0015 29.8308 58.1 29.91L64 34.91V54.72C64 55.75 63.5915 56.7379 62.8642 57.4671C62.1368 58.1963 61.15 58.6074 60.12 58.61V55.35C60.288 55.35 60.4493 55.284 60.569 55.1661C60.6888 55.0482 60.7574 54.888 60.76 54.72V36.41L56 32.4C55.541 32.0137 55.1724 31.5314 54.9201 30.9872C54.6679 30.4429 54.5381 29.8499 54.54 29.25V3.88C54.5378 3.7187 54.4748 3.56419 54.3635 3.44737C54.2523 3.33056 54.101 3.26007 53.94 3.25H20C20.1485 2.3472 20.6113 1.52592 21.3067 0.931243C22.002 0.33656 22.8851 0.00672735 23.8 0L53.94 0C54.9535 0.00771602 55.9238 0.411721 56.6433 1.1256C57.3628 1.83949 57.7744 2.80657 57.79 3.82Z" fill="#B6B6B5"/>
<path d="M51.93 9.21965V34.6396C51.9309 34.7646 51.9581 34.8879 52.0098 35.0016C52.0614 35.1153 52.1365 35.2168 52.23 35.2996L58.14 40.2996V60.1196C58.1374 61.1479 57.7277 62.1332 57.0007 62.8603C56.2736 63.5874 55.2882 63.997 54.26 63.9996H47V5.38965H48.1C49.1102 5.40762 50.0739 5.81691 50.7883 6.53131C51.5027 7.24572 51.912 8.20949 51.93 9.21965Z" fill="#B6B6B5"/>
<path d="M14.52 34.8799C11.7377 34.8754 9.01279 35.6708 6.66993 37.1716C4.32706 38.6723 2.46506 40.8149 1.30581 43.3442C0.146551 45.8735 -0.261076 48.6828 0.131501 51.4372C0.524078 54.1917 1.7003 56.7752 3.52002 58.8799C3.63201 58.5872 3.79447 58.3165 4.00002 58.0799L7.90002 54.1899C7.94218 54.1355 7.96507 54.0687 7.96507 53.9999C7.96507 53.9311 7.94218 53.8643 7.90002 53.8099C7.03712 52.3615 6.68814 50.6643 6.90954 48.9929C7.13094 47.3215 7.90976 45.7737 9.12002 44.5999C10.5553 43.1906 12.4891 42.405 14.5006 42.4142C16.5121 42.4234 18.4386 43.2266 19.861 44.6489C21.2834 46.0713 22.0865 47.9978 22.0957 50.0093C22.1049 52.0208 21.3193 53.9546 19.91 55.3899C18.7267 56.5875 17.1749 57.3521 15.5043 57.5607C13.8337 57.7693 12.1415 57.4097 10.7 56.5399C10.6387 56.5036 10.5671 56.4889 10.4964 56.4979C10.4258 56.507 10.3602 56.5394 10.31 56.5899L6.43002 60.4699C6.23296 60.6664 6.00702 60.8317 5.76002 60.9599C7.59531 62.3489 9.73471 63.2814 12.0015 63.6803C14.2683 64.0792 16.5976 63.9332 18.7968 63.2542C20.996 62.5752 23.0022 61.3828 24.6496 59.7755C26.297 58.1681 27.5384 56.1919 28.2713 54.01C29.0041 51.8281 29.2074 49.5032 28.8644 47.2273C28.5213 44.9513 27.6418 42.7896 26.2984 40.9207C24.9549 39.0518 23.1862 37.5293 21.1382 36.4789C19.0902 35.4286 16.8217 34.8805 14.52 34.8799Z" fill="#741213"/>
<path d="M18.5004 53.9999C19.2857 53.2098 19.8196 52.2048 20.0344 51.1117C20.2493 50.0186 20.1357 48.8863 19.7078 47.8577C19.2799 46.8291 18.557 45.9502 17.6303 45.332C16.7035 44.7137 15.6144 44.3838 14.5004 44.3838C13.3863 44.3838 12.2972 44.7137 11.3704 45.332C10.4437 45.9502 9.72078 46.8291 9.29291 47.8577C8.86504 48.8863 8.75138 50.0186 8.96627 51.1117C9.18116 52.2048 9.71496 53.2098 10.5004 53.9999C11.0245 54.5272 11.6478 54.9457 12.3342 55.2312C13.0207 55.5168 13.7569 55.6638 14.5004 55.6638C15.2439 55.6638 15.98 55.5168 16.6665 55.2312C17.353 54.9457 17.9762 54.5272 18.5004 53.9999ZM10.2904 48.4699C10.8104 47.2648 11.7835 46.3125 12.9996 45.8186C14.2157 45.3246 15.5772 45.3287 16.7904 45.8299C16.9748 45.9115 17.121 46.0605 17.1991 46.2465C17.2772 46.4324 17.2812 46.6411 17.2104 46.8299C17.1269 47.0127 16.9777 47.1574 16.7924 47.2353C16.6071 47.3131 16.3993 47.3183 16.2104 47.2499C15.384 46.9036 14.4541 46.8985 13.6239 47.2358C12.7938 47.5731 12.131 48.2253 11.7804 49.0499C11.72 49.1913 11.6198 49.312 11.4919 49.3973C11.364 49.4825 11.2141 49.5286 11.0604 49.5299C10.9541 49.5304 10.8488 49.5101 10.7504 49.4699C10.6531 49.4333 10.564 49.3778 10.4882 49.3067C10.4124 49.2355 10.3514 49.1501 10.3087 49.0554C10.2659 48.9606 10.2423 48.8584 10.2392 48.7545C10.236 48.6506 10.2534 48.5471 10.2904 48.4499V48.4699Z" fill="#741213"/>
<path d="M24.1797 64H43.9997V60.75H27.8397C26.7758 61.9973 25.5441 63.0911 24.1797 64Z" fill="#B6B6B5"/>
<path d="M28.9998 5.38965H17.9398C16.9089 5.39229 15.921 5.80297 15.1921 6.53192C14.4631 7.26086 14.0524 8.24877 14.0498 9.27965V31.9096C14.2098 31.9096 14.3598 31.9096 14.5198 31.9096C15.4551 31.9167 16.3882 32.0003 17.3098 32.1596V9.27965C17.3098 9.11256 17.3762 8.95232 17.4943 8.83417C17.6125 8.71602 17.7727 8.64965 17.9398 8.64965H43.9998V5.38965H28.9998Z" fill="#B6B6B5"/>
<path d="M14.52 34.8799C11.7377 34.8754 9.01279 35.6708 6.66993 37.1716C4.32706 38.6723 2.46506 40.8149 1.30581 43.3442C0.146551 45.8735 -0.261076 48.6828 0.131501 51.4372C0.524078 54.1917 1.7003 56.7752 3.52002 58.8799C3.63201 58.5872 3.79447 58.3165 4.00002 58.0799L7.90002 54.1899C7.94218 54.1355 7.96507 54.0687 7.96507 53.9999C7.96507 53.9311 7.94218 53.8643 7.90002 53.8099C7.03712 52.3615 6.68814 50.6643 6.90954 48.9929C7.13094 47.3215 7.90976 45.7737 9.12002 44.5999C10.5553 43.1906 12.4891 42.405 14.5006 42.4142C16.5121 42.4234 18.4386 43.2266 19.861 44.6489C21.2834 46.0713 22.0865 47.9978 22.0957 50.0093C22.1049 52.0208 21.3193 53.9546 19.91 55.3899C18.7267 56.5875 17.1749 57.3521 15.5043 57.5607C13.8337 57.7693 12.1415 57.4097 10.7 56.5399C10.6387 56.5036 10.5671 56.4889 10.4964 56.4979C10.4258 56.507 10.3602 56.5394 10.31 56.5899L6.43002 60.4699C6.23296 60.6664 6.00702 60.8317 5.76002 60.9599C7.59531 62.3489 9.73471 63.2814 12.0015 63.6803C14.2683 64.0792 16.5976 63.9332 18.7968 63.2542C20.996 62.5752 23.0022 61.3828 24.6496 59.7755C26.297 58.1681 27.5384 56.1919 28.2713 54.01C29.0041 51.8281 29.2074 49.5032 28.8644 47.2273C28.5213 44.9513 27.6418 42.7896 26.2984 40.9207C24.9549 39.0518 23.1862 37.5293 21.1382 36.4789C19.0902 35.4286 16.8217 34.8805 14.52 34.8799Z" fill="#741213"/>
<path d="M18.5004 53.9999C19.2857 53.2098 19.8196 52.2048 20.0344 51.1117C20.2493 50.0186 20.1357 48.8863 19.7078 47.8577C19.2799 46.8291 18.557 45.9502 17.6303 45.332C16.7035 44.7137 15.6144 44.3838 14.5004 44.3838C13.3863 44.3838 12.2972 44.7137 11.3704 45.332C10.4437 45.9502 9.72078 46.8291 9.29291 47.8577C8.86504 48.8863 8.75138 50.0186 8.96627 51.1117C9.18116 52.2048 9.71496 53.2098 10.5004 53.9999C11.0245 54.5272 11.6478 54.9457 12.3342 55.2312C13.0207 55.5168 13.7569 55.6638 14.5004 55.6638C15.2439 55.6638 15.98 55.5168 16.6665 55.2312C17.353 54.9457 17.9762 54.5272 18.5004 53.9999ZM10.2904 48.4699C10.8104 47.2648 11.7835 46.3125 12.9996 45.8186C14.2157 45.3246 15.5772 45.3287 16.7904 45.8299C16.9748 45.9115 17.121 46.0605 17.1991 46.2465C17.2772 46.4324 17.2812 46.6411 17.2104 46.8299C17.1269 47.0127 16.9777 47.1574 16.7924 47.2353C16.6071 47.3131 16.3993 47.3183 16.2104 47.2499C15.384 46.9036 14.4541 46.8985 13.6239 47.2358C12.7938 47.5731 12.131 48.2253 11.7804 49.0499C11.72 49.1913 11.6198 49.312 11.4919 49.3973C11.364 49.4825 11.2141 49.5286 11.0604 49.5299C10.9541 49.5304 10.8488 49.5101 10.7504 49.4699C10.6531 49.4333 10.564 49.3778 10.4882 49.3067C10.4124 49.2355 10.3514 49.1501 10.3087 49.0554C10.2659 48.9606 10.2423 48.8584 10.2392 48.7545C10.236 48.6506 10.2534 48.5471 10.2904 48.4499V48.4699Z" fill="#741213"/>
</g>
<defs>
<clipPath id="clip0">
<rect width="64" height="64" fill="white"/>
</clipPath>
</defs>
</svg>
