<svg width="64" height="64" viewBox="0 0 64 64" fill="none" xmlns="http://www.w3.org/2000/svg">
<path d="M26.56 7C23.6095 7.70046 20.7973 8.89026 18.24 10.52L11.52 7.32L7 11.84L10.2 18.56C8.67268 21.0185 7.58952 23.7264 7 26.56L0 28.8V35.2L7 37.76C7.70342 40.6096 8.8943 43.3162 10.52 45.76L7.32 52.48L11.52 57L18.24 53.8C20.6985 55.3273 23.4064 56.4105 26.24 57L28.8 64H35.2L37.76 57C40.5673 56.3256 43.262 55.2477 45.76 53.8L52.48 57L57 52.48L53.8 45.76C55.4257 43.3162 56.6166 40.6096 57.32 37.76L64 35.2V28.8L57 26.24C56.68 25.24 56.36 24 56 23.04L50.88 28.16C51.4111 30.7919 51.3852 33.5059 50.8039 36.1272C50.2225 38.7485 49.0987 41.2191 47.5048 43.3797C45.9108 45.5404 43.8821 47.3433 41.5491 48.6725C39.2162 50.0016 36.6308 50.8274 33.9593 51.0968C31.2879 51.3662 28.5897 51.0732 26.0383 50.2366C23.487 49.4 21.1391 48.0384 19.1459 46.2395C17.1527 44.4405 15.5582 42.2441 14.4653 39.7916C13.3723 37.3392 12.8051 34.685 12.8 32C12.8 20.16 23.36 11.2 34.56 13.12L40 7.68C39.1936 7.30385 38.3268 7.07362 37.44 7L35.2 0H28.8L26.56 7Z" fill="#B6B6B5"/>
<path d="M55.6797 1.27992L36.7997 20.1599C34.5903 19.1776 32.1482 18.8402 29.7552 19.1865C27.3622 19.5328 25.116 20.5488 23.2758 22.1172C21.4355 23.6856 20.0764 25.7424 19.3551 28.0502C18.6339 30.358 18.58 32.8228 19.1997 35.1599L24.9997 29.4399C26.1931 28.2464 27.8118 27.576 29.4997 27.576C31.1875 27.576 32.8062 28.2464 33.9997 29.4399C35.1931 30.6334 35.8636 32.2521 35.8636 33.9399C35.8636 35.6277 35.1931 37.2464 33.9997 38.4399L28.5597 44.1999C37.5597 47.0799 47.7597 37.7999 43.5597 27.1999L62.3997 8.31992C62.8547 7.88655 63.217 7.36528 63.4645 6.7877C63.712 6.21013 63.8397 5.5883 63.8397 4.95992C63.8397 4.33154 63.712 3.70971 63.4645 3.13213C63.217 2.55456 62.8547 2.03328 62.3997 1.59992C60.7997 -0.320081 57.5997 -0.320081 55.6797 1.27992Z" fill="#741213"/>
</svg>
