<svg width="24" height="24" viewBox="0 0 24 24" fill="none" xmlns="http://www.w3.org/2000/svg">
<path d="M0 12C0 5.3736 5.3736 0 12 0C18.6264 0 24 5.3736 24 12C24 18.6264 18.6264 24 12 24C5.3736 24 0 18.6264 0 12Z" fill="#B7B6B5"/>
<path d="M5 8.25195V15.1953L9.79071 12.0174L5 8.25195Z" fill="#170103"/>
<path d="M12.5908 12.2461L18.4845 7.625H5.53027L11.4096 12.2461C11.7573 12.5188 12.2431 12.5188 12.5908 12.2461Z" fill="#170103"/>
<path d="M14.2109 12.018L19.0004 15.1984V8.2627L14.2109 12.018Z" fill="#170103"/>
<path d="M13.0968 12.8913C12.7739 13.1446 12.3869 13.2712 12 13.2712C11.613 13.2712 11.2261 13.1446 10.9032 12.8913L10.4699 12.5508L5 16.1793V16.3748H19V16.1832L13.5306 12.5512L13.0968 12.8913Z" fill="#170103"/>
</svg>
