<svg width="24" height="24" viewBox="0 0 24 24" fill="none" xmlns="http://www.w3.org/2000/svg">
<g clip-path="url(#clip0)">
<path d="M23.5098 11.72C23.4498 11.5 23.3798 11.29 23.2998 11.07C23.2198 10.85 23.1498 10.65 23.0598 10.44L22.9998 10.29H22.9398L22.3298 10.5L21.7298 10.74L21.4598 10.85C20.7301 11.1638 20.0248 11.5315 19.3498 11.95C19.0398 12.15 18.7198 12.37 18.3498 12.6L17.9098 12.93C17.2549 13.4465 16.646 14.0186 16.0898 14.64C15.8398 14.91 15.5998 15.2 15.3698 15.5C14.6426 16.4452 14.0284 17.4722 13.5398 18.56C13.3698 18.94 13.1998 19.35 13.0498 19.77C12.8898 20.23 12.7398 20.71 12.5998 21.21C12.5998 21.36 12.5198 21.5 12.4898 21.64C12.4598 21.78 12.3898 22.04 12.3498 22.25V22.38L12.2598 22.86H13.1298C13.1298 22.74 13.2698 22.58 13.3398 22.43L13.4298 22.25L13.5698 21.99L13.7498 21.64C14.2405 20.7721 14.8202 19.9577 15.4798 19.21C16.3222 18.264 17.3033 17.4514 18.3898 16.8L18.8098 16.55L18.9098 16.5L19.5698 16.17L19.8998 16.02L20.1698 15.92C20.6756 15.7187 21.1932 15.5484 21.7198 15.41L22.3198 15.27C22.5198 15.27 22.7298 15.19 22.9298 15.15C23.1298 15.11 23.6298 15.04 23.9898 15C23.9801 13.8899 23.8186 12.7864 23.5098 11.72Z" fill="#FDB813"/>
<path d="M13.4199 1.5V7.73C14.3551 7.97043 15.1903 8.50024 15.8063 9.24376C16.4223 9.98728 16.7876 10.9065 16.8499 11.87L17.0099 11.75C17.4969 11.3585 18.0079 10.9978 18.5399 10.67C19.3696 10.1517 20.2429 9.70668 21.1499 9.34L21.3699 9.25C21.0666 7.26993 20.1266 5.44253 18.6922 4.04423C17.2578 2.64593 15.4071 1.75282 13.4199 1.5Z" fill="white"/>
<path d="M12.2701 16.78H6.13012L8.73012 15.12C8.23562 14.5237 7.89974 13.8121 7.75361 13.0514C7.60749 12.2906 7.65586 11.5053 7.89424 10.7682C8.13262 10.0311 8.55329 9.36617 9.11722 8.83505C9.68115 8.30392 10.3701 7.92382 11.1201 7.73V1.5C8.90645 1.79337 6.87475 2.88101 5.40312 4.56051C3.93149 6.24001 3.12016 8.39697 3.12012 10.63V17.79C3.12517 18.2291 3.22434 18.6619 3.41095 19.0594C3.59755 19.4569 3.86724 19.8097 4.20183 20.094C4.53641 20.3784 4.92809 20.5876 5.35044 20.7077C5.7728 20.8278 6.21599 20.8558 6.65012 20.79L9.25012 20.39V22.9H10.7601V22.63L10.8501 22.17V22.07C10.8455 22.0368 10.8455 22.0032 10.8501 21.97C10.8501 21.75 10.9401 21.53 11.0001 21.32C11.0209 21.2054 11.0476 21.0919 11.0801 20.98V20.85C11.1501 20.59 11.2301 20.33 11.3101 20.08L11.4001 19.79C11.7423 18.7353 12.1809 17.7143 12.7101 16.74C12.5642 16.7607 12.4174 16.7741 12.2701 16.78Z" fill="white"/>
<path d="M0.740016 16.7602H2.30002V12.2002L0.120016 15.5702C0.045457 15.6846 0.00266522 15.8168 -0.0039725 15.9532C-0.0106102 16.0896 0.019145 16.2253 0.0822425 16.3464C0.14534 16.4675 0.23951 16.5696 0.355097 16.6424C0.470684 16.7151 0.60353 16.7557 0.740016 16.7602Z" fill="white"/>
<path d="M13.4203 9.32965C13.0541 9.18486 12.664 9.11023 12.2703 9.10965C11.7329 9.10242 11.2035 9.23968 10.7373 9.50707C10.2712 9.77445 9.88537 10.1622 9.6203 10.6296C9.34088 11.1054 9.19573 11.648 9.2003 12.1996C9.19949 12.6658 9.30451 13.1261 9.50744 13.5457C9.71036 13.9654 10.0059 14.3336 10.3718 14.6224C10.7377 14.9113 11.1644 15.1133 11.6197 15.2133C12.075 15.3133 12.5471 15.3086 13.0003 15.1996C13.394 15.1006 13.7639 14.924 14.0885 14.6802C14.413 14.4364 14.6856 14.1302 14.8903 13.7796C15.1815 13.3038 15.3371 12.7575 15.3403 12.1996C15.3464 11.5836 15.1664 10.98 14.8238 10.468C14.4812 9.95588 13.9921 9.55914 13.4203 9.32965Z" fill="white"/>
</g>
<defs>
<clipPath id="clip0">
<rect width="24" height="21.4" fill="white" transform="translate(0 1.5)"/>
</clipPath>
</defs>
</svg>
