<svg width="64" height="64" viewBox="0 0 64 64" fill="none" xmlns="http://www.w3.org/2000/svg">
<path fill-rule="evenodd" clip-rule="evenodd" d="M56.3987 9.99935H12.5136C10.8408 9.99935 9.427 11.2393 9.20877 12.8978L4.29649 50.2312C4.0338 52.2276 5.58769 53.9993 7.60134 53.9993H51.4864C53.1593 53.9993 54.573 52.7594 54.7913 51.1009L59.7035 13.7675C59.9662 11.7711 58.4123 9.99935 56.3987 9.99935ZM12.5136 6.66602C9.16789 6.66602 6.34039 9.14585 5.90392 12.463L0.991644 49.7963C0.466263 53.7892 3.57403 57.3327 7.60134 57.3327H51.4864C54.8321 57.3327 57.6596 54.8528 58.0961 51.5357L63.0084 14.2024C63.5338 10.2095 60.426 6.66602 56.3987 6.66602H12.5136Z" fill="#B7B6B5"/>
<path fill-rule="evenodd" clip-rule="evenodd" d="M33.8162 32.1609L23.6437 20.7989C22.5275 19.5521 22.7057 17.617 24.0309 16.5961C25.2036 15.6926 26.8694 15.8301 27.8789 16.9138L39.7811 29.6907C41.1344 31.1435 40.908 33.4568 39.2989 34.6183L20.3895 48.2226C19.4006 48.9364 18.0313 48.7739 17.236 47.8484C16.3515 46.819 16.5172 45.2551 17.5976 44.4348L33.8162 32.1609Z" fill="#74060E"/>
<rect x="30" y="43.332" width="16.6667" height="5.33334" rx="2.66667" fill="#74060E"/>
</svg>
