<svg width="102" height="40" viewBox="0 0 102 40" fill="none" xmlns="http://www.w3.org/2000/svg">
<path d="M56.3449 26.8125C52.5948 26.8125 49.5323 23.75 49.5323 20C49.5323 16.25 52.5948 13.25 56.3449 13.25C60.0949 13.25 63.1573 16.3125 63.1573 20C63.1573 23.75 60.0949 26.8125 56.3449 26.8125Z" fill="#009FE3"/>
<path d="M14.9695 1H22.5946C23.0946 1 23.6571 1.375 23.8446 1.875L37.0945 38.125C37.282 38.625 36.9695 39 36.4695 39H28.9695C28.4695 39 27.907 38.625 27.7195 38.125L25.0946 30.25H11.7195L9.09455 38.125C8.90705 38.625 8.40705 39 7.84455 39H0.782051C0.282051 39 -0.0304492 38.625 0.157051 38.125L13.6571 1.875C13.8446 1.375 14.407 1 14.9695 1ZM23.0946 23.625L18.4696 9.25L13.7195 23.625H23.0946Z" fill="#001589"/>
<path d="M73.1573 1H86.4698C88.8448 1 90.8448 1.25 92.4698 1.8125C94.0948 2.375 95.4073 3.125 96.4698 4C97.4698 4.9375 98.2198 5.9375 98.7198 7.1875C99.1573 8.375 99.4073 9.625 99.4073 10.9375C99.4073 12.125 99.1573 13.25 98.7823 14.125C98.3448 15.0625 97.8448 15.875 97.2198 16.5C96.6573 17.1875 96.0323 17.6875 95.3448 18.0625C94.6573 18.4375 94.0948 18.6875 93.6573 18.8125C94.3448 18.9375 95.1573 19.25 96.0323 19.625C96.9073 20 97.7823 20.625 98.5948 21.3125C99.4073 22.0625 100.095 23 100.595 24.125C101.157 25.25 101.407 26.5625 101.407 28.0625C101.407 30.0625 101.032 31.6875 100.345 33.0625C99.6573 34.4375 98.6573 35.5625 97.4073 36.4375C96.1573 37.3125 94.5948 37.9375 92.7198 38.375C90.9073 38.75 88.8448 39 86.5323 39H73.2198C72.7198 39 72.2823 38.5625 72.2823 38.0625V1.9375C72.2198 1.375 72.6573 1 73.1573 1ZM85.6573 16.1875C86.2823 16.1875 86.9698 16.125 87.5948 15.9375C88.2198 15.8125 88.7823 15.5625 89.2198 15.25C89.7198 14.9375 90.0948 14.5 90.4073 13.9375C90.7198 13.375 90.8448 12.6875 90.8448 11.9375C90.8448 11.125 90.7198 10.4375 90.4073 9.875C90.0948 9.3125 89.7198 8.875 89.2198 8.5625C88.7198 8.25 88.1573 8 87.5323 7.875C86.9073 7.75 86.2823 7.6875 85.6573 7.6875H80.5948V16.25H85.6573V16.1875ZM86.2198 32.375C86.8448 32.375 87.5323 32.3125 88.2823 32.25C89.0323 32.125 89.7198 31.9375 90.4073 31.625C91.0323 31.3125 91.5948 30.8125 92.0323 30.125C92.4698 29.5 92.6573 28.5625 92.6573 27.4375C92.6573 26.4375 92.4698 25.5625 92.0323 24.9375C91.5948 24.3125 91.0948 23.8125 90.4073 23.4375C89.7823 23.0625 89.0323 22.8125 88.2823 22.6875C87.5323 22.5625 86.8448 22.5 86.1573 22.5H80.5948V32.4375L86.2198 32.375Z" fill="#001589"/>
<path d="M63.9061 28.875C61.8436 30.8125 59.0936 32 56.0936 32C49.7186 32 44.5311 26.625 44.5311 20C44.5311 13.375 49.7186 8 56.0936 8C58.9686 8 61.6561 9.125 63.6561 10.9375C64.0311 11.3125 64.5936 11.3125 64.9686 10.9375L69.0936 6.8125C69.4686 6.4375 69.4686 5.875 69.0936 5.5C65.5311 2.125 60.7811 0 55.4686 0C44.5311 0 35.6561 8.9375 35.6561 20C35.6561 31 44.5311 40 55.4686 40C60.8436 40 65.7186 37.8125 69.2811 34.3125C69.6561 33.9375 69.6561 33.375 69.2811 33L65.1561 28.875C64.8436 28.5 64.2811 28.5 63.9061 28.875Z" fill="#001589"/>
</svg>
