<svg width="64" height="64" viewBox="0 0 64 64" fill="none" xmlns="http://www.w3.org/2000/svg">
<g clip-path="url(#clip0)">
<path d="M40.027 29.7475L59.9602 8.88952L55.1661 3.87305L34.8965 24.995C37.1674 24.643 39.9429 28.1633 40.027 29.7475Z" fill="#741112"/>
<path d="M62.6517 6.16058C63.3246 5.45651 63.661 4.57643 63.661 3.60834C63.661 1.58415 62.1471 0 60.2126 0C59.2875 0 58.4464 0.352033 57.7736 1.0561L56.3438 2.46423L61.2219 7.56871L62.6517 6.16058Z" fill="#741112"/>
<path opacity="0.4" d="M61.962 11.503L54.9663 18.8233L48.6703 58.2485L48.1706 60.9674L25.1847 56.9935L14.4913 55.1112L2.89837 53.1243L10.3938 8.47067L41.9742 13.0717L47.4709 7.32003L26.284 8.47067L9.59426 5.54257C8.79475 5.33342 8.09518 5.85629 7.99524 6.58832L0.000143951 54.0654C-0.0997948 54.3792 0.000143948 54.7975 0.200021 55.1112C0.399899 55.4249 0.699715 55.6341 1.09947 55.6341L13.0921 57.7256L13.3919 62.7452C13.3919 63.1635 13.5918 63.4772 13.8916 63.6864C14.0915 63.8955 14.3913 64.0001 14.7911 64.0001C14.891 64.0001 14.891 64.0001 14.891 64.0001L35.4784 61.5949L49.17 64.0001C49.2699 64.0001 49.2699 64.0001 49.3699 64.0001C49.9695 64.0001 50.5691 63.4772 50.6691 62.8498L51.1688 59.8171L62.7617 58.4576C63.4612 58.353 63.9609 57.7256 63.9609 56.9935L61.962 11.503Z" fill="#B7B6B5"/>
<path d="M37.085 27.2823C35.8272 26.1949 35.3184 25.9619 34.0572 26.0502L29.8519 34.059C29.7677 34.499 29.8519 34.8511 30.1042 35.2031C30.3565 35.4671 30.6088 35.5551 30.8611 35.5551C30.9452 35.5551 31.0293 35.5551 31.1134 35.5551L38.7671 30.8027C38.7671 30.7147 39.1032 29.4822 37.085 27.2823Z" fill="#741112"/>
</g>
<defs>
<clipPath id="clip0">
<rect width="64" height="64" fill="white"/>
</clipPath>
</defs>
</svg>
