<svg width="64" height="64" viewBox="0 0 64 64" fill="none" xmlns="http://www.w3.org/2000/svg">
<path d="M12.3 8.3C12.3 8.2 12.4 8.1 12.4 8C12.6 7.4 12.6 6.9 12.6 6.3C12.6 6.1 12.6 5.9 12.6 5.7V5.6C12.6 5.5 12.6 5.4 12.5 5.2C12.5 5 12.4 4.9 12.4 4.7V4.6C12 3.3 11.1 2 9.9 1.2C9.7 1 9.6 0.9 9.4 0.8C9 0.6 8.6 0.4 8.2 0.3C8 0.2 7.8 0.2 7.6 0.1C7.4 0.1 7.2 0.1 7 0C6.7 0 6.5 0 6.3 0C2.8 0 0 2.8 0 6.3C0 6.4 0 6.4 0 6.5C0 6.7 0 6.9 0 7C0 7.2 0 7.3 0.1 7.5C0.1 7.6 0.1 7.6 0.1 7.7C0.2 8.3 0.4 8.8 0.7 9.3V9.4C0.9 9.5 1 9.7 1.1 9.8C1.2 9.9 1.2 10 1.3 10.1C1.4 10.2 1.5 10.3 1.5 10.4C1.7 10.6 1.8 10.7 2 10.9C3 11.8 4.3 12.4 5.7 12.5C5.8 12.5 5.9 12.5 6 12.5C6.1 12.5 6.2 12.5 6.4 12.5C6.6 12.5 6.8 12.5 6.9 12.5H7C7.6 12.4 8.1 12.3 8.7 12.1C8.8 12.1 8.8 12.1 8.9 12C9 12 9.1 11.9 9.3 11.9C9.5 11.8 9.7 11.7 9.9 11.5C11 10.7 11.8 9.6 12.3 8.3ZM8.4 7.7C8.4 7.8 8.3 7.9 8.3 7.9C6.8 9.8 3.8 8.7 3.7 6.3C3.7 4.9 4.8 3.7 6.3 3.7C8.3 3.7 9.6 6.1 8.4 7.7Z" fill="#B7B6B5"/>
<path d="M33.3002 40.7996C39.9828 40.7996 45.4002 35.3823 45.4002 28.6996C45.4002 22.017 39.9828 16.5996 33.3002 16.5996C26.6175 16.5996 21.2002 22.017 21.2002 28.6996C21.2002 35.3823 26.6175 40.7996 33.3002 40.7996Z" fill="#741112"/>
<path d="M62.3002 2.7C60.9002 1.1 58.9002 0 56.6002 0C56.3002 0 56.0002 0 55.8002 0C55.6002 0 55.5002 0 55.3002 0.1C55.2002 0.1 55.1002 0.1 55.0002 0.2C54.8002 0.2 54.6002 0.3 54.4002 0.3C54.4002 0.3 54.4002 0.3 54.3002 0.3C53.9002 0.4 53.6002 0.6 53.2002 0.7C53.1002 0.7 53.0002 0.8 52.9002 0.8C52.8002 0.9 52.7002 0.9 52.6002 1C52.4002 1.1 52.3002 1.2 52.1002 1.3L52.0002 1.4C50.6002 2.5 49.6002 4.1 49.3002 5.9C49.3002 6 49.3002 6.2 49.2002 6.3C49.2002 6.4 49.2002 6.5 49.2002 6.5C49.2002 6.7 49.2002 6.9 49.2002 7.2C49.2002 8.2 49.4002 9.2 49.8002 10V10.1C50.5002 11.6 51.6002 12.9 53.0002 13.6C54.0002 14.2 55.2002 14.5 56.5002 14.5C56.9002 14.5 57.4002 14.5 57.8002 14.4C57.9002 14.4 58.0002 14.4 58.1002 14.4C58.2002 14.4 58.3002 14.3 58.4002 14.3C58.6002 14.2 58.8002 14.2 59.1002 14.1H59.2002C59.8002 13.9 60.3002 13.6 60.8002 13.2C60.8002 13.2 60.8002 13.2 60.9002 13.2C61.1002 13.1 61.3002 12.9 61.5002 12.7C61.6002 12.6 61.6002 12.6 61.7002 12.5C61.8002 12.4 61.9002 12.3 62.0002 12.2C63.0002 11.1 63.7002 9.6 63.9002 8V7.9C63.9002 7.7 63.9002 7.5 63.9002 7.3C64.0002 5.6 63.3002 4 62.3002 2.7ZM53.0002 7.4C53.0002 5.4 54.6002 3.8 56.6002 3.8C58.6002 3.8 60.2002 5.4 60.2002 7.4C60.0002 12.2 53.2002 12.2 53.0002 7.4Z" fill="#B7B6B5"/>
<path d="M44.6 20.3996L51 14.8996C50 14.0996 49.1 13.1996 48.5 12.0996L42 17.5996C43 18.4996 43.9 19.3996 44.6 20.3996Z" fill="#B7B6B5"/>
<path d="M52.6 39.1998C52.6 39.3998 52.6 39.5998 52.5 39.6998C52.5 39.7998 52.5 39.7998 52.5 39.8998C52.5 39.9998 52.5 40.0998 52.5 40.1998C52.5 40.2998 52.5 40.3998 52.5 40.4998C52.5 40.5998 52.5 40.5998 52.5 40.6998C52.5 40.7998 52.5 40.8998 52.6 41.0998C52.6 41.1998 52.6 41.1998 52.6 41.2998C52.6 41.3998 52.7 41.4998 52.7 41.6998C52.7 41.7998 52.8 41.8998 52.8 41.8998C52.8 41.9998 52.9 42.0998 52.9 42.1998C52.9 42.2998 53 42.3998 53.1 42.4998C53.2 42.6998 53.3 42.8998 53.4 42.9998C53.4 42.9998 53.4 43.0998 53.5 43.0998C54.5 44.5998 56.2 45.5998 58.2 45.5998C61.3 45.5998 63.9 43.0998 63.9 39.8998C63.9 37.3998 62.3 35.1998 60 34.4998C59.9 34.4998 59.8 34.3998 59.7 34.3998H59.6C59.3 34.2998 58.9 34.2998 58.5 34.2998C58.4 34.2998 58.3 34.2998 58.2 34.2998H58.1C57.8 34.2998 57.5 34.2998 57.2 34.3998H57.1C56.8 34.4998 56.4 34.5998 56.1 34.6998C55.4 34.9998 54.9 35.2998 54.3 35.7998C53.5 36.6998 52.8 37.8998 52.6 39.1998ZM56.5 39.1998C56.5 39.1998 56.6 39.0998 56.5 39.1998C57.5 37.3998 60.2 38.0998 60.2 40.0998C60.2 41.1998 59.3 42.0998 58.2 42.0998C56.8 42.0998 55.8 40.3998 56.5 39.1998Z" fill="#B7B6B5"/>
<path d="M46.9 32.2998C46.6 33.4998 46.1 34.6998 45.5 35.7998L50.8 38.2998C51.1 36.9998 51.7 35.8998 52.5 34.9998L46.9 32.2998Z" fill="#B7B6B5"/>
<path d="M13.8 9.90039C13.3 11.0004 12.5 12.1004 11.5 12.8004L21.4 21.2004C22.1 20.1004 22.9 19.2004 23.8 18.3004L13.8 9.90039Z" fill="#B7B6B5"/>
<path d="M7.50039 34.3008C3.90039 34.3008 0.900391 36.8008 0.200391 40.2008C0.200391 40.2008 0.200391 40.2008 0.200391 40.3008C0.200391 40.4008 0.200391 40.6008 0.100391 40.7008C0.000390626 41.4008 0.000390626 42.2008 0.100391 42.9008C0.100391 43.0008 0.100391 43.1008 0.100391 43.2008C0.100391 43.3008 0.100391 43.4008 0.200391 43.4008C0.800391 46.0008 2.70039 48.0008 5.10039 48.8008C5.20039 48.8008 5.40039 48.9008 5.50039 48.9008C5.60039 48.9008 5.60039 48.9008 5.70039 49.0008C5.90039 49.0008 6.10039 49.1008 6.40039 49.1008C6.50039 49.1008 6.50039 49.1008 6.60039 49.1008C6.70039 49.1008 6.80039 49.1008 6.90039 49.1008C7.10039 49.1008 7.30039 49.1008 7.50039 49.1008C10.1004 49.1008 12.3004 47.8008 13.7004 45.8008C14.5004 44.6008 15.0004 43.2008 15.0004 41.6008C14.9004 37.6008 11.6004 34.3008 7.50039 34.3008ZM7.50039 45.5008C5.40039 45.5008 3.80039 43.8008 3.80039 41.8008C4.00039 36.8008 11.1004 36.8008 11.3004 41.8008C11.2004 43.8008 9.50039 45.5008 7.50039 45.5008Z" fill="#B7B6B5"/>
<path d="M21.4008 36.3004C20.7008 35.3004 20.2008 34.1004 19.8008 32.9004L14.8008 35.8004C15.6008 36.8004 16.2008 37.9004 16.5008 39.1004L21.4008 36.3004Z" fill="#B7B6B5"/>
<path d="M33.3 49.3998L33.6 42.6998C33.5 42.6998 33.4 42.6998 33.3 42.6998C32.1 42.6998 31 42.4998 29.8 42.2998L29.5 49.1998C30 49.0998 30.5 49.0998 31 49.0998C31.8 49.0998 32.6 49.1998 33.3 49.3998Z" fill="#B7B6B5"/>
<path d="M29.3996 51.2996C26.5996 51.9996 24.5996 54.5996 24.5996 57.4996C24.9996 66.0996 37.1996 66.0996 37.4996 57.4996C37.4996 55.3996 36.4996 53.5996 34.9996 52.3996C34.9996 52.3996 34.9996 52.3996 34.8996 52.3996C34.3996 51.9996 33.8996 51.7996 33.2996 51.4996C32.5996 51.1996 31.7996 51.0996 30.9996 51.0996C30.3996 51.0996 29.8996 51.1996 29.3996 51.2996ZM33.6996 57.5996C33.6996 59.0996 32.4996 60.2996 30.9996 60.2996C29.4996 60.2996 28.2996 59.0996 28.2996 57.5996C28.3996 53.9996 33.5996 53.9996 33.6996 57.5996Z" fill="#B7B6B5"/>
</svg>
