<svg width="64" height="64" viewBox="0 0 64 64" fill="none" xmlns="http://www.w3.org/2000/svg">
<path d="M46 28C40.2 28 35 30.8 31.8 35L25 30.9C25.6 29.4 26 27.7 26 26C26 25 25.9 24 25.6 23L47.6 14.1C49.2 16.4 51.9 18 55 18C60 18 64 14 64 9C64 4 60 0 55 0C50 0 46 4 46 9C46 9.5 46 10 46.1 10.4L24.1 19.3C21.9 15.5 17.7 13 13 13C5.8 13 0 18.8 0 26C0 33.2 5.8 39 13 39C17 39 20.6 37.2 22.9 34.4L29.6 38.5C28.6 40.7 28 43.3 28 46C28 49.9 29.3 53.5 31.4 56.5C33.6 53.5 36.6 51.2 40.2 50C38 48.3 36.6 45.6 36.5 42.6V42.5C36.5 41.1 36.8 39.7 37.4 38.5C38.9 35.3 42.2 33 46 33C51.2 33 55.5 37.3 55.5 42.5C55.5 45.5 54.1 48.3 51.8 50C55.4 51.2 58.4 53.5 60.6 56.5C62.7 53.5 64 49.9 64 46C64 36.1 55.9 28 46 28ZM55 4C57.8 4 60 6.2 60 9C60 11.8 57.8 14 55 14C53.6 14 52.4 13.5 51.5 12.6C50.6 11.7 50 10.4 50 9V8.9C50.1 6.2 52.3 4 55 4ZM13 35C8 35 4 31 4 26C4 21 8 17 13 17C16.1 17 18.7 18.5 20.4 20.9C21.2 22 21.7 23.2 21.9 24.6C22 25 22 25.5 22 26C22 27 21.8 27.9 21.5 28.8C21.1 30.1 20.4 31.3 19.4 32.2C17.8 33.9 15.5 35 13 35Z" fill="#B6B6B5"/>
<path d="M46.0004 52C40.7004 52 36.1004 54.7 33.4004 58.9C36.7004 62 41.1004 64 46.0004 64C50.9004 64 55.3004 62 58.6004 58.9C55.9004 54.7 51.3004 52 46.0004 52Z" fill="#741113"/>
<path d="M49.4 48C51.2 46.9 52.5 44.8 52.5 42.5C52.5 38.9 49.6 36 46 36C43.3 36 41 37.7 40 40C39.7 40.8 39.5 41.6 39.5 42.5C39.5 43.2 39.6 44 39.9 44.6C40.4 46 41.3 47.2 42.6 48C43.6 48.6 44.8 49 46 49C47.2 49 48.4 48.6 49.4 48Z" fill="#741113"/>
</svg>
