<svg width="64" height="64" viewBox="0 0 64 64" fill="none" xmlns="http://www.w3.org/2000/svg">
<g clip-path="url(#clip0)">
<path d="M41.3749 6.82812H2.77012C2.29132 6.82869 1.82283 6.96736 1.42086 7.22749C1.01888 7.48763 0.700468 7.8582 0.503808 8.29475C0.307147 8.73131 0.240584 9.21533 0.312101 9.68876C0.383617 10.1622 0.590178 10.605 0.907012 10.9639L41.5541 56.9216C41.6211 56.9964 41.7031 57.0563 41.7947 57.0972C41.8864 57.1382 41.9856 57.1594 42.086 57.1594C42.1864 57.1594 42.2857 57.1382 42.3773 57.0972C42.469 57.0563 42.551 56.9964 42.6179 56.9216L63.3027 33.8503C63.6982 33.4073 63.9167 32.8342 63.9167 32.2404C63.9167 31.6465 63.6982 31.0735 63.3027 30.6304L42.7147 7.43115C42.5466 7.24168 42.3404 7.08997 42.1094 6.98603C41.8785 6.88208 41.6282 6.82827 41.3749 6.82812Z" fill="#104BC8"/>
<g filter="url(#filter0_d)">
<path d="M42.3767 7.15633C42.3398 7.11457 42.2945 7.08111 42.2438 7.0582C42.193 7.03529 42.138 7.02344 42.0823 7.02344C42.0266 7.02344 41.9715 7.03529 41.9208 7.0582C41.87 7.08111 41.8247 7.11457 41.7879 7.15633L20.1759 31.6053C19.8591 31.9643 19.6525 32.407 19.581 32.8805C19.5095 33.3539 19.576 33.8379 19.7727 34.2745C19.9693 34.711 20.1999 35.481 20.6019 35.7411C21.0038 36.0012 21.5602 35.7405 22.039 35.7411L19.4932 57.5172L33.8433 25.4576L42.3767 7.15633Z" fill="#3587F2"/>
</g>
<path d="M42.3762 7.15633C42.3393 7.11457 42.294 7.08111 42.2433 7.0582C42.1925 7.03529 42.1375 7.02344 42.0818 7.02344C42.0261 7.02344 41.971 7.03529 41.9203 7.0582C41.8695 7.08111 41.8242 7.11457 41.7874 7.15633L0.907012 53.3814C0.590178 53.7404 0.383617 54.1832 0.312101 54.6566C0.240584 55.13 0.307147 55.614 0.503808 56.0506C0.700468 56.4872 1.01888 56.8577 1.42086 57.1179C1.82283 57.378 2.29132 57.5167 2.77012 57.5172H19.4926L53.4695 19.6265L42.3762 7.15633Z" fill="#3587F2"/>
<path d="M63.303 30.6114L53.4701 19.6289L19.4932 57.5197H41.4635C41.7167 57.5196 41.967 57.4658 42.198 57.3618C42.4289 57.2579 42.6352 57.1062 42.8032 56.9167L63.3116 33.8313C63.7058 33.3872 63.9229 32.8135 63.9213 32.2197C63.9197 31.6258 63.6997 31.0533 63.303 30.6114Z" fill="#71BDFD"/>
</g>
<defs>
<filter id="filter0_d" x="15.4932" y="-0.976562" width="30.8838" height="58.4922" filterUnits="userSpaceOnUse" color-interpolation-filters="sRGB">
<feFlood flood-opacity="0" result="BackgroundImageFix"/>
<feColorMatrix in="SourceAlpha" type="matrix" values="0 0 0 0 0 0 0 0 0 0 0 0 0 0 0 0 0 0 127 0" result="hardAlpha"/>
<feOffset dy="-4"/>
<feGaussianBlur stdDeviation="2"/>
<feComposite in2="hardAlpha" operator="out"/>
<feColorMatrix type="matrix" values="0 0 0 0 0 0 0 0 0 0 0 0 0 0 0 0 0 0 0.25 0"/>
<feBlend mode="normal" in2="BackgroundImageFix" result="effect1_dropShadow"/>
<feBlend mode="normal" in="SourceGraphic" in2="effect1_dropShadow" result="shape"/>
</filter>
<clipPath id="clip0">
<rect width="64" height="64" fill="white"/>
</clipPath>
</defs>
</svg>
