<svg width="64" height="55" viewBox="0 0 64 55" fill="none" xmlns="http://www.w3.org/2000/svg">
<g clip-path="url(#clip0)">
<path d="M36.54 45.6C37.6295 46.4793 38.9455 47.0324 40.336 47.1954C41.7265 47.3584 43.1348 47.1247 44.3981 46.5213C45.6614 45.9179 46.7282 44.9693 47.4753 43.7853C48.2224 42.6013 48.6193 41.23 48.62 39.83V22H36.54V45.6Z" fill="#B6B6B5"/>
<path d="M41.2 19.2004C42.2023 19.2015 43.1883 18.9473 44.0651 18.4618C44.9419 17.9762 45.6805 17.2753 46.2113 16.4251C46.7421 15.575 47.0476 14.6037 47.099 13.6027C47.1503 12.6018 46.9459 11.6043 46.5048 10.7043C46.0638 9.80425 45.4008 9.03142 44.5783 8.45868C43.7559 7.88593 42.801 7.53215 41.8039 7.4307C40.8068 7.32925 39.8003 7.48347 38.8793 7.87883C37.9584 8.27419 37.1533 8.89765 36.54 9.69039V16.9204C37.0907 17.6315 37.7971 18.2068 38.605 18.6021C39.4129 18.9974 40.3007 19.2021 41.2 19.2004Z" fill="#B6B6B5"/>
<path d="M63.8796 25.7998H51.0596V41.5698C52.036 42.7225 53.3444 43.5457 54.8061 43.9273C56.2677 44.3089 57.8115 44.2302 59.2268 43.7019C60.6421 43.1736 61.8599 42.2215 62.7141 40.9756C63.5683 39.7296 64.0172 38.2504 63.9996 36.7398L63.8796 25.7998Z" fill="#B6B6B5"/>
<path d="M56.54 23.0496C59.7598 23.0496 62.37 20.4395 62.37 17.2196C62.37 13.9998 59.7598 11.3896 56.54 11.3896C53.3201 11.3896 50.71 13.9998 50.71 17.2196C50.71 20.4395 53.3201 23.0496 56.54 23.0496Z" fill="#B6B6B5"/>
<path d="M0 6V48.7L34.09 54.7V0L0 6ZM18.68 21.22V36.07H15.61V21.22H10.53V18.22H23.76V21.22H18.68Z" fill="#741213"/>
</g>
<defs>
<clipPath id="clip0">
<rect width="64" height="54.66" fill="white"/>
</clipPath>
</defs>
</svg>
