<svg width="64" height="64" viewBox="0 0 64 64" fill="none" xmlns="http://www.w3.org/2000/svg">
<g clip-path="url(#clip0)">
<path d="M29.9997 12.7202C30.5519 12.8865 31.1233 12.9806 31.6997 13.0002C32.5864 12.9874 33.4623 12.804 34.2797 12.4602C34.3897 12.4602 34.4897 12.3602 34.5997 12.3102C34.7817 12.2199 34.9587 12.1198 35.1297 12.0102L35.3997 11.8402C35.6139 11.6766 35.8146 11.496 35.9997 11.3002L36.1797 11.1402C36.4018 10.928 36.6089 10.7008 36.7997 10.4602C37.6576 9.364 38.1398 8.02074 38.1747 6.62922C38.2097 5.2377 37.7957 3.8719 36.994 2.73402C36.1923 1.59614 35.0454 0.746662 33.7233 0.311354C32.4012 -0.123955 30.974 -0.121956 29.6531 0.317054C28.3322 0.756064 27.1877 1.60875 26.3892 2.74887C25.5906 3.88899 25.1804 5.25595 25.2193 6.64736C25.2582 8.03878 25.7441 9.38069 26.6051 10.4744C27.4661 11.5682 28.6563 12.3556 29.9997 12.7202ZM31.6997 2.78015C32.4315 2.78015 33.1469 2.99715 33.7553 3.40371C34.3638 3.81028 34.838 4.38814 35.1181 5.06422C35.3981 5.74031 35.4714 6.48426 35.3286 7.20199C35.1859 7.91972 34.8335 8.57899 34.316 9.09645C33.7986 9.6139 33.1393 9.96629 32.4216 10.1091C31.7038 10.2518 30.9599 10.1786 30.2838 9.89851C29.6077 9.61846 29.0298 9.14422 28.6233 8.53576C28.2167 7.9273 27.9997 7.21194 27.9997 6.48015C27.9997 5.99257 28.0961 5.5098 28.2833 5.05959C28.4705 4.60938 28.7448 4.2006 29.0905 3.85676C29.4362 3.51292 29.8464 3.2408 30.2976 3.05604C30.7489 2.87127 31.2321 2.77752 31.7197 2.78015H31.6997Z" fill="#B6B6B5"/>
<path d="M59.4298 16C58.6801 14.749 57.5297 13.788 56.1652 13.2729C54.8008 12.7578 53.3023 12.7188 51.9129 13.1623C50.5235 13.6057 49.3247 14.5056 48.511 15.7159C47.6972 16.9262 47.3162 18.376 47.4298 19.83C47.4249 19.8665 47.4249 19.9035 47.4298 19.94C47.4638 20.2299 47.5172 20.5172 47.5898 20.8C47.7321 21.3795 47.9577 21.9353 48.2598 22.45C48.6791 23.1916 49.2414 23.8428 49.9141 24.3656C50.5867 24.8884 51.3565 25.2726 52.1787 25.4958C53.0009 25.719 53.8592 25.7769 54.704 25.666C55.5487 25.5552 56.363 25.2778 57.0998 24.85C58.5806 23.9837 59.6574 22.5656 60.0942 20.9066C60.531 19.2476 60.292 17.4831 59.4298 16ZM55.6698 22.45C55.0378 22.819 54.3106 22.9923 53.5801 22.948C52.8496 22.9037 52.1487 22.6438 51.5659 22.2011C50.9832 21.7584 50.5448 21.1528 50.3062 20.4609C50.0677 19.7691 50.0396 19.022 50.2257 18.3142C50.4117 17.6064 50.8035 16.9697 51.3514 16.4846C51.8993 15.9994 52.5788 15.6877 53.304 15.5888C54.0291 15.4898 54.7672 15.6082 55.4251 15.9288C56.083 16.2494 56.631 16.7579 56.9998 17.39C57.4837 18.2398 57.6155 19.2454 57.3669 20.1912C57.1182 21.1371 56.5091 21.9479 55.6698 22.45Z" fill="#74060E"/>
<path d="M16.0592 19.8003C16.1699 18.502 15.8861 17.2006 15.2449 16.0663C14.6037 14.9321 13.635 14.0178 12.4656 13.4433C11.2961 12.8687 9.98046 12.6606 8.69079 12.8463C7.40113 13.0319 6.19756 13.6026 5.23763 14.4837C4.27771 15.3647 3.60616 16.515 3.31089 17.7841C3.01563 19.0532 3.11041 20.3818 3.58282 21.5961C4.05524 22.8104 4.88328 23.8538 5.95854 24.5897C7.03381 25.3255 8.3062 25.7196 9.60916 25.7203C10.0188 25.7205 10.4274 25.6803 10.8292 25.6003H10.9192C11.0892 25.6003 11.2592 25.5203 11.4292 25.4803L11.8292 25.3403L12.0792 25.2503C12.3202 25.1498 12.5541 25.0328 12.7792 24.9003L12.8692 24.8503C13.0792 24.7203 13.2892 24.5803 13.4892 24.4303C14.1682 23.9091 14.7389 23.2603 15.1692 22.5203C15.4657 22.004 15.6878 21.4486 15.8292 20.8703C15.9108 20.5688 15.9677 20.2611 15.9992 19.9503C15.9992 19.9503 16.0592 19.8303 16.0592 19.8003ZM12.8192 21.0903C12.4924 21.6522 12.0241 22.1187 11.4609 22.4433C10.8976 22.7679 10.2592 22.9393 9.60916 22.9403C8.96055 22.9392 8.32324 22.7704 7.75916 22.4503C7.33167 22.2101 6.95602 21.8877 6.65393 21.5015C6.35183 21.1153 6.12929 20.673 5.99916 20.2003C5.86922 19.731 5.83501 19.2404 5.89858 18.7577C5.96214 18.2749 6.12218 17.8099 6.36916 17.3903C6.69593 16.8283 7.16425 16.3618 7.72747 16.0372C8.29068 15.7126 8.92911 15.5413 9.57916 15.5403C10.2385 15.5266 10.8899 15.6851 11.4692 16.0003C12.3153 16.4958 12.9329 17.3038 13.1892 18.2503C13.3227 18.7241 13.3588 19.2201 13.2952 19.7082C13.2316 20.1963 13.0697 20.6665 12.8192 21.0903Z" fill="#74060E"/>
<path d="M11.8297 25.3203L11.4297 25.4603L11.8297 25.3203Z" fill="#B6B6B5"/>
<path d="M13.4891 24.4102C13.2891 24.5602 13.0791 24.7002 12.8691 24.8302C13.0841 24.7029 13.2912 24.5626 13.4891 24.4102Z" fill="#B6B6B5"/>
<path d="M12.7801 24.8804C12.555 25.0129 12.3211 25.1299 12.0801 25.2304C12.3202 25.1278 12.554 25.0109 12.7801 24.8804Z" fill="#B6B6B5"/>
<path d="M6.36962 39.1502C5.36028 39.7304 4.5259 40.5719 3.95421 41.5861C3.38251 42.6003 3.09461 43.7498 3.12078 44.9137C3.14694 46.0776 3.4862 47.213 4.10289 48.2005C4.71958 49.188 5.59093 49.9911 6.62532 50.5254C7.65971 51.0597 8.81894 51.3054 9.98115 51.2368C11.1434 51.1682 12.2656 50.7877 13.2299 50.1354C14.1942 49.483 14.965 48.583 15.4612 47.5298C15.9574 46.4766 16.1606 45.3091 16.0496 44.1502V44.0702C16.009 43.7568 15.9488 43.4462 15.8696 43.1402C15.7271 42.5765 15.5084 42.0349 15.2196 41.5302C14.6446 40.5451 13.8247 39.7252 12.8396 39.1502C12.6012 39.011 12.354 38.8874 12.0996 38.7802H11.9696C11.8001 38.7098 11.6264 38.6497 11.4496 38.6002C11.2891 38.5496 11.1254 38.5096 10.9596 38.4802H10.8596C10.4613 38.4002 10.0559 38.36 9.64962 38.3602C8.50576 38.3298 7.37419 38.6023 6.36962 39.1502ZM12.8196 42.9102C13.0661 43.33 13.2258 43.7951 13.2893 44.2777C13.3529 44.7604 13.319 45.2509 13.1896 45.7202C12.9405 46.6778 12.322 47.4977 11.4696 48.0002C10.905 48.3191 10.268 48.4878 9.61962 48.4902C8.96957 48.4892 8.33113 48.3178 7.76792 47.9933C7.20471 47.6687 6.73639 47.2022 6.40962 46.6402C6.15187 46.2195 5.98258 45.7507 5.91209 45.2624C5.84159 44.7741 5.87138 44.2766 5.99962 43.8002C6.25286 42.8523 6.87131 42.0433 7.71962 41.5502C8.2837 41.23 8.92101 41.0612 9.56962 41.0602C10.2264 41.0542 10.8731 41.2222 11.444 41.5471C12.0148 41.8721 12.4895 42.3424 12.8196 42.9102Z" fill="#B6B6B5"/>
<path d="M29.9296 51.3103C29.6393 51.3892 29.3552 51.4895 29.0796 51.6103L28.9696 51.6703C27.6332 52.2909 26.5486 53.3491 25.8953 54.6699C25.242 55.9907 25.0591 57.4949 25.3769 58.9338C25.6947 60.3726 26.4941 61.6599 27.6429 62.5827C28.7917 63.5055 30.2211 64.0084 31.6946 64.0084C33.1681 64.0084 34.5975 63.5055 35.7464 62.5827C36.8952 61.6599 37.6946 60.3726 38.0124 58.9338C38.3302 57.4949 38.1473 55.9907 37.494 54.6699C36.8407 53.3491 35.7561 52.2909 34.4196 51.6703H34.3296C34.0506 51.5495 33.7632 51.4492 33.4696 51.3703C32.9007 51.2062 32.3117 51.122 31.7196 51.1203C31.1171 51.1018 30.5148 51.1658 29.9296 51.3103ZM35.4196 57.5203C35.4216 58.2549 35.2054 58.9736 34.7985 59.5852C34.3916 60.1968 33.8123 60.6739 33.134 60.956C32.4557 61.238 31.7089 61.3123 30.9883 61.1695C30.2677 61.0266 29.6057 60.6731 29.0863 60.1536C28.5668 59.6342 28.2133 58.9722 28.0704 58.2516C27.9276 57.531 28.0019 56.7842 28.284 56.1059C28.566 55.4276 29.0431 54.8483 29.6547 54.4414C30.2663 54.0345 30.985 53.8183 31.7196 53.8203C32.7009 53.8203 33.642 54.2101 34.3359 54.904C35.0298 55.5979 35.4196 56.539 35.4196 57.5203Z" fill="#74060E"/>
<path d="M48.2189 41.5303C47.9235 42.0447 47.6982 42.5962 47.5489 43.1703C47.4681 43.4754 47.4113 43.7863 47.3789 44.1003C47.3838 44.1334 47.3838 44.1671 47.3789 44.2003C47.2681 45.4985 47.5519 46.8 48.1931 47.9342C48.8343 49.0685 49.803 49.9827 50.9725 50.5573C52.1419 51.1318 53.4576 51.3399 54.7473 51.1543C56.0369 50.9686 57.2405 50.3979 58.2004 49.5169C59.1603 48.6359 59.8319 47.4855 60.1272 46.2164C60.4224 44.9474 60.3276 43.6187 59.8552 42.4044C59.3828 41.1901 58.5548 40.1468 57.4795 39.4109C56.4042 38.675 55.1319 38.281 53.8289 38.2803C53.4193 38.2801 53.0106 38.3203 52.6089 38.4003H52.5189C52.3489 38.4003 52.1789 38.4803 52.0189 38.5203L51.5989 38.6703L51.3589 38.7503C51.1188 38.8528 50.885 38.9697 50.6589 39.1003L50.5789 39.1503C50.3592 39.2751 50.1486 39.4155 49.9489 39.5703C49.2435 40.0976 48.6546 40.7649 48.2189 41.5303ZM50.6089 42.9103C50.9757 42.2801 51.5206 41.7724 52.175 41.451C52.8295 41.1295 53.5643 41.0085 54.2873 41.1032C55.0102 41.198 55.6891 41.5042 56.2386 41.9835C56.7881 42.4628 57.1837 43.0938 57.3758 43.7971C57.5679 44.5005 57.5478 45.245 57.3182 45.937C57.0886 46.6291 56.6596 47.2379 56.0852 47.6869C55.5107 48.136 54.8164 48.4053 54.0894 48.461C53.3624 48.5168 52.6351 48.3565 51.9989 48.0003C51.5723 47.7584 51.1978 47.4346 50.8969 47.0474C50.5959 46.6602 50.3745 46.2174 50.2453 45.7444C50.1161 45.2713 50.0818 44.7774 50.1441 44.291C50.2065 43.8046 50.3645 43.3354 50.6089 42.9103Z" fill="#B6B6B5"/>
<path d="M31.7285 26.4302C31.2559 26.429 30.7853 26.4895 30.3285 26.6102C30.7407 27.1463 30.9402 27.8159 30.8885 28.4902C30.8352 29.1612 30.5403 29.7901 30.0585 30.2602C29.5681 30.7253 28.9232 30.9928 28.2476 31.0113C27.572 31.0297 26.9135 30.7978 26.3985 30.3602C26.2352 30.8916 26.1509 31.4442 26.1485 32.0002C26.1456 33.0996 26.4693 34.175 27.0785 35.0902C27.695 36.0042 28.5634 36.7198 29.5785 37.1502C30.5972 37.571 31.7182 37.6789 32.7985 37.4602C33.8796 37.2514 34.8727 36.7217 35.6485 35.9402C36.4301 35.163 36.9627 34.1706 37.1782 33.0895C37.3937 32.0085 37.2824 30.8877 36.8585 29.8702C36.4405 28.8506 35.7264 27.9798 34.8085 27.3702C33.8934 26.7596 32.8185 26.4327 31.7185 26.4302H31.7285Z" fill="#741313"/>
<path d="M33.54 43.0003C33.8 43.0003 34.04 42.9203 34.29 42.8603L34.59 42.7803C34.84 42.7203 35.08 42.6403 35.32 42.5603L35.61 42.4603L36.31 42.1803L36.6 42.0403L37.24 41.7003L37.54 41.5203L38.12 41.1503C38.2191 41.0681 38.3226 40.9913 38.43 40.9203L38.95 40.5103L39.24 40.2403L39.71 39.8003L39.97 39.5103C40.12 39.3403 40.27 39.1803 40.41 39.0103C41.1507 38.1071 41.7415 37.0909 42.16 36.0003C42.26 35.7403 42.36 35.4803 42.44 35.2103L42.5 34.9503C42.57 34.7103 42.63 34.4603 42.69 34.2003C42.75 33.9403 42.76 33.7503 42.79 33.5203C42.82 33.2903 42.79 33.2803 42.84 33.1603C42.8816 32.7751 42.9017 32.3878 42.9 32.0003C42.9006 31.6295 42.8806 31.2589 42.84 30.8903C42.84 30.7503 42.84 30.6203 42.78 30.4803C42.72 30.3403 42.73 30.0603 42.69 29.8503C42.65 29.6403 42.57 29.3503 42.5 29.1003C42.4847 29.0192 42.4647 28.9391 42.44 28.8603C42.36 28.5903 42.27 28.3203 42.17 28.0603C41.7523 26.9767 41.1687 25.9646 40.44 25.0603C40.29 24.8703 40.12 24.6903 39.96 24.5203C39.8 24.3503 39.82 24.3503 39.74 24.2703L39.23 23.7903L39 23.5103C38.82 23.3503 38.63 23.2103 38.45 23.0703L38.17 22.8703C37.98 22.7303 37.77 22.6003 37.57 22.4803L37.29 22.3103C37.08 22.1803 36.86 22.0703 36.64 21.9603L36.36 21.8303L35.66 21.5403L35.37 21.4403C35.13 21.3603 34.89 21.2803 34.64 21.2203L34.34 21.1403C34.0933 21.0803 33.8433 21.0303 33.59 20.9903C32.9791 20.8828 32.3603 20.8259 31.74 20.8203C31.1098 20.8259 30.481 20.8828 29.86 20.9903L29.22 21.1203C29.0706 21.1497 28.9236 21.1898 28.78 21.2403L28.21 21.4003L27.71 21.5903L27.23 21.7803C27.04 21.8603 26.86 21.9503 26.67 22.0503L26.31 22.2403C26.09 22.3603 25.88 22.4903 25.68 22.6203L25.43 22.7803C25.19 22.9403 24.96 23.1203 24.73 23.3003L24.61 23.4003C24.35 23.6203 24.1 23.8403 23.86 24.0803C22.5736 25.3556 21.6221 26.9289 21.09 28.6603C20.7544 29.7349 20.5858 30.8546 20.59 31.9803C20.5598 33.1013 20.698 34.2204 21 35.3003V35.4003C21.4225 36.7508 22.1015 38.0071 23 39.1003H23.05C23.26 39.3503 23.47 39.5903 23.7 39.8203L23.82 39.9403L24.47 40.5303C24.5409 40.5781 24.6078 40.6316 24.67 40.6903C24.88 40.8503 25.08 41.0003 25.3 41.1503C25.3928 41.2194 25.4896 41.2828 25.59 41.3403C25.78 41.4703 25.98 41.5903 26.17 41.7003L26.57 41.9103L27.1 42.1603L27.59 42.3603L28.07 42.5303C28.2599 42.6008 28.4535 42.6609 28.65 42.7103L29.08 42.8203L29.73 42.9503C30.9591 43.183 32.2209 43.183 33.45 42.9503L33.54 43.0003ZM23.31 32.0003C23.31 30.337 23.8032 28.711 24.7273 27.328C25.6514 25.9449 26.9649 24.867 28.5016 24.2305C30.0384 23.594 31.7293 23.4274 33.3607 23.7519C34.9921 24.0764 36.4906 24.8774 37.6668 26.0535C38.8429 27.2297 39.6439 28.7282 39.9684 30.3596C40.2929 31.991 40.1264 33.682 39.4898 35.2187C38.8533 36.7554 37.7754 38.0689 36.3923 38.993C35.0093 39.9171 33.3833 40.4103 31.72 40.4103C29.4903 40.4077 27.3528 39.5208 25.7761 37.9442C24.1995 36.3675 23.3126 34.23 23.31 32.0003Z" fill="#741313"/>
<path d="M43.879 26.92L47.499 24.83C47.1228 24.4027 46.7879 23.9406 46.499 23.45C46.2296 22.9864 45.9988 22.5014 45.809 22L42.209 24.08C42.8838 24.952 43.445 25.9063 43.879 26.92Z" fill="#B6B6B5"/>
<path d="M31.7201 18.82C32.2821 18.8244 32.8432 18.8645 33.4001 18.94V14.77C32.8415 14.8906 32.2715 14.9509 31.7001 14.95C31.1562 14.9483 30.6138 14.8947 30.0801 14.79V18.94C30.6236 18.8645 31.1714 18.8244 31.7201 18.82Z" fill="#B6B6B5"/>
<path d="M31.72 45.1803C31.1443 45.1786 30.5694 45.1351 30 45.0503V49.2203C30.5563 49.1078 31.1224 49.0509 31.69 49.0503C32.241 49.0514 32.7905 49.1083 33.33 49.2203V45.0603C32.7964 45.1345 32.2587 45.1746 31.72 45.1803Z" fill="#B6B6B5"/>
<path d="M42.1797 40.0001L45.7897 42.0901C45.9712 41.5548 46.2057 41.0389 46.4897 40.5501C46.774 40.072 47.1093 39.626 47.4897 39.2201L43.8897 37.1401C43.4468 38.164 42.872 39.1255 42.1797 40.0001Z" fill="#B6B6B5"/>
<path d="M19.5695 37.0703L15.9395 39.1603C16.3169 39.5831 16.6518 40.042 16.9395 40.5303C17.2127 41.0078 17.4404 41.5101 17.6195 42.0303L21.2295 39.9403C20.5559 39.0584 19.998 38.0939 19.5695 37.0703Z" fill="#B6B6B5"/>
<path d="M21.26 24.0002L17.64 21.9102C17.3064 22.9797 16.7471 23.9653 16 24.8002L19.61 26.8902C20.0364 25.8613 20.5907 24.8903 21.26 24.0002Z" fill="#B6B6B5"/>
</g>
<defs>
<clipPath id="clip0">
<rect width="64" height="64" fill="white"/>
</clipPath>
</defs>
</svg>
