<svg width="24" height="24" viewBox="0 0 24 24" fill="none" xmlns="http://www.w3.org/2000/svg">
<g clip-path="url(#clip0)">
<path d="M3.45035 9.49265L4.36535 8.58054L5.26535 9.51142L8.76035 13.1373L8.9516 13.3363L10.6316 11.5946C14.1079 7.98373 18.5066 3.4157 18.7354 3.17923L19.6354 2.25211L20.5504 3.16422L22.8904 5.4989L24.0154 4.34657L19.6541 0L8.9516 11.1104C7.7066 9.81545 4.64285 6.63998 4.35035 6.33219L-0.0146484 10.675C0.0603516 10.7501 0.476602 11.178 1.11035 11.8273L3.45035 9.49265Z" fill="white"/>
<path d="M19.6541 4.05762C19.3579 4.36165 12.2329 11.7636 8.9516 15.1643L4.35035 10.3898L1.99535 12.762L-0.0146484 14.7289L8.93285 24.0226L8.97035 23.8199C9.00785 23.6097 9.0491 23.3882 9.1016 23.148C9.1541 22.9078 9.19535 22.7164 9.2516 22.4761C9.63881 20.8631 10.2311 19.3065 11.0141 17.8443C12.091 15.8301 13.5704 14.0592 15.3604 12.6419C15.8624 12.2458 16.3857 11.8774 16.9279 11.5384L17.2466 11.3507C18.0004 10.9006 18.7862 10.5066 19.5978 10.1721C19.8266 10.0783 20.0516 9.99193 20.2803 9.9056C20.5091 9.81927 20.7528 9.75921 20.9853 9.67288H21.0266L22.1103 9.30504L22.4254 10.0257L23.9853 8.39669L21.9941 6.41107L19.6541 4.05762Z" fill="white"/>
<path d="M21.9527 12.3562C21.8852 12.1235 21.8102 11.8945 21.7314 11.6693C21.6527 11.4441 21.5702 11.2339 21.4764 11.0162L21.4164 10.8623L21.3602 10.8848C21.1614 10.9486 20.9477 11.02 20.7264 11.1025C20.5052 11.1851 20.3102 11.2564 20.0889 11.3465C19.229 11.7 18.3999 12.1244 17.6102 12.6152C17.1071 12.9272 16.6226 13.2681 16.1589 13.6362C13.4092 15.8376 11.459 18.8829 10.6089 22.303C10.5714 22.4532 10.5302 22.6033 10.4927 22.7535C10.4402 22.9637 10.3914 23.1739 10.3464 23.3878C10.3464 23.4328 10.3464 23.4779 10.3202 23.5192C10.2864 23.6843 10.2527 23.8307 10.2227 24.0034H11.1564C11.2352 23.8307 11.3552 23.5642 11.4452 23.3878C11.4864 23.3015 11.5389 23.2114 11.5877 23.1213C11.6364 23.0312 11.7114 22.8773 11.7827 22.7459C12.9956 20.5085 14.8259 18.6675 17.0552 17.4422L17.1602 17.3822C17.4902 17.2058 17.8277 17.0406 18.1877 16.8867C18.8042 16.6292 19.4383 16.4159 20.0852 16.2486C20.2952 16.1923 20.5052 16.1435 20.7227 16.0947C20.9402 16.0459 21.1427 16.0121 21.3564 15.9746C21.7114 15.9095 22.0789 15.857 22.4589 15.817C22.4524 14.6454 22.282 13.4805 21.9527 12.3562Z" fill="#FDB813"/>
</g>
<defs>
<clipPath id="clip0">
<rect width="24" height="24" fill="white"/>
</clipPath>
</defs>
</svg>
