<svg width="65" height="65" viewBox="0 0 65 65" fill="none" xmlns="http://www.w3.org/2000/svg">
<g clip-path="url(#clip0)">
<path d="M32.0696 38.4098C38.5203 38.4098 43.7496 33.1805 43.7496 26.7298C43.7496 20.2791 38.5203 15.0498 32.0696 15.0498C25.619 15.0498 20.3896 20.2791 20.3896 26.7298C20.3896 33.1805 25.619 38.4098 32.0696 38.4098Z" fill="#741213"/>
<path d="M56.4197 53.2198C56.3539 53.4199 56.2267 53.5941 56.0561 53.7176C55.8855 53.8411 55.6803 53.9076 55.4697 53.9076C55.2591 53.9076 55.0539 53.8411 54.8833 53.7176C54.7127 53.5941 54.5855 53.4199 54.5197 53.2198V52.0498H43.1497V53.2198C43.1256 53.4537 43.0157 53.6703 42.8411 53.8278C42.6666 53.9853 42.4398 54.0725 42.2047 54.0725C41.9696 54.0725 41.7428 53.9853 41.5683 53.8278C41.3937 53.6703 41.2838 53.4537 41.2597 53.2198V52.0498H33.6797V60.5798C33.6784 61.0363 33.7672 61.4886 33.941 61.9108C34.1148 62.3329 34.3701 62.7167 34.6925 63.0399C35.0149 63.3632 35.3978 63.6197 35.8195 63.7947C36.2411 63.9697 36.6932 64.0598 37.1497 64.0598H60.5297C60.9862 64.0598 61.4383 63.9697 61.8599 63.7947C62.2816 63.6197 62.6646 63.3632 62.9869 63.0399C63.3093 62.7167 63.5646 62.3329 63.7384 61.9108C63.9122 61.4886 64.001 61.0363 63.9997 60.5798V52.0498H56.4197V53.2198Z" fill="#B6B6B5"/>
<path d="M60.5297 42.5801H53.8897V41.3101C53.8897 40.9783 53.8242 40.6498 53.6969 40.3434C53.5696 40.037 53.3831 39.7587 53.1481 39.5246C52.913 39.2905 52.634 39.1051 52.3271 38.979C52.0202 38.853 51.6915 38.7887 51.3597 38.7901H46.3597C45.6904 38.7901 45.0484 39.0552 44.5742 39.5275C44.1001 39.9998 43.8323 40.6408 43.8297 41.3101V42.5801H37.1497C36.2294 42.5801 35.3468 42.9456 34.696 43.5964C34.0453 44.2471 33.6797 45.1298 33.6797 46.0501V50.1601H41.2597V48.5801C41.2461 48.4478 41.2604 48.3141 41.3016 48.1877C41.3429 48.0614 41.4103 47.945 41.4994 47.8463C41.5884 47.7476 41.6972 47.6687 41.8187 47.6147C41.9402 47.5606 42.0717 47.5327 42.2047 47.5327C42.3377 47.5327 42.4691 47.5606 42.5906 47.6147C42.7121 47.6687 42.8209 47.7476 42.91 47.8463C42.9991 47.945 43.0664 48.0614 43.1077 48.1877C43.149 48.3141 43.1633 48.4478 43.1497 48.5801V50.1601H54.5197V48.5801C54.5197 48.4553 54.5443 48.3318 54.592 48.2165C54.6397 48.1012 54.7097 47.9965 54.7979 47.9083C54.8862 47.8201 54.9909 47.7501 55.1061 47.7024C55.2214 47.6546 55.3449 47.6301 55.4697 47.6301C55.5944 47.6301 55.718 47.6546 55.8332 47.7024C55.9485 47.7501 56.0532 47.8201 56.1414 47.9083C56.2297 47.9965 56.2996 48.1012 56.3474 48.2165C56.3951 48.3318 56.4197 48.4553 56.4197 48.5801V50.1601H63.9997V46.0501C63.9997 45.1298 63.6341 44.2471 62.9833 43.5964C62.3326 42.9456 61.45 42.5801 60.5297 42.5801ZM46.3097 41.3101H51.3097V42.5801H46.3097V41.3101Z" fill="#B6B6B5"/>
<path d="M29.6798 60.5802V46.0502C29.6777 44.9646 29.9168 43.8921 30.3798 42.9102L29.5198 42.9802L28.9998 43.0002C28.5798 43.0002 28.1598 43.1102 27.7498 43.1802H27.5798C23.9549 43.799 20.4999 45.1705 17.4375 47.2063C14.3751 49.2422 11.7733 51.8972 9.7998 55.0002C14.4063 59.374 20.1772 62.3255 26.4198 63.5002L27.7798 63.7202H27.8598L29.1498 63.8702H29.5598L30.5598 63.9402C30.0033 62.9061 29.7017 61.7542 29.6798 60.5802Z" fill="#741213"/>
</g>
<defs>
<clipPath id="clip0">
<rect width="64.14" height="64.06" fill="white"/>
</clipPath>
</defs>
</svg>
