<svg width="64" height="64" viewBox="0 0 64 64" fill="none" xmlns="http://www.w3.org/2000/svg">
<g clip-path="url(#clip0)">
<path d="M29.8105 16.4703H60.0005C56.4395 10.065 50.7932 5.07157 44.0005 2.32031L29.8105 16.4703Z" fill="#741213"/>
<path d="M19.4707 22.5703L40.8007 1.24032C33.7507 -0.780149 26.2205 -0.317679 19.4707 2.55032V22.5703Z" fill="#741213"/>
<path d="M16.4703 34.19V4C10.065 7.56108 5.07157 13.2074 2.32031 20L16.4703 34.19Z" fill="#741213"/>
<path d="M64.0002 32.0007C64.0051 27.6947 63.1377 23.4323 61.4502 19.4707H41.4502L62.7602 40.8007C63.5808 37.9393 63.9982 34.9774 64.0002 32.0007Z" fill="#741213"/>
<path d="M44.5302 41.4307L23.2002 62.7607C30.2502 64.7811 37.7804 64.3187 44.5302 61.4507V41.4307Z" fill="#B6B6B5"/>
<path d="M22.5703 44.5302L1.24032 23.2002C-0.780149 30.2502 -0.317679 37.7804 2.55032 44.5302H22.5703Z" fill="#B6B6B5"/>
<path d="M47.5303 29.8105V60.0005C53.9356 56.4395 58.929 50.7932 61.6803 44.0005L47.5303 29.8105Z" fill="#B6B6B5"/>
<path d="M34.19 47.5303H4C7.56108 53.9356 13.2074 58.929 20 61.6803L34.19 47.5303Z" fill="#B6B6B5"/>
</g>
<defs>
<clipPath id="clip0">
<rect width="64" height="64" fill="white"/>
</clipPath>
</defs>
</svg>
