<svg width="33" height="32" viewBox="0 0 33 32" fill="none" xmlns="http://www.w3.org/2000/svg">
<g clip-path="url(#clip0)">
<path d="M31.8467 15.6264C31.7667 15.3331 31.6733 15.0531 31.5667 14.7597C31.46 14.4664 31.3667 14.1997 31.2467 13.9197L31.1667 13.7197H31.0867L30.2733 13.9997L29.4733 14.3197L29.1133 14.4664C28.1405 14.8848 27.2001 15.375 26.3 15.9331C25.8867 16.1997 25.46 16.4931 24.9667 16.7997L24.38 17.2397C23.5069 17.9283 22.695 18.6912 21.9533 19.5197C21.62 19.8797 21.3 20.2664 20.9933 20.6664C20.0238 21.9267 19.2049 23.296 18.5533 24.7464C18.3267 25.2531 18.1 25.7997 17.9 26.3597C17.6867 26.9731 17.4867 27.6131 17.3 28.2797C17.3 28.4797 17.1933 28.6664 17.1533 28.8531C17.1133 29.0397 17.02 29.3864 16.9667 29.6664V29.8397L16.8467 30.4797H18.0067C18.0067 30.3197 18.1933 30.1064 18.2867 29.9064L18.4067 29.6664L18.5933 29.3197L18.8333 28.8531C19.4876 27.6959 20.2607 26.61 21.14 25.6131C22.2632 24.3517 23.5715 23.2682 25.02 22.3997L25.58 22.0664L25.7133 21.9997L26.5933 21.5597L27.0333 21.3597L27.3933 21.2264C28.0678 20.958 28.7579 20.7309 29.46 20.5464L30.26 20.3597C30.5267 20.3597 30.8067 20.2531 31.0733 20.1997C31.34 20.1464 32.0067 20.0531 32.4867 19.9997C32.4738 18.5196 32.2585 17.0482 31.8467 15.6264Z" fill="#FDB813"/>
<path d="M18.3936 2V10.3067C19.6404 10.6272 20.754 11.3337 21.5754 12.325C22.3967 13.3164 22.8838 14.542 22.9669 15.8267L23.1802 15.6667C23.8296 15.1446 24.5109 14.6637 25.2202 14.2267C26.3265 13.5356 27.4909 12.9422 28.7002 12.4533L28.9936 12.3333C28.5891 9.69325 27.3358 7.25671 25.4233 5.39231C23.5108 3.52791 21.0431 2.33709 18.3936 2Z" fill="white"/>
<path d="M16.8602 22.3733H8.67349L12.1402 20.16C11.4808 19.3649 11.033 18.4162 10.8382 17.4018C10.6433 16.3875 10.7078 15.3404 11.0257 14.3576C11.3435 13.3748 11.9044 12.4882 12.6563 11.7801C13.4082 11.0719 14.3268 10.5651 15.3268 10.3067V2C12.3753 2.39116 9.66633 3.84135 7.70416 6.08068C5.74198 8.32001 4.66021 11.196 4.66016 14.1733V23.72C4.66689 24.3054 4.79912 24.8826 5.04793 25.4125C5.29673 25.9425 5.65633 26.4129 6.10243 26.792C6.54854 27.1711 7.07079 27.4502 7.63393 27.6102C8.19706 27.7703 8.78799 27.8078 9.36682 27.72L12.8335 27.1867V30.5333H14.8468V30.1733L14.9668 29.56V29.4267C14.9606 29.3824 14.9606 29.3376 14.9668 29.2933C14.9668 29 15.0868 28.7067 15.1668 28.4267C15.1945 28.2738 15.2301 28.1225 15.2735 27.9733V27.8C15.3668 27.4533 15.4735 27.1067 15.5802 26.7733L15.7002 26.3867C16.1564 24.9804 16.7411 23.6191 17.4468 22.32C17.2523 22.3476 17.0565 22.3654 16.8602 22.3733Z" fill="white"/>
<path d="M1.48636 22.3466H3.56636V16.2666L0.659695 20.7599C0.560284 20.9125 0.503228 21.0887 0.494378 21.2706C0.485528 21.4524 0.525201 21.6334 0.609331 21.7949C0.693461 21.9563 0.819021 22.0925 0.973137 22.1895C1.12725 22.2864 1.30438 22.3407 1.48636 22.3466Z" fill="white"/>
<path d="M18.3934 12.4402C17.9052 12.2471 17.3851 12.1476 16.8601 12.1468C16.1436 12.1372 15.4377 12.3202 14.8161 12.6767C14.1946 13.0333 13.6802 13.5502 13.3267 14.1735C12.9542 14.8078 12.7606 15.5313 12.7667 16.2668C12.7657 16.8884 12.9057 17.5021 13.1763 18.0617C13.4468 18.6212 13.8409 19.1121 14.3287 19.4972C14.8166 19.8824 15.3855 20.1517 15.9926 20.2851C16.5996 20.4184 17.2291 20.4121 17.8334 20.2668C18.3583 20.1348 18.8516 19.8994 19.2843 19.5743C19.717 19.2491 20.0805 18.8409 20.3534 18.3735C20.7417 17.7391 20.9492 17.0106 20.9534 16.2668C20.9615 15.4454 20.7215 14.6407 20.2647 13.9579C19.808 13.2752 19.1557 12.7462 18.3934 12.4402Z" fill="white"/>
</g>
<defs>
<clipPath id="clip0">
<rect width="32" height="28.5333" fill="white" transform="translate(0.5 2)"/>
</clipPath>
</defs>
</svg>
