<svg width="12" height="12" viewBox="0 0 12 12" fill="none" xmlns="http://www.w3.org/2000/svg">
<g clip-path="url(#clip0)">
<path d="M11.9104 5.76551C11.8033 5.64602 9.22693 2.83594 6.00001 2.83594C2.77309 2.83594 0.196746 5.64602 0.0896133 5.76551C-0.0298711 5.89905 -0.0298711 6.10095 0.0896133 6.23449C0.196746 6.35398 2.77314 9.16406 6.00001 9.16406C9.22689 9.16406 11.8033 6.35398 11.9104 6.23449C12.0299 6.10095 12.0299 5.89905 11.9104 5.76551ZM6.00001 8.46094C4.64319 8.46094 3.53907 7.35682 3.53907 6C3.53907 4.64318 4.64319 3.53906 6.00001 3.53906C7.35683 3.53906 8.46095 4.64318 8.46095 6C8.46095 7.35682 7.35683 8.46094 6.00001 8.46094Z" fill="#3E3D3D"/>
<path d="M6.35156 5.29688C6.35156 4.9432 6.52713 4.63207 6.79423 4.4407C6.55455 4.31801 6.28723 4.24219 6 4.24219C5.03079 4.24219 4.24219 5.03079 4.24219 6C4.24219 6.96921 5.03079 7.75781 6 7.75781C6.86775 7.75781 7.58597 7.1242 7.72786 6.2963C7.01991 6.52423 6.35156 5.9888 6.35156 5.29688Z" fill="#3E3D3D"/>
</g>
<defs>
<clipPath id="clip0">
<rect width="12" height="12" fill="white"/>
</clipPath>
</defs>
</svg>
