<svg width="32" height="32" viewBox="0 0 32 32" fill="none" xmlns="http://www.w3.org/2000/svg">
<g clip-path="url(#clip0)">
<path d="M4.60047 12.6569L5.82047 11.4407L7.02047 12.6819L11.6805 17.5164L11.9355 17.7817L14.1755 15.4595C18.8105 10.645 24.6755 4.55427 24.9805 4.23897L26.1805 3.00282L27.4005 4.21896L30.5205 7.33187L32.0205 5.79543L26.2055 0L11.9355 14.8139C10.2755 13.0873 6.19047 8.8533 5.80047 8.44292L-0.0195312 14.2333C0.0804688 14.3334 0.635469 14.904 1.48047 15.7698L4.60047 12.6569Z" fill="white"/>
<path d="M26.2055 5.41016C25.8105 5.81554 16.3105 15.6848 11.9355 20.219L5.80047 13.8531L2.66047 17.016L-0.0195312 19.6385L11.9105 32.0301L11.9605 31.7599C12.0105 31.4796 12.0655 31.1843 12.1355 30.864C12.2055 30.5437 12.2605 30.2885 12.3355 29.9682C12.8517 27.8175 13.6415 25.7419 14.6855 23.7924C16.1213 21.1068 18.0939 18.7457 20.4805 16.8559C21.1499 16.3277 21.8476 15.8365 22.5705 15.3845L22.9955 15.1343C24.0005 14.5341 25.0483 14.0089 26.1305 13.5628C26.4355 13.4377 26.7355 13.3226 27.0405 13.2075C27.3455 13.0924 27.6705 13.0123 27.9805 12.8972H28.0355L29.4805 12.4067L29.9005 13.3676L31.9805 11.1956L29.3255 8.5481L26.2055 5.41016Z" fill="white"/>
<path d="M29.2709 16.4753C29.1809 16.165 29.0809 15.8597 28.9759 15.5594C28.8709 15.2591 28.7609 14.9789 28.6359 14.6886L28.5559 14.4834L28.4809 14.5134C28.2159 14.5985 27.9309 14.6936 27.6359 14.8037C27.3409 14.9138 27.0809 15.0089 26.7859 15.129C25.6393 15.6003 24.5339 16.1662 23.4809 16.8206C22.8102 17.2366 22.1641 17.6911 21.5459 18.1819C17.8796 21.1171 15.2794 25.1776 14.1459 29.7377C14.0959 29.9379 14.0409 30.1381 13.9909 30.3383C13.9209 30.6185 13.8559 30.8988 13.7959 31.1841C13.7959 31.2441 13.7959 31.3042 13.7609 31.3592C13.7159 31.5794 13.6709 31.7746 13.6309 32.0048H14.8759C14.9809 31.7746 15.1409 31.4193 15.2609 31.1841C15.3159 31.069 15.3859 30.9488 15.4509 30.8287C15.5159 30.7086 15.6159 30.5034 15.7109 30.3283C17.3282 27.345 19.7685 24.8903 22.7409 23.2566L22.8809 23.1766C23.3209 22.9413 23.7709 22.7211 24.2509 22.5159C25.0729 22.1726 25.9184 21.8883 26.7809 21.6651C27.0609 21.5901 27.3409 21.525 27.6309 21.4599C27.9209 21.3949 28.1909 21.3498 28.4759 21.2998C28.9492 21.213 29.4392 21.143 29.9459 21.0896C29.9372 19.5275 29.71 17.9743 29.2709 16.4753Z" fill="#FDB813"/>
</g>
<defs>
<clipPath id="clip0">
<rect width="32" height="32" fill="white"/>
</clipPath>
</defs>
</svg>
