<svg width="64" height="64" viewBox="0 0 64 64" fill="none" xmlns="http://www.w3.org/2000/svg">
<path d="M0 53.1492L10 43.1992L12.17 45.3692L0 57.4992V53.1492Z" fill="#B6B6B5"/>
<path d="M0 61.84L14.29 47.54L16.46 49.71L2.18 64H0V61.84Z" fill="#B6B6B5"/>
<path d="M6.51953 63.9996L18.6295 51.8896L20.7995 54.0597L10.8595 63.9996H6.51953Z" fill="#B6B6B5"/>
<path d="M57.2702 25.8396L38.1602 6.72956L44.3202 0.579559C44.6931 0.219079 45.1915 0.0175781 45.7102 0.0175781C46.2288 0.0175781 46.7272 0.219079 47.1002 0.579559L51.7602 5.22956C52.0286 5.4998 52.2102 5.84414 52.2815 6.21836C52.3527 6.59257 52.3105 6.97954 52.1602 7.32956C51.8815 7.96065 51.8002 8.66126 51.927 9.33939C52.0538 10.0175 52.3826 10.6415 52.8704 11.1293C53.3583 11.6171 53.9822 11.946 54.6603 12.0727C55.3385 12.1995 56.0391 12.1182 56.6702 11.8396C57.0202 11.6892 57.4072 11.647 57.7814 11.7182C58.1556 11.7895 58.4999 11.9711 58.7702 12.2396L63.4202 16.8996C63.7806 17.2725 63.9821 17.7709 63.9821 18.2896C63.9821 18.8082 63.7806 19.3066 63.4202 19.6796L57.2702 25.8396ZM42.4102 6.72956L57.2702 21.5896L60.5702 18.2896L57.1402 14.8596C56.0288 15.1946 54.8474 15.2222 53.7217 14.9392C52.5959 14.6562 51.568 14.0733 50.7472 13.2525C49.9264 12.4317 49.3435 11.4038 49.0605 10.278C48.7775 9.1523 48.8051 7.9709 49.1402 6.85956L45.7102 3.42956L42.4102 6.72956Z" fill="#B6B6B5"/>
<path d="M28.5698 53.7196C28.0486 53.7148 27.5499 53.5067 27.1798 53.1396L22.5298 48.4896C22.2569 48.2201 22.0725 47.8738 22.001 47.4969C21.9296 47.1201 21.9745 46.7304 22.1298 46.3796C22.4071 45.7479 22.4868 45.0471 22.3586 44.3693C22.2303 43.6914 21.9 43.0682 21.4111 42.5815C20.9222 42.0947 20.2976 41.7672 19.6191 41.642C18.9407 41.5167 18.2403 41.5996 17.6098 41.8796C17.2594 42.0315 16.8711 42.0736 16.4962 42.0004C16.1213 41.9272 15.7774 41.7421 15.5098 41.4696L10.8598 36.8196C10.4994 36.4467 10.2979 35.9483 10.2979 35.4296C10.2979 34.9109 10.4994 34.4125 10.8598 34.0396L36.5498 8.34961L55.6498 27.4496L29.9998 53.1396C29.8118 53.3262 29.5885 53.4735 29.343 53.5731C29.0975 53.6726 28.8347 53.7225 28.5698 53.7196ZM25.1398 46.8596L28.5698 50.2896L51.4098 27.4496L36.5498 12.5896L13.7098 35.4296L17.1398 38.8596C18.2512 38.5245 19.4326 38.497 20.5583 38.78C21.684 39.063 22.712 39.6459 23.5328 40.4667C24.3536 41.2874 24.9365 42.3154 25.2195 43.4411C25.5024 44.5669 25.4749 45.7483 25.1398 46.8596Z" fill="#B6B6B5"/>
<path d="M30.1297 31.7292C32.4272 31.7292 34.2897 29.8667 34.2897 27.5692C34.2897 25.2717 32.4272 23.4092 30.1297 23.4092C27.8322 23.4092 25.9697 25.2717 25.9697 27.5692C25.9697 29.8667 27.8322 31.7292 30.1297 31.7292Z" fill="#741213"/>
<path d="M31.4897 40.0995C31.3998 40.1092 31.3088 40.0985 31.2236 40.0681C31.1384 40.0377 31.0612 39.9884 30.9978 39.924C30.9343 39.8596 30.8862 39.7816 30.8571 39.696C30.828 39.6103 30.8186 39.5192 30.8297 39.4295C31.0948 36.4922 32.3053 33.7202 34.2797 31.5295C36.4705 29.5551 39.2425 28.3445 42.1797 28.0795C42.27 28.07 42.3613 28.0809 42.4468 28.1112C42.5324 28.1416 42.6101 28.1906 42.6743 28.2548C42.7385 28.319 42.7876 28.3968 42.8179 28.4823C42.8483 28.5679 42.8591 28.6592 42.8497 28.7495C42.5797 31.6854 41.3698 34.456 39.3997 36.6495C37.2063 38.6258 34.4304 39.8365 31.4897 40.0995Z" fill="#741213"/>
</svg>
