<svg width="64" height="64" viewBox="0 0 64 64" fill="none" xmlns="http://www.w3.org/2000/svg">
<g clip-path="url(#clip0)">
<path d="M48.0104 42.29H18.9004V45.29H48.0104V42.29Z" fill="#741213"/>
<path d="M33.6504 47.9004H18.9004V50.9004H33.6504V47.9004Z" fill="#741213"/>
<path d="M55.5001 17.1099H32.0501C31.934 17.1116 31.819 17.0873 31.7135 17.0389C31.6079 16.9904 31.5146 16.919 31.4401 16.8299L26.8401 11.3799H8.55013C7.59973 11.3904 6.69231 11.7774 6.02683 12.4561C5.36135 13.1347 4.99213 14.0495 5.00013 14.9999H8.00013C8.00004 14.8468 8.05945 14.6997 8.1658 14.5896C8.27216 14.4795 8.41714 14.4151 8.57013 14.4099H25.4701L29.1601 18.7899C29.517 19.214 29.9625 19.5547 30.4653 19.7879C30.968 20.0212 31.5159 20.1413 32.0701 20.1399H55.4701C55.6179 20.1398 55.7599 20.1971 55.8663 20.2997C55.9726 20.4023 56.0349 20.5422 56.0401 20.6899V51.9999C56.8766 51.8646 57.6376 51.4362 58.1872 50.7914C58.7368 50.1465 59.0391 49.3272 59.0401 48.4799V20.6599C59.0323 19.7225 58.6572 18.8256 57.9953 18.1618C57.3333 17.498 56.4375 17.1203 55.5001 17.1099Z" fill="#B6B6B5"/>
<path d="M60.5 11.73H37.05C36.9332 11.7298 36.8179 11.7036 36.7124 11.6535C36.607 11.6033 36.5139 11.5304 36.44 11.44L31.84 6H13.55C12.6066 6.01051 11.7052 6.39201 11.0408 7.06197C10.3765 7.73193 10.0026 8.6365 10 9.58H13C13.0044 9.43264 13.0629 9.29206 13.1644 9.18508C13.2658 9.0781 13.4031 9.01222 13.55 9H30.45L34.14 13.38C34.4968 13.8041 34.9423 14.1448 35.4451 14.3781C35.9479 14.6113 36.4957 14.7314 37.05 14.73H60.45C60.5978 14.7299 60.7398 14.7872 60.8461 14.8898C60.9525 14.9924 61.0148 15.1323 61.02 15.28V46.6C61.8547 46.4609 62.6135 46.0315 63.1624 45.3875C63.7113 44.7434 64.015 43.9262 64.02 43.08V15.28C64.0123 14.346 63.6399 13.4521 62.9823 12.7888C62.3247 12.1256 61.4339 11.7456 60.5 11.73Z" fill="#B6B6B5"/>
<path d="M51.05 43.6596V53.8596C51.0475 54.0136 50.9859 54.1607 50.878 54.2705C50.77 54.3804 50.6239 54.4445 50.47 54.4496H3.59C3.43601 54.4471 3.28887 54.3855 3.17905 54.2775C3.06922 54.1696 3.00511 54.0235 3 53.8696V29.8096H0V53.8696C0.00263886 54.8182 0.380664 55.7273 1.05147 56.3981C1.72228 57.0689 2.63134 57.4469 3.58 57.4496H50.47C51.4187 57.4469 52.3277 57.0689 52.9985 56.3981C53.6693 55.7273 54.0474 54.8182 54.05 53.8696V29.8096H51.05V43.6596Z" fill="#B6B6B5"/>
<path d="M50.52 22.52H27.07C26.9534 22.5184 26.8386 22.4917 26.7333 22.4417C26.6281 22.3916 26.5348 22.3194 26.46 22.23L21.87 16.79H3.58C2.63052 16.79 1.71994 17.1672 1.04856 17.8386C0.377178 18.51 0 19.4206 0 20.37L0 27.07H54.05V26.07C54.0422 25.1344 53.6685 24.2389 53.0087 23.5754C52.3489 22.9119 51.4556 22.5331 50.52 22.52Z" fill="#741213"/>
</g>
<defs>
<clipPath id="clip0">
<rect width="64" height="64" fill="white"/>
</clipPath>
</defs>
</svg>
