<svg width="24" height="24" viewBox="0 0 24 24" fill="none" xmlns="http://www.w3.org/2000/svg">
<path d="M0 12C0 5.3736 5.3736 0 12 0C18.6264 0 24 5.3736 24 12C24 18.6264 18.6264 24 12 24C5.3736 24 0 18.6264 0 12Z" fill="#FFFFFF"/>
<path d="M8.17847 19H5.17731V9.55382H8.17847V19ZM6.67798 8.26394H6.65843C5.65134 8.26394 5 7.53864 5 6.63217C5 5.70523 5.67127 5 6.69792 5C7.72456 5 8.35634 5.70523 8.3759 6.63217C8.3759 7.53864 7.72456 8.26394 6.67798 8.26394ZM19 19H15.9992V13.9465C15.9992 12.6765 15.5647 11.8104 14.4788 11.8104C13.6498 11.8104 13.156 12.3946 12.939 12.9586C12.8597 13.1604 12.8403 13.4425 12.8403 13.7248V19H9.83934C9.83934 19 9.87864 10.44 9.83934 9.55382H12.8403V10.8913C13.2391 10.2476 13.9527 9.33212 15.5449 9.33212C17.5194 9.33212 19 10.6822 19 13.5836V19Z" fill="#170103"/>
</svg>
