<svg width="126" height="32" viewBox="0 0 126 32" fill="none" xmlns="http://www.w3.org/2000/svg">
<path d="M14.5257 7.40966H19.0147V25.4161H14.5257V23.5151C13.7632 24.2734 12.8711 24.8869 11.8923 25.3264C10.9819 25.7001 10.007 25.8887 9.0239 25.8812C7.89195 25.884 6.7724 25.6439 5.73986 25.1768C4.70733 24.7097 3.78552 24.0264 3.03588 23.1724C1.34481 21.3554 0.436023 18.9387 0.507785 16.4496C0.407517 13.9395 1.27904 11.4883 2.93865 9.61253C3.67956 8.76411 4.59399 8.08712 5.6192 7.62802C6.6444 7.16892 7.75611 6.93856 8.87805 6.95277C9.91566 6.94641 10.9438 7.15179 11.9004 7.55652C12.8859 7.99411 13.7775 8.62034 14.5257 9.4004V7.40966ZM9.84229 11.1056C9.19969 11.0955 8.56232 11.2234 7.97269 11.4809C7.38306 11.7383 6.85471 12.1194 6.42288 12.5986C5.4834 13.6333 4.98825 14.9999 5.04539 16.4006C4.98843 17.8111 5.48298 19.1879 6.42288 20.2353C6.8593 20.712 7.39116 21.0901 7.98338 21.3447C8.57559 21.5992 9.2147 21.7244 9.8585 21.712C10.5144 21.7286 11.1663 21.6049 11.7711 21.3489C12.3759 21.0929 12.9199 20.7106 13.367 20.2271C14.3189 19.1669 14.8168 17.7713 14.7526 16.3435C14.7816 15.6492 14.6741 14.9559 14.4364 14.3034C14.1986 13.651 13.8352 13.0522 13.367 12.5415C12.9116 12.0677 12.3627 11.6952 11.7556 11.4479C11.1486 11.2006 10.4968 11.084 9.84229 11.1056Z" fill="#3E3D3D"/>
<path d="M28.0334 7.40983V9.40057C28.7857 8.62153 29.6797 7.99552 30.6669 7.55668C31.6235 7.15196 32.6516 6.94658 33.6893 6.95293C34.8138 6.93691 35.9285 7.16636 36.9566 7.62551C37.9847 8.08465 38.9018 8.7626 39.6449 9.6127C41.3082 11.4862 42.1803 13.939 42.0757 16.4498C42.1475 18.9389 41.2387 21.3556 39.5476 23.1726C38.7968 24.0272 37.8736 24.7109 36.8396 25.1779C35.8057 25.645 34.6847 25.8848 33.5515 25.8813C32.5657 25.8889 31.5882 25.7003 30.675 25.3265C29.689 24.8914 28.7909 24.2774 28.0253 23.5153V32.0004H23.585V7.40983H28.0334ZM32.7493 11.1058C32.0949 11.0869 31.4438 11.2064 30.8381 11.4565C30.2324 11.7067 29.6855 12.0819 29.2327 12.558C28.7616 13.067 28.3957 13.6653 28.1565 14.318C27.9172 14.9708 27.8093 15.6649 27.839 16.36C27.8065 17.0678 27.9129 17.7751 28.152 18.4414C28.3912 19.1078 28.7584 19.7202 29.2327 20.2436C29.6828 20.7243 30.2288 21.1037 30.8349 21.3568C31.441 21.6099 32.0934 21.731 32.7493 21.7122C33.3996 21.7234 34.0447 21.5946 34.6414 21.3343C35.2382 21.074 35.7727 20.6882 36.2093 20.2028C37.1632 19.1619 37.67 17.7836 37.6192 16.3682C37.6732 14.9665 37.1752 13.6 36.2336 12.5662C35.7899 12.0865 35.2494 11.7081 34.6485 11.4562C34.0475 11.2043 33.3999 11.0848 32.7493 11.1058Z" fill="#3E3D3D"/>
<path d="M50.2512 7.4093V9.40004C51.0064 8.62451 51.8997 7.999 52.8846 7.55615C54.4079 6.92629 56.0873 6.78576 57.693 7.1538C59.2986 7.52184 60.7521 8.38046 61.8545 9.61217C63.5171 11.4861 64.3891 13.9386 64.2854 16.4492C64.3541 18.9393 63.4425 21.3559 61.7492 23.1721C60.9983 24.0267 60.0751 24.7103 59.0412 25.1774C58.0073 25.6445 56.8863 25.8843 55.7531 25.8808C54.7674 25.8877 53.7899 25.6992 52.8765 25.326C51.892 24.8883 50.9943 24.2746 50.2269 23.5147V31.9999H45.8027V7.4093H50.2512ZM54.9752 11.1052C54.3206 11.0848 53.669 11.2036 53.0631 11.4539C52.4572 11.7041 51.9104 12.0801 51.4585 12.5575C50.9864 13.0661 50.6193 13.6641 50.3787 14.3168C50.138 14.9695 50.0286 15.6638 50.0567 16.3595C49.9943 17.7899 50.4985 19.1868 51.4585 20.2431C51.9077 20.725 52.4536 21.1052 53.0599 21.3584C53.6662 21.6116 54.3191 21.732 54.9752 21.7116C55.6252 21.7213 56.2698 21.5918 56.8663 21.3316C57.4628 21.0713 57.9976 20.6864 58.4351 20.2023C59.3831 19.1582 59.8864 17.7814 59.8369 16.3676C59.8905 14.9675 59.3959 13.6021 58.4594 12.5656C58.0151 12.0869 57.4745 11.7089 56.8737 11.4571C56.2729 11.2053 55.6257 11.0853 54.9752 11.1052Z" fill="#3E3D3D"/>
<path d="M65.4688 7.40918H70.0469L74.5602 18.0156L79.0653 7.40918H83.6192L76.0106 25.4156H73.1016L65.4688 7.40918Z" fill="#3E3D3D"/>
<path d="M89.0725 0.00116027C89.4464 -0.00922153 89.8184 0.0578395 90.1655 0.198185C90.5125 0.338531 90.8273 0.549169 91.0901 0.817039C91.3586 1.09184 91.5688 1.41865 91.7081 1.77767C91.8474 2.13669 91.9128 2.52045 91.9004 2.90569C91.9098 3.28567 91.8428 3.66364 91.7036 4.01694C91.5644 4.37023 91.3557 4.69158 91.0901 4.9617C90.8353 5.24555 90.5239 5.47216 90.1763 5.62679C89.8286 5.78142 89.4526 5.8606 89.0725 5.85917C88.6906 5.8646 88.3117 5.78977 87.9601 5.63946C87.6086 5.48914 87.292 5.26665 87.0306 4.98618C86.7617 4.70835 86.5513 4.37868 86.4121 4.01697C86.2728 3.65525 86.2076 3.26894 86.2203 2.88121C86.2103 2.50359 86.277 2.12789 86.4164 1.77716C86.5557 1.42642 86.7647 1.10803 87.0306 0.841515C87.2939 0.565745 87.6116 0.348511 87.9632 0.203781C88.3149 0.0590522 88.6928 -0.00996772 89.0725 0.00116027ZM86.828 7.40934H91.3089V25.4158H86.828V7.40934Z" fill="#3E3D3D"/>
<path d="M97.1752 0.776367H101.664V7.40946H104.322V11.3012H101.664V25.4159H97.1752V11.3012H94.874V7.40946H97.1752V0.776367Z" fill="#3E3D3D"/>
<path d="M106.987 7.40918H111.574L116.216 18.7091L121.337 7.40918H125.94L114.742 31.9998H110.139L113.818 24.0694L106.987 7.40918Z" fill="#3E3D3D"/>
</svg>
