<svg width="64" height="64" viewBox="0 0 64 64" fill="none" xmlns="http://www.w3.org/2000/svg">
<path d="M3 44V12H0V44C0 45.0609 0.421427 46.0783 1.17157 46.8284C1.92172 47.5786 2.93913 48 4 48H7V45H4C3.86639 45.0088 3.73244 44.989 3.6071 44.9419C3.48177 44.8948 3.36795 44.8214 3.27327 44.7267C3.17859 44.632 3.10523 44.5182 3.0581 44.3929C3.01097 44.2676 2.99116 44.1336 3 44Z" fill="#B6B6B5"/>
<path d="M3 9H54V4C54 2.93913 53.5786 1.92172 52.8284 1.17157C52.0783 0.421427 51.0609 0 50 0L4 0C2.93913 0 1.92172 0.421427 1.17157 1.17157C0.421427 1.92172 0 2.93913 0 4L0 9H3ZM48.2 3C48.3905 3.00645 48.5778 3.05039 48.7512 3.12928C48.9247 3.20818 49.0809 3.3205 49.2109 3.45981C49.3409 3.59912 49.4422 3.76269 49.509 3.94118C49.5758 4.11966 49.6067 4.30956 49.6 4.5C49.6 4.8713 49.4525 5.2274 49.1899 5.48995C48.9274 5.7525 48.5713 5.9 48.2 5.9C47.8287 5.9 47.4726 5.7525 47.21 5.48995C46.9475 5.2274 46.8 4.8713 46.8 4.5C46.7933 4.30956 46.8242 4.11966 46.891 3.94118C46.9578 3.76269 47.0591 3.59912 47.1891 3.45981C47.3191 3.3205 47.4753 3.20818 47.6488 3.12928C47.8222 3.05039 48.0095 3.00645 48.2 3ZM42.4 3C42.5905 3.00645 42.7778 3.05039 42.9512 3.12928C43.1247 3.20818 43.2809 3.3205 43.4109 3.45981C43.5409 3.59912 43.6422 3.76269 43.709 3.94118C43.7758 4.11966 43.8067 4.30956 43.8 4.5C43.8 4.8713 43.6525 5.2274 43.3899 5.48995C43.1274 5.7525 42.7713 5.9 42.4 5.9C42.0287 5.9 41.6726 5.7525 41.41 5.48995C41.1475 5.2274 41 4.8713 41 4.5C40.9933 4.30956 41.0242 4.11966 41.091 3.94118C41.1578 3.76269 41.2591 3.59912 41.3891 3.45981C41.5191 3.3205 41.6753 3.20818 41.8488 3.12928C42.0222 3.05039 42.2095 3.00645 42.4 3ZM36.6 3C36.7905 3.00645 36.9778 3.05039 37.1512 3.12928C37.3247 3.20818 37.4809 3.3205 37.6109 3.45981C37.7409 3.59912 37.8422 3.76269 37.909 3.94118C37.9758 4.11966 38.0067 4.30956 38 4.5C38 4.68385 37.9638 4.8659 37.8934 5.03576C37.8231 5.20561 37.72 5.35995 37.59 5.48995C37.4599 5.61995 37.3056 5.72307 37.1358 5.79343C36.9659 5.86379 36.7838 5.9 36.6 5.9C36.4161 5.9 36.2341 5.86379 36.0642 5.79343C35.8944 5.72307 35.7401 5.61995 35.6101 5.48995C35.48 5.35995 35.3769 5.20561 35.3066 5.03576C35.2362 4.8659 35.2 4.68385 35.2 4.5C35.1933 4.30956 35.2242 4.11966 35.291 3.94118C35.3578 3.76269 35.4591 3.59912 35.5891 3.45981C35.7191 3.3205 35.8753 3.20818 36.0488 3.12928C36.2222 3.05039 36.4095 3.00645 36.6 3Z" fill="#B6B6B5"/>
<path d="M51 16H14C12.9391 16 11.9217 16.4214 11.1716 17.1716C10.4214 17.9217 10 18.9391 10 20V25H64V20C64 18.9391 63.5786 17.9217 62.8284 17.1716C62.0783 16.4214 61.0609 16 60 16H51ZM46.6 22C46.2999 22.0201 46.0007 21.9494 45.7412 21.7972C45.4817 21.6451 45.274 21.4184 45.145 21.1467C45.016 20.875 44.9716 20.5708 45.0177 20.2735C45.0638 19.9763 45.1982 19.6998 45.4034 19.4799C45.6087 19.26 45.8753 19.1069 46.1686 19.0404C46.462 18.9739 46.7685 18.9972 47.0485 19.1072C47.3285 19.2172 47.5689 19.4088 47.7386 19.6572C47.9082 19.9056 47.9993 20.1992 48 20.5C48.0067 20.6904 47.9758 20.8803 47.909 21.0588C47.8422 21.2373 47.7409 21.4009 47.6109 21.5402C47.4809 21.6795 47.3247 21.7918 47.1512 21.8707C46.9778 21.9496 46.7905 21.9935 46.6 22ZM52.4 22C52.0513 21.9817 51.7201 21.8415 51.4642 21.6039C51.2083 21.3663 51.044 21.0464 51 20.7V20.3C51.044 19.9536 51.2083 19.6337 51.4642 19.3961C51.7201 19.1585 52.0513 19.0183 52.4 19C52.7978 19 53.1794 19.158 53.4607 19.4393C53.742 19.7206 53.9 20.1022 53.9 20.5C53.9 20.8978 53.742 21.2794 53.4607 21.5607C53.1794 21.842 52.7978 22 52.4 22ZM58.2 19C58.5001 18.9799 58.7993 19.0506 59.0588 19.2028C59.3183 19.3549 59.526 19.5816 59.655 19.8533C59.784 20.125 59.8284 20.4292 59.7823 20.7265C59.7362 21.0237 59.6018 21.3002 59.3966 21.5201C59.1913 21.74 58.9247 21.8931 58.6314 21.9596C58.338 22.0261 58.0315 22.0028 57.7515 21.8928C57.4715 21.7828 57.2311 21.5912 57.0614 21.3428C56.8918 21.0944 56.8007 20.8008 56.8 20.5C56.7933 20.3096 56.8242 20.1197 56.891 19.9412C56.9578 19.7627 57.0591 19.5991 57.1891 19.4598C57.3191 19.3205 57.4753 19.2082 57.6488 19.1293C57.8222 19.0504 58.0095 19.0065 58.2 19Z" fill="#B6B6B5"/>
<path d="M39.2905 31.8096H16.4805V34.8096H39.2905V31.8096Z" fill="#B6B6B5"/>
<path d="M33.6905 37.4297H16.4805V40.4297H33.6905V37.4297Z" fill="#B6B6B5"/>
<path d="M31.2305 43.0498H16.4805V46.0498H31.2305V43.0498Z" fill="#B6B6B5"/>
<path d="M64 36.93V28H61V34.44C62.0855 35.1612 63.0912 35.9959 64 36.93Z" fill="#B6B6B5"/>
<path d="M35.93 61H14C13.8664 61.0088 13.7324 60.989 13.6071 60.9419C13.4818 60.8948 13.368 60.8214 13.2733 60.7267C13.1786 60.632 13.1052 60.5182 13.0581 60.3929C13.011 60.2676 12.9912 60.1336 13 60V28H10V60C10 61.0609 10.4214 62.0783 11.1716 62.8284C11.9217 63.5786 12.9391 64 14 64H38.73C37.6884 63.1069 36.7493 62.1007 35.93 61Z" fill="#B6B6B5"/>
<path d="M64.0001 57.9999V41.7599C62.7318 39.6897 60.9965 37.9453 58.933 36.6662C56.8695 35.3871 54.5352 34.609 52.1169 34.3941C49.6987 34.1791 47.2637 34.5334 45.007 35.4286C42.7503 36.3237 40.7345 37.7348 39.1211 39.5489C37.5077 41.363 36.3414 43.5297 35.7157 45.8754C35.09 48.2212 35.0223 50.6808 35.5179 53.0575C36.0135 55.4341 37.0587 57.6617 38.5699 59.5619C40.081 61.462 42.016 62.9819 44.2201 63.9999H57.2901C60.068 62.7032 62.402 60.6162 64.0001 57.9999ZM50.7501 41.3199C51.2133 41.3179 51.6667 41.4535 52.0528 41.7094C52.4389 41.9653 52.7404 42.3301 52.9191 42.7575C53.0977 43.1849 53.1455 43.6557 53.0563 44.1103C52.9672 44.5649 52.7451 44.9827 52.4182 45.311C52.0914 45.6392 51.6745 45.8631 51.2203 45.9542C50.7661 46.0453 50.2951 45.9996 49.8669 45.8227C49.4388 45.6459 49.0727 45.346 48.8151 44.961C48.5576 44.576 48.4201 44.1232 48.4201 43.6599C48.4201 43.0411 48.6652 42.4474 49.1019 42.0088C49.5386 41.5703 50.1312 41.3226 50.7501 41.3199ZM53.0901 57.6799C53.0901 57.7824 53.0699 57.8838 53.0307 57.9784C52.9915 58.0731 52.934 58.159 52.8616 58.2315C52.7892 58.3039 52.7032 58.3614 52.6086 58.4006C52.5139 58.4398 52.4125 58.4599 52.3101 58.4599H49.2001C48.9932 58.4599 48.7948 58.3778 48.6485 58.2315C48.5022 58.0852 48.4201 57.8868 48.4201 57.6799V48.3399C48.4187 48.2371 48.438 48.1351 48.4767 48.0399C48.5154 47.9446 48.5728 47.8581 48.6455 47.7854C48.7182 47.7127 48.8048 47.6553 48.9 47.6166C48.9952 47.5778 49.0973 47.5586 49.2001 47.5599H52.3101C52.4129 47.5586 52.5149 47.5778 52.6101 47.6166C52.7054 47.6553 52.7919 47.7127 52.8646 47.7854C52.9373 47.8581 52.9947 47.9446 53.0334 48.0399C53.0722 48.1351 53.0914 48.2371 53.0901 48.3399V57.6799Z" fill="#741213"/>
</svg>
