<svg width="65" height="64" viewBox="0 0 65 64" fill="none" xmlns="http://www.w3.org/2000/svg">
<g clip-path="url(#clip0)">
<path d="M9.70094 25.3137L12.1409 22.8815L14.5409 25.3638L23.8609 35.0328L24.3709 35.5633L28.8509 30.919C38.1209 21.29 49.8509 9.10854 50.4609 8.47795L52.8609 6.00563L55.3009 8.43791L61.5409 14.6637L64.5409 11.5909L52.9109 0L24.3709 29.6278C21.0509 26.1745 12.8809 17.7066 12.1009 16.8858L0.460938 28.4667C0.660938 28.6669 1.77094 29.8079 3.46094 31.5396L9.70094 25.3137Z" fill="#FDB813"/>
<path d="M52.9109 10.8203C52.1209 11.6311 33.1209 31.3696 24.3709 40.4381L12.1009 27.7061L5.82094 34.0321L0.460938 39.277L24.3209 64.0602L24.4209 63.5197C24.5209 62.9592 24.6309 62.3687 24.7709 61.7281C24.9109 61.0875 25.0209 60.577 25.1709 59.9364C26.2035 55.635 27.7831 51.4839 29.8709 47.5848C32.7426 42.2136 36.6877 37.4913 41.4609 33.7118C42.7997 32.6555 44.1951 31.6731 45.6409 30.769L46.4909 30.2686C48.501 29.0682 50.5967 28.0177 52.7609 27.1256C53.3709 26.8754 53.9709 26.6452 54.5809 26.4149C55.1909 26.1847 55.8409 26.0246 56.4609 25.7944H56.5709L59.4609 24.8134L60.3009 26.7352L64.4609 22.3912L59.1509 17.0962L52.9109 10.8203Z" fill="#FDB813"/>
<path d="M59.0398 32.9515C58.8598 32.3309 58.6598 31.7204 58.4498 31.1198C58.2398 30.5192 58.0198 29.9587 57.7698 29.3782L57.6098 28.9678L57.4598 29.0278C56.9298 29.198 56.3598 29.3882 55.7698 29.6084C55.1798 29.8286 54.6598 30.0188 54.0698 30.259C51.7767 31.2017 49.5658 32.3333 47.4598 33.6422C46.1184 34.4742 44.8262 35.3832 43.5898 36.3647C36.2572 42.2351 31.0568 50.3561 28.7898 59.4764C28.6898 59.8768 28.5798 60.2771 28.4798 60.6775C28.3398 61.238 28.2098 61.7986 28.0898 62.3691C28.0898 62.4892 28.0898 62.6093 28.0198 62.7194C27.9298 63.1599 27.8398 63.5502 27.7598 64.0107H30.2498C30.4598 63.5502 30.7798 62.8396 31.0198 62.3691C31.1298 62.1389 31.2698 61.8987 31.3998 61.6584C31.5298 61.4182 31.7298 61.0078 31.9198 60.6575C35.1544 54.691 40.035 49.7815 45.9798 46.5142L46.2598 46.3541C47.1398 45.8836 48.0398 45.4432 48.9998 45.0328C50.6439 44.3461 52.3349 43.7775 54.0598 43.3312C54.6198 43.1811 55.1798 43.051 55.7598 42.9209C56.3398 42.7907 56.8798 42.7007 57.4498 42.6006C58.3964 42.4271 59.3764 42.2869 60.3898 42.1802C60.3725 39.0559 59.9181 35.9495 59.0398 32.9515Z" fill="#74060E"/>
</g>
<defs>
<clipPath id="clip0">
<rect width="64" height="64" fill="white" transform="translate(0.5)"/>
</clipPath>
</defs>
</svg>
