<svg width="64" height="64" viewBox="0 0 64 64" fill="none" xmlns="http://www.w3.org/2000/svg">
<g clip-path="url(#clip0)">
<path d="M34.2406 18.7598H20.6406V21.7598H34.2406V18.7598Z" fill="#741213"/>
<path d="M40.9406 24.0801H20.6406V27.0801H40.9406V24.0801Z" fill="#741213"/>
<path d="M57.79 3.82V29.25C57.788 29.3764 57.8149 29.5015 57.8686 29.6159C57.9224 29.7302 58.0015 29.8308 58.1 29.91L64 34.91V54.72C64 55.75 63.5915 56.7379 62.8642 57.4671C62.1368 58.1963 61.15 58.6074 60.12 58.61V55.35C60.288 55.35 60.4493 55.284 60.569 55.1661C60.6888 55.0482 60.7574 54.888 60.76 54.72V36.41L56 32.4C55.541 32.0137 55.1724 31.5314 54.9201 30.9872C54.6679 30.4429 54.5381 29.8499 54.54 29.25V3.88C54.5378 3.7187 54.4748 3.56419 54.3635 3.44737C54.2523 3.33056 54.101 3.26007 53.94 3.25H20C20.1485 2.3472 20.6113 1.52592 21.3067 0.931243C22.002 0.33656 22.8851 0.00672735 23.8 0L53.94 0C54.9535 0.00771602 55.9238 0.411721 56.6433 1.1256C57.3628 1.83949 57.7744 2.80657 57.79 3.82Z" fill="#B6B6B5"/>
<path d="M51.93 9.21965V34.6396C51.9309 34.7646 51.9581 34.8879 52.0098 35.0016C52.0614 35.1153 52.1365 35.2168 52.23 35.2996L58.14 40.2996V60.1196C58.1374 61.1479 57.7277 62.1332 57.0007 62.8603C56.2736 63.5874 55.2882 63.997 54.26 63.9996H47V5.38965H48.1C49.1102 5.40762 50.0739 5.81691 50.7883 6.53131C51.5027 7.24572 51.912 8.20949 51.93 9.21965Z" fill="#B6B6B5"/>
<path d="M24.1797 64H43.9997V60.75H27.8397C26.7758 61.9973 25.5441 63.0911 24.1797 64Z" fill="#B6B6B5"/>
<path d="M29.0008 5.38965H17.9408C16.9099 5.39229 15.922 5.80297 15.1931 6.53192C14.4641 7.26086 14.0534 8.24877 14.0508 9.27965V31.9096C14.2108 31.9096 14.3608 31.9096 14.5208 31.9096C15.456 31.9167 16.3892 32.0003 17.3108 32.1596V9.27965C17.3108 9.11256 17.3772 8.95232 17.4953 8.83417C17.6135 8.71602 17.7737 8.64965 17.9408 8.64965H44.0008V5.38965H29.0008Z" fill="#B6B6B5"/>
<path d="M29.0001 49.3802C29.0001 48.9102 29.0001 48.4402 28.9301 47.9702C28.9301 47.7502 28.8601 47.5402 28.8301 47.3202C28.8001 47.1002 28.7701 46.8102 28.7201 46.5602C28.6701 46.3102 28.6001 46.0802 28.5401 45.8402C28.4801 45.6002 28.4401 45.4002 28.3701 45.1902C28.3001 44.9802 28.2101 44.7202 28.1301 44.4902C28.0501 44.2602 27.9801 44.0602 27.8901 43.8502C27.8001 43.6402 27.7001 43.4202 27.6001 43.2102C27.5001 43.0002 27.4001 42.7702 27.2801 42.5602C27.1601 42.3502 27.0501 42.1602 26.9301 41.9702C26.8101 41.7802 26.6901 41.5402 26.5501 41.3402C26.4101 41.1402 26.2501 40.9202 26.0901 40.7102C25.9301 40.5002 25.8401 40.3602 25.7101 40.2002C25.3953 39.8234 25.0616 39.463 24.7101 39.1202C24.3901 38.8002 24.0501 38.5002 23.7101 38.2102L23.4101 37.9802C23.1501 37.7802 22.9001 37.5802 22.6301 37.4002C22.3601 37.2202 22.3101 37.2002 22.1401 37.1002C21.9701 37.0002 21.7201 36.8302 21.5001 36.7102L20.8401 36.3702L20.3301 36.1302C20.0701 36.0102 19.8001 35.9102 19.5301 35.8102L19.1201 35.6602C18.8301 35.5602 18.5301 35.4702 18.2301 35.3902L18.0001 35.3102C17.6801 35.2302 17.3601 35.1602 17.0001 35.1102H16.7101C16.3701 35.0602 16.0301 35.0202 15.7101 34.9902C15.3501 34.9902 14.9801 34.9302 14.6101 34.9302C12.8268 34.941 11.0607 35.2799 9.4001 35.9302H9.26011L8.47011 36.2802L8.0301 36.4902L7.41011 36.8202C7.21011 36.9302 7.02011 37.0502 6.83011 37.1702L6.34011 37.4902C6.11011 37.6502 5.89011 37.8202 5.66011 38.0002L5.31011 38.2702C4.98011 38.5502 4.66011 38.8402 4.31011 39.1502C3.96011 39.4602 3.6501 39.8502 3.31011 40.2202C3.1701 40.3802 3.06011 40.5602 2.93011 40.7302C2.80011 40.9002 2.61011 41.1402 2.47011 41.3602C2.33011 41.5802 2.2101 41.7802 2.08011 41.9902C1.95011 42.2002 1.84011 42.3802 1.74011 42.5802C1.64011 42.7802 1.52011 43.0102 1.42011 43.2302C1.32011 43.4502 1.21011 43.6502 1.13011 43.8702C1.05011 44.0902 0.970105 44.3002 0.890105 44.5102C0.810105 44.7202 0.720105 44.9702 0.650105 45.2102C0.580105 45.4502 0.530105 45.6402 0.480105 45.8602C0.430105 46.0802 0.350105 46.3402 0.300105 46.5802C0.250105 46.8202 0.220105 47.0902 0.190105 47.3402C0.160105 47.5902 0.110105 47.7702 0.0901053 47.9902C0.0901053 48.4602 0.0201053 48.9902 0.0201053 49.4202H0.000105254C-0.00177718 49.8778 0.0215917 50.3351 0.0701053 50.7902C0.0701053 50.9102 0.0701053 51.0302 0.0701053 51.1602C0.0701053 51.4802 0.150105 51.8102 0.210105 52.1602C0.270105 52.5102 0.290105 52.5302 0.340105 52.7202C0.390105 52.9102 0.450105 53.2102 0.510105 53.4502C0.570105 53.6902 0.670105 53.9202 0.750105 54.1502C0.830105 54.3802 0.860105 54.5102 0.930105 54.6802C1.00011 54.8502 1.15011 55.2102 1.27011 55.4702L1.45011 55.8702C1.59011 56.1502 1.74011 56.4202 1.90011 56.6902L2.08011 56.9902C2.25011 57.2702 2.4301 57.5502 2.62011 57.8202L2.79011 58.0502C3.00011 58.3302 3.21011 58.6002 3.43011 58.8702C3.67011 59.1402 3.91011 59.4202 4.17011 59.6902C5.4326 60.9517 6.91758 61.9689 8.55011 62.6902L8.68011 62.7502L9.4901 63.0702L9.9401 63.2202C10.1734 63.3002 10.4034 63.3702 10.6301 63.4302L11.2701 63.5902L11.8501 63.7102C12.1201 63.7102 12.4101 63.8002 12.6901 63.8302L13.1301 63.8902C13.5601 63.8902 13.9901 63.9502 14.4301 63.9502C14.8701 63.9502 15.4301 63.9502 15.8701 63.8802L16.5001 63.7902L17.2801 63.6702C17.5201 63.6702 17.7501 63.5502 17.9901 63.4902C18.2301 63.4302 18.4301 63.3902 18.6501 63.3202C18.8701 63.2502 19.1101 63.1602 19.3401 63.0802C19.5701 63.0002 19.7801 62.9302 19.9901 62.8402C20.2001 62.7502 20.4101 62.6502 20.6201 62.5502C20.8301 62.4502 21.0701 62.3502 21.2801 62.2302C21.4901 62.1102 21.6701 62.0002 21.8701 61.8902C22.0701 61.7802 22.2901 61.6402 22.5001 61.5002C22.7101 61.3602 22.9201 61.2002 23.1201 61.0402C23.2998 60.9225 23.4734 60.7957 23.6401 60.6602C24.3683 60.058 25.0379 59.3883 25.6401 58.6602C25.7701 58.5002 25.8901 58.3202 26.0201 58.1502C26.1501 57.9802 26.3401 57.7402 26.4801 57.5202C26.6201 57.3002 26.7401 57.1002 26.8601 56.9002C26.9801 56.7002 27.1001 56.5102 27.2101 56.3002C27.3201 56.0902 27.4201 55.8702 27.5301 55.6502C27.6401 55.4302 27.7301 55.2302 27.8201 55.0102C27.9101 54.7902 27.9801 54.5902 28.0601 54.3702C28.1401 54.1502 28.2301 53.9102 28.3001 53.6702C28.3701 53.4302 28.4101 53.2402 28.4701 53.0302C28.5301 52.8202 28.6001 52.5402 28.6501 52.3002C28.7001 52.0602 28.7301 51.7902 28.7601 51.5402C28.7901 51.2902 28.8301 51.1102 28.8601 50.8902C28.8601 50.4202 28.9301 49.9502 28.9301 49.4802L29.0001 49.3802ZM10.7001 55.2802C10.468 55.5002 10.1599 55.622 9.84011 55.6202C9.66835 55.6208 9.49827 55.5865 9.34014 55.5195C9.182 55.4524 9.03911 55.354 8.9201 55.2302L4.24011 50.2302C4.01767 49.9991 3.89341 49.6909 3.89341 49.3702C3.89341 49.0495 4.01767 48.7412 4.24011 48.5102L8.9201 43.5102C9.03862 43.385 9.18119 43.285 9.33928 43.2163C9.49738 43.1476 9.66772 43.1115 9.84011 43.1102C10.0867 43.1077 10.3286 43.1783 10.5352 43.3129C10.7418 43.4476 10.904 43.6404 11.0013 43.8671C11.0985 44.0937 11.1266 44.3441 11.0819 44.5866C11.0372 44.8292 10.9218 45.0531 10.7501 45.2302L6.89011 49.4002L10.7501 53.5002C10.8661 53.6191 10.957 53.7601 11.0174 53.9148C11.0778 54.0695 11.1066 54.2347 11.1019 54.4008C11.0972 54.5668 11.0593 54.7302 10.9902 54.8812C10.9212 55.0323 10.8226 55.168 10.7001 55.2802ZM14.7001 56.8802C14.6673 57.1957 14.5158 57.487 14.2763 57.6949C14.0368 57.9029 13.7271 58.012 13.4101 58.0002H13.2201C12.8901 57.9508 12.5931 57.7725 12.3944 57.5044C12.1957 57.2363 12.1114 56.9003 12.1601 56.5702L14.3901 41.9902C14.4334 41.6925 14.5827 41.4204 14.8105 41.2238C15.0382 41.0273 15.3293 40.9194 15.6301 40.9202H15.8201C16.1501 40.9696 16.4471 41.1479 16.6458 41.416C16.8446 41.6841 16.9288 42.02 16.8801 42.3502L14.7001 56.8802ZM24.8001 50.2602L20.1201 55.2602C20.0117 55.3965 19.8761 55.5089 19.722 55.5902C19.568 55.6715 19.3987 55.72 19.2249 55.7325C19.0512 55.7451 18.8767 55.7215 18.7125 55.6632C18.5483 55.6049 18.398 55.5132 18.2711 55.3939C18.1441 55.2746 18.0433 55.1303 17.975 54.97C17.9066 54.8098 17.8723 54.6371 17.8741 54.4629C17.8759 54.2887 17.9138 54.1167 17.9854 53.9579C18.057 53.7991 18.1607 53.6569 18.2901 53.5402L22.1501 49.4402L18.2901 45.3402C18.1184 45.1631 18.003 44.9392 17.9583 44.6966C17.9136 44.4541 17.9417 44.2037 18.0389 43.9771C18.1362 43.7504 18.2984 43.5576 18.505 43.4229C18.7116 43.2883 18.9535 43.2177 19.2001 43.2202C19.3725 43.2215 19.5428 43.2576 19.7009 43.3263C19.859 43.395 20.0016 43.495 20.1201 43.6202L24.8001 48.6202C24.9958 48.8485 25.1034 49.1394 25.1034 49.4402C25.1034 49.741 24.9958 50.0318 24.8001 50.2602Z" fill="#741213"/>
</g>
<defs>
<clipPath id="clip0">
<rect width="64" height="64" fill="white"/>
</clipPath>
</defs>
</svg>
