<svg width="64" height="64" viewBox="0 0 64 64" fill="none" xmlns="http://www.w3.org/2000/svg">
<path d="M0 52.5033L36.5635 61.962V2.04102L0 11.5034V52.5033ZM18.6521 34.7577C14.5952 32.7864 11.9496 29.658 11.9496 24.7094C11.9496 18.906 15.4279 14.4622 21.1909 14.4622C23.947 14.4622 25.9736 15.2729 27.4254 16.1793L26.191 22.3881C25.2109 21.7322 23.4754 20.7742 21.0803 20.7742C18.6889 20.7742 17.5282 22.2886 17.5282 24.0573C17.5282 26.2276 18.9063 27.1856 22.0568 28.8511C26.3716 31.073 28.3982 34.205 28.3982 38.9988C28.3982 44.7028 25.2514 49.5445 18.5452 49.5445C15.7522 49.5445 12.9997 48.5386 11.6216 47.4774L12.7455 41.1175C14.2304 42.1751 16.5149 43.2326 18.8732 43.2326C21.4083 43.2326 22.7495 41.7734 22.7495 39.5478C22.7458 37.4328 21.5851 36.2168 18.6521 34.7577Z" fill="#336CBC"/>
<path d="M56.0219 22.8729C54.7028 22.8729 53.4794 23.223 52.3814 23.7904L47.5323 18.934C47.8492 18.0754 48.0445 17.1616 48.0445 16.1925C48.0445 11.8998 44.6508 8.42882 40.4023 8.25195V24.1405C41.2461 24.1 42.0568 23.9341 42.8122 23.6578L48.2582 29.1001C48.1292 29.6639 48.0445 30.2461 48.0445 30.8504C48.0445 32.8254 48.7888 34.6088 49.9789 35.9979L45.2551 40.7218C44.1497 40.1543 42.919 39.7969 41.5962 39.7969C41.1909 39.7969 40.7966 39.8558 40.4023 39.9148V55.6265C40.7966 55.6891 41.1909 55.7444 41.5962 55.7444C45.9958 55.7444 49.5663 52.1776 49.5663 47.7743C49.5663 47.1774 49.4962 46.6063 49.371 46.0499L56.6594 38.7615C60.7641 38.4299 63.9993 35.0325 63.9993 30.8467C63.9956 26.4434 60.4215 22.8729 56.0219 22.8729Z" fill="#336CBC"/>
</svg>
