<svg width="24" height="24" viewBox="0 0 24 24" fill="none" xmlns="http://www.w3.org/2000/svg">
<g clip-path="url(#clip0)">
<path d="M23.7068 22.293L16.8818 15.4681C18.2038 13.8351 18.9998 11.7601 18.9998 9.50014C18.9998 4.26219 14.7378 0.000213623 9.49988 0.000213623C4.26193 0.000213623 0 4.26214 0 9.50009C0 14.738 4.26197 19 9.49992 19C11.7599 19 13.8349 18.204 15.4678 16.882L22.2928 23.707C22.4878 23.902 22.7438 24 22.9998 24C23.2558 24 23.5118 23.902 23.7068 23.707C24.0978 23.316 24.0978 22.684 23.7068 22.293ZM9.49992 17C5.36395 17 2 13.6361 2 9.50009C2 5.36411 5.36395 2.00016 9.49992 2.00016C13.6359 2.00016 16.9998 5.36411 16.9998 9.50009C16.9998 13.6361 13.6359 17 9.49992 17Z" fill="#5C5B5A"/>
</g>
<defs>
<clipPath id="clip0">
<rect width="24" height="24" fill="white"/>
</clipPath>
</defs>
</svg>
