<svg width="64" height="64" viewBox="0 0 64 64" fill="none" xmlns="http://www.w3.org/2000/svg">
<path d="M62.5004 37H50.3004L48.8004 38.5L47.3004 40H61.0004V61H26.3004L25.1004 62.2C25.0004 62.3 24.9004 62.4 24.7004 62.5C24.1004 63 23.5004 63.5 22.9004 64H62.4004C63.2004 64 63.9004 63.3 63.9004 62.5V38.5C64.0004 37.7 63.3004 37 62.5004 37Z" fill="#B7B6B5"/>
<path d="M53 43H50V58H53V43Z" fill="#B7B6B5"/>
<path d="M39 57.9998H42V45.2998L39 48.2998V57.9998Z" fill="#B7B6B5"/>
<path d="M40.1008 42.9999L43.1008 39.9999L44.6008 38.4999L46.1008 36.9999L49.1008 33.9999L57.7008 25.3999C58.3008 24.7999 58.3008 23.8999 57.7008 23.2999L40.7008 6.2999C40.4008 5.9999 40.0008 5.8999 39.7008 5.8999C39.3008 5.8999 38.9008 5.9999 38.6008 6.2999L30.0008 14.8999V16.9999V19.0999L39.7008 9.3999L54.5008 24.1999L44.8008 33.9999L41.8008 36.9999L40.3008 38.4999L38.8008 39.9999L30.0008 48.7999V50.4999C30.0008 50.6999 30.0008 50.7999 30.0008 50.9999C30.0008 51.7999 29.9008 52.5999 29.8008 53.3999L39.1008 44.0999L40.1008 42.9999Z" fill="#B7B6B5"/>
<path d="M36.1233 17.2317L34.002 19.353L44.6085 29.9595L46.7298 27.8382L36.1233 17.2317Z" fill="#B7B6B5"/>
<path d="M36.1 36.9997L36.8 37.7997L37.6 36.9997L39 35.6997L37.3 33.9997L30 26.6997V30.8997L33.1 33.9997L36.1 36.9997Z" fill="#B7B6B5"/>
<path d="M24.8 62.5C24.2 63 23.6 63.5 23 64C23.6 63.5 24.2 63 24.8 62.5C24.9 62.4 25.1 62.3 25.2 62.2L26.4 61H26.3C25.8 61.5 25.3 62 24.8 62.5Z" fill="#74060E"/>
<path d="M25.5 0H1.5C0.7 0 0 0.7 0 1.5V41V50.4V50.5C0 50.9 0 51.3 0.1 51.7C0.1 51.8 0.1 51.8 0.1 51.9C0.1 52 0.1 52.2 0.2 52.3C0.2 52.4 0.2 52.4 0.2 52.5C0.2 52.7 0.3 52.9 0.3 53.1C0.3 53.3 0.4 53.4 0.4 53.6V53.7C0.4 53.8 0.4 53.8 0.4 53.9C0.4 54.1 0.5 54.2 0.5 54.4C0.5 54.5 0.6 54.6 0.6 54.7C0.7 54.9 0.7 55 0.8 55.2C0.9 55.3 1 55.5 1 55.6C1.1 55.7 1.1 55.8 1.2 56C1.2 56.1 1.3 56.1 1.3 56.2C1.3 56.3 1.4 56.4 1.4 56.4C1.5 56.5 1.5 56.7 1.6 56.8C1.7 57.1 1.9 57.3 2 57.5C2.1 57.6 2.2 57.8 2.2 57.9C2.3 58 2.3 58.1 2.4 58.1C2.4 58.2 2.5 58.2 2.5 58.3C2.6 58.4 2.7 58.6 2.8 58.7C2.9 58.9 3 59 3 59C3 59 3 59 3 59.1C3.1 59.2 3.2 59.4 3.3 59.5C3.6 59.7 3.8 59.9 4 60C4.2 60.2 4.4 60.4 4.6 60.6C4.7 60.7 4.8 60.8 4.9 60.9C5 61 5.1 61.1 5.2 61.2C5.3 61.3 5.5 61.4 5.6 61.5C5.6 61.5 5.7 61.5 5.7 61.6C5.8 61.7 5.9 61.7 6 61.8C6.1 61.9 6.3 62 6.5 62.1C6.6 62.2 6.7 62.2 6.8 62.3C6.9 62.4 7 62.4 7.2 62.5C7.4 62.6 7.5 62.7 7.7 62.7C7.9 62.8 8.2 62.9 8.4 63C8.6 63.1 8.7 63.1 8.9 63.2C9 63.2 9 63.2 9.1 63.3H9.2C9.3 63.3 9.5 63.4 9.6 63.4C9.8 63.5 10 63.5 10.1 63.5C10.2 63.5 10.2 63.5 10.3 63.5C10.5 63.5 10.7 63.6 10.8 63.6C11 63.6 11.2 63.7 11.4 63.7C11.5 63.7 11.5 63.7 11.6 63.7C11.7 63.7 11.9 63.7 12 63.8C12.4 63.8 12.8 63.9 13.3 63.9C13.3 63.9 13.3 63.9 13.4 63.9H13.5C13.9 63.9 14.3 63.9 14.7 63.8C14.9 63.8 15.2 63.7 15.4 63.7C15.6 63.7 15.8 63.7 16 63.6C16.3 63.5 16.6 63.5 16.8 63.4C16.9 63.4 17.1 63.3 17.2 63.3C17.5 63.2 17.8 63.1 18 63C18.1 62.9 18.3 62.9 18.4 62.9C18.7 62.8 19 62.7 19.2 62.5C19.3 62.5 19.4 62.4 19.4 62.4C19.4 62.4 19.5 62.4 19.5 62.3C19.8 62.1 20.1 62 20.4 61.8C20.5 61.7 20.6 61.7 20.7 61.6C21.1 61.4 21.4 61.1 21.7 60.8C21.7 60.8 21.7 60.8 21.8 60.7C22.1 60.4 22.5 60.1 22.8 59.8L22.9 59.7C24.4 58.2 25.5 56.4 26.1 54.3C26.4 53.4 26.6 52.5 26.7 51.6C26.7 51.1 26.8 50.7 26.8 50.2V40V38.5V37V34V27.9V26.4V22.1V20V17.9V13.7V1.5C27 0.7 26.3 0 25.5 0ZM6 12H21V15H6V12ZM15.5 45.4H15.6C15.9 45.5 16.2 45.7 16.5 45.9H16.6C16.9 46.1 17.2 46.3 17.4 46.6C17.7 46.9 17.9 47.1 18.1 47.4C18.3 47.7 18.5 48 18.6 48.3C18.7 48.6 18.8 49 18.9 49.3C19 49.6 19 49.9 19 50.2C19 50.3 19 50.5 19 50.6C19 50.7 19 50.8 19 51C19 51.2 19 51.3 18.9 51.5C18.9 51.6 18.9 51.7 18.8 51.8C18.7 52 18.7 52.2 18.6 52.4C18.5 52.7 18.3 53 18.2 53.2C18.2 53.3 18.1 53.3 18.1 53.4C17.9 53.7 17.7 53.9 17.5 54.2C17.3 54.5 17 54.7 16.7 54.8C16.6 54.8 16.6 54.9 16.5 54.9C16.2 55.1 16 55.2 15.7 55.3C15 55.6 14.3 55.7 13.6 55.7C13.2 55.7 12.9 55.7 12.6 55.6C12.3 55.5 11.9 55.4 11.6 55.3C11.3 55.2 11 55 10.7 54.8C10.4 54.6 10.1 54.4 9.9 54.1C9.6 53.8 9.4 53.6 9.2 53.3V53.2C9 52.9 8.9 52.6 8.7 52.3V52.2C8.6 51.9 8.5 51.6 8.4 51.3V51.2C8 51.2 8 50.9 8 50.5V50.4C8 50.1 8 49.8 8.1 49.5V49.4C8.2 49.1 8.3 48.8 8.4 48.5V48.4C8.5 48.1 8.7 47.8 8.8 47.6C8.8 47.6 8.8 47.5 8.9 47.5C9.1 47.2 9.3 47 9.5 46.7C9.7 46.5 10 46.2 10.3 46.1C10.3 46.1 10.4 46.1 10.4 46C10.7 45.8 10.9 45.7 11.2 45.6H11.3C11.6 45.5 11.9 45.4 12.2 45.3H12.3C12.6 45.2 12.9 45.2 13.2 45.2C13.2 45.2 13.2 45.2 13.3 45.2C13.6 45.2 13.9 45.2 14.2 45.3H14.3C14.9 45.2 15.2 45.3 15.5 45.4ZM20.9 24L21 26V27H20H17.9H13.7H6V24H16.7H20.9Z" fill="#74060E"/>
</svg>
