<svg width="64" height="64" viewBox="0 0 64 64" fill="none" xmlns="http://www.w3.org/2000/svg">
<g clip-path="url(#clip0)">
<path d="M58.0023 3L45.002 3V5H58.0023C60.2023 5 62.0023 6.8 62.0023 9L62.0025 52.7002C62.0025 54.9002 60.202 57.0002 58.002 57.0002H48.902L50.702 55.2002L49.302 53.8002L45.002 58.1002L49.202 62.3002L50.602 60.9002L48.802 59.0002H58.002C61.302 59.0002 64.0025 56.0002 64.0025 52.7002L64.0023 9C64.0023 5.7 61.3023 3 58.0023 3Z" fill="#B7B6B5"/>
<path d="M6.00155 5H19.002V7H6.00155C3.80155 7 2.00155 8.8 2.00155 11L2.00058 52.9C2.00058 55.1 3.80058 56.9 6.00058 56.9H15.002L13.202 55.1L14.602 53.7L18.902 58L14.702 62.2L13.302 60.8L15.102 58.9H6.00058C2.70058 58.9 0.000583649 56.2 0.000583649 52.9L0.00155258 11C0.00155258 7.7 2.70155 5 6.00155 5Z" fill="#B7B6B5"/>
<path d="M52.2024 7H45.0022V9H52.2024C54.4024 9 56.2024 10.8 56.2024 13L56.2027 26.4996C56.2027 28.6996 55.8022 30.4996 53.6022 30.4996H48.902L50.702 28.6996L49.302 27.2996L45.002 31.5996L49.202 35.7996L50.602 34.3996L48.802 32.5996H53.6022C56.9022 32.5996 58.2027 29.8996 58.2027 26.5996L58.2024 13.1C58.2024 9.7 55.5024 7 52.2024 7Z" fill="#B7B6B5"/>
<path d="M33.002 14H31.002V24H33.002V14Z" fill="#B7B6B5"/>
<path d="M33.002 40H31.002V50H33.002V40Z" fill="#B7B6B5"/>
<path d="M23.0026 12C21.8981 12 21.0034 11.1052 21.0031 10.0006C21.0025 7.46579 21.0013 4.5316 21.0024 1.99704C21.0029 0.893395 21.8979 0 23.0016 0H41.002C42.1065 0 43.002 0.894839 43.002 1.99941C43.002 4.53342 43.002 7.46658 43.002 10.0006C43.002 11.1052 42.1073 12 41.0027 12C35.4236 12 28.5818 12 23.0026 12Z" fill="#741112"/>
<path d="M23.0026 38C21.8981 38 21.0034 37.1052 21.0031 36.0006C21.0025 33.4658 21.0013 30.5316 21.0024 27.997C21.0029 26.8934 21.8979 26 23.0016 26H41.0029C42.1075 26 43.0029 26.8948 43.0029 27.9994C43.0029 30.5334 43.0029 33.4666 43.0029 36.0006C43.0029 37.1052 42.1083 38 41.0037 38C35.4242 38 28.5821 38 23.0026 38Z" fill="#741112"/>
<path d="M23.0026 64C21.8981 64 21.0034 63.1052 21.0031 62.0006C21.0025 59.4658 21.0013 56.5316 21.0024 53.997C21.0029 52.8934 21.8979 52 23.0016 52L41.002 52C42.1065 52 43.002 52.8948 43.002 53.9994C43.002 56.5334 43.002 59.4666 43.002 62.0006C43.002 63.1052 42.1073 64 41.0027 64C35.4234 64 28.582 64 23.0026 64Z" fill="#741112"/>
</g>
<defs>
<clipPath id="clip0">
<rect width="64" height="64" fill="white"/>
</clipPath>
</defs>
</svg>
