<svg width="65" height="64" viewBox="0 0 65 64" fill="none" xmlns="http://www.w3.org/2000/svg">
<g clip-path="url(#clip0)">
<path d="M63.1914 31.2538C63.0314 30.6671 62.8447 30.1071 62.6314 29.5204C62.4181 28.9338 62.2314 28.4004 61.9914 27.8404L61.8314 27.4404H61.6714L60.0447 28.0004L58.4447 28.6404L57.7247 28.9338C55.779 29.7705 53.8982 30.751 52.0981 31.8671C51.2714 32.4004 50.4181 32.9871 49.4314 33.6004L48.2581 34.4804C46.5118 35.8576 44.888 37.3833 43.4047 39.0404C42.7381 39.7604 42.0981 40.5338 41.4847 41.3338C39.5456 43.8543 37.9078 46.5929 36.6047 49.4938C36.1514 50.5071 35.6981 51.6004 35.2981 52.7204C34.8714 53.9471 34.4714 55.2271 34.0981 56.5604C34.0981 56.9604 33.8847 57.3338 33.8047 57.7071C33.7247 58.0804 33.5381 58.7738 33.4314 59.3338V59.6804L33.1914 60.9604H35.5114C35.5114 60.6404 35.8847 60.2138 36.0714 59.8138L36.3114 59.3338L36.6847 58.6404L37.1647 57.7071C38.4732 55.3927 40.0194 53.221 41.7781 51.2271C44.0244 48.7044 46.6409 46.5374 49.5381 44.8004L50.6581 44.1338L50.9247 44.0004L52.6847 43.1204L53.5647 42.7204L54.2847 42.4538C55.6336 41.9169 57.0139 41.4627 58.4181 41.0938L60.0181 40.7204C60.5514 40.7204 61.1114 40.5071 61.6447 40.4004C62.1781 40.2938 63.5114 40.1071 64.4714 40.0004C64.4457 37.0401 64.015 34.0973 63.1914 31.2538Z" fill="#74060E"/>
<path d="M36.2852 4V20.6133C38.7789 21.2545 41.0061 22.6673 42.6488 24.65C44.2915 26.6328 45.2656 29.0839 45.4318 31.6533L45.8585 31.3333C47.1572 30.2893 48.5198 29.3274 49.9385 28.4533C52.1511 27.0712 54.4799 25.8845 56.8985 24.9067L57.4852 24.6667C56.6762 19.3865 54.1696 14.5134 50.3446 10.7846C46.5196 7.05583 41.5842 4.67419 36.2852 4Z" fill="#FDB813"/>
<path d="M33.2203 44.7467H16.847L23.7803 40.32C22.4617 38.7298 21.566 36.8324 21.1763 34.8037C20.7866 32.775 20.9156 30.6807 21.5513 28.7152C22.187 26.7496 23.3088 24.9765 24.8126 23.5601C26.3164 22.1438 28.1536 21.1302 30.1536 20.6133V4C24.2505 4.78233 18.8327 7.68269 14.9083 12.1614C10.984 16.64 8.82042 22.3919 8.82031 28.3467V47.44C8.83378 48.6108 9.09824 49.7651 9.59586 50.825C10.0935 51.8849 10.8127 52.8258 11.7049 53.584C12.5971 54.3423 13.6416 54.9003 14.7679 55.2205C15.8941 55.5407 17.076 55.6155 18.2336 55.44L25.167 54.3733V61.0667H29.1936V60.3467L29.4336 59.12V58.8533C29.4212 58.7649 29.4212 58.6751 29.4336 58.5867C29.4336 58 29.6736 57.4133 29.8336 56.8533C29.8891 56.5476 29.9603 56.245 30.047 55.9467V55.6C30.2336 54.9067 30.447 54.2133 30.6603 53.5467L30.9003 52.7733C31.8129 49.9608 32.9823 47.2383 34.3936 44.64C34.0046 44.6953 33.613 44.7309 33.2203 44.7467Z" fill="#FDB813"/>
<path d="M2.47468 44.6942H6.63468V32.5342L0.821344 41.5208C0.622521 41.8259 0.508409 42.1784 0.490709 42.5421C0.473008 42.9059 0.552355 43.2677 0.720615 43.5907C0.888875 43.9136 1.13999 44.186 1.44823 44.3799C1.75646 44.5739 2.11072 44.6823 2.47468 44.6942Z" fill="#FDB813"/>
<path d="M36.2888 24.8804C35.3124 24.4943 34.2721 24.2952 33.2221 24.2937C31.7891 24.2744 30.3773 24.6404 29.1342 25.3535C27.8911 26.0665 26.8623 27.1004 26.1554 28.347C25.4103 29.6156 25.0232 31.0625 25.0354 32.5337C25.0333 33.7768 25.3133 35.0042 25.8545 36.1233C26.3956 37.2424 27.1837 38.2242 28.1594 38.9944C29.1351 39.7647 30.2729 40.3035 31.4871 40.5701C32.7013 40.8367 33.9601 40.8243 35.1688 40.5337C36.2186 40.2697 37.2051 39.7987 38.0706 39.1485C38.936 38.4983 39.6629 37.6818 40.2088 36.747C40.9853 35.4782 41.4003 34.0213 41.4088 32.5337C41.425 30.8909 40.9449 29.2814 40.0314 27.9158C39.1179 26.5503 37.8135 25.4923 36.2888 24.8804Z" fill="#FDB813"/>
</g>
<defs>
<clipPath id="clip0">
<rect width="64" height="57.0667" fill="white" transform="translate(0.5 4)"/>
</clipPath>
</defs>
</svg>
