<svg width="164" height="44" viewBox="0 0 164 44" fill="none" xmlns="http://www.w3.org/2000/svg">
<path d="M122.349 6.42383C121.697 6.42383 121.096 6.62694 120.57 7.03318C120.12 7.38863 119.794 7.87103 119.544 8.48038H119.518V6.60155H116.889V17.4429H119.518V11.908C119.518 10.9685 119.744 10.1815 120.17 9.59752C120.595 9.01356 121.172 8.73427 121.873 8.73427C122.098 8.73427 122.374 8.75966 122.674 8.83583C122.95 8.912 123.175 8.98817 123.3 9.08973L123.401 9.16589V6.60155L123.35 6.57617C123.125 6.47461 122.774 6.42383 122.349 6.42383Z" fill="#5C5B5B"/>
<path d="M123.926 8.70875H125.604V14.269C125.604 16.5541 126.731 17.722 128.935 17.722C129.311 17.722 129.686 17.6712 130.062 17.5951C130.463 17.5189 130.738 17.4427 130.888 17.3412L130.914 17.3158V15.2085L130.813 15.2846C130.663 15.3862 130.488 15.4624 130.287 15.5131C130.062 15.5639 129.887 15.5893 129.761 15.5893C129.235 15.5893 128.86 15.4624 128.634 15.1831C128.384 14.9038 128.284 14.4468 128.284 13.7866V8.70875H130.964V6.62681H128.284V3.40234L128.184 3.42773L125.679 4.16403L125.629 4.18942V6.62681H123.951L123.926 8.70875Z" fill="#5C5B5B"/>
<path d="M162.372 6.42383C161.721 6.42383 161.12 6.62694 160.594 7.03318C160.143 7.38863 159.817 7.87103 159.567 8.48038H159.542V6.60155H156.912V17.4429H159.542V11.908C159.542 10.9685 159.767 10.1815 160.193 9.59752C160.619 9.01356 161.195 8.73427 161.896 8.73427C162.122 8.73427 162.397 8.75966 162.698 8.83583C162.973 8.912 163.199 8.98817 163.324 9.08973L163.424 9.16589V6.60155L163.374 6.57617C163.149 6.47461 162.798 6.42383 162.372 6.42383Z" fill="#5C5B5B"/>
<path d="M9.8923 11.8062L9.16597 13.7866H9.11588C8.99065 13.3296 8.76523 12.6695 8.41459 11.8316L4.4824 2.31055H0.650391V17.4427H3.18002V8.15013C3.18002 7.56617 3.15497 6.88066 3.15497 6.09358C3.12993 5.68735 3.10488 5.38268 3.07983 5.12878H3.12993C3.25516 5.68735 3.38038 6.14436 3.48057 6.42365L8.18918 17.4427H9.96743L14.651 6.32209C14.7512 6.06819 14.8764 5.5604 14.9766 5.12878H15.0267C14.9766 6.22053 14.9015 7.23611 14.9015 7.84546V17.4427H17.6064V2.31055H13.9247L9.8923 11.8062Z" fill="#5C5B5B"/>
<path d="M20.1367 17.4424H22.7916V6.60107H20.1367V17.4424Z" fill="#5C5B5B"/>
<path d="M21.4877 2.00586C21.0619 2.00586 20.6862 2.1582 20.3606 2.43748C20.0601 2.71677 19.8848 3.07222 19.8848 3.50384C19.8848 3.91007 20.035 4.26553 20.3606 4.54481C20.6612 4.82409 21.0619 4.95104 21.4877 4.95104C21.9385 4.95104 22.3142 4.7987 22.6148 4.54481C22.9153 4.26553 23.0906 3.91007 23.0906 3.50384C23.0906 3.09761 22.9404 2.74215 22.6398 2.46287C22.3393 2.1582 21.9385 2.00586 21.4877 2.00586Z" fill="#5C5B5B"/>
<path d="M32.1325 6.49999C31.6316 6.39844 31.1307 6.34766 30.6548 6.34766C29.4526 6.34766 28.3506 6.60155 27.449 7.08395C26.5223 7.59174 25.821 8.27726 25.3201 9.19128C24.8442 10.0799 24.5938 11.1463 24.5938 12.3142C24.5938 13.3298 24.8442 14.2692 25.295 15.107C25.7709 15.9449 26.4221 16.5796 27.2737 17.0366C28.1252 17.4936 29.077 17.7222 30.1539 17.7222C31.4062 17.7222 32.4832 17.4683 33.3347 17.0112L33.3598 16.9859V14.65L33.2596 14.7262C32.8589 15.0055 32.4331 15.2086 31.9572 15.3863C31.4814 15.5387 31.0556 15.6148 30.6799 15.6148C29.653 15.6148 28.8015 15.3102 28.2004 14.6754C27.5993 14.0661 27.2987 13.2028 27.2987 12.1111C27.2987 11.0193 27.6243 10.1307 28.2504 9.47056C28.8766 8.81044 29.7031 8.48037 30.73 8.48037C31.6066 8.48037 32.4331 8.75966 33.2346 9.31823L33.3347 9.3944V6.93161L33.3097 6.90623C33.0592 6.7285 32.6585 6.60155 32.1325 6.49999Z" fill="#5C5B5B"/>
<path d="M40.8487 6.42383C40.1975 6.42383 39.5964 6.62694 39.0704 7.03318C38.6196 7.38863 38.294 7.87103 38.0435 8.48038H38.0185V6.60155H35.3887V17.4429H38.0185V11.908C38.0185 10.9685 38.2439 10.1815 38.6697 9.59752C39.0954 9.01356 39.6715 8.73427 40.3728 8.73427C40.5982 8.73427 40.8737 8.75966 41.1742 8.83583C41.4498 8.912 41.6752 8.98817 41.8004 9.08973L41.9006 9.16589V6.60155L41.8505 6.57617C41.6251 6.47461 41.2744 6.42383 40.8487 6.42383Z" fill="#5C5B5B"/>
<path d="M50.1155 14.7008C49.6146 15.3102 48.8632 15.6148 47.8865 15.6148C46.9097 15.6148 46.1583 15.3102 45.6073 14.7008C45.0563 14.0915 44.7808 13.2028 44.7808 12.0857C44.7808 10.9432 45.0563 10.0291 45.6073 9.41979C46.1583 8.78505 46.9097 8.48037 47.8614 8.48037C48.7881 8.48037 49.5144 8.78505 50.0654 9.36901C50.5914 9.97836 50.8669 10.867 50.8669 12.0095C50.8669 13.1774 50.6165 14.0915 50.1155 14.7008ZM48.0117 6.34766C46.1583 6.34766 44.6806 6.88084 43.6287 7.89642C42.5767 8.93739 42.0508 10.3592 42.0508 12.1365C42.0508 13.8376 42.5767 15.2086 43.5786 16.1988C44.6055 17.189 45.983 17.6968 47.7111 17.6968C49.5144 17.6968 50.942 17.1636 51.994 16.1226C53.0459 15.0816 53.5719 13.6598 53.5719 11.908C53.5719 10.1815 53.0709 8.81044 52.0942 7.82025C51.1424 6.85545 49.7649 6.34766 48.0117 6.34766Z" fill="#5C5B5B"/>
<path d="M59.4577 11.0955C58.6312 10.7654 58.0802 10.5115 57.8798 10.3084C57.6544 10.1053 57.5542 9.82602 57.5542 9.47057C57.5542 9.16589 57.6794 8.912 57.9549 8.70888C58.2305 8.50576 58.6061 8.40421 59.082 8.40421C59.5328 8.40421 59.9837 8.48038 60.4345 8.60732C60.8853 8.73427 61.286 8.912 61.6116 9.1405L61.7118 9.21667V6.85545L61.6617 6.83006C61.3612 6.70311 60.9604 6.60155 60.4595 6.49999C59.9586 6.42383 59.5328 6.37305 59.1321 6.37305C57.8798 6.37305 56.8279 6.67772 56.0264 7.28707C55.225 7.89642 54.8242 8.70888 54.8242 9.69907C54.8242 10.2069 54.8994 10.6639 55.0747 11.0447C55.25 11.4256 55.5255 11.781 55.8761 12.0603C56.2268 12.3396 56.7778 12.6443 57.5041 12.9489C58.1052 13.2028 58.5561 13.4059 58.8566 13.5583C59.1321 13.7106 59.3325 13.863 59.4577 14.0407C59.5579 14.193 59.633 14.3961 59.633 14.65C59.633 15.3863 59.057 15.7418 57.9049 15.7418C57.4791 15.7418 56.9782 15.6656 56.4522 15.4879C55.9262 15.3102 55.4003 15.0816 54.9494 14.7516L54.8493 14.6754V17.1636L54.8994 17.189C55.275 17.3667 55.7509 17.4937 56.327 17.6206C56.878 17.7222 57.4039 17.7983 57.8297 17.7983C59.2072 17.7983 60.3093 17.4937 61.1107 16.8589C61.9122 16.2496 62.338 15.4117 62.338 14.3961C62.338 13.6598 62.1126 13.0505 61.6868 12.5427C61.261 11.9587 60.5096 11.5017 59.4577 11.0955Z" fill="#5C5B5B"/>
<path d="M71.555 14.7008C71.0541 15.3102 70.3027 15.6148 69.3259 15.6148C68.3491 15.6148 67.5978 15.3102 67.0467 14.7008C66.4957 14.0915 66.2202 13.2028 66.2202 12.0857C66.2202 10.9432 66.4957 10.0291 67.0467 9.41979C67.5978 8.78505 68.3491 8.48037 69.3009 8.48037C70.2276 8.48037 70.9789 8.78505 71.5049 9.36901C72.0309 9.97836 72.3064 10.867 72.3064 12.0095C72.3064 13.1774 72.0559 14.0915 71.555 14.7008ZM69.4511 6.34766C67.5977 6.34766 66.12 6.88084 65.0681 7.89642C64.0162 8.93739 63.4902 10.3592 63.4902 12.1365C63.4902 13.8376 64.0162 15.2086 65.0431 16.1988C66.07 17.189 67.4475 17.6968 69.1756 17.6968C70.9789 17.6968 72.4065 17.1636 73.4585 16.1226C74.5104 15.0816 75.0364 13.6598 75.0364 11.908C75.0364 10.1815 74.5354 8.81044 73.5587 7.82025C72.5819 6.85545 71.2043 6.34766 69.4511 6.34766Z" fill="#5C5B5B"/>
<path d="M89.1381 8.68326V6.60132H86.4582V3.37686L86.358 3.40225L83.8535 4.13854L83.8034 4.16393V6.60132H79.8461V5.23029C79.8461 4.59555 79.9964 4.11315 80.297 3.78309C80.5975 3.45303 80.9982 3.30069 81.5242 3.30069C81.8999 3.30069 82.3006 3.37686 82.6763 3.55458L82.7765 3.60536V1.42186L82.7264 1.39648C82.3507 1.26953 81.8498 1.19336 81.2487 1.19336C80.4723 1.19336 79.771 1.3457 79.1449 1.67576C78.5187 2.00582 78.0428 2.46283 77.6922 3.04679C77.3416 3.63075 77.1913 4.31627 77.1913 5.07795V6.57593H75.3379V8.65787H77.1913V17.4173H79.8712V8.65787H83.8034V14.2182C83.8034 16.5032 84.9304 17.6711 87.1345 17.6711C87.4851 17.6711 87.8858 17.6204 88.2615 17.5442C88.6622 17.468 88.9378 17.3665 89.088 17.2903L89.1131 17.2649V15.1576L89.0129 15.2338C88.8626 15.3353 88.6873 15.4115 88.4869 15.4623C88.2866 15.513 88.0862 15.5384 87.961 15.5384C87.435 15.5384 87.0593 15.4115 86.8339 15.1322C86.5835 14.8529 86.4833 14.3959 86.4833 13.7358V8.60709H89.1381" fill="#5C5B5B"/>
<path d="M102.863 7.10916C102.863 6.27131 102.587 5.61118 102.011 5.15417C101.435 4.69716 100.633 4.46866 99.5565 4.46866H97.7532V9.90201H99.4313C100.508 9.90201 101.36 9.6735 101.961 9.1911C102.562 8.7087 102.863 8.02318 102.863 7.10916ZM105.593 7.03299C105.593 7.99779 105.342 8.83565 104.841 9.59733C104.34 10.359 103.639 10.943 102.737 11.3746C101.836 11.8062 100.784 12.0093 99.6066 12.0093H97.7532V17.4427H95.1484V2.33594H99.9823C101.786 2.33594 103.163 2.74217 104.14 3.55463C105.092 4.34171 105.593 5.50962 105.593 7.03299Z" fill="#5C5B5B"/>
<path d="M107.972 14.2438C107.972 14.7008 108.147 15.0816 108.498 15.3609C108.848 15.6402 109.299 15.7672 109.825 15.7672C110.576 15.7672 111.203 15.5133 111.679 15.0309C112.154 14.5231 112.405 13.9137 112.405 13.152V12.1872L110 12.4919C109.224 12.5935 108.698 12.7712 108.423 13.0505C108.122 13.3044 107.972 13.7106 107.972 14.2438ZM112.405 17.4429V15.9449H112.355C111.578 17.1128 110.476 17.6968 109.049 17.6968C107.947 17.6968 107.095 17.4175 106.444 16.8335C105.818 16.2496 105.492 15.4879 105.492 14.4977C105.492 13.4821 105.793 12.6696 106.419 12.0603C107.045 11.4509 107.947 11.0701 109.149 10.9178L112.405 10.4861C112.405 9.01355 111.704 8.27726 110.276 8.27726C109.6 8.27726 108.923 8.37882 108.272 8.60732C107.621 8.83583 107.045 9.11511 106.544 9.47056V7.31246C106.945 7.05856 107.546 6.85545 108.347 6.65233C109.149 6.44921 109.875 6.34766 110.501 6.34766C111.929 6.34766 113.006 6.70311 113.732 7.4394C114.459 8.15031 114.809 9.21667 114.809 10.5877V17.4175L112.405 17.4429Z" fill="#5C5B5B"/>
<path d="M140.355 17.4424V11.3743C140.355 10.3587 140.18 9.59703 139.829 9.11463C139.478 8.60684 138.902 8.37833 138.126 8.37833C137.349 8.37833 136.723 8.65761 136.222 9.21618C135.722 9.77475 135.471 10.4603 135.471 11.2981V17.4424H132.941V6.65184H135.471V8.37833H135.521C136.348 7.05808 137.575 6.39795 139.153 6.39795C140.33 6.39795 141.257 6.7534 141.908 7.4897C142.559 8.22599 142.885 9.34313 142.885 10.8157V17.4424H140.355Z" fill="#5C5B5B"/>
<path d="M152.328 10.9432C152.328 10.0799 152.127 9.44518 151.702 8.98817C151.276 8.53116 150.7 8.30265 149.948 8.30265C149.272 8.30265 148.671 8.55655 148.17 9.03895C147.669 9.52135 147.344 10.1561 147.218 10.9432H152.328ZM147.218 12.7712C147.268 13.7614 147.569 14.4977 148.145 15.0055C148.721 15.5133 149.523 15.7672 150.575 15.7672C151.201 15.7672 151.827 15.6656 152.403 15.4879C152.979 15.2848 153.505 15.0563 153.931 14.7516V16.8081C153.505 17.0874 152.929 17.2905 152.228 17.4683C151.526 17.646 150.75 17.7222 149.973 17.7222C148.27 17.7222 146.968 17.2398 146.041 16.2496C145.115 15.2594 144.639 13.9137 144.639 12.1619C144.639 11.0193 144.864 10.0037 145.34 9.1405C145.791 8.27726 146.442 7.59175 147.268 7.13473C148.095 6.65233 148.997 6.42383 149.973 6.42383C151.526 6.42383 152.728 6.88084 153.58 7.79486C154.432 8.70888 154.857 9.97836 154.857 11.5779V12.7966L147.218 12.7712Z" fill="#5C5B5B"/>
<path d="M5.33453 42.0451C4.68334 42.426 3.98206 42.6037 3.18059 42.6037C2.57949 42.6037 2.05353 42.4768 1.57766 42.1975C1.10179 41.9182 0.751145 41.5373 0.500687 41.0296C0.250229 40.5218 0.125 39.9632 0.125 39.3285C0.125 38.3383 0.42555 37.5004 1.0517 36.8657C1.67784 36.2056 2.47931 35.9009 3.43105 35.9009C4.13233 35.9009 4.70838 36.0278 5.18425 36.2563V37.0942C4.65829 36.7641 4.05719 36.5864 3.33086 36.5864C2.85499 36.5864 2.45426 36.688 2.07857 36.9165C1.70289 37.145 1.40234 37.475 1.20197 37.8813C1.0016 38.2875 0.876374 38.7699 0.876374 39.2777C0.876374 40.0901 1.07674 40.7503 1.50252 41.2073C1.9283 41.6897 2.50435 41.9182 3.23068 41.9182C3.7316 41.9182 4.15738 41.8166 4.53306 41.6135V39.7855H3.1305V39.1H5.28444V42.0451H5.33453Z" fill="#C29809"/>
<path d="M10.895 40.141C10.895 40.8773 10.6946 41.4613 10.2688 41.9183C9.86809 42.3753 9.29203 42.6038 8.6158 42.6038C7.93956 42.6038 7.38855 42.3753 6.98782 41.9437C6.58709 41.512 6.38672 40.9281 6.38672 40.2172C6.38672 39.4555 6.58709 38.8461 7.01286 38.3891C7.43864 37.9321 7.98965 37.729 8.71598 37.729C9.39222 37.729 9.91818 37.9321 10.3189 38.3637C10.6946 38.8208 10.895 39.4047 10.895 40.141ZM10.1436 40.1918C10.1436 39.6078 10.0184 39.1508 9.7679 38.8461C9.51744 38.5415 9.14176 38.3891 8.66589 38.3891C8.19002 38.3891 7.81433 38.5415 7.53883 38.8715C7.26332 39.2016 7.13809 39.6332 7.13809 40.2172C7.13809 40.7757 7.28837 41.2074 7.56387 41.512C7.83938 41.8167 8.21506 41.9691 8.69093 41.9691C9.1668 41.9691 9.54249 41.8167 9.79295 41.512C10.0184 41.2074 10.1436 40.7504 10.1436 40.1918Z" fill="#C29809"/>
<path d="M12.7478 42.5021H12.0215V35.6216H12.7478V42.5021Z" fill="#C29809"/>
<path d="M18.1077 42.5021H17.3814V41.7151H17.3564C17.0057 42.3244 16.4798 42.6291 15.7785 42.6291C15.2024 42.6291 14.7516 42.426 14.401 41.9943C14.0503 41.5627 13.875 41.0042 13.875 40.3186C13.875 39.557 14.0754 38.9476 14.4511 38.4652C14.8267 38.0082 15.3277 37.7797 15.9788 37.7797C16.605 37.7797 17.0558 38.0336 17.3564 38.5414H17.3814V35.6724H18.1077V42.5021ZM17.3814 40.3948V39.7093C17.3814 39.3284 17.2562 38.9984 17.0057 38.7445C16.7553 38.4906 16.4547 38.3637 16.079 38.3637C15.6282 38.3637 15.2776 38.5414 15.0271 38.8714C14.7766 39.2015 14.6264 39.6585 14.6264 40.2425C14.6264 40.7757 14.7516 41.2073 15.0021 41.5119C15.2525 41.8166 15.5781 41.969 15.9788 41.969C16.3796 41.969 16.7052 41.8166 16.9807 41.5373C17.2562 41.2581 17.3814 40.8518 17.3814 40.3948Z" fill="#C29809"/>
<path d="M5.33453 30.9753C4.68334 31.3562 3.98206 31.5339 3.18059 31.5339C2.57949 31.5339 2.05353 31.4069 1.57766 31.1277C1.12683 30.8484 0.751145 30.4675 0.500687 29.9597C0.250229 29.4519 0.125 28.8934 0.125 28.2586C0.125 27.2684 0.42555 26.4306 1.0517 25.7959C1.67784 25.1357 2.47931 24.8311 3.43105 24.8311C4.13233 24.8311 4.70838 24.958 5.18426 25.1865V26.0244C4.65829 25.6943 4.05719 25.5166 3.33086 25.5166C2.85499 25.5166 2.45426 25.6181 2.07857 25.8466C1.70289 26.0751 1.40234 26.4052 1.20197 26.8114C1.0016 27.2177 0.876375 27.7001 0.876375 28.2079C0.876375 29.0203 1.07674 29.6804 1.50252 30.1375C1.9283 30.6199 2.50435 30.8484 3.23068 30.8484C3.7316 30.8484 4.15738 30.7468 4.53306 30.5437V28.7156H3.1305V28.0301H5.28444V30.9753H5.33453Z" fill="#C29809"/>
<path d="M10.895 29.0966C10.895 29.8329 10.6946 30.4168 10.2688 30.8738C9.86809 31.3309 9.29203 31.5594 8.6158 31.5594C7.93956 31.5594 7.38855 31.3308 6.98782 30.8992C6.58709 30.4676 6.38672 29.8836 6.38672 29.1727C6.38672 28.4111 6.58709 27.8017 7.01286 27.3447C7.43864 26.8877 7.98965 26.6846 8.71598 26.6846C9.39222 26.6846 9.91818 26.8877 10.3189 27.3193C10.6946 27.7509 10.895 28.3349 10.895 29.0966ZM10.1436 29.122C10.1436 28.538 10.0184 28.081 9.7679 27.7763C9.51745 27.4716 9.14176 27.3193 8.66589 27.3193C8.19002 27.3193 7.81433 27.4716 7.53883 27.8017C7.26332 28.1318 7.13809 28.5634 7.13809 29.1474C7.13809 29.7059 7.28837 30.1375 7.56387 30.4422C7.83938 30.7469 8.21506 30.8992 8.69093 30.8992C9.1668 30.8992 9.54249 30.7469 9.79295 30.4422C10.0184 30.1375 10.1436 29.6805 10.1436 29.122Z" fill="#C29809"/>
<path d="M12.7478 31.4323H12.0215V24.5518H12.7478V31.4323Z" fill="#C29809"/>
<path d="M18.1077 31.4323H17.3814V30.6452H17.3564C17.0057 31.2546 16.4798 31.5593 15.7785 31.5593C15.2024 31.5593 14.7516 31.3561 14.401 30.9245C14.0503 30.4929 13.875 29.9343 13.875 29.2488C13.875 28.4871 14.0754 27.8778 14.4511 27.3954C14.8267 26.9384 15.3277 26.7099 15.9788 26.7099C16.605 26.7099 17.0558 26.9638 17.3564 27.4716H17.3814V24.5518H18.1077V31.4323ZM17.3814 29.325V28.6395C17.3814 28.2586 17.2562 27.9286 17.0057 27.6747C16.7553 27.4208 16.4547 27.2938 16.079 27.2938C15.6282 27.2938 15.2776 27.4716 15.0271 27.8016C14.7766 28.1317 14.6264 28.5887 14.6264 29.1726C14.6264 29.7058 14.7516 30.1375 15.0021 30.4421C15.2525 30.7468 15.5781 30.8991 15.9788 30.8991C16.3796 30.8991 16.7052 30.7468 16.9807 30.4675C17.2562 30.1882 17.3814 29.782 17.3814 29.325Z" fill="#C29809"/>
<path d="M31.5327 31.4328H30.7062L30.03 29.6048H27.3L26.6488 31.4328H25.8223L28.2768 24.9331H29.0532L31.5327 31.4328ZM29.7795 28.9193L28.7777 26.1518C28.7526 26.0756 28.7276 25.9487 28.6775 25.7202H28.6524C28.6274 25.8979 28.6024 26.0502 28.5523 26.1518L27.5504 28.9193H29.7795Z" fill="#5C5B5B"/>
<path d="M36.5921 28.9696C36.5921 29.7567 36.3918 30.3914 36.0161 30.8484C35.6404 31.3055 35.1395 31.534 34.4883 31.534C33.8872 31.534 33.4363 31.2801 33.1108 30.7469H33.0857V33.5397H32.3594V26.7607H33.0857V27.5732H33.1108C33.4614 26.9639 33.9874 26.6338 34.6886 26.6338C35.2647 26.6338 35.7155 26.8369 36.0662 27.2431C36.4168 27.7001 36.5921 28.2587 36.5921 28.9696ZM35.8407 28.9442C35.8407 28.4364 35.7155 28.0302 35.4901 27.7509C35.2647 27.4463 34.9391 27.2939 34.5384 27.2939C34.1126 27.2939 33.787 27.4463 33.5115 27.7255C33.261 28.0302 33.1108 28.4111 33.1108 28.8681V29.5282C33.1108 29.909 33.236 30.2391 33.4864 30.5184C33.7369 30.7723 34.0374 30.9246 34.4131 30.9246C34.864 30.9246 35.1896 30.7469 35.44 30.4168C35.7155 30.036 35.8407 29.5536 35.8407 28.9442Z" fill="#5C5B5B"/>
<path d="M41.9515 28.9696C41.9515 29.7567 41.7511 30.3914 41.3754 30.8484C40.9997 31.3055 40.4988 31.534 39.8476 31.534C39.2465 31.534 38.7957 31.2801 38.4701 30.7469H38.4451V33.5397H37.7188V26.7607H38.4451V27.5732H38.4701C38.8208 26.9639 39.3467 26.6338 40.048 26.6338C40.6241 26.6338 41.0749 26.8369 41.4255 27.2431C41.7762 27.7001 41.9515 28.2587 41.9515 28.9696ZM41.2001 28.9442C41.2001 28.4364 41.0749 28.0302 40.8495 27.7509C40.6241 27.4463 40.2985 27.2939 39.8977 27.2939C39.472 27.2939 39.1464 27.4463 38.8709 27.7255C38.6204 28.0302 38.4701 28.4111 38.4701 28.8681V29.5282C38.4701 29.909 38.5954 30.2391 38.8458 30.5184C39.0963 30.7723 39.3968 30.9246 39.7725 30.9246C40.2233 30.9246 40.5489 30.7469 40.7994 30.4168C41.0749 30.036 41.2001 29.5536 41.2001 28.9442Z" fill="#5C5B5B"/>
<path d="M43.8045 31.4323H43.0781V24.5518H43.8045V31.4323Z" fill="#5C5B5B"/>
<path d="M46.16 25.1103C46.16 25.2373 46.1099 25.3642 46.0098 25.4658C45.9096 25.5673 45.8094 25.5927 45.6591 25.5927C45.5339 25.5927 45.4087 25.542 45.3085 25.4658C45.2083 25.3642 45.1582 25.2627 45.1582 25.1103C45.1582 24.9834 45.2083 24.8564 45.2834 24.7803C45.3836 24.6787 45.4838 24.6279 45.6341 24.6279C45.7593 24.6279 45.8845 24.6787 45.9847 24.7803C46.1099 24.8818 46.16 24.9834 46.16 25.1103ZM46.0348 31.4323H45.3085V26.786H46.0348V31.4323Z" fill="#5C5B5B"/>
<path d="M50.5934 31.2039C50.2428 31.4324 49.817 31.534 49.3411 31.534C48.9153 31.534 48.5396 31.4324 48.214 31.2293C47.8884 31.0262 47.6129 30.7469 47.4376 30.3914C47.2623 30.036 47.1621 29.6297 47.1621 29.1981C47.1621 28.4364 47.3875 27.8271 47.8133 27.3447C48.2391 26.8877 48.8151 26.6592 49.5415 26.6592C49.9422 26.6592 50.2928 26.7353 50.5934 26.8877V27.6494C50.2428 27.3955 49.8921 27.2939 49.4914 27.2939C49.0155 27.2939 48.6398 27.4716 48.3393 27.8017C48.0387 28.1572 47.8884 28.5888 47.8884 29.122C47.8884 29.6551 48.0387 30.0868 48.3142 30.4168C48.5897 30.7215 48.9654 30.8992 49.4413 30.8992C49.842 30.8992 50.2177 30.7723 50.5683 30.493V31.2039H50.5934Z" fill="#5C5B5B"/>
<path d="M54.9503 31.4324H54.224V30.6961H54.199C53.8734 31.2547 53.4226 31.534 52.7964 31.534C52.3456 31.534 51.9949 31.407 51.7445 31.1785C51.494 30.95 51.3438 30.6199 51.3438 30.1883C51.3438 29.3251 51.8447 28.8173 52.8465 28.6649L54.224 28.4618C54.224 27.6748 53.8984 27.2939 53.2723 27.2939C52.7213 27.2939 52.2204 27.4716 51.7695 27.8525V27.0908C51.8948 26.9892 52.1452 26.8877 52.4458 26.7861C52.7714 26.6846 53.0719 26.6338 53.3224 26.6338C54.3993 26.6338 54.9253 27.2177 54.9253 28.3603V31.4324H54.9503ZM54.199 29.0712L53.097 29.2235C52.7213 29.2743 52.4458 29.3759 52.2955 29.5028C52.1452 29.6297 52.0701 29.8329 52.0701 30.1375C52.0701 30.366 52.1452 30.5692 52.3205 30.6961C52.4959 30.8484 52.6962 30.8992 52.9467 30.8992C53.3224 30.8992 53.5979 30.7723 53.8483 30.5184C54.0737 30.2645 54.199 29.9344 54.199 29.5536V29.0712Z" fill="#5C5B5B"/>
<path d="M58.4576 31.3816C58.2823 31.4831 58.0569 31.5339 57.7814 31.5339C56.9799 31.5339 56.5792 31.0769 56.5792 30.1629V27.4208H55.8027V26.7861H56.5792V25.6435L57.3055 25.415V26.7861H58.4576V27.4208H57.3055V30.0359C57.3055 30.3406 57.3556 30.5691 57.4558 30.6961C57.5559 30.823 57.7313 30.8992 57.9817 30.8992C58.157 30.8992 58.3324 30.8484 58.4576 30.7468V31.3816Z" fill="#5C5B5B"/>
<path d="M60.285 25.1103C60.285 25.2373 60.2349 25.3642 60.1348 25.4658C60.0346 25.5673 59.9344 25.5927 59.7841 25.5927C59.6589 25.5927 59.5337 25.542 59.4335 25.4658C59.3333 25.3642 59.2832 25.2627 59.2832 25.1103C59.2832 24.9834 59.3333 24.8564 59.4084 24.7803C59.5086 24.6787 59.6088 24.6279 59.7591 24.6279C59.8843 24.6279 60.0095 24.6787 60.1097 24.7803C60.2349 24.8818 60.285 24.9834 60.285 25.1103ZM60.1598 31.4323H59.4335V26.786H60.1598V31.4323Z" fill="#5C5B5B"/>
<path d="M65.7953 29.0966C65.7953 29.8329 65.595 30.4168 65.1692 30.8738C64.7685 31.3309 64.1924 31.5594 63.5162 31.5594C62.8399 31.5594 62.2889 31.3308 61.8882 30.8992C61.4875 30.4676 61.2871 29.8836 61.2871 29.1727C61.2871 28.4111 61.4875 27.8017 61.9133 27.3447C62.339 26.8877 62.89 26.6846 63.6164 26.6846C64.2926 26.6846 64.8186 26.8877 65.2193 27.3193C65.62 27.7509 65.7953 28.3349 65.7953 29.0966ZM65.044 29.122C65.044 28.538 64.9187 28.081 64.6683 27.7763C64.4178 27.4716 64.0421 27.3193 63.5663 27.3193C63.0904 27.3193 62.7147 27.4716 62.4392 27.8017C62.1637 28.1318 62.0385 28.5634 62.0385 29.1474C62.0385 29.7059 62.1888 30.1375 62.4643 30.4422C62.7398 30.7469 63.1154 30.8992 63.5913 30.8992C64.0672 30.8992 64.4429 30.7469 64.6933 30.4422C64.9187 30.1375 65.044 29.6805 65.044 29.122Z" fill="#5C5B5B"/>
<path d="M70.7292 31.4324H70.0028V28.7919C70.0028 27.8017 69.6522 27.3193 68.9509 27.3193C68.6003 27.3193 68.2997 27.4463 68.0493 27.7255C67.7988 28.0048 67.6736 28.3603 67.6736 28.7919V31.4324H66.9473V26.7861H67.6736V27.5478H67.6986C68.0493 26.9639 68.5502 26.6592 69.2014 26.6592C69.7023 26.6592 70.078 26.8369 70.3535 27.167C70.629 27.497 70.7542 27.9794 70.7542 28.5888V31.4324H70.7292Z" fill="#5C5B5B"/>
<path d="M79.4954 28.1068C79.4954 28.7669 79.3451 29.3509 79.0696 29.8587C78.7941 30.3665 78.3683 30.7473 77.8423 31.0266C77.3164 31.3059 76.7153 31.4328 76.0391 31.4328H74.3359V24.9331H76.1142C78.3683 24.9331 79.4954 25.9741 79.4954 28.1068ZM78.7189 28.1068C78.7189 26.4311 77.8423 25.6186 76.1142 25.6186H75.1124V30.7473H76.0641C76.9157 30.7473 77.5668 30.5188 78.0427 30.0618C78.4935 29.6048 78.7189 28.9446 78.7189 28.1068Z" fill="#5C5B5B"/>
<path d="M84.3042 29.2997H81.0733C81.0733 29.8329 81.2236 30.2137 81.474 30.493C81.7245 30.7723 82.1002 30.8992 82.551 30.8992C83.077 30.8992 83.5528 30.7215 83.9786 30.3914V31.0769C83.5779 31.3816 83.0519 31.534 82.3757 31.534C81.7245 31.534 81.2236 31.3308 80.8479 30.8992C80.4722 30.4676 80.2969 29.8836 80.2969 29.122C80.2969 28.6649 80.3971 28.2333 80.5724 27.8525C80.7477 27.4716 80.9982 27.1924 81.3238 26.9639C81.6493 26.7607 82 26.6592 82.4007 26.6592C83.0018 26.6592 83.4526 26.8623 83.7782 27.2431C84.1038 27.624 84.2792 28.1825 84.2792 28.8935V29.2997H84.3042ZM83.5528 28.6649C83.5528 28.2333 83.4526 27.9033 83.2523 27.6748C83.0519 27.4463 82.7764 27.3193 82.4258 27.3193C82.0751 27.3193 81.7996 27.4463 81.5492 27.7001C81.2987 27.954 81.1484 28.2841 81.0983 28.6903H83.5528V28.6649Z" fill="#5C5B5B"/>
<path d="M88.9879 26.7861L87.1596 31.4324H86.4332L84.7051 26.7861H85.5065L86.6587 30.1629C86.7087 30.3407 86.7839 30.5692 86.8089 30.8231H86.834C86.859 30.5946 86.9091 30.3914 86.9842 30.1883L88.2115 26.8115H88.9879V26.7861Z" fill="#5C5B5B"/>
<path d="M93.4214 29.2997H90.1905C90.1905 29.8329 90.3408 30.2137 90.5912 30.493C90.8417 30.7723 91.2174 30.8992 91.6682 30.8992C92.1941 30.8992 92.67 30.7215 93.0958 30.3914V31.0769C92.6951 31.3816 92.1691 31.534 91.4929 31.534C90.8417 31.534 90.3408 31.3308 89.9651 30.8992C89.5894 30.4676 89.4141 29.8836 89.4141 29.122C89.4141 28.6649 89.5142 28.2333 89.6896 27.8525C89.8649 27.4716 90.1153 27.1924 90.4409 26.9639C90.7665 26.7607 91.1172 26.6592 91.5179 26.6592C92.119 26.6592 92.5698 26.8623 92.8954 27.2431C93.221 27.624 93.3963 28.1825 93.3963 28.8935V29.2997H93.4214ZM92.67 28.6649C92.67 28.2333 92.5698 27.9033 92.3695 27.6748C92.1691 27.4463 91.8936 27.3193 91.5429 27.3193C91.1923 27.3193 90.9168 27.4463 90.6663 27.7001C90.4159 27.954 90.2656 28.2841 90.2155 28.6903H92.67V28.6649Z" fill="#5C5B5B"/>
<path d="M95.2244 31.4323H94.498V24.5518H95.2244V31.4323Z" fill="#5C5B5B"/>
<path d="M100.86 29.0966C100.86 29.8329 100.659 30.4168 100.234 30.8738C99.8329 31.3309 99.2569 31.5594 98.5806 31.5594C97.9044 31.5594 97.3534 31.3308 96.9527 30.8992C96.5519 30.4676 96.3516 29.8836 96.3516 29.1727C96.3516 28.4111 96.5519 27.8017 96.9777 27.3447C97.4035 26.8877 97.9545 26.6846 98.6808 26.6846C99.3571 26.6846 99.883 26.8877 100.284 27.3193C100.659 27.7509 100.86 28.3349 100.86 29.0966ZM100.108 29.122C100.108 28.538 99.9832 28.081 99.7327 27.7763C99.4823 27.4716 99.1066 27.3193 98.6307 27.3193C98.1549 27.3193 97.7792 27.4716 97.5037 27.8017C97.2282 28.1318 97.1029 28.5634 97.1029 29.1474C97.1029 29.7059 97.2532 30.1375 97.5287 30.4422C97.8042 30.7469 98.1799 30.8992 98.6558 30.8992C99.1316 30.8992 99.5073 30.7469 99.7578 30.4422C99.9832 30.1375 100.108 29.6805 100.108 29.122Z" fill="#5C5B5B"/>
<path d="M106.194 28.9696C106.194 29.7567 105.993 30.3914 105.618 30.8484C105.242 31.3055 104.741 31.534 104.09 31.534C103.489 31.534 103.038 31.2801 102.712 30.7469H102.687V33.5397H101.961V26.7607H102.687V27.5732H102.712C103.063 26.9639 103.589 26.6338 104.29 26.6338C104.866 26.6338 105.317 26.8369 105.668 27.2431C106.043 27.7001 106.194 28.2587 106.194 28.9696ZM105.442 28.9442C105.442 28.4364 105.317 28.0302 105.092 27.7509C104.866 27.4463 104.541 27.2939 104.14 27.2939C103.714 27.2939 103.389 27.4463 103.113 27.7255C102.863 28.0302 102.712 28.4111 102.712 28.8681V29.5282C102.712 29.909 102.838 30.2391 103.088 30.5184C103.338 30.7723 103.639 30.9246 104.015 30.9246C104.465 30.9246 104.791 30.7469 105.042 30.4168C105.317 30.036 105.442 29.5536 105.442 28.9442Z" fill="#5C5B5B"/>
<path d="M113.833 31.4324H113.107V28.7665C113.107 28.2587 113.031 27.8779 112.881 27.6494C112.731 27.4209 112.455 27.3193 112.105 27.3193C111.779 27.3193 111.529 27.4716 111.303 27.7509C111.078 28.0302 110.978 28.3857 110.978 28.7919V31.4324H110.251V28.6903C110.251 27.7763 109.901 27.3193 109.199 27.3193C108.874 27.3193 108.623 27.4463 108.398 27.7255C108.198 28.0048 108.097 28.3603 108.097 28.7919V31.4324H107.371V26.7861H108.097V27.5224H108.122C108.448 26.9639 108.924 26.6846 109.55 26.6846C109.851 26.6846 110.126 26.7607 110.352 26.9385C110.602 27.1162 110.752 27.3447 110.852 27.6494C111.203 27.0146 111.704 26.6846 112.38 26.6846C113.382 26.6846 113.883 27.3193 113.883 28.5888V31.4324H113.833Z" fill="#5C5B5B"/>
<path d="M118.867 29.2997H115.636C115.636 29.8329 115.786 30.2137 116.037 30.493C116.287 30.7723 116.663 30.8992 117.114 30.8992C117.639 30.8992 118.115 30.7215 118.541 30.3914V31.0769C118.14 31.3816 117.614 31.534 116.938 31.534C116.287 31.534 115.786 31.3308 115.41 30.8992C115.035 30.4676 114.859 29.8836 114.859 29.122C114.859 28.6649 114.96 28.2333 115.135 27.8525C115.31 27.4716 115.561 27.1924 115.886 26.9639C116.212 26.7607 116.562 26.6592 116.963 26.6592C117.564 26.6592 118.015 26.8623 118.341 27.2431C118.666 27.624 118.842 28.1825 118.842 28.8935V29.2997H118.867ZM118.115 28.6649C118.115 28.2333 118.015 27.9033 117.815 27.6748C117.614 27.4463 117.339 27.3193 116.988 27.3193C116.638 27.3193 116.362 27.4463 116.112 27.7001C115.861 27.954 115.711 28.2841 115.661 28.6903H118.115V28.6649Z" fill="#5C5B5B"/>
<path d="M123.725 31.4324H122.999V28.7919C122.999 27.8017 122.648 27.3193 121.947 27.3193C121.596 27.3193 121.296 27.4463 121.045 27.7255C120.795 28.0048 120.67 28.3603 120.67 28.7919V31.4324H119.943V26.7861H120.67V27.5478H120.695C121.045 26.9639 121.546 26.6592 122.197 26.6592C122.698 26.6592 123.074 26.8369 123.35 27.167C123.625 27.497 123.75 27.9794 123.75 28.5888V31.4324H123.725Z" fill="#5C5B5B"/>
<path d="M127.233 31.3816C127.058 31.4831 126.832 31.5339 126.557 31.5339C125.755 31.5339 125.355 31.0769 125.355 30.1629V27.4208H124.578V26.7861H125.355V25.6435L126.081 25.415V26.7861H127.233V27.4208H126.081V30.0359C126.081 30.3406 126.131 30.5691 126.231 30.6961C126.331 30.823 126.507 30.8992 126.757 30.8992C126.932 30.8992 127.108 30.8484 127.233 30.7468V31.3816Z" fill="#5C5B5B"/>
<path d="M30.9306 42.2224C30.4547 42.4763 29.8787 42.6032 29.1774 42.6032C28.5763 42.6032 28.0503 42.4763 27.5995 42.197C27.1487 41.9177 26.798 41.5368 26.5476 41.0544C26.2971 40.572 26.1719 39.9881 26.1719 39.3534C26.1719 38.6932 26.3221 38.0839 26.5977 37.5507C26.8732 37.0175 27.2739 36.6113 27.7748 36.3066C28.2757 36.0019 28.8267 35.875 29.4529 35.875C30.054 35.875 30.5549 35.9766 30.9556 36.1543V36.9667C30.5048 36.7129 29.9788 36.5859 29.4278 36.5859C28.952 36.5859 28.5262 36.6875 28.1505 36.916C27.7748 37.1445 27.4743 37.4745 27.2739 37.8808C27.0735 38.3124 26.9733 38.7694 26.9733 39.328C26.9733 39.8358 27.0735 40.2928 27.2739 40.699C27.4743 41.1052 27.7498 41.4099 28.1004 41.613C28.451 41.8161 28.8518 41.9431 29.3276 41.9431C29.9788 41.9431 30.5298 41.7907 30.9807 41.5115V42.2224H30.9306Z" fill="#5C5B5B"/>
<path d="M36.3149 40.141C36.3149 40.8773 36.1145 41.4613 35.6887 41.9183C35.288 42.3753 34.712 42.6038 34.0357 42.6038C33.3595 42.6038 32.8085 42.3753 32.4077 41.9437C32.007 41.512 31.8066 40.9281 31.8066 40.2172C31.8066 39.4555 32.007 38.8461 32.4328 38.3891C32.8586 37.9321 33.4096 37.729 34.1359 37.729C34.8121 37.729 35.3381 37.9321 35.7388 38.3637C36.1145 38.8208 36.3149 39.4047 36.3149 40.141ZM35.5635 40.1918C35.5635 39.6078 35.4383 39.1508 35.1878 38.8461C34.9374 38.5415 34.5617 38.3891 34.0858 38.3891C33.6099 38.3891 33.2343 38.5415 32.9588 38.8715C32.6832 39.2016 32.558 39.6332 32.558 40.2172C32.558 40.7757 32.7083 41.2074 32.9838 41.512C33.2593 41.8167 33.635 41.9691 34.1109 41.9691C34.5867 41.9691 34.9624 41.8167 35.2129 41.512C35.4383 41.2074 35.5635 40.7504 35.5635 40.1918Z" fill="#5C5B5B"/>
<path d="M38.1697 42.5021H37.4434V35.6216H38.1697V42.5021Z" fill="#5C5B5B"/>
<path d="M40.3982 42.5021H39.6719V35.6216H40.3982V42.5021Z" fill="#5C5B5B"/>
<path d="M45.1066 42.5022H44.3803V41.7659H44.3552C44.0296 42.3245 43.5788 42.6038 42.9527 42.6038C42.5018 42.6038 42.1512 42.4768 41.9007 42.2483C41.6252 41.9944 41.5 41.6898 41.5 41.2581C41.5 40.3949 42.0009 39.8871 43.0027 39.7348L44.3803 39.5317C44.3803 38.7446 44.0547 38.3637 43.4285 38.3637C42.8775 38.3637 42.3766 38.5415 41.9258 38.9223V38.1606C42.051 38.0591 42.3015 37.9575 42.602 37.856C42.9276 37.7544 43.2282 37.7036 43.4786 37.7036C44.5556 37.7036 45.0816 38.2876 45.0816 39.4301V42.5022H45.1066ZM44.3803 40.141L43.2783 40.2933C42.9026 40.3441 42.6271 40.4457 42.4768 40.5726C42.3265 40.6996 42.2514 40.9027 42.2514 41.2074C42.2514 41.4359 42.3265 41.639 42.5018 41.7659C42.6772 41.9183 42.8775 41.969 43.128 41.969C43.5037 41.969 43.7792 41.8421 44.0296 41.5882C44.255 41.3343 44.3803 41.0042 44.3803 40.6234V40.141Z" fill="#5C5B5B"/>
<path d="M50.7175 40.0393C50.7175 40.801 50.5421 41.4358 50.1665 41.9182C49.7908 42.4006 49.2898 42.6291 48.6387 42.6291C48.0376 42.6291 47.5867 42.3752 47.2611 41.842H47.2361V42.5021H46.5098V35.6216H47.2361V38.6683H47.2611C47.6118 38.059 48.1377 37.7289 48.839 37.7289C49.4151 37.7289 49.8659 37.932 50.2165 38.3383C50.5421 38.7699 50.7175 39.3284 50.7175 40.0393ZM49.9661 40.014C49.9661 39.5062 49.8409 39.0999 49.6154 38.8207C49.39 38.516 49.0644 38.3636 48.6637 38.3636C48.2379 38.3636 47.9123 38.516 47.6368 38.7953C47.3864 39.0999 47.2361 39.4808 47.2361 39.9378V40.5979C47.2361 40.9788 47.3613 41.3088 47.6118 41.5881C47.8622 41.842 48.1628 41.9943 48.5385 41.9943C48.9893 41.9943 49.3149 41.8166 49.5653 41.4865C49.8409 41.1057 49.9661 40.6233 49.9661 40.014Z" fill="#5C5B5B"/>
<path d="M56.0024 40.141C56.0024 40.8773 55.802 41.4613 55.3762 41.9183C54.9755 42.3753 54.3995 42.6038 53.7232 42.6038C53.047 42.6038 52.496 42.3753 52.0952 41.9437C51.6945 41.512 51.4941 40.9281 51.4941 40.2172C51.4941 39.4555 51.6945 38.8461 52.1203 38.3891C52.5461 37.9321 53.0971 37.729 53.8234 37.729C54.4996 37.729 55.0256 37.9321 55.4263 38.3637C55.802 38.8208 56.0024 39.4047 56.0024 40.141ZM55.251 40.1918C55.251 39.6078 55.1258 39.1508 54.8753 38.8461C54.6249 38.5415 54.2492 38.3891 53.7733 38.3891C53.2974 38.3891 52.9218 38.5415 52.6462 38.8715C52.3707 39.2016 52.2455 39.6332 52.2455 40.2172C52.2455 40.7757 52.3958 41.2074 52.6713 41.512C52.9468 41.8167 53.3225 41.9691 53.7984 41.9691C54.2742 41.9691 54.6499 41.8167 54.9004 41.512C55.1258 41.2074 55.251 40.7504 55.251 40.1918Z" fill="#5C5B5B"/>
<path d="M59.5337 38.5918C59.4084 38.4902 59.2081 38.4394 58.9827 38.4394C58.6571 38.4394 58.4066 38.5918 58.1812 38.8964C57.9808 39.2011 57.8806 39.6073 57.8806 40.1151V42.4764H57.1543V37.8301H57.8806V38.7949H57.9057C58.0059 38.4648 58.1561 38.2109 58.3816 38.0332C58.5819 37.8555 58.8324 37.7539 59.1079 37.7539C59.3082 37.7539 59.4335 37.7793 59.5337 37.8047V38.5918Z" fill="#5C5B5B"/>
<path d="M63.5656 42.5022H62.8393V41.7659H62.8142C62.4886 42.3245 62.0378 42.6038 61.4116 42.6038C60.9608 42.6038 60.6102 42.4768 60.3597 42.2483C60.0842 41.9944 59.959 41.6898 59.959 41.2581C59.959 40.3949 60.4599 39.8871 61.4617 39.7348L62.8393 39.5317C62.8393 38.7446 62.5137 38.3637 61.8875 38.3637C61.3365 38.3637 60.8356 38.5415 60.3848 38.9223V38.1606C60.51 38.0591 60.7605 37.9575 61.061 37.856C61.3866 37.7544 61.6871 37.7036 61.9376 37.7036C63.0146 37.7036 63.5405 38.2876 63.5405 39.4301V42.5022H63.5656ZM62.8393 40.141L61.7372 40.2933C61.3616 40.3441 61.086 40.4457 60.9358 40.5726C60.7855 40.6996 60.7104 40.9027 60.7104 41.2074C60.7104 41.4359 60.7855 41.639 60.9608 41.7659C61.1361 41.9183 61.3365 41.969 61.587 41.969C61.9627 41.969 62.2382 41.8421 62.4886 41.5882C62.714 41.3343 62.8393 41.0042 62.8393 40.6234V40.141Z" fill="#5C5B5B"/>
<path d="M67.0728 42.4514C66.8975 42.553 66.6721 42.6037 66.3966 42.6037C65.5951 42.6037 65.1944 42.1467 65.1944 41.2327V38.4906H64.418V37.8559H65.1944V36.7134L65.9207 36.4849V37.8559H67.0728V38.4906H65.9207V41.1058C65.9207 41.4104 65.9708 41.6389 66.071 41.7659C66.1712 41.8928 66.3465 41.969 66.597 41.969C66.7723 41.969 66.9476 41.9182 67.0728 41.8167V42.4514Z" fill="#5C5B5B"/>
<path d="M68.9003 36.1802C68.9003 36.3071 68.8502 36.434 68.75 36.5356C68.6498 36.6372 68.5496 36.6626 68.3993 36.6626C68.2741 36.6626 68.1489 36.6118 68.0487 36.5356C67.9485 36.434 67.8984 36.3325 67.8984 36.1802C67.8984 36.0532 67.9485 35.9263 68.0237 35.8501C68.1238 35.7485 68.224 35.6978 68.3743 35.6978C68.4995 35.6978 68.6248 35.7485 68.7249 35.8501C68.8502 35.9516 68.9003 36.0532 68.9003 36.1802ZM68.775 42.5021H68.0487V37.8559H68.775V42.5021Z" fill="#5C5B5B"/>
<path d="M74.4106 40.141C74.4106 40.8773 74.2102 41.4613 73.7844 41.9183C73.3837 42.3753 72.8077 42.6038 72.1314 42.6038C71.4552 42.6038 70.9042 42.3753 70.5034 41.9437C70.1027 41.512 69.9023 40.9281 69.9023 40.2172C69.9023 39.4555 70.1027 38.8461 70.5285 38.3891C70.9543 37.9321 71.5053 37.729 72.2316 37.729C72.9078 37.729 73.4338 37.9321 73.8345 38.3637C74.2353 38.8208 74.4106 39.4047 74.4106 40.141ZM73.6592 40.1918C73.6592 39.6078 73.534 39.1508 73.2835 38.8461C73.0331 38.5415 72.6574 38.3891 72.1815 38.3891C71.7056 38.3891 71.33 38.5415 71.0545 38.8715C70.7789 39.2016 70.6537 39.6332 70.6537 40.2172C70.6537 40.7757 70.804 41.2074 71.0795 41.512C71.355 41.8167 71.7307 41.9691 72.2066 41.9691C72.6824 41.9691 73.0581 41.8167 73.3086 41.512C73.534 41.2074 73.6592 40.7504 73.6592 40.1918Z" fill="#5C5B5B"/>
<path d="M79.3444 42.5022H78.6181V39.8617C78.6181 38.8715 78.2675 38.3891 77.5662 38.3891C77.2155 38.3891 76.915 38.5161 76.6645 38.7954C76.4141 39.0746 76.2888 39.4301 76.2888 39.8617V42.5022H75.5625V37.856H76.2888V38.6176H76.3139C76.6645 38.0337 77.1654 37.729 77.8166 37.729C78.3176 37.729 78.6932 37.9067 78.9687 38.2368C79.2442 38.5669 79.3695 39.0493 79.3695 39.6586V42.5022H79.3444Z" fill="#5C5B5B"/>
<path d="M86.1066 42.5022H85.3803V41.7659H85.3552C85.0296 42.3245 84.5788 42.6038 83.9527 42.6038C83.5018 42.6038 83.1512 42.4768 82.9007 42.2483C82.6252 41.9944 82.5 41.6898 82.5 41.2581C82.5 40.3949 83.0009 39.8871 84.0027 39.7348L85.3803 39.5317C85.3803 38.7446 85.0547 38.3637 84.4285 38.3637C83.8775 38.3637 83.3766 38.5415 82.9258 38.9223V38.1606C83.051 38.0591 83.3015 37.9575 83.602 37.856C83.9276 37.7544 84.2282 37.7036 84.4786 37.7036C85.5556 37.7036 86.0815 38.2876 86.0815 39.4301V42.5022H86.1066ZM85.3803 40.141L84.2782 40.2933C83.9026 40.3441 83.6271 40.4457 83.4768 40.5726C83.3265 40.6996 83.2514 40.9027 83.2514 41.2074C83.2514 41.4359 83.3265 41.639 83.5018 41.7659C83.6771 41.9183 83.8775 41.969 84.128 41.969C84.5037 41.969 84.7792 41.8421 85.0296 41.5882C85.255 41.3343 85.3803 41.0042 85.3803 40.6234V40.141Z" fill="#5C5B5B"/>
<path d="M91.2917 42.5022H90.5653V39.8617C90.5653 38.8715 90.2147 38.3891 89.5134 38.3891C89.1628 38.3891 88.8622 38.5161 88.6118 38.7954C88.3613 39.0746 88.2361 39.4301 88.2361 39.8617V42.5022H87.5098V37.856H88.2361V38.6176H88.2611C88.6118 38.0337 89.1127 37.729 89.7639 37.729C90.2648 37.729 90.6405 37.9067 90.916 38.2368C91.1915 38.5669 91.3167 39.0493 91.3167 39.6586V42.5022H91.2917Z" fill="#5C5B5B"/>
<path d="M96.5257 42.5021H95.7994V41.7151H95.7743C95.4237 42.3244 94.8977 42.6291 94.1965 42.6291C93.6204 42.6291 93.1696 42.426 92.8189 41.9943C92.4683 41.5627 92.293 41.0042 92.293 40.3186C92.293 39.557 92.4933 38.9476 92.869 38.4652C93.2447 38.0082 93.7456 37.7797 94.3968 37.7797C95.023 37.7797 95.4738 38.0336 95.7743 38.5414H95.7994V35.6724H96.5257V42.5021ZM95.7994 40.3948V39.7093C95.7994 39.3284 95.6742 38.9984 95.4237 38.7445C95.1732 38.4906 94.8727 38.3637 94.497 38.3637C94.0462 38.3637 93.6955 38.5414 93.4451 38.8714C93.1946 39.2015 93.0443 39.6585 93.0443 40.2425C93.0443 40.7757 93.1696 41.2073 93.42 41.5119C93.6705 41.8166 93.9961 41.969 94.3968 41.969C94.7976 41.969 95.1232 41.8166 95.3987 41.5373C95.6742 41.2581 95.7994 40.8518 95.7994 40.3948Z" fill="#5C5B5B"/>
<path d="M104.616 42.2224C104.14 42.4763 103.564 42.6032 102.838 42.6032C102.236 42.6032 101.71 42.4763 101.26 42.197C100.809 41.9177 100.458 41.5368 100.208 41.0544C99.9573 40.572 99.832 39.9881 99.832 39.3534C99.832 38.6932 99.9823 38.0839 100.258 37.5507C100.533 37.0175 100.934 36.6113 101.435 36.3066C101.936 36.0019 102.487 35.875 103.113 35.875C103.714 35.875 104.215 35.9766 104.616 36.1543V36.9667C104.165 36.7129 103.639 36.5859 103.088 36.5859C102.612 36.5859 102.186 36.6875 101.811 36.916C101.435 37.1445 101.134 37.4745 100.934 37.8808C100.734 38.3124 100.633 38.7694 100.633 39.328C100.633 39.8358 100.734 40.2928 100.934 40.699C101.134 41.1052 101.41 41.4099 101.761 41.613C102.111 41.8161 102.512 41.9431 102.988 41.9431C103.639 41.9431 104.19 41.7907 104.641 41.5115V42.2224H104.616Z" fill="#5C5B5B"/>
<path d="M109.975 40.141C109.975 40.8773 109.775 41.4613 109.349 41.9183C108.948 42.3753 108.372 42.6038 107.696 42.6038C107.02 42.6038 106.469 42.3753 106.068 41.9437C105.667 41.512 105.467 40.9281 105.467 40.2172C105.467 39.4555 105.667 38.8461 106.093 38.3891C106.519 37.9321 107.07 37.729 107.796 37.729C108.472 37.729 108.998 37.9321 109.399 38.3637C109.775 38.8208 109.975 39.4047 109.975 40.141ZM109.224 40.1918C109.224 39.6078 109.098 39.1508 108.848 38.8461C108.598 38.5415 108.222 38.3891 107.746 38.3891C107.27 38.3891 106.894 38.5415 106.619 38.8715C106.343 39.2016 106.218 39.6332 106.218 40.2172C106.218 40.7757 106.368 41.2074 106.644 41.512C106.919 41.8167 107.295 41.9691 107.771 41.9691C108.247 41.9691 108.623 41.8167 108.873 41.512C109.098 41.2074 109.224 40.7504 109.224 40.1918Z" fill="#5C5B5B"/>
<path d="M114.909 42.5022H114.183V39.8617C114.183 38.8715 113.832 38.3891 113.131 38.3891C112.78 38.3891 112.479 38.5161 112.229 38.7954C111.979 39.0746 111.853 39.4301 111.853 39.8617V42.5022H111.127V37.856H111.853V38.6176H111.878C112.229 38.0337 112.73 37.729 113.381 37.729C113.882 37.729 114.258 37.9067 114.533 38.2368C114.809 38.5669 114.934 39.0493 114.934 39.6586V42.5022H114.909Z" fill="#5C5B5B"/>
<path d="M118.417 42.4514C118.241 42.553 118.016 42.6037 117.74 42.6037C116.939 42.6037 116.538 42.1467 116.538 41.2327V38.4906H115.762V37.8559H116.538V36.7134L117.264 36.4849V37.8559H118.417V38.4906H117.264V41.1058C117.264 41.4104 117.315 41.6389 117.415 41.7659C117.515 41.8928 117.69 41.969 117.941 41.969C118.116 41.969 118.291 41.9182 118.417 41.8167V42.4514Z" fill="#5C5B5B"/>
<path d="M123.048 40.3441H119.817C119.817 40.8773 119.968 41.2581 120.218 41.5374C120.469 41.8167 120.844 41.9436 121.295 41.9436C121.821 41.9436 122.297 41.7659 122.723 41.4359V42.1214C122.322 42.426 121.796 42.5784 121.12 42.5784C120.469 42.5784 119.968 42.3753 119.592 41.9436C119.216 41.512 119.041 40.9281 119.041 40.1664C119.041 39.7094 119.141 39.2778 119.317 38.8969C119.492 38.5161 119.742 38.2368 120.068 38.0083C120.393 37.8052 120.744 37.7036 121.145 37.7036C121.746 37.7036 122.197 37.9067 122.522 38.2876C122.848 38.6684 123.023 39.227 123.023 39.9379V40.3441H123.048ZM122.297 39.7348C122.297 39.3031 122.197 38.9731 121.996 38.7446C121.796 38.5161 121.521 38.3891 121.17 38.3891C120.819 38.3891 120.544 38.5161 120.293 38.77C120.043 39.0239 119.893 39.3539 119.842 39.7602H122.297V39.7348Z" fill="#5C5B5B"/>
<path d="M127.909 42.5022H127.183V39.8617C127.183 38.8715 126.832 38.3891 126.131 38.3891C125.78 38.3891 125.479 38.5161 125.229 38.7954C124.979 39.0746 124.853 39.4301 124.853 39.8617V42.5022H124.127V37.856H124.853V38.6176H124.878C125.229 38.0337 125.73 37.729 126.381 37.729C126.882 37.729 127.258 37.9067 127.533 38.2368C127.809 38.5669 127.934 39.0493 127.934 39.6586V42.5022H127.909Z" fill="#5C5B5B"/>
<path d="M131.414 42.4514C131.239 42.553 131.014 42.6037 130.738 42.6037C129.937 42.6037 129.536 42.1467 129.536 41.2327V38.4906H128.734V37.8559H129.511V36.7134L130.237 36.4849V37.8559H131.389V38.4906H130.237V41.1058C130.237 41.4104 130.287 41.6389 130.387 41.7659C130.488 41.8928 130.663 41.969 130.913 41.969C131.089 41.969 131.264 41.9182 131.389 41.8167V42.4514H131.414Z" fill="#5C5B5B"/>
</svg>
