<svg width="64" height="64" viewBox="0 0 64 64" fill="none" xmlns="http://www.w3.org/2000/svg">
<path d="M27.2698 30.36C33.7205 30.36 38.9498 25.1307 38.9498 18.68C38.9498 12.2293 33.7205 7 27.2698 7C20.8192 7 15.5898 12.2293 15.5898 18.68C15.5898 25.1307 20.8192 30.36 27.2698 30.36Z" fill="#741213"/>
<path d="M33.65 54.8603L31.81 53.0003C31.1099 52.3085 30.6431 51.4154 30.4746 50.4457C30.3061 49.4759 30.4443 48.4778 30.87 47.5903C29.9449 47.2555 29.1453 46.644 28.58 45.8389C28.0146 45.0338 27.7108 44.0741 27.71 43.0903V40.4703C27.717 39.4916 28.0236 38.5386 28.5885 37.7394C29.1535 36.9403 29.9497 36.3333 30.87 36.0003C30.7312 35.6781 30.624 35.3432 30.55 35.0003H30.35L29.82 34.9503L28.82 34.8703C28.29 34.8703 27.77 34.8203 27.23 34.8203C26.69 34.8203 26.17 34.8203 25.64 34.8703L24.64 34.9503L24.11 35.0003C23.69 35.0503 23.27 35.1103 22.86 35.1803H22.7C19.0893 35.8096 15.6499 37.186 12.6019 39.2214C9.55398 41.2568 6.96472 43.9063 5 47.0003C9.60645 51.3742 15.3774 54.3256 21.62 55.5003L22.98 55.7203H23.06L24.35 55.8703H24.76L25.76 55.9403C26.26 55.9403 26.76 55.9403 27.26 55.9403C27.76 55.9403 28.26 55.9403 28.76 55.9403L29.76 55.8703H30.17L31.46 55.7203H31.54L32.9 55.5003L34.06 55.2403C33.9144 55.1236 33.7774 54.9966 33.65 54.8603Z" fill="#741213"/>
<path d="M57.57 38.7101L55.35 38.4201C55.1666 37.8629 54.9392 37.3212 54.67 36.8001L56.05 35.0001C56.3175 34.6582 56.4501 34.2298 56.4224 33.7965C56.3948 33.3632 56.2088 32.9552 55.9 32.6501L54 30.8201C53.6971 30.5072 53.2885 30.3184 52.854 30.2907C52.4194 30.263 51.9901 30.3982 51.65 30.6701L49.92 32.0001C49.3952 31.7341 48.8501 31.5101 48.29 31.3301L48 29.1401C47.9465 28.7105 47.7383 28.3152 47.4143 28.028C47.0903 27.7409 46.6729 27.5816 46.24 27.5801H43.59C43.1571 27.5816 42.7396 27.7409 42.4156 28.028C42.0917 28.3152 41.8835 28.7105 41.83 29.1401L41.55 31.3701C40.9898 31.5501 40.4448 31.7741 39.92 32.0401L38.15 30.6701C37.8117 30.3998 37.3853 30.2645 36.9531 30.2904C36.5209 30.3162 36.1136 30.5014 35.81 30.8101L33.94 32.6701C33.6365 32.9741 33.4539 33.3781 33.4263 33.8068C33.3987 34.2355 33.528 34.6596 33.79 35.0001L35.17 36.7701C34.9007 37.2912 34.6734 37.8329 34.49 38.3901L32.27 38.6801C31.8395 38.7315 31.4429 38.9391 31.1554 39.2635C30.8678 39.5879 30.7094 40.0066 30.71 40.4401V43.0901C30.7094 43.5236 30.8678 43.9422 31.1554 44.2666C31.4429 44.591 31.8395 44.7986 32.27 44.8501L34.49 45.1301C34.6733 45.6905 34.9007 46.2355 35.17 46.7601L33.79 48.5301C33.5203 48.8711 33.3864 49.2999 33.4141 49.7339C33.4418 50.1678 33.6291 50.5761 33.94 50.8801L35.8 52.7401C36.104 53.0509 36.5123 53.2383 36.9462 53.266C37.3801 53.2937 37.8089 53.1598 38.15 52.8901L39.92 51.5101C40.4426 51.7835 40.988 52.0111 41.55 52.1901L41.83 54.4101C41.8767 54.8451 42.0819 55.2476 42.4066 55.5409C42.7312 55.8342 43.1525 55.9977 43.59 56.0001H46.25C46.6796 55.9964 47.0934 55.8375 47.4151 55.5526C47.7367 55.2677 47.9445 54.8761 48 54.4501L48.28 52.2201C48.8395 52.0383 49.3844 51.8144 49.91 51.5501L51.68 52.9201C52.0176 53.1827 52.4394 53.3133 52.8664 53.2875C53.2933 53.2617 53.6963 53.0814 54 52.7801L55.87 50.9101C56.1788 50.6049 56.3648 50.1969 56.3924 49.7636C56.4201 49.3303 56.2875 48.902 56.02 48.5601L54.64 46.7901C54.9092 46.2655 55.1366 45.7205 55.32 45.1601L57.54 44.8801C57.9704 44.8286 58.367 44.621 58.6545 44.2966C58.9421 43.9722 59.1006 43.5536 59.1 43.1201V40.4701C59.1006 40.0366 58.9421 39.6179 58.6545 39.2935C58.367 38.9691 57.9704 38.7615 57.54 38.7101H57.57ZM44.92 47.7101C43.7467 47.7121 42.5992 47.366 41.6227 46.7156C40.6462 46.0652 39.8846 45.1397 39.4342 44.0563C38.9839 42.9729 38.865 41.7803 39.0927 40.6293C39.3204 39.4784 39.8844 38.4208 40.7133 37.5905C41.5422 36.7602 42.5988 36.1944 43.7494 35.9648C44.9 35.7351 46.0928 35.852 47.177 36.3005C48.2611 36.7491 49.1878 37.5091 49.8399 38.4845C50.4919 39.4599 50.84 40.6068 50.84 41.7801C50.84 43.3511 50.2166 44.8579 49.1066 45.9697C47.9967 47.0815 46.491 47.7074 44.92 47.7101Z" fill="#B6B6B5"/>
</svg>
