<svg width="14" height="14" viewBox="0 0 14 14" fill="none" xmlns="http://www.w3.org/2000/svg">
<g clip-path="url(#clip0)">
<path d="M10.9201 0.745087H6.62162C6.34957 0.745087 6.08829 0.853396 5.8958 1.04589L0.300674 6.63998C-0.100225 7.04088 -0.100225 7.69074 0.300674 8.09215L4.59917 12.3906C5.00006 12.7915 5.64992 12.7915 6.05082 12.3906L11.6459 6.79655C11.8384 6.60354 11.9467 6.34226 11.9467 6.06969V1.77171C11.9467 1.2045 11.4873 0.745087 10.9201 0.745087ZM9.12352 4.33828C8.69849 4.33828 8.35355 3.99334 8.35355 3.56831C8.35355 3.14329 8.69849 2.79834 9.12352 2.79834C9.54854 2.79834 9.89349 3.14329 9.89349 3.56831C9.89349 3.99334 9.54854 4.33828 9.12352 4.33828Z" fill="#3E3D3D"/>
<path d="M12.9751 1.77171L12.9746 6.55016C12.9746 6.78679 12.8807 7.01419 12.7128 7.18153L7.02734 12.867L7.11461 12.9543C7.5155 13.3552 8.16536 13.3552 8.56626 12.9543L13.7004 7.82112C13.8934 7.62863 14.0017 7.36735 14.0017 7.09529V2.79834C14.0017 2.23113 13.5423 1.77171 12.9751 1.77171Z" fill="#3E3D3D"/>
</g>
<defs>
<clipPath id="clip0">
<rect width="14" height="14" fill="white"/>
</clipPath>
</defs>
</svg>
