<svg width="64" height="64" viewBox="0 0 64 64" fill="none" xmlns="http://www.w3.org/2000/svg">
<g clip-path="url(#clip0)">
<path fill-rule="evenodd" clip-rule="evenodd" d="M52 19.4124V13.5938H37.92V0H8.4C3.75339 0 0 3.64138 0 8.09766V55.9023C0 60.3586 3.75339 64 8.4 64H43.9061C46.5606 64 48.6435 62.625 49.9572 60.9841C51.2575 59.3598 52 57.2662 52 55.2V47.8902L48.88 51.7035V55.2C48.88 55.2345 48.8797 55.2691 48.8791 55.3036C48.8292 58.0839 46.7818 61 43.9061 61H8.4C5.48849 61 3.12 58.7133 3.12 55.9023V8.09766C3.12 5.2867 5.48849 3 8.4 3H34.8V14.8945C34.8 15.8337 35.5872 16.5938 36.56 16.5938H48.88V22.8385L52 19.4124Z" fill="#B7B6B5"/>
<rect x="6" y="12" width="20" height="4" rx="1" fill="#B7B6B5"/>
<rect x="6" y="22" width="36" height="4" rx="1" fill="#B7B6B5"/>
<rect x="6" y="32" width="28" height="4" rx="1" fill="#B7B6B5"/>
<path d="M61.6868 21.682C59.3371 19.7502 56.1986 19.5816 54.7398 21.4527L52.5933 23.9069L61.2807 31.0385L63.3792 28.5832C64.8197 26.7417 64.0938 23.6558 61.6868 21.682Z" fill="#74060E"/>
<path d="M36.9553 43.9595L36.3386 44.7444C35.8036 45.4334 35.4253 46.2507 35.2455 47.1114L33.6886 54.5503C33.5414 55.2542 33.7951 55.9838 34.3429 56.4333C34.8762 56.8718 35.6171 56.985 36.2771 56.6767L43.0129 53.4868C43.7924 53.1169 44.4861 52.5598 45.0213 51.8763L45.6402 51.0888L36.9553 43.9595Z" fill="#74060E"/>
<path d="M50.8553 26.1353L38.689 41.7297L47.3763 48.8614L59.543 33.2665L50.8553 26.1353Z" fill="#74060E"/>
<path d="M40 9C40 10.1046 40.8954 11 42 11H52L40 0V9Z" fill="#B7B6B5"/>
</g>
<defs>
<clipPath id="clip0">
<rect width="64" height="64" fill="white"/>
</clipPath>
</defs>
</svg>
