<svg width="56" height="65" viewBox="0 0 56 65" fill="none" xmlns="http://www.w3.org/2000/svg">
<g clip-path="url(#clip0)">
<path d="M14.3998 24.0004C18.1965 20.7734 23.017 19.0016 27.9998 19.0016C32.9826 19.0016 37.8031 20.7734 41.5998 24.0004H42.9998C44.0737 23.9963 45.1454 24.0968 46.1998 24.3004C44.1225 21.859 41.5714 19.8646 38.7009 18.438C35.8304 17.0113 32.7002 16.182 29.4998 16.0004V9.70036C30.6394 9.34198 31.613 8.58745 32.2444 7.57336C32.8757 6.55926 33.1232 5.35263 32.9419 4.17188C32.7606 2.99113 32.1626 1.9143 31.256 1.13633C30.3495 0.358361 29.1944 -0.0693359 27.9998 -0.0693359C26.8052 -0.0693359 25.6501 0.358361 24.7436 1.13633C23.837 1.9143 23.239 2.99113 23.0577 4.17188C22.8764 5.35263 23.1239 6.55926 23.7553 7.57336C24.3866 8.58745 25.3602 9.34198 26.4998 9.70036V16.0004C23.2995 16.182 20.1693 17.0113 17.2987 18.438C14.4282 19.8646 11.8771 21.859 9.7998 24.3004C10.8542 24.0968 11.9259 23.9963 12.9998 24.0004H14.3998ZM25.9998 5.00036C25.9998 4.6048 26.1171 4.21812 26.3369 3.88922C26.5566 3.56032 26.869 3.30398 27.2344 3.1526C27.5999 3.00123 28.002 2.96162 28.39 3.03879C28.7779 3.11596 29.1343 3.30644 29.414 3.58615C29.6937 3.86585 29.8842 4.22222 29.9614 4.61018C30.0385 4.99814 29.9989 5.40027 29.8476 5.76573C29.6962 6.13118 29.4398 6.44354 29.1109 6.6633C28.782 6.88306 28.3954 7.00036 27.9998 7.00036C27.4694 7.00036 26.9607 6.78965 26.5856 6.41457C26.2105 6.0395 25.9998 5.53079 25.9998 5.00036Z" fill="#B6B6B5"/>
<path d="M41.5998 56.1002C37.8031 59.3272 32.9826 61.0989 27.9998 61.0989C23.017 61.0989 18.1965 59.3272 14.3998 56.1002H12.9998C11.9259 56.1042 10.8542 56.0038 9.7998 55.8002C12.0542 58.4158 14.8483 60.5121 17.9901 61.9449C21.1319 63.3777 24.5468 64.113 27.9998 64.1002C31.4633 64.1169 34.8882 63.3733 38.0329 61.9219C41.1776 60.4705 43.9655 58.3466 46.1998 55.7002C45.1454 55.9038 44.0737 56.0043 42.9998 56.0002H41.5998V56.1002Z" fill="#B6B6B5"/>
<path d="M49.0997 28.5002C47.6904 27.7806 46.1685 27.3071 44.5997 27.1002C44.0707 27.0171 43.535 26.9836 42.9997 27.0002H12.9997C12.4645 26.9836 11.9288 27.0171 11.3997 27.1002C9.82776 27.2925 8.30336 27.7668 6.89974 28.5002C4.806 29.6039 3.05331 31.2583 1.83069 33.2849C0.608068 35.3115 -0.0380859 37.6334 -0.0380859 40.0002C-0.0380859 42.367 0.608068 44.689 1.83069 46.7155C3.05331 48.7421 4.806 50.3965 6.89974 51.5002C8.30904 52.2198 9.83094 52.6933 11.3997 52.9002C11.9284 52.9865 12.4644 53.02 12.9997 53.0002H42.9997C43.535 53.0168 44.0707 52.9833 44.5997 52.9002C47.3484 52.5656 49.9184 51.362 51.9353 49.4649C53.9523 47.5678 55.3108 45.0763 55.813 42.3533C56.3152 39.6302 55.9349 36.818 54.7273 34.3262C53.5198 31.8344 51.5482 29.7933 49.0997 28.5002ZM33.8597 42.5002C33.5108 42.5033 33.1689 42.4019 32.878 42.2092C32.5871 42.0165 32.3604 41.7412 32.2271 41.4188C32.0938 41.0963 32.06 40.7413 32.1299 40.3994C32.1999 40.0576 32.3705 39.7444 32.6197 39.5002C33.8735 38.252 35.5706 37.5513 37.3397 37.5513C39.1089 37.5513 40.806 38.252 42.0597 39.5002C42.3913 39.8291 42.5786 40.2762 42.5804 40.7431C42.5823 41.2101 42.3986 41.6587 42.0697 41.9902C41.7409 42.3217 41.2938 42.509 40.8268 42.5109C40.3598 42.5128 39.9113 42.3291 39.5797 42.0002C39.2861 41.7051 38.937 41.4709 38.5526 41.3112C38.1682 41.1514 37.756 41.0691 37.3397 41.0691C36.9234 41.0691 36.5112 41.1514 36.1268 41.3112C35.7424 41.4709 35.3934 41.7051 35.0997 42.0002C34.7629 42.3116 34.3184 42.4801 33.8597 42.4702V42.5002ZM15.1797 42.5002C14.8308 42.5033 14.4889 42.4019 14.198 42.2092C13.9071 42.0165 13.6804 41.7412 13.5471 41.4188C13.4138 41.0963 13.38 40.7413 13.4499 40.3994C13.5199 40.0576 13.6905 39.7444 13.9397 39.5002C15.1935 38.252 16.8906 37.5513 18.6597 37.5513C20.4289 37.5513 22.126 38.252 23.3797 39.5002C23.5439 39.663 23.6744 39.8566 23.7637 40.0699C23.853 40.2831 23.8995 40.5119 23.9004 40.7431C23.9014 40.9744 23.8567 41.2035 23.7691 41.4175C23.6815 41.6314 23.5526 41.8261 23.3897 41.9902C23.2269 42.1544 23.0333 42.2848 22.8201 42.3742C22.6068 42.4635 22.378 42.51 22.1468 42.5109C21.9156 42.5118 21.6865 42.4672 21.4725 42.3796C21.2585 42.292 21.0639 42.163 20.8997 42.0002C20.6061 41.7051 20.2571 41.4709 19.8726 41.3112C19.4882 41.1514 19.076 41.0691 18.6597 41.0691C18.2434 41.0691 17.8312 41.1514 17.4468 41.3112C17.0624 41.4709 16.7134 41.7051 16.4197 42.0002C16.0841 42.3135 15.6387 42.4823 15.1797 42.4702V42.5002Z" fill="#741213"/>
</g>
<defs>
<clipPath id="clip0">
<rect width="56" height="64.1" fill="white"/>
</clipPath>
</defs>
</svg>
