<svg width="64" height="64" viewBox="0 0 64 64" fill="none" xmlns="http://www.w3.org/2000/svg">
<g clip-path="url(#clip0)">
<path d="M30.7499 37.8293H23.8799V21.7793H30.7499" fill="#B6B6B5"/>
<path d="M39.9298 12.6094H33.0498V37.8294H39.9298V12.6094Z" fill="#B6B6B5"/>
<path d="M49.0997 34.9192V17.1992H42.2197V37.3192C44.2957 35.9961 46.6512 35.1744 49.0997 34.9192Z" fill="#B6B6B5"/>
<path d="M34.68 50.9197C34.6839 49.1815 34.971 47.4555 35.53 45.8097C31.3229 45.609 27.2936 44.0529 24.0437 41.3737C20.7938 38.6946 18.4976 35.0362 17.498 30.9447C16.4983 26.8532 16.8489 22.5481 18.4973 18.6722C20.1457 14.7963 23.0036 11.5576 26.6441 9.43955C30.2847 7.32152 34.5127 6.43782 38.6968 6.9204C42.8809 7.40297 46.7967 9.22594 49.8595 12.1171C52.9223 15.0083 54.9678 18.8126 55.6906 22.9619C56.4135 27.1113 55.7748 31.3831 53.87 35.1397C56.1575 35.5878 58.3186 36.5335 60.2 37.9097C62.2601 33.6993 63.1612 29.016 62.8105 24.3418C62.4598 19.6676 60.87 15.1713 58.2047 11.3154C55.5393 7.4596 51.8948 4.38357 47.646 2.40386C43.3972 0.424158 38.6977 -0.387722 34.031 0.0517668C29.3643 0.491256 24.899 2.16624 21.0945 4.90436C17.29 7.64249 14.2838 11.3449 12.3853 15.6305C10.4867 19.9161 9.76427 24.6302 10.2924 29.2877C10.8205 33.9453 12.5801 38.3779 15.39 42.1297L0 57.5197L6.48 63.9997L22.06 48.4197C25.8622 50.918 30.2496 52.3827 34.79 52.6697C34.7182 52.0891 34.6815 51.5047 34.68 50.9197Z" fill="#B6B6B5"/>
<path d="M50.7699 37.8301C48.1805 37.8281 45.6487 38.5941 43.4948 40.0313C41.3408 41.4684 39.6615 43.5121 38.6692 45.9038C37.6769 48.2955 37.4163 50.9278 37.9202 53.4677C38.4242 56.0075 39.6701 58.3409 41.5004 60.1726C43.3306 62.0042 45.663 63.2519 48.2025 63.7578C50.742 64.2637 53.3745 64.0051 55.7669 63.0146C58.1594 62.0242 60.2044 60.3464 61.6432 58.1935C63.082 56.0407 63.8499 53.5095 63.8499 50.9201C63.8473 47.4509 62.4687 44.1245 60.0166 41.6705C57.5645 39.2165 54.2391 37.8354 50.7699 37.8301ZM57.3999 48.1401L50.3099 55.2301C50.1056 55.434 49.8286 55.5486 49.5399 55.5486C49.2512 55.5486 48.9743 55.434 48.7699 55.2301L45.2299 51.6901C45.0244 51.4859 44.9084 51.2084 44.9074 50.9186C44.9065 50.6289 45.0207 50.3506 45.2249 50.1451C45.4291 49.9395 45.7066 49.8235 45.9964 49.8226C46.2861 49.8217 46.5644 49.9359 46.7699 50.1401L49.5399 52.9201L55.8599 46.6001C56.067 46.4105 56.3393 46.3081 56.62 46.3143C56.9007 46.3204 57.1682 46.4347 57.3668 46.6332C57.5653 46.8318 57.6796 47.0993 57.6858 47.38C57.6919 47.6607 57.5895 47.933 57.3999 48.1401Z" fill="#741213"/>
</g>
<defs>
<clipPath id="clip0">
<rect width="63.85" height="64" fill="white"/>
</clipPath>
</defs>
</svg>
