<svg width="188" height="30" viewBox="0 0 188 30" fill="none" xmlns="http://www.w3.org/2000/svg">
<path d="M44.3881 14.9783H32.6997C32.618 17.2835 33.5988 18.9939 36.5414 18.9939C38.6665 18.9939 40.71 18.399 41.8543 17.9528L42.4264 21.2247C40.7917 21.9684 38.2579 22.5633 35.3153 22.5633C30.3294 22.5633 27.3868 19.9606 27.3868 15.6476C27.3868 13.0449 28.3677 9.99601 30.0842 7.91387C31.9641 5.45991 34.9066 3.97266 38.5031 3.97266C42.8351 3.97266 45.2872 6.27789 45.2872 10.2935C45.2872 11.1858 44.9603 13.4167 44.3881 14.9783ZM37.7674 6.87279C36.1327 6.87279 34.7432 7.91387 33.7623 9.69856C33.3536 10.4422 33.2719 10.6653 33.0267 11.632H39.8926C40.0561 11.1114 40.2195 10.2191 40.2195 9.69856C40.2195 7.8395 39.3204 6.87279 37.7674 6.87279Z" fill="#EC2227"/>
<path d="M8.09531 27.4724H2.94588L0.493774 4.3457H6.13362L7.1962 20.0362L15.1247 4.3457H20.928L8.09531 27.4724Z" fill="#EC2227"/>
<path d="M56.8917 7.69186H53.8675L51.7423 17.0615C51.6606 17.359 51.3336 18.9949 53.1318 19.0693C53.6223 19.0693 54.4396 18.9949 54.7666 18.8462C54.7666 18.8462 53.8675 22.49 49.8624 22.49C46.7564 22.49 45.3668 20.3335 46.1025 17.2102L49.6989 1.59414C49.6989 1.59414 51.7423 -0.488003 55.6657 0.106896C55.0118 3.08139 54.6848 4.34555 54.6848 4.34555H57.7091L56.8917 7.69186Z" fill="#EC2227"/>
<path d="M94.8163 7.69186H91.792L89.6669 17.0615C89.5851 17.359 89.2582 18.9949 91.0564 19.0693C91.5468 19.0693 92.2824 18.9949 92.6911 18.8462C92.6911 18.8462 91.792 22.49 87.7869 22.49C84.6809 22.49 83.2914 20.3335 84.027 17.2102L87.6234 1.59414C87.6234 1.59414 89.6669 -0.488003 93.672 0.106896C93.0181 3.08139 92.6911 4.34555 92.6911 4.34555H95.7971L94.8163 7.69186Z" fill="#EC2227"/>
<path d="M82.3951 14.9783H70.7067C70.625 17.2835 71.6058 18.9939 74.5483 18.9939C76.6735 18.9939 78.7169 18.399 79.8612 17.9528L80.4334 21.2247C78.7987 21.9684 76.2648 22.5633 73.3223 22.5633C68.3363 22.5633 65.3938 19.9606 65.3938 15.6476C65.3938 13.0449 66.3746 9.99601 68.0911 7.91387C69.9711 5.45991 72.9136 3.97266 76.51 3.97266C80.8421 3.97266 83.2942 6.27789 83.2942 10.2935C83.2125 11.1858 82.8855 13.4167 82.3951 14.9783ZM75.6927 6.87279C74.0579 6.87279 72.6684 7.91387 71.6875 9.69856C71.2789 10.4422 71.1971 10.6653 70.9519 11.632H77.8178C77.9813 11.1114 78.1448 10.2191 78.1448 9.69856C78.1448 7.8395 77.3274 6.87279 75.6927 6.87279Z" fill="#EC2227"/>
<path d="M135.93 7.76581C134.541 7.31963 133.069 7.24527 132.17 7.61708L128.819 22.3408H123.179L127.103 5.38621C129.473 4.19641 133.887 3.52715 137.32 4.04769L135.93 7.76581Z" fill="#EC2227"/>
<path d="M108.467 27.4724L108.549 22.3414H100.784L97.678 27.4724H92.1199L107.405 4.3457H113.208L114.189 27.4724H108.467ZM108.631 9.47671L102.746 18.9951H108.467L108.631 9.47671Z" fill="#EC2227"/>
<path d="M51.4991 30.0007C46.4314 30.0007 43.6523 27.0262 44.061 23.903C46.5949 26.5057 51.1721 26.5057 53.9512 24.3492C55.0138 23.5312 55.8311 22.267 56.485 19.1438C57.7111 13.8641 59.918 4.3457 59.918 4.3457H65.6396L61.7162 21.3003C60.4901 26.5801 56.5668 30.0007 51.4991 30.0007Z" fill="#EC2227"/>
<path d="M23.4626 22.3414H17.8228L21.9913 4.3457H27.6312L23.4626 22.3414Z" fill="#EC2227"/>
<path d="M120.566 22.3414H114.845L119.013 4.3457H124.653L120.566 22.3414Z" fill="#EC2227"/>
<path d="M133.479 22.4892C132.58 22.4892 131.926 21.8943 131.926 21.0763C131.926 20.0352 133.071 18.9941 134.297 18.9941C135.196 18.9941 135.931 19.589 135.931 20.407C135.85 21.4481 134.705 22.4892 133.479 22.4892Z" fill="#EC2227"/>
<path d="M147.54 11.6327C147.294 11.4096 146.722 11.1865 145.987 11.1865C144.842 11.1865 143.861 11.7814 143.126 12.9712C142.39 14.0867 141.982 15.797 141.982 17.1355C141.982 18.7715 142.717 19.6638 143.861 19.6638C144.597 19.6638 145.414 19.4407 145.823 19.1433L146.15 21.5229C145.414 22.0434 144.188 22.4896 142.472 22.4896C139.611 22.4896 137.568 20.4818 137.568 17.3586C137.568 15.4252 138.385 13.0456 139.611 11.484C141.082 9.62492 143.126 8.6582 145.251 8.6582C146.886 8.6582 148.357 9.17874 148.766 9.62492L147.54 11.6327Z" fill="#EC2227"/>
<path d="M158.737 19.5151C157.348 21.3742 155.304 22.4896 152.525 22.4896C149.011 22.4896 147.212 20.4818 147.212 17.5817C147.212 15.6483 148.03 13.1943 149.174 11.6327C150.564 9.77364 152.689 8.6582 155.386 8.6582C158.901 8.6582 160.699 10.666 160.699 13.5661C160.699 15.4995 159.882 17.8791 158.737 19.5151ZM155.059 11.0378C153.915 11.0378 153.097 11.8558 152.525 13.0456C151.871 14.3097 151.381 16.615 151.381 17.9535C151.381 19.0689 151.79 19.8869 152.934 19.8869C154.078 19.8869 154.896 19.1433 155.468 17.9535C156.04 16.6893 156.694 14.3841 156.694 13.0456C156.612 11.8558 156.203 11.0378 155.059 11.0378Z" fill="#EC2227"/>
<path d="M183.258 12.9712L181.133 22.3409H176.801L179.008 12.8225C179.008 12.6738 179.089 12.525 179.089 12.302C179.089 11.5583 178.599 10.9634 177.291 10.9634C176.556 10.9634 175.738 11.2609 175.248 11.6327L172.796 22.2665H168.464L170.67 12.7481C170.67 12.5994 170.752 12.4507 170.752 12.302C170.752 11.484 170.098 10.9634 168.791 10.9634C168.055 10.9634 167.483 11.0378 166.992 11.2609L164.458 22.3409H160.208L163.151 9.62492C164.867 8.95566 166.911 8.6582 169.363 8.6582C171.324 8.6582 172.877 9.2531 173.613 9.99673C174.594 9.32747 176.474 8.6582 178.926 8.6582C181.95 8.6582 183.421 10.0711 183.421 12.0789C183.34 12.302 183.34 12.6738 183.258 12.9712Z" fill="#EC2227"/>
<path d="M186.938 21.8207C186.938 21.8207 186.856 21.7464 186.856 21.672C186.856 21.5976 186.856 21.5976 186.856 21.5233C186.856 21.4489 186.856 21.4489 186.856 21.3745C186.856 21.3002 186.856 21.3002 186.856 21.2258C186.856 21.1515 186.856 21.1515 186.856 21.0771C186.856 21.0027 186.856 21.0027 186.774 20.9284L186.692 20.854C186.692 20.854 186.611 20.7796 186.529 20.7796C186.692 20.7796 186.774 20.7053 186.856 20.5566C186.938 20.4822 186.938 20.3335 186.938 20.1847C186.938 20.036 186.856 19.8873 186.774 19.7386C186.611 19.6642 186.447 19.5898 186.202 19.5898H184.976V21.7464H185.303V20.854H186.038C186.12 20.854 186.202 20.854 186.202 20.854C186.284 20.854 186.284 20.9284 186.284 20.9284C186.284 20.9284 186.365 21.0027 186.365 21.0771C186.365 21.1515 186.365 21.1515 186.365 21.2258C186.365 21.3002 186.365 21.3002 186.365 21.3745V21.5233C186.365 21.5976 186.365 21.5976 186.365 21.672C186.365 21.7464 186.365 21.7464 186.447 21.7464L186.938 21.8207ZM185.385 19.8873H186.202C186.365 19.8873 186.447 19.9617 186.529 19.9617C186.611 20.036 186.611 20.1104 186.611 20.2591C186.611 20.3335 186.611 20.4078 186.529 20.4078C186.529 20.4822 186.447 20.4822 186.447 20.5566C186.365 20.5566 186.365 20.6309 186.284 20.6309C186.202 20.6309 186.12 20.6309 186.038 20.6309H185.385V19.8873Z" fill="#EC2227"/>
<path d="M185.957 22.5638C184.812 22.5638 183.913 21.7458 183.913 20.7048C183.913 19.6637 184.812 18.8457 185.957 18.8457C187.101 18.8457 188 19.6637 188 20.7048C188 21.7458 187.101 22.5638 185.957 22.5638ZM185.957 19.1432C184.976 19.1432 184.24 19.8868 184.24 20.7048C184.24 21.5971 184.976 22.2664 185.957 22.2664C186.937 22.2664 187.673 21.5227 187.673 20.7048C187.673 19.8124 186.937 19.1432 185.957 19.1432Z" fill="#EC2227"/>
</svg>
