<svg width="64" height="62" viewBox="0 0 64 62" fill="none" xmlns="http://www.w3.org/2000/svg">
<g clip-path="url(#clip0)">
<path d="M0 54.51L38.17 61.21V0L0 6.7V54.51ZM10.63 20.81H15L18.29 26.66L21.58 20.81H25.94L20.47 30.53L26.47 41.19H22.11L18.28 34.39L14.45 41.19H10.09L16.09 30.53L10.63 20.81Z" fill="#741213"/>
<path d="M40 6.7002V11.5502H46V18.1102H40V22.1102H46V28.6702H40V32.6202H46V39.1802H40V43.1802H46V49.7502H40V54.6002H64V6.7002H40ZM59.62 49.7002H49.13V43.0902H59.65L59.62 49.7002ZM59.62 39.1802H49.13V32.5802H59.65L59.62 39.1802ZM59.62 28.6702H49.13V22.0702H59.65L59.62 28.6702ZM59.62 18.1502H49.13V11.5502H59.65L59.62 18.1502Z" fill="#B6B6B5"/>
</g>
<defs>
<clipPath id="clip0">
<rect width="64" height="61.21" fill="white"/>
</clipPath>
</defs>
</svg>
