<svg width="64" height="64" viewBox="0 0 64 64" fill="none" xmlns="http://www.w3.org/2000/svg">
<path d="M63.1996 24.7L60.2996 25.5L57.3996 26.2999C57.7996 28.0999 57.9996 30 57.9996 32C57.9996 38.8 55.3996 45 51.0996 49.7L53.1996 51.7999L55.2996 53.9C60.6996 48.2 63.9996 40.5 63.9996 32C63.9996 29.5 63.6996 27 63.1996 24.7Z" fill="#B7B6B5"/>
<path d="M51.7996 53.2L49.6996 51C45.2996 55.1 39.4996 57.7 32.9996 57.9C32.6996 57.9 32.2996 57.9 31.9996 57.9C31.6996 57.9 31.2996 57.9 30.9996 57.9C24.5996 57.7 18.7996 55.1 14.2996 51L12.1996 53.1L10.0996 55.2C15.5996 60.4 22.8996 63.6 30.9996 63.9C31.2996 63.9 31.6996 63.9 31.9996 63.9C32.2996 63.9 32.6996 63.9 32.9996 63.9C41.0996 63.7 48.3996 60.4 53.8996 55.2L51.7996 53.2Z" fill="#B7B6B5"/>
<path d="M55.3 10.1C55.1 9.9 54.9 9.6 54.6 9.4C54.4 9.2 54.1 8.9 53.9 8.7C48.4 3.5 41.1 0.2 33 0V3V6C39.4 6.2 45.2 8.8 49.7 12.9C50.2 13.4 50.7 13.8 51.1 14.3C53.7 17.1 55.7 20.5 56.9 24.3L59.8 23.5L62.7 22.7C61.2 17.9 58.7 13.6 55.3 10.1Z" fill="#B7B6B5"/>
<path d="M10.1 8.7C9.9 8.9 9.6 9.1 9.4 9.3C9.2 9.5 8.9 9.8 8.7 10C3.3 15.8 0 23.5 0 32C0 34.5 0.3 37 0.8 39.3C0.8 39.5 0.9 39.6 0.9 39.8L1.1 40.4C1.2 40.7 1.2 40.9 1.3 41.2C2.7 46 5.3 50.3 8.6 53.9L10.7 51.8L12.8 49.7C10.2 46.9 8.2 43.5 7 39.7C7 39 6.8 38.4 6.7 37.7C6.2 35.9 6 34 6 32C6 25.2 8.6 19 12.9 14.3C13.4 13.8 13.8 13.3 14.3 12.9C18.8 8.8 24.6 6.2 31 6V3V0C22.9 0.2 15.6 3.5 10.1 8.7Z" fill="#741113"/>
<path d="M22.5 30H17.5V46H22.5V30Z" fill="#B7B6B5"/>
<path d="M30.5 24H25.5V46H30.5V24Z" fill="#B7B6B5"/>
<path d="M38.5 18H33.5V46H38.5V18Z" fill="#741113"/>
<path d="M46.5 24H41.5V46H46.5V24Z" fill="#B7B6B5"/>
</svg>
