<svg width="187" height="39" viewBox="0 0 187 39" fill="none" xmlns="http://www.w3.org/2000/svg">
<path d="M157.201 0.314453C157.653 0.314453 157.549 0.97492 158.487 0.97492C159.009 0.97492 159.078 0.696829 159.739 0.696829C161.581 0.696829 162.241 2.92156 163.528 2.92156C164.118 2.92156 164.153 2.53919 164.779 2.53919C164.988 2.53919 165.439 2.67823 165.613 2.85204C165.787 3.02585 166.135 3.3387 167.073 5.84152C167.178 6.11961 167.038 6.2239 166.899 6.2239C166.76 6.2239 166.482 6.08485 165.822 5.42439C165.474 5.04201 165.161 5.21582 163.562 4.20774C162.832 3.75584 162.102 3.06061 161.303 2.78252C160.503 2.46966 159.148 2.36538 158.661 2.26109C158 2.12205 156.923 1.60063 156.923 0.835875C156.853 0.523022 156.992 0.314453 157.201 0.314453Z" fill="#68737A"/>
<path d="M166.273 0C166.656 0 166.934 0.590944 167.316 0.97332C168.22 1.84236 169.645 1.28617 170.723 2.36378C171.001 2.64187 171.209 3.30234 171.209 3.92804C171.209 4.55375 171.07 5.21421 170.758 5.21421C169.993 5.21421 170.479 3.99756 168.95 3.05901C167.42 2.15521 167.142 2.08569 166.517 1.45998C165.891 0.834274 165.856 0.556183 165.856 0.417137C165.821 0.24333 165.96 0 166.273 0Z" fill="#68737A"/>
<path d="M173.191 2.88281C173.573 2.88281 173.469 3.40423 173.886 3.75185C174.303 4.09946 174.582 3.99518 175.172 4.58612C175.451 4.86421 175.485 5.03802 175.485 5.10754C175.485 5.17707 175.346 6.08087 174.408 6.08087C174.199 6.08087 174.025 6.0461 173.886 5.73325C173.678 5.28135 173.747 4.65565 173.295 4.0647C172.878 3.57804 172.809 3.54328 172.809 3.23043C172.809 2.95234 173.087 2.88281 173.191 2.88281Z" fill="#68737A"/>
<path d="M175.102 14.2891C175.346 14.2891 175.519 14.3586 175.519 14.5324C175.519 14.7062 175.241 14.7062 175.102 14.741C174.963 14.7757 173.92 14.9495 173.469 15.6795C173.399 15.7838 173.469 15.9229 173.538 15.9576C173.642 15.9924 174.789 16.5833 174.789 17.0005C174.789 17.4176 173.886 17.8347 173.642 17.8347C173.364 17.8347 173.26 17.5219 173.26 17.4524C173.26 17.3481 173.503 17.209 173.503 17.07C173.503 16.9657 173.295 16.7919 173.156 16.7919C173.017 16.7919 172.982 16.8614 172.912 17.1395C172.843 17.4524 172.565 18.6342 172.53 19.3642C172.46 20.0942 172.252 21.9713 172.252 22.2147C172.252 22.458 172.217 23.1185 171.696 23.5008C171.174 23.8832 170.722 24.1266 170.722 24.1266C170.722 24.1266 170.514 24.2656 170.444 24.2656C170.375 24.2656 170.201 24.0918 169.992 23.918C169.784 23.7442 169.541 23.7442 169.401 23.7442C169.123 23.7442 168.602 24.1613 168.185 24.1613C167.802 24.1613 167.003 23.7094 167.003 23.4661C167.003 23.3966 167.142 23.327 167.211 23.327C167.385 23.327 167.698 23.5356 168.081 23.5356C168.463 23.5356 168.811 23.188 169.297 23.188C169.575 23.188 170.236 23.327 170.757 23.327C171.279 23.327 171.487 23.188 171.557 23.0489C171.626 22.9099 171.8 22.7013 171.8 22.1104C171.8 21.5194 171.418 19.538 171.418 18.3214C171.418 17.1047 171.626 16.0619 172.252 15.4362C172.878 14.8105 174.164 14.2891 175.102 14.2891Z" fill="#68737A"/>
<path d="M175.867 17.7988C176.006 17.7988 176.18 17.9726 176.18 18.4941C176.18 19.0155 175.833 22.3178 174.929 24.6121C174.025 26.9063 173.782 26.9411 173.017 28.262C172.252 29.583 171.626 31.0082 170.792 31.8424C170.479 32.1553 169.993 32.5724 168.845 32.5724C167.698 32.5724 166.03 32.3291 164.187 31.5644C162.31 30.7996 160.468 29.722 159.356 28.6096C159.182 28.4358 159.286 28.2968 159.564 28.4358C159.842 28.5749 161.372 29.7568 164.257 30.6258C166.377 31.2515 166.934 31.2863 167.837 31.2863C168.672 31.2863 169.61 31.4253 170.653 30.3825C171.731 29.3049 172.6 27.532 172.982 26.8368C173.364 26.1416 174.129 24.9249 174.859 22.7002C175.589 20.4407 175.693 19.224 175.763 18.2507C175.728 17.9379 175.763 17.7988 175.867 17.7988Z" fill="#68737A"/>
<path d="M168.637 25.0977C169.054 25.0977 169.402 25.6886 169.819 25.6886C170.271 25.6886 170.41 25.2019 170.653 25.2019C170.931 25.2019 171.001 25.7581 171.07 25.9667C171.174 26.1753 171.244 26.2795 171.244 26.3143C171.244 26.3838 171.14 26.4533 171.035 26.4533C170.931 26.4533 170.723 26.2795 170.236 26.2795C169.888 26.2795 169.61 26.5229 169.575 26.5576C169.541 26.6272 169.471 26.5924 169.402 26.5576C169.263 26.4533 168.95 25.9667 168.428 25.9667C168.15 25.9667 167.803 26.1405 167.42 26.3838C167.038 26.6272 166.76 26.6967 166.412 26.6967C166.099 26.6967 165.717 26.5924 165.717 26.3838C165.717 26.2795 165.891 26.1753 165.995 26.1753C166.273 26.1753 166.586 26.2448 167.246 25.8624C167.768 25.5843 168.255 25.0977 168.637 25.0977Z" fill="#68737A"/>
<path d="M167.351 27.0758C167.559 27.0758 167.942 27.5277 169.054 27.5277C170.132 27.5277 170.41 27.041 170.653 27.041C170.792 27.041 170.792 27.1801 170.792 27.2496C170.792 27.2843 170.375 28.6748 169.263 28.6748C168.602 28.6748 167.907 28.1186 167.629 27.8753C167.385 27.632 167.177 27.3539 167.177 27.2496C167.212 27.1105 167.281 27.0758 167.351 27.0758Z" fill="#68737A"/>
<path d="M165.404 15.3642C166.168 15.3642 167.872 15.538 167.872 15.9899C167.872 16.2332 167.107 16.0246 166.516 16.0246C165.925 16.0246 165.855 16.0594 165.855 16.0942C165.855 16.1289 165.855 16.1637 165.925 16.1984C165.995 16.2332 166.342 16.6503 166.342 16.7894C166.342 17.2413 165.16 17.7279 164.882 17.7279C164.708 17.7279 164.395 17.5541 164.395 17.3456C164.395 17.2065 165.021 17.0327 165.021 16.8937C165.021 16.7546 164.674 16.4418 164.326 16.4418C163.978 16.4418 163.005 17.137 162.866 17.137C162.727 17.137 162.692 17.0327 162.692 16.9284C162.692 16.8241 162.796 16.6156 162.796 16.5461C162.796 16.2332 162.588 16.268 162.588 16.0246C162.588 15.8856 162.762 15.6423 163.735 15.5032C164.778 15.3294 165.021 15.3642 165.404 15.3642Z" fill="#68737A"/>
<path d="M164.953 13.1758C165.752 13.1758 167.421 13.3148 167.699 13.3496C167.977 13.4191 168.012 13.5234 168.012 13.5929C168.012 13.732 167.942 13.732 167.629 13.732C167.073 13.732 165.613 13.732 164.153 14.1839C161.859 14.8791 161.511 15.5743 161.129 15.5743C161.025 15.5743 160.816 15.4353 160.816 15.2962C160.816 15.1572 161.059 14.8096 161.059 14.5315C161.059 14.3577 160.851 14.1491 160.851 14.0101C160.851 13.6277 162.798 13.1758 164.953 13.1758Z" fill="#68737A"/>
<path d="M185.323 12.4785C186.505 12.4785 186.991 13.6256 186.991 15.0161C186.991 15.2247 186.887 15.5723 186.679 15.5723C186.4 15.5723 186.748 14.8075 186.053 14.8075C185.879 14.8075 185.566 14.9813 185.253 15.2594C184.975 15.5375 183.237 17.8665 181.986 21.7251C181.36 23.6717 181.082 24.8536 181.082 25.8964C181.082 26.5917 181.291 27.1131 181.291 27.3216C181.291 27.7388 180.839 27.4607 180.769 27.3564C180.595 27.0436 180.282 26.2093 180.282 25.0622C180.282 23.915 180.769 21.0298 181.673 18.1099C182.16 16.5456 183.515 12.4785 185.323 12.4785Z" fill="#68737A"/>
<path d="M181.881 31.1094C182.02 31.1094 182.159 31.1789 182.159 31.2484C182.159 31.3875 181.568 31.8741 181.325 32.1522C180.942 32.5694 180.803 33.2646 180.49 33.2646C180.386 33.2646 180.317 33.1255 180.317 33.0213C180.317 32.917 180.351 32.8474 180.351 32.7779C180.351 32.4303 179.899 32.5346 179.899 32.2565C179.899 32.0479 180.525 31.6308 180.803 31.457C181.081 31.3179 181.637 31.1094 181.881 31.1094Z" fill="#68737A"/>
<path d="M181.394 33.8574C181.568 33.8574 181.707 33.9269 181.707 33.9965C181.707 34.1703 181.012 34.5527 180.873 34.6917C180.734 34.8307 180.038 35.7693 179.899 36.2907C179.795 36.8121 179.621 36.986 179.448 36.986C179.135 36.986 179.308 36.4645 179.065 36.2907C178.891 36.1517 178.439 36.2212 178.439 35.8388C178.439 35.5955 178.857 35.1784 179.274 34.8307C179.726 34.4831 180.56 33.8574 181.394 33.8574Z" fill="#68737A"/>
<path d="M178.613 28.7461C178.787 28.7461 178.926 28.8156 178.996 28.9894C179.065 29.1285 179.03 29.2328 179.204 29.3718C179.343 29.5108 179.899 29.6151 179.899 29.8585C179.899 30.1018 179.621 30.1018 179.482 30.2061C179.343 30.3104 178.961 30.4842 178.648 30.9708C178.335 31.4922 178.196 32.1527 178.127 33.0565C178.057 33.9603 177.779 34.8641 177.292 35.6289C176.806 36.4631 176.041 37.0888 175.624 37.7841C175.276 38.375 175.38 39.0007 175.033 39.0007C174.685 39.0007 174.616 38.0274 174.616 37.6798C174.616 37.3322 174.72 36.185 175.589 35.3508C176.562 34.4122 177.397 34.3774 177.397 32.8479C177.397 31.9094 177.292 31.5965 177.292 31.0403C177.327 30.4842 177.536 28.7461 178.613 28.7461Z" fill="#68737A"/>
<path d="M153.412 16.2695C153.655 16.2695 153.655 16.5476 153.794 16.7214C153.933 16.8952 154.037 16.6867 154.246 16.93C154.455 17.1733 154.35 17.3124 154.524 17.4514C154.698 17.5905 154.941 17.5905 154.941 17.6947C154.976 18.2162 154.733 19.0504 154.733 20.3366C154.733 21.2404 154.872 22.2485 155.185 23.1523C155.324 23.5347 155.046 23.6042 154.906 23.3261C154.003 21.588 153.168 19.0852 153.168 17.1038C153.134 16.6171 153.238 16.2695 153.412 16.2695Z" fill="#68737A"/>
<path d="M152.229 18.1816C152.333 18.1816 152.403 18.2512 152.403 18.3902C152.403 18.5293 151.986 19.8502 151.395 20.6497C150.804 21.4492 149.831 22.4573 149.483 22.4573C149.344 22.4573 149.344 22.2835 149.309 22.214C149.274 22.1444 149.17 22.0054 149.379 21.7968C149.622 21.623 149.657 21.5187 149.657 21.3797C149.657 21.2406 149.552 21.0668 149.552 20.9626C149.552 20.8583 149.622 20.6149 149.796 20.5107C149.935 20.4411 150.873 19.9545 151.395 19.3288C151.881 18.7378 152.021 18.1816 152.229 18.1816Z" fill="#68737A"/>
<path d="M152.751 30.0634C152.855 29.0553 152.995 27.9082 153.064 26.9001C153.69 27.1782 154.142 27.5606 154.142 28.3253C154.142 29.2291 153.134 29.8548 152.751 30.0634ZM153.134 25.2315C153.134 25.0577 153.134 24.9187 153.134 24.7449C153.134 22.5897 152.682 21.1992 152.369 21.1992C151.952 21.1992 151.465 23.3197 151.256 24.432C150.561 24.2235 150.075 24.1887 149.692 24.1887C148.615 24.1887 148.406 24.432 148.406 24.7101C148.406 24.9882 148.649 25.4054 148.927 25.6487C149.588 26.3092 150.353 26.2744 151.048 26.3092C150.944 27.6648 150.805 29.3682 150.805 29.9939C150.805 30.2024 150.805 30.5153 150.839 30.8977C150.109 31.28 148.893 31.9405 148.476 32.3576C147.885 32.9486 147.815 33.2962 147.815 33.6786C147.815 35.1386 149.101 35.069 149.101 36.0771C149.101 36.4595 148.858 36.8766 149.171 36.8766C149.553 36.8766 149.866 36.1466 149.866 35.6947C149.866 35.2428 149.484 34.5129 149.484 34.0262C149.484 33.5743 149.623 33.0529 150.318 32.3576C150.457 32.2186 150.666 32.0796 150.874 31.9405C150.909 33.2614 150.978 34.7562 151.013 35.1038C151.048 35.6947 151.083 37.0852 151.361 37.0852C151.674 37.0852 152.195 34.4086 152.438 32.5662C152.508 32.1491 152.577 31.6277 152.647 31.0715C152.925 30.9324 153.203 30.7934 153.481 30.6196C154.733 29.8548 155.567 28.951 155.567 27.9429C155.567 26.6568 154.42 25.8573 153.134 25.2315Z" fill="#68737A"/>
<path d="M174.72 7.61235C175.936 7.95996 176.493 8.44662 176.493 9.17661C176.493 9.9066 176.214 9.97612 175.936 10.3237C175.763 10.6018 175.554 10.9842 175.589 12.0966C175.589 12.3399 175.519 12.4442 175.345 12.4442C175.172 12.4442 175.102 12.3747 175.102 12.2009C175.102 12.0966 175.172 12.027 175.172 11.9228C175.172 11.8185 175.206 11.2971 174.824 10.9494C173.746 9.97612 168.393 9.31566 165.021 9.31566C160.919 9.31566 157.617 10.1847 156.713 10.1847C155.045 10.1847 154.245 9.35042 154.245 8.72471C154.245 8.09901 154.628 7.99472 154.628 7.68187C154.628 7.36902 154.523 7.33425 154.523 7.09092C154.523 6.84759 154.732 6.32617 154.94 6.32617C155.253 6.32617 155.219 6.67379 155.497 7.19521C155.879 7.82091 156.644 8.65519 158.139 8.65519C159.459 8.65519 160.572 8.16853 162.484 7.71663C164.847 7.16045 166.725 6.91712 168.602 6.91712C169.471 6.91712 172.669 6.95188 174.72 7.61235Z" fill="#ED1B2D"/>
<path d="M139.368 7.95936C139.959 7.95936 139.298 8.20269 140.237 9.14125C140.654 9.55839 140.932 9.76695 141.94 9.76695C142.566 9.76695 143.435 9.62791 145.66 8.65459C146.529 8.27221 147.954 7.82031 148.962 7.82031C150.283 7.82031 151.291 8.44602 152.021 9.0022C152.751 9.52362 153.62 10.2884 154.002 10.5665C154.385 10.8793 154.941 11.1922 155.184 11.2965C155.393 11.366 155.428 11.505 155.358 11.6788C155.288 11.8526 155.045 12.235 154.976 12.3045C154.906 12.3741 154.663 12.5131 154.524 12.5826C154.385 12.6522 153.794 12.8955 153.099 13.4169C152.403 13.9383 151.221 14.5988 149.831 14.5988C148.406 14.5988 146.216 14.0426 145.034 14.0426C144.512 14.0426 143.782 14.3207 143.261 14.8421C143.052 15.0507 142.879 15.4331 142.74 15.5721C142.601 15.7112 142.149 15.9893 141.975 15.9893C141.801 15.9893 141.523 15.885 141.523 15.7112C141.523 15.3983 142.218 15.2593 142.218 14.7031C142.218 14.1469 142.044 14.1469 142.044 13.8688C142.044 13.6255 142.253 13.1736 142.566 12.826C143.261 12.1307 145.034 11.7136 146.668 11.7136C147.85 11.7136 150.109 12.235 151.639 12.235C152.299 12.235 152.82 12.1307 153.099 11.9917C153.516 11.8179 153.411 11.5745 153.238 11.5745C153.064 11.5745 153.099 11.6441 152.647 11.6441C152.264 11.6441 151.291 11.4007 150.491 10.8793C149.692 10.3579 148.406 9.59315 147.154 9.59315C145.903 9.59315 145.034 10.045 144.651 10.1841C143.748 10.5317 141.592 11.7484 140.445 11.7484C139.298 11.7484 137.977 11.1922 137.977 10.2189C137.977 9.24553 138.951 9.31506 138.951 8.72411C138.951 8.61983 138.916 8.5503 138.916 8.44602C138.846 8.34174 138.951 7.95936 139.368 7.95936Z" fill="#ED1B2D"/>
<path d="M127.403 9.96094V29.0561H137.977V26.7975H130.688V9.96094H127.403Z" fill="#ED1B2D"/>
<path d="M17.6584 19.0979H20.0196H20.7382C22.8941 19.0979 24.1261 17.8659 24.1261 15.5047C24.1261 14.1701 23.7154 12.0142 21.0462 12.0142H17.761V19.0979H17.6584ZM21.5595 9.96094C22.5861 9.96094 23.5101 9.96094 24.2287 10.2689C26.3846 11.0902 27.8219 12.7328 27.8219 15.402C27.8219 17.7632 26.3846 19.6112 24.3314 20.4325L29.9778 29.0561H25.974L21.0462 21.2537H17.6584V29.0561H14.1678V9.96094H21.5595Z" fill="#ED1B2D"/>
<path d="M6.77569 19.7138C9.75289 19.6112 10.1635 17.3526 10.1635 15.71C10.1635 12.3222 8.21296 11.9115 6.57036 11.9115H3.59317V19.6112L6.77569 19.7138ZM6.4677 9.96094C7.49432 9.96094 8.31562 9.96094 8.93159 10.0636C11.9088 10.5769 13.654 12.7328 13.654 15.9153C13.654 18.0712 12.6274 19.6112 11.0875 20.6378C9.95821 21.4591 8.41828 21.7671 6.4677 21.7671H3.4905V29.0561H0V9.96094H6.4677Z" fill="#ED1B2D"/>
<path d="M41.4762 29.0533C42.5028 28.5399 43.6321 27.7186 44.2481 26.8973H48.5599C50.2024 26.8973 51.4344 26.384 52.461 25.6654C54.3089 24.3308 55.4382 21.9696 55.4382 18.8897C55.4382 16.2205 53.8983 13.5513 52.461 12.8327C50.9211 12.0114 50.7158 11.9087 48.4572 11.9087H45.0693V21.9696C45.0693 24.1255 44.6587 25.6654 43.3241 26.8973C41.7842 28.4373 39.3203 29.3612 36.8564 29.3612C31.518 29.3612 28.3354 26.8974 28.3354 22.3802V9.85547H31.6206V21.9696C31.6206 22.8935 31.7233 23.6122 31.826 24.2281C32.3393 25.9734 34.3925 27 36.8564 27C40.0389 27 41.6815 25.2548 41.6815 21.9696V9.85547H49.6891C51.3317 9.85547 52.8717 10.0608 54.0009 10.5741C57.0808 11.9087 59.134 14.7832 59.134 19.095C59.134 23.9202 56.2595 28.9506 48.4572 28.9506L41.4762 29.0533Z" fill="#ED1B2D"/>
<path d="M108.617 9.96094H105.229V29.0561H108.617V9.96094Z" fill="#ED1B2D"/>
<path d="M88.2893 12.1168H95.065V29.0561H98.4528V12.1168H104.715V9.96094H85.8254V24.0256L74.3273 9.96094H71.4527V26.7975H62.3158V20.3298H70.2208V18.0712H62.3158V12.0142H70.6314V9.96094H58.928V29.0561H74.0193V15.094L85.6201 29.0561H88.2893V12.1168Z" fill="#ED1B2D"/>
<path d="M114.672 21.7671H120.934L117.752 14.1701L114.672 21.7671ZM119.497 9.96094L127.607 29.0561H123.912L121.858 24.0256H113.851L111.695 29.0561H108.615L116.93 9.96094H119.497Z" fill="#ED1B2D"/>
</svg>
