<svg width="96" height="96" viewBox="0 0 96 96" fill="none" xmlns="http://www.w3.org/2000/svg">
<path fill-rule="evenodd" clip-rule="evenodd" d="M88.4456 73.8597L73.4859 58.9001L37.531 94.855C40.9009 95.6046 44.4043 96 48 96C64.9878 96 79.9144 87.1752 88.4456 73.8597ZM93.8392 62.2828C95.2435 57.7711 96 52.9739 96 48C96 44.4043 95.6046 40.9009 94.855 37.531L81.9712 50.4148L93.8392 62.2828ZM90.2377 25.1777L73.4859 41.9295L33.7172 2.16081C38.2289 0.756533 43.0261 0 48 0C66.2487 0 82.1188 10.1835 90.2377 25.1777ZM22.1403 7.55443C8.82484 16.0856 0 31.0122 0 48C0 66.2487 10.1835 82.1188 25.1777 90.2377L65.0006 50.4148L22.1403 7.55443Z" fill="#201F1F"/>
</svg>
