<svg width="65" height="64" viewBox="0 0 65 64" fill="none" xmlns="http://www.w3.org/2000/svg">
<path fill-rule="evenodd" clip-rule="evenodd" d="M25.3713 8C16.4206 8 9.02021 14.8015 7.92181 23.444C3.54458 25.3628 0.5 29.7268 0.5 34.6535C0.5 38.7622 2.57656 42.4486 5.76803 44.6855L6.9744 41.6232C4.94824 39.9371 3.66832 37.4159 3.66832 34.6535C3.66832 30.7842 6.2509 27.3147 9.91438 26.0656L10.9115 25.7256L10.9836 24.6746C11.4977 17.1832 17.7737 11.1683 25.3713 11.1683C29.4516 11.1683 33.1978 12.8333 35.9286 15.8212L36.7675 16.7391L37.8583 16.1422C39.534 15.2253 41.3416 14.7327 43.1931 14.7327C48.8375 14.7327 53.5204 19.1572 54.019 24.7079L54.1113 25.7353L55.0883 26.0665C58.6936 27.2886 61.3317 30.6709 61.3317 34.6535C61.3317 38.0248 59.408 41.0269 56.5787 42.6004V46.0926C61.1944 44.2983 64.5 39.8251 64.5 34.6535C64.5 29.5879 61.3747 25.3032 57.0494 23.4297C55.9666 16.7621 50.1794 11.5644 43.1931 11.5644C41.1783 11.5644 39.2318 12.0112 37.4251 12.8219C34.1842 9.72115 29.9378 8 25.3713 8Z" fill="#B7B6B5"/>
<path d="M13.8887 32.667H18.8828L27.5498 55.4789H22.7491L20.8159 50.0308H11.9878L10.0546 55.4789H5.25391L13.8887 32.667ZM19.3983 46.0801L17.3684 40.3453L16.5307 37.6053H16.273L15.4353 40.3453L13.3732 46.0801H19.3983Z" fill="#74060E"/>
<path d="M30.6648 32.667H38.7841C40.2447 32.667 41.5765 32.975 42.7793 33.5909C43.9822 34.1857 44.9273 35.0353 45.6146 36.1397C46.302 37.223 46.6457 38.4655 46.6457 39.8674C46.6457 41.2692 46.302 42.5224 45.6146 43.6269C44.9273 44.7314 43.9822 45.5916 42.7793 46.2076C41.5765 46.8023 40.2447 47.0996 38.7841 47.0996H35.0144V55.4789H30.6648V32.667ZM38.913 43.0215C39.987 43.0215 40.8247 42.7136 41.4261 42.0976C42.049 41.4816 42.3605 40.7382 42.3605 39.8674C42.3605 38.9965 42.049 38.2638 41.4261 37.669C40.8247 37.0531 39.987 36.7451 38.913 36.7451H35.0144V43.0215H38.913Z" fill="#74060E"/>
<path d="M50.168 32.667H54.5176V55.4789H50.168V32.667Z" fill="#74060E"/>
</svg>
