<svg width="64" height="64" viewBox="0 0 64 64" fill="none" xmlns="http://www.w3.org/2000/svg">
<g clip-path="url(#clip0)">
<path d="M32 64C49.6731 64 64 49.6731 64 32C64 14.3269 49.6731 0 32 0C14.3269 0 0 14.3269 0 32C0 49.6731 14.3269 64 32 64Z" fill="#5C2D91"/>
<path opacity="0.1" d="M9.82011 9C6.56707 11.8988 3.94031 15.4314 2.10082 19.3813C0.261341 23.3312 -0.752104 27.6152 -0.877392 31.9706C-1.00268 36.326 -0.237173 40.6611 1.37221 44.7102C2.98159 48.7594 5.40094 52.4371 8.48196 55.5182C11.563 58.5992 15.2408 61.0185 19.2899 62.6279C23.339 64.2373 27.6741 65.0028 32.0295 64.8775C36.3849 64.7522 40.6689 63.7388 44.6188 61.8993C48.5687 60.0598 52.1013 57.433 55.0001 54.18L9.82011 9Z" fill="white"/>
<path d="M7.40036 37.2485C7.21369 37.2515 7.02844 37.2157 6.85632 37.1434C6.6842 37.0711 6.52894 36.9639 6.40036 36.8285C6.26825 36.698 6.16384 36.5422 6.09339 36.3703C6.02294 36.1985 5.98789 36.0142 5.99036 35.8285C5.98902 35.643 6.02458 35.459 6.09497 35.2874C6.16535 35.1157 6.26916 34.9597 6.40036 34.8285C6.52768 34.6909 6.68247 34.5815 6.85473 34.5074C7.02698 34.4333 7.21286 34.3963 7.40036 34.3985C7.58758 34.3981 7.7729 34.436 7.9449 34.51C8.11689 34.5839 8.2719 34.6923 8.40036 34.8285C8.53381 34.9586 8.63977 35.1141 8.71192 35.2859C8.78407 35.4577 8.82095 35.6422 8.82036 35.8285C8.8221 36.015 8.78575 36.1999 8.71353 36.3719C8.64131 36.5438 8.53474 36.6992 8.40036 36.8285C8.27068 36.9625 8.11522 37.0687 7.94335 37.1409C7.77148 37.2131 7.58677 37.2497 7.40036 37.2485Z" fill="white"/>
<path d="M27.2698 36.9995H24.6498L15.2798 22.4595C15.0464 22.1013 14.852 21.7191 14.6998 21.3195H14.6198C14.7089 22.1497 14.7423 22.9849 14.7198 23.8195V36.9995H12.5898V18.7695H15.3598L24.4798 33.0495C24.8598 33.6429 25.1065 34.0495 25.2198 34.2695H25.2698C25.1643 33.3803 25.1209 32.4848 25.1398 31.5895V18.7695H27.2698V36.9995Z" fill="white"/>
<path d="M41.69 36.9995H32V18.7695H41.24V20.6995H34.18V26.7595H40.76V28.6795H34.18V34.9995H41.7L41.69 36.9995Z" fill="white"/>
<path d="M56.0001 20.6995H50.7001V36.9995H48.5701V20.6995H43.3301V18.7695H56.0001V20.6995Z" fill="white"/>
<path d="M26.1202 49.4012C25.3983 49.7508 24.6019 49.919 23.8002 49.8912C23.2675 49.9152 22.7358 49.825 22.2408 49.6266C21.7458 49.4283 21.299 49.1264 20.9302 48.7412C20.1955 47.9187 19.8083 46.8433 19.8502 45.7412C19.8233 45.1444 19.9166 44.5484 20.1244 43.9884C20.3323 43.4284 20.6505 42.9158 21.0602 42.4812C21.4595 42.0721 21.9395 41.7506 22.4698 41.5372C23 41.3237 23.5689 41.2229 24.1402 41.2412C24.824 41.2178 25.5051 41.337 26.1402 41.5912V42.5912C25.5287 42.2526 24.8391 42.0802 24.1402 42.0912C23.6996 42.0787 23.2615 42.1617 22.8559 42.3343C22.4503 42.5069 22.0868 42.765 21.7902 43.0912C21.1666 43.8017 20.8438 44.7269 20.8902 45.6712C20.8435 46.5656 21.1445 47.4435 21.7302 48.1212C22.0112 48.4233 22.3541 48.661 22.7356 48.8181C23.1171 48.9752 23.528 49.0478 23.9402 49.0312C24.708 49.0513 25.4663 48.8574 26.1302 48.4712L26.1202 49.4012Z" fill="#F2F2F2"/>
<path d="M30.2097 49.8885C29.8116 49.9014 29.4154 49.8286 29.0479 49.675C28.6804 49.5215 28.3502 49.2908 28.0797 48.9985C27.5328 48.3883 27.2489 47.5869 27.2897 46.7685C27.2647 46.3397 27.3252 45.9103 27.4677 45.5052C27.6102 45.1 27.8318 44.7272 28.1197 44.4085C28.4134 44.1218 28.7629 43.8984 29.1465 43.7522C29.5301 43.606 29.9396 43.5401 30.3497 43.5585C30.7373 43.5379 31.1248 43.6013 31.4856 43.7446C31.8463 43.8879 32.1718 44.1075 32.4397 44.3885C32.9712 45.029 33.2393 45.8476 33.1897 46.6785C33.2316 47.5217 32.9407 48.3477 32.3797 48.9785C32.104 49.2764 31.7677 49.5118 31.3933 49.6688C31.019 49.8258 30.6154 49.9007 30.2097 49.8885ZM30.2797 44.4185C30.0046 44.4069 29.7304 44.4576 29.4777 44.5666C29.2249 44.6757 29 44.8404 28.8197 45.0485C28.4349 45.544 28.243 46.1622 28.2797 46.7885C28.2447 47.3961 28.4372 47.995 28.8197 48.4685C29.0018 48.6736 29.2273 48.8357 29.4798 48.9429C29.7324 49.0501 30.0056 49.0999 30.2797 49.0885C30.548 49.1043 30.8164 49.0585 31.0643 48.9545C31.3122 48.8505 31.533 48.6911 31.7097 48.4885C32.0732 47.9917 32.2502 47.3828 32.2097 46.7685C32.2492 46.1512 32.0724 45.5395 31.7097 45.0385C31.5354 44.8317 31.3156 44.6681 31.0675 44.5605C30.8194 44.4529 30.5497 44.4043 30.2797 44.4185Z" fill="#F2F2F2"/>
<path d="M37.8597 44.72C37.6437 44.5785 37.3873 44.5118 37.1297 44.53C36.9283 44.5373 36.7317 44.5941 36.5573 44.6952C36.383 44.7964 36.2361 44.9388 36.1297 45.11C35.8321 45.5812 35.6888 46.1335 35.7197 46.69V49.75H34.7197V43.75H35.7197V45C35.8297 44.6132 36.0483 44.2662 36.3497 44C36.6105 43.7737 36.9444 43.6494 37.2897 43.65C37.483 43.6413 37.6763 43.6685 37.8597 43.73V44.72Z" fill="#F2F2F2"/>
<path d="M43.7204 47.0012H39.4904C39.462 47.5602 39.6439 48.1096 40.0004 48.5412C40.1857 48.7261 40.408 48.8697 40.6527 48.9628C40.8974 49.0558 41.159 49.0962 41.4204 49.0812C42.0982 49.0744 42.7539 48.8383 43.2804 48.4112V49.3112C42.6621 49.7187 41.9299 49.9184 41.1904 49.8812C40.8172 49.9 40.4445 49.8363 40.0988 49.6946C39.7531 49.5528 39.4429 49.3366 39.1904 49.0612C38.6698 48.4118 38.4095 47.5919 38.4604 46.7612C38.4244 45.9284 38.7069 45.1132 39.2504 44.4812C39.4977 44.1955 39.8054 43.9683 40.1513 43.8161C40.4972 43.6639 40.8726 43.5905 41.2504 43.6012C41.5914 43.5821 41.9324 43.6405 42.2476 43.7722C42.5629 43.9038 42.8442 44.1052 43.0704 44.3612C43.5308 44.9684 43.7579 45.7207 43.7104 46.4812L43.7204 47.0012ZM42.7204 46.1912C42.7406 45.7278 42.5992 45.2718 42.3204 44.9012C42.1835 44.7466 42.0135 44.6249 41.823 44.5453C41.6325 44.4656 41.4265 44.43 41.2204 44.4412C41.0052 44.4386 40.7918 44.4808 40.5938 44.5651C40.3958 44.6495 40.2175 44.7742 40.0704 44.9312C39.7412 45.2794 39.5342 45.7251 39.4804 46.2012L42.7204 46.1912Z" fill="#F2F2F2"/>
</g>
<defs>
<clipPath id="clip0">
<rect width="64" height="64" fill="white"/>
</clipPath>
</defs>
</svg>
