<svg width="277" height="64" viewBox="0 0 277 64" fill="none" xmlns="http://www.w3.org/2000/svg">
<g clip-path="url(#clip0)">
<path d="M274.985 27.7517L248.991 1.75769C246.645 -0.588369 242.841 -0.588378 240.495 1.75768L214.501 27.7517C212.155 30.0978 212.155 33.9015 214.501 36.2476L240.495 62.2416C242.841 64.5877 246.645 64.5877 248.991 62.2416L274.985 36.2476C277.331 33.9015 277.331 30.0978 274.985 27.7517Z" fill="#9BBD4C"/>
<path d="M238.681 46.4344C240.181 45.1776 241.504 45.0017 242.87 46.1956C244.236 47.3896 245.384 47.0335 246.775 46.1956C250.051 44.2141 253.415 42.3708 256.774 40.5359C257.801 39.9745 258.274 39.3419 258.249 38.0935C258.157 34.0508 258.178 30.0039 258.249 25.9445C258.249 24.8385 257.964 24.1892 256.946 23.6404C253.276 21.6463 249.649 19.5684 246.054 17.4654C245.687 17.2051 245.248 17.0653 244.797 17.0653C244.347 17.0653 243.908 17.2051 243.541 17.4654C239.871 19.6019 236.163 21.684 232.451 23.7493C231.722 24.1682 231.312 24.5872 231.32 25.5172C231.371 29.8406 231.32 34.1639 231.354 38.504C231.354 40.1421 235.673 42.6933 237.152 42.0063C238.17 41.5329 238.187 40.6448 238.187 39.7064C238.187 35.5925 238.187 31.4744 238.187 27.3605C238.187 26.4765 237.956 25.513 239.443 25.4921C240.931 25.4711 240.654 26.5017 240.658 27.3479C240.658 31.6043 240.688 35.8564 240.658 40.1127C240.633 43.7616 238.245 45.4667 234.793 44.1638C233.186 43.4813 231.644 42.6555 230.185 41.6963C229.238 41.1182 228.857 40.163 228.865 39.0151C228.891 34.4153 228.891 29.807 228.865 25.1904C228.865 23.699 229.502 22.7187 230.788 22.0024C234.807 19.7681 238.807 17.5031 242.786 15.2073C243.367 14.8205 244.048 14.612 244.745 14.6075C245.443 14.603 246.126 14.8028 246.712 15.1822C250.692 17.4835 254.692 19.7485 258.714 21.9772C260.004 22.6936 260.65 23.653 260.637 25.1527C260.598 29.7554 260.598 34.3636 260.637 38.9774C260.672 39.6053 260.52 40.2295 260.201 40.7714C259.882 41.3134 259.41 41.7488 258.844 42.0231C254.843 44.2853 250.851 46.5643 246.842 48.8139C246.21 49.198 245.484 49.3993 244.744 49.3956C244.005 49.3919 243.28 49.1833 242.652 48.793C241.366 48.0389 240.08 47.2639 238.681 46.4344Z" fill="#FFFFFE"/>
<path d="M248.291 39.3294C246.276 39.2372 243.838 39.1618 242.426 36.7823C242.007 36.0827 241.27 34.9725 242.259 34.386C243.118 33.8749 244.069 34.0634 244.647 35.4375C245.485 37.4107 251.014 37.8129 252.317 36.1162C253.201 34.9641 252.736 34.0969 251.421 33.8079C249.795 33.4476 248.128 33.2675 246.486 32.97C245.229 32.7606 243.997 32.4883 243.101 31.508C241.484 29.7401 242.204 26.8997 244.655 25.8273C245.902 25.278 247.254 25.0056 248.616 25.0287C249.979 25.0518 251.32 25.37 252.548 25.9613C253.057 26.2008 253.506 26.5506 253.864 26.9853C254.221 27.4201 254.477 27.9289 254.613 28.4749C254.768 28.9818 255.107 29.7317 254.416 29.9244C253.725 30.1171 252.962 30.3433 252.321 29.5599C250.767 27.591 248.61 26.9123 246.377 27.6077C245.602 27.8465 244.936 28.2738 244.94 29.1745C244.944 30.0752 245.702 30.2805 246.385 30.4313C248.094 30.7539 249.825 30.9717 251.53 31.3111C254.215 31.8473 255.2 32.7941 255.3 34.7672C255.392 36.9205 254.236 38.2863 251.777 39.0236C250.75 39.3084 249.716 39.3126 248.291 39.3294Z" fill="#FEFEFD"/>
<path d="M27.7517 1.75607L1.75768 27.7501C-0.588377 30.0962 -0.588377 33.8999 1.75768 36.246L27.7517 62.24C30.0978 64.5861 33.9015 64.5861 36.2476 62.24L62.2416 36.246C64.5877 33.8999 64.5877 30.0962 62.2416 27.7501L36.2476 1.75607C33.9015 -0.589985 30.0978 -0.589985 27.7517 1.75607Z" fill="#3C3C3B"/>
<path d="M37.3091 21.7008C38.7665 23.8236 39.6261 26.2995 39.7975 28.8687C40.3966 30.7958 39.542 31.6379 37.6736 31.8431C36.0858 32.0191 34.5358 33.1544 32.9229 31.9395C32.6606 31.5546 32.5152 31.1022 32.5039 30.6366C32.4202 29.4343 32.6296 28.211 32.2903 27.0212C32.0808 24.8638 31.7792 22.6979 32.7469 20.3184C33.6979 23.4184 35.6501 21.9312 37.3091 21.7008Z" fill="#258D44"/>
<path d="M31.3485 45.3876C31.0846 45.1823 30.8206 44.9686 30.5525 44.7759C29.5974 43.6197 29.2538 42.1911 28.7553 40.8254C27.3812 37.055 26.1621 33.2134 24.9179 29.3886C24.566 28.2952 24.235 27.1264 24.654 25.9408C24.7659 24.6174 25.1971 23.3408 25.9108 22.2207C26.7486 23.0586 26.7863 24.2399 27.1382 25.2831C28.1856 28.3832 29.0611 31.5419 30.2844 34.5833C31.4478 37.5739 32.061 40.7502 32.0942 43.959C32.1504 44.2464 32.1073 44.5444 31.9718 44.804C31.8362 45.0636 31.6164 45.2694 31.3485 45.3876Z" fill="#27A149"/>
<path d="M33.0617 31.8757C35.1899 32.437 37.0625 31.2096 39.0818 30.954C40.1626 30.82 39.2996 29.4961 39.7939 28.8594C40.5564 31.7919 40.1165 34.5862 38.9561 37.326C37.5569 38.7461 35.6046 38.5032 33.8954 38.9472C33.7917 38.9707 33.6844 38.9736 33.5796 38.9555C33.4748 38.9375 33.3745 38.899 33.2847 38.8422C33.1948 38.7853 33.117 38.7114 33.0557 38.6244C32.9944 38.5375 32.9509 38.4393 32.9277 38.3356C32.802 36.1865 31.8845 34.008 33.0617 31.8757Z" fill="#208843"/>
<path d="M24.654 25.9395C24.7211 28.3274 25.8857 30.4178 26.556 32.6423C27.7876 36.7185 29.212 40.7361 30.5526 44.7913C24.8467 40.4135 22.4044 32.6172 24.654 25.9395Z" fill="#1B9C49"/>
<path d="M26.7776 20.5644C27.1587 19.6209 27.729 18.7655 28.4533 18.0508C30.0495 19.7684 30.1291 22.1144 30.9921 24.1462C31.545 25.47 32.2572 26.8106 31.6372 28.3607C31.6651 28.3108 31.6989 28.2643 31.7377 28.2224C32.1274 27.904 32.3452 28.1261 32.5337 28.4654C32.7055 31.3017 32.7055 34.1459 32.5337 36.9823C31.7922 37.9207 31.3523 37.0618 31.2267 36.601C29.8693 31.6576 27.8291 26.9279 26.5556 21.9594C26.4908 21.7245 26.477 21.4785 26.5153 21.2378C26.5536 20.9972 26.6431 20.7675 26.7776 20.5644Z" fill="#43AA4A"/>
<path d="M33.0618 31.8764C32.9974 33.8839 33.0843 35.8935 33.3215 37.888C33.5017 39.0526 34.306 38.5834 34.8213 38.4703C36.2205 38.1645 37.5904 37.7204 38.9687 37.335C38.1309 40.7661 35.8603 43.1582 33.2503 45.2947C31.8385 44.8758 32.0396 43.5101 31.6123 42.513C31.7631 40.8876 31.5034 39.2244 32.0564 37.6367C32.8942 35.3954 32.1904 33.0619 32.4753 30.7871C32.493 30.7293 32.5246 30.6766 32.5672 30.6336C32.6098 30.5907 32.6623 30.5587 32.72 30.5406C32.7778 30.5224 32.8391 30.5186 32.8986 30.5295C32.9582 30.5403 33.0142 30.5655 33.0618 30.6028C33.0576 31.0427 33.0576 31.4616 33.0618 31.8764Z" fill="#1F8441"/>
<path d="M32.6468 30.6236C32.4206 32.9948 33.0992 35.4204 32.2278 37.7454C32.1827 37.7135 32.1476 37.6693 32.1269 37.6181C32.1061 37.5668 32.1004 37.5107 32.1105 37.4564C32.1105 37.3516 32.1608 37.3014 32.1901 37.3014V28.0849C31.0548 25.1105 31.7251 22.023 31.6539 18.9857C31.6204 17.6493 31.1847 16.1747 32.2614 14.9766C33.8617 17.2723 36.3501 18.9019 37.2885 21.6794C36.4507 23.4641 34.4649 22.1696 33.3548 23.2253C32.7012 22.5424 33.3296 21.6836 32.6216 20.7117V26.8532C32.9441 28.0883 32.9528 29.3844 32.6468 30.6236Z" fill="#249146"/>
<path d="M32.2037 37.3102L32.2581 37.7543C32.1241 39.4468 31.9914 41.1393 31.8602 42.8317C32.0361 43.2507 32.2037 43.6696 31.7261 44.0215C31.4593 40.6033 30.7321 37.2368 29.5644 34.0133C28.2657 30.6115 27.21 27.1218 26.0831 23.6573C25.9759 23.1803 25.9253 22.6924 25.9323 22.2036C26.0153 21.5728 26.3109 20.9891 26.7701 20.5488C27.6792 24.9183 29.422 29.0238 30.8421 33.2257C31.3072 34.5956 31.0013 36.2084 32.2037 37.3102Z" fill="#35A549"/>
<path d="M32.2573 14.9927C32.2573 19.3635 32.2391 23.733 32.2028 28.101L31.499 29.119C31.4027 25.0638 29.2536 21.75 28.4492 18.0425C28.8617 17.338 29.4361 16.742 30.1249 16.3039C31.52 17.8582 31.8635 19.3412 31.4865 21.8673C31.9054 19.492 30.7785 17.0999 31.4865 14.7455C31.5325 14.4523 31.763 14.2595 31.985 14.3727C32.207 14.4858 32.1819 14.7706 32.2573 14.9927Z" fill="#56B358"/>
<path d="M31.4828 14.7285C32.2075 17.2128 31.6001 19.7138 31.621 22.2316C31.7006 20.0908 30.7538 18.235 30.1045 16.3037C30.5653 15.7675 31.0247 15.2424 31.4828 14.7285Z" fill="#63B761"/>
<path d="M31.7083 44.0218C31.7502 43.6029 31.7963 43.23 31.8382 42.832L33.25 45.3163C33.0615 45.7352 32.8688 46.1542 32.6803 46.5731C32.1398 46.5731 32.6593 47.6874 31.8424 47.3691C31.679 46.7071 31.5198 46.041 31.3564 45.3791L31.7083 44.0218Z" fill="#A9A483"/>
<path d="M31.8384 47.375C32.3704 47.375 31.8635 46.2732 32.6762 46.579C32.7266 46.8455 32.7379 47.1179 32.7097 47.3876C32.4961 48.1877 33.3004 49.6749 32.4919 49.6749C31.2854 49.6707 31.964 48.2129 31.8384 47.375Z" fill="#BAB79D"/>
<path d="M32.6465 30.6239C32.6465 29.3671 32.6465 28.1103 32.6465 26.8535C33.4844 28.0349 32.8769 29.3671 33.0654 30.6239H32.6465Z" fill="#208843"/>
<path d="M98.6678 1.75607L72.6737 27.7501C70.3276 30.0962 70.3276 33.8999 72.6737 36.246L98.6678 62.24C101.014 64.5861 104.818 64.5861 107.164 62.24L133.158 36.246C135.504 33.8999 135.504 30.0962 133.158 27.7501L107.164 1.75608C104.818 -0.589983 101.014 -0.589985 98.6678 1.75607Z" fill="#F7932D"/>
<path d="M110.22 35.19C110.22 40.3806 110.22 40.3806 105.193 40.3806H95.6074C97.6183 40.0831 97.7021 38.6085 97.7021 37.0961C97.7021 33.6106 97.7021 30.1251 97.7021 26.6229C97.7021 25.165 97.4884 23.9375 95.6577 23.6191H108.376C109.001 23.6191 109.474 23.7281 109.457 24.5115C109.487 25.7749 109.389 27.0381 109.164 28.2818C108.293 25.1692 106.16 24.369 103.383 24.4277C102.243 24.4528 101.728 24.7 101.816 25.9358C101.912 27.2555 101.816 28.5877 101.858 29.9073C101.883 30.4603 101.464 31.3065 102.361 31.4825C103.052 31.6207 103.693 31.2227 104.204 30.7033C104.941 29.9534 104.782 28.7804 105.62 27.578V36.1871C104.715 35.4204 104.991 34.2809 104.363 33.5687C103.735 32.8566 103.077 32.3119 102.231 32.5717C101.502 32.7853 101.887 33.6483 101.845 34.2474C101.787 35.0099 101.845 35.7807 101.845 36.5473C101.845 39.5469 102.541 40.0622 105.498 39.4798C107.916 38.9604 109.277 37.3601 110.22 35.19Z" fill="#FFFEFD"/>
<path d="M169.581 1.75998L143.587 27.754C141.241 30.1001 141.241 33.9038 143.587 36.2499L169.581 62.2439C171.927 64.59 175.731 64.59 178.077 62.2439L204.071 36.2499C206.417 33.9038 206.417 30.1001 204.071 27.754L178.077 1.75998C175.731 -0.586076 171.927 -0.586079 169.581 1.75998Z" fill="#E03636"/>
<path d="M173.831 14.6699L158.054 20.338L160.354 41.7328L173.831 49.328L187.308 41.7328L189.608 20.338L173.831 14.6699Z" fill="#B4B4B4"/>
<path d="M160.312 21.8437L162.319 40.528L173.831 47.013V16.9883L160.312 21.8437Z" fill="#E02F31"/>
<path d="M173.831 16.9883V47.013L185.339 40.528L187.346 21.8437L173.831 16.9883Z" fill="#B02B2D"/>
<path d="M173.831 17.7363L173.76 17.8913V25.3022L173.831 25.1514L176.931 31.8375H173.76V34.7784H178.284L180.639 40.0905H184.132L173.831 17.7363Z" fill="#B4B4B4"/>
<path d="M170.583 31.8388L173.759 25.3035V17.8926L163.524 40.0917H167.446L169.515 34.7797H173.759V31.8388H170.583Z" fill="#F3F1F1"/>
</g>
<defs>
<clipPath id="clip0">
<rect width="276.745" height="64" fill="white"/>
</clipPath>
</defs>
</svg>
