<svg width="64" height="64" viewBox="0 0 64 64" fill="none" xmlns="http://www.w3.org/2000/svg">
<g clip-path="url(#clip0)">
<path d="M39.6304 55.5604V57.5604C39.6223 58.2952 39.3534 59.0032 38.8717 59.5582C38.39 60.1132 37.7268 60.479 37.0004 60.5904L36.5204 62.3604C36.3966 62.8307 36.1204 63.2468 35.735 63.5435C35.3496 63.8402 34.8768 64.0009 34.3904 64.0004H29.6104C29.124 64.0009 28.6511 63.8402 28.2658 63.5435C27.8804 63.2468 27.6042 62.8307 27.4804 62.3604L27.0004 60.5904C26.2637 60.4757 25.5925 60.101 25.1082 59.5342C24.624 58.9674 24.3587 58.2459 24.3604 57.5004V55.5004C24.3591 55.2526 24.4067 55.0071 24.5006 54.7778C24.5945 54.5486 24.7328 54.3402 24.9075 54.1645C25.0822 53.9889 25.2899 53.8495 25.5186 53.7544C25.7474 53.6593 25.9926 53.6103 26.2404 53.6104H37.7404C37.9929 53.6129 38.2424 53.6656 38.4745 53.7652C38.7065 53.8649 38.9165 54.0096 39.0923 54.1909C39.2681 54.3723 39.4061 54.5867 39.4985 54.8218C39.5909 55.0568 39.6357 55.3079 39.6304 55.5604Z" fill="#B6B6B5"/>
<path d="M31.9 12.74C28.6778 12.7617 25.5328 13.7276 22.8538 15.5181C20.1749 17.3086 18.0796 19.8451 16.8271 22.8139C15.5747 25.7828 15.22 29.0536 15.8071 32.2219C16.3941 35.3902 17.897 38.3169 20.13 40.64C22.2982 42.9012 23.7191 45.7743 24.2 48.87C24.2984 49.5112 24.6245 50.0955 25.1185 50.516C25.6124 50.9365 26.2413 51.1651 26.89 51.16H37.11C37.7602 51.1609 38.3894 50.9298 38.8843 50.5082C39.3793 50.0865 39.7075 49.5021 39.81 48.86C40.2652 45.7764 41.6623 42.9089 43.81 40.65C46.0647 38.315 47.5792 35.3659 48.1633 32.1729C48.7474 28.98 48.375 25.6857 47.0929 22.7037C45.8108 19.7218 43.6761 17.1852 40.957 15.4124C38.238 13.6397 35.0557 12.71 31.81 12.74H31.9ZM32 21.1C29.8322 21.1 27.7531 21.9604 26.2194 23.4923C24.6856 25.0242 23.8226 27.1022 23.82 29.27C23.82 29.7633 23.624 30.2364 23.2752 30.5852C22.9264 30.934 22.4533 31.13 21.96 31.13C21.4666 31.13 20.9936 30.934 20.6447 30.5852C20.2959 30.2364 20.1 29.7633 20.1 29.27C20.1052 26.1164 21.361 23.0937 23.5918 20.8648C25.8227 18.6358 28.8464 17.3826 32 17.38C32.4933 17.38 32.9664 17.5759 33.3152 17.9247C33.664 18.2736 33.86 18.7467 33.86 19.24C33.86 19.7333 33.664 20.2064 33.3152 20.5552C32.9664 20.904 32.4933 21.1 32 21.1Z" fill="#741213"/>
<path d="M62.76 3.82009H58.54V2.38009C58.5512 2.10375 58.4697 1.83161 58.3084 1.60693C58.1471 1.38224 57.9154 1.21792 57.65 1.14009C54.7282 0.376536 51.72 -0.00663046 48.7 8.68044e-05C43.74 8.68044e-05 37 1.12009 32 6.20009C27 1.07009 20.21 8.68044e-05 15.26 8.68044e-05C12.24 -0.00663046 9.23185 0.376536 6.31 1.14009C6.04553 1.21945 5.81477 1.38415 5.65376 1.60847C5.49276 1.8328 5.41056 2.10412 5.42 2.38009V3.81009H1.24C0.911132 3.81009 0.595733 3.94073 0.363188 4.17327C0.130642 4.40582 0 4.72122 0 5.05009L0 44.6701C0 44.999 0.130642 45.3144 0.363188 45.5469C0.595733 45.7794 0.911132 45.9101 1.24 45.9101C1.4539 45.9116 1.66438 45.8564 1.85 45.7501C6.66678 43.4376 11.902 42.1245 17.24 41.8901C16.5988 41.148 16.0138 40.3592 15.49 39.5301C11.0234 39.9361 6.64211 41.0044 2.49 42.7001V6.30009H5.49V37.4201C5.48732 37.7472 5.61404 38.0622 5.84256 38.2963C6.07108 38.5305 6.38287 38.6648 6.71 38.6701H6.91C9.46357 38.2589 12.0438 38.035 14.63 38.0001C14.2391 37.2116 13.9049 36.3962 13.63 35.5601C11.711 35.5932 9.79504 35.7267 7.89 35.9601V3.36009C10.3033 2.8225 12.7676 2.54756 15.24 2.54009C19.88 2.54009 26.24 3.61009 30.73 8.62009V9.80009C31.11 9.80009 31.49 9.74009 31.88 9.74009H32C32.41 9.74009 32.81 9.74009 33.21 9.80009V8.62009C37.66 3.62009 44.06 2.54009 48.7 2.54009C51.1724 2.54756 53.6367 2.8225 56.05 3.36009V36.0001C54.1647 35.7683 52.269 35.6314 50.37 35.5901C50.0926 36.4285 49.7585 37.2471 49.37 38.0401C51.9778 38.0498 54.5814 38.2503 57.16 38.6401C57.4805 38.6926 57.8088 38.6172 58.0743 38.4302C58.3398 38.2432 58.5214 37.9595 58.58 37.6401C58.5853 37.5735 58.5853 37.5066 58.58 37.4401V6.30009H61.58L61.53 42.7001C57.3751 41.013 52.9951 39.9449 48.53 39.5301C48.0037 40.3486 47.4223 41.1304 46.79 41.8701C56.17 42.4201 62.1 45.6701 62.15 45.7501C62.3388 45.858 62.5525 45.9147 62.77 45.9147C62.9875 45.9147 63.2012 45.858 63.39 45.7501C63.5768 45.6411 63.7315 45.4848 63.8386 45.2969C63.9457 45.1091 64.0014 44.8963 64 44.6801V5.06009C63.9974 4.73203 63.8659 4.41814 63.6339 4.18616C63.4019 3.95418 63.0881 3.8227 62.76 3.82009Z" fill="#B6B6B5"/>
</g>
<defs>
<clipPath id="clip0">
<rect width="64" height="64" fill="white"/>
</clipPath>
</defs>
</svg>
