<svg width="64" height="64" viewBox="0 0 64 64" fill="none" xmlns="http://www.w3.org/2000/svg">
<path d="M48.0002 20H38.0021C38.001 20.999 38.001 20.896 38.001 22C38.001 23.104 38 22.499 38 23.999L48.0002 24C49.1041 24 50 23.104 50 22C50 20.896 49.1041 20 48.0002 20Z" fill="#B7B6B5"/>
<path d="M57.0002 21.9696C57.0002 20.8818 56.1183 20.0001 55.0305 20.0002V20.0002C53.9435 20.0003 53.0626 20.8811 53.063 21.9682C53.063 21.9889 53.063 22.0096 53.063 22.0302C53.0634 23.1179 53.9452 24.0004 55.0329 24.0004V24.0004C56.1194 24.0004 57.0002 23.1194 57.0002 22.0329C57.0002 22.0117 57.0002 21.9906 57.0002 21.9696Z" fill="#B7B6B5"/>
<path d="M48.0002 30H38.0021C38.001 30.999 38.001 30.896 38.001 32C38.001 33.104 38 32.499 38 33.999L48.0002 34C49.1041 34 50 33.104 50 32C50 30.896 49.1041 30 48.0002 30Z" fill="#B7B6B5"/>
<path d="M57.0002 31.9696C57.0002 30.8818 56.1183 30.0001 55.0305 30.0002V30.0002C53.9435 30.0003 53.0626 30.8811 53.063 31.9682C53.063 31.9889 53.063 32.0096 53.063 32.0302C53.0634 33.1179 53.9452 34.0004 55.0329 34.0004V34.0004C56.1194 34.0004 57.0002 33.1194 57.0002 32.0329C57.0002 32.0117 57.0002 31.9906 57.0002 31.9696Z" fill="#B7B6B5"/>
<path d="M48.0002 40H38.0021C38.001 40.999 38.001 40.896 38.001 42C38.001 43.104 38 42.499 38 43.999L48.0002 44C49.1041 44 50 43.104 50 42C50 40.896 49.1041 40 48.0002 40Z" fill="#B7B6B5"/>
<path d="M57.0002 41.9696C57.0002 40.8818 56.1183 40.0001 55.0305 40.0002V40.0002C53.9435 40.0003 53.0626 40.8811 53.063 41.9682C53.063 41.9889 53.063 42.0096 53.063 42.0302C53.0634 43.1179 53.9452 44.0004 55.0329 44.0004V44.0004C56.1194 44.0004 57.0002 43.1194 57.0002 42.0329C57.0002 42.0117 57.0002 41.9906 57.0002 41.9696Z" fill="#B7B6B5"/>
<path d="M64.0003 11.9987C64.0003 10.8941 63.1049 10 62.0003 10H38.0004C38.0014 11 38.0012 13 38.0003 14H60.0003V50H38.0003C38.0002 51.3333 37.9996 52.6667 38.0003 54C45.4894 54 54.2992 54 62.0013 54C63.1058 54 64.0003 53.1059 64.0003 52.0013C64.0003 39.162 64.0003 24.838 64.0003 11.9987Z" fill="#B7B6B5"/>
<path fill-rule="evenodd" clip-rule="evenodd" d="M32.6978 2.0345C33.2656 1.9265 33.8528 2.0825 34.2961 2.4585C34.7433 2.8385 35 3.4025 35 3.9985V59.9985C35 60.5905 34.7433 61.1585 34.2961 61.5385C33.9461 61.8385 33.5028 61.9985 33.0556 61.9985C32.9389 61.9985 32.8144 61.9865 32.6978 61.9625L1.58667 55.9625C0.665 55.7865 0 54.9585 0 53.9985V9.9985C0 9.0345 0.665 8.2105 1.58667 8.0345L32.6978 2.0345Z" fill="#74060E"/>
<path fill-rule="evenodd" clip-rule="evenodd" d="M21.6194 18.8419C22.2617 17.895 23.448 17.7161 24.2715 18.4623C25.0951 19.1997 25.2425 20.5699 24.6002 21.5256L17.733 31.7239L24.5322 41.1868C25.2196 42.1435 25.1403 43.5925 24.3546 44.4296C23.992 44.8114 23.5501 45 23.1082 45C22.5831 45 22.0619 44.7332 21.6879 44.2134L15.3049 35.3297L11.3775 41.1622C11.0073 41.712 10.4482 42 9.88902 42C9.48478 42 9.07677 41.8516 8.7292 41.5418C7.90561 40.8044 7.75828 39.4298 8.39674 38.4785L12.8333 31.8899L8.46784 25.8142C7.7804 24.862 7.85972 23.4085 8.64537 22.5713C9.42724 21.7341 10.6171 21.8261 11.3121 22.7875L15.2614 28.284L21.6194 18.8419Z" fill="white"/>
</svg>
