<svg width="63" height="63" viewBox="0 0 63 63" fill="none" xmlns="http://www.w3.org/2000/svg">
<g clip-path="url(#clip0)">
<path d="M40.4197 35.7598H13.1797V38.5298H40.4197V35.7598Z" fill="#741213"/>
<path d="M40.4197 43.29H13.1797V46.06H40.4197V43.29Z" fill="#741213"/>
<path d="M40.4197 50.8198H13.1797V53.5898H40.4197V50.8198Z" fill="#741213"/>
<path d="M25.0503 12.5298L39.5203 26.9198H43.3403L27.0003 10.5798L34.5003 3.07981C34.5991 2.97821 34.7173 2.89744 34.8478 2.84229C34.9783 2.78714 35.1186 2.75873 35.2603 2.75873C35.402 2.75873 35.5423 2.78714 35.6728 2.84229C35.8034 2.89744 35.9215 2.97821 36.0203 3.07981L41.7303 8.78981C41.8773 8.9228 41.9814 9.09647 42.0295 9.28876C42.0776 9.48106 42.0674 9.6833 42.0003 9.86981C41.6292 10.7074 41.472 11.624 41.5427 12.5374C41.6135 13.4507 41.9101 14.3322 42.4058 15.1026C42.9016 15.873 43.581 16.5081 44.3829 16.951C45.1848 17.3939 46.0843 17.6306 47.0003 17.6398C47.7651 17.6403 48.5214 17.4802 49.2203 17.1698C49.3405 17.1186 49.4696 17.0914 49.6003 17.0898C49.8641 17.0936 50.1157 17.2014 50.3003 17.3898L56.0003 23.0998C56.1007 23.1993 56.1804 23.3177 56.2347 23.4481C56.2891 23.5786 56.3171 23.7185 56.3171 23.8598C56.3171 24.0011 56.2891 24.1411 56.2347 24.2715C56.1804 24.4019 56.1007 24.5203 56.0003 24.6198L53.4803 26.9198H57.7003L58.3203 26.1998C58.8908 25.4615 59.173 24.5407 59.1141 23.6095C59.0552 22.6783 58.6593 21.8004 58.0003 21.1398L52.2903 15.4298C51.5803 14.7252 50.6206 14.3298 49.6203 14.3298C49.1066 14.3298 48.5987 14.4389 48.1303 14.6498C47.6192 14.8716 47.0533 14.9348 46.5059 14.831C45.9585 14.7273 45.4549 14.4615 45.0604 14.0681C44.6659 13.6747 44.3988 13.1718 44.2935 12.6247C44.1883 12.0776 44.2499 11.5115 44.4703 10.9998C44.7729 10.3082 44.8603 9.54159 44.7212 8.79964C44.5821 8.05769 44.2229 7.37479 43.6903 6.83981L38.0003 1.11981C37.2789 0.402287 36.3028 -0.000488281 35.2853 -0.000488281C34.2678 -0.000488281 33.2917 0.402287 32.5703 1.11981L6.57031 26.9198H10.5703L25.0503 12.5298Z" fill="#B6B6B5"/>
<path d="M59.16 26.9997L57.7 26.9097H6.54001L3.84001 26.9997C3.33489 26.9997 2.83474 27.0993 2.3682 27.2929C1.90165 27.4865 1.47789 27.7703 1.12118 28.1279C0.764473 28.4855 0.48183 28.91 0.28944 29.3771C0.0970514 29.8441 -0.00130239 30.3446 1.3022e-05 30.8497V38.9197C0.000893348 39.6742 0.22819 40.4112 0.652498 41.0352C1.0768 41.6592 1.6786 42.1415 2.38001 42.4197C2.90236 42.6208 3.35152 42.9754 3.66832 43.4369C3.98512 43.8983 4.15469 44.4449 4.15469 45.0047C4.15469 45.5644 3.98512 46.111 3.66832 46.5724C3.35152 47.0339 2.90236 47.3885 2.38001 47.5897C1.67939 47.8661 1.07793 48.3466 0.653579 48.9688C0.229226 49.5911 0.00153586 50.3265 1.3022e-05 51.0797V59.1597C1.3022e-05 60.1781 0.404583 61.1548 1.12472 61.875C1.84486 62.5951 2.82158 62.9997 3.84001 62.9997H59.16C60.1784 62.9997 61.1552 62.5951 61.8753 61.875C62.5954 61.1548 63 60.1781 63 59.1597V51.0797C62.9985 50.3265 62.7708 49.5911 62.3464 48.9688C61.9221 48.3466 61.3206 47.8661 60.62 47.5897C60.0977 47.3885 59.6485 47.0339 59.3317 46.5724C59.0149 46.111 58.8453 45.5644 58.8453 45.0047C58.8453 44.4449 59.0149 43.8983 59.3317 43.4369C59.6485 42.9754 60.0977 42.6208 60.62 42.4197C61.3214 42.1415 61.9232 41.6592 62.3475 41.0352C62.7718 40.4112 62.9991 39.6742 63 38.9197V30.8497C63.0013 30.3446 62.903 29.8441 62.7106 29.3771C62.5182 28.91 62.2355 28.4855 61.8788 28.1279C61.5221 27.7703 61.0984 27.4865 60.6318 27.2929C60.1653 27.0993 59.6651 26.9997 59.16 26.9997ZM47.06 60.2297H3.84001C3.6995 60.2297 3.56036 60.202 3.43054 60.1482C3.30072 60.0944 3.18277 60.0156 3.08341 59.9163C2.88274 59.7156 2.77001 59.4435 2.77001 59.1597V51.0797C2.77212 50.8851 2.83096 50.6953 2.93931 50.5337C3.04766 50.3721 3.20082 50.2455 3.38001 50.1697C4.42149 49.7657 5.3165 49.0562 5.94761 48.1345C6.57871 47.2128 6.91642 46.1218 6.91642 45.0047C6.91642 43.8876 6.57871 42.7966 5.94761 41.8748C5.3165 40.9531 4.42149 40.2437 3.38001 39.8397C3.19927 39.7631 3.04504 39.6351 2.93657 39.4715C2.8281 39.3079 2.77017 39.116 2.77001 38.9197V30.8497C2.76869 30.7083 2.79539 30.5681 2.84857 30.4371C2.90175 30.3062 2.98036 30.187 3.07985 30.0866C3.17934 29.9862 3.29774 29.9065 3.42822 29.8521C3.55869 29.7977 3.69865 29.7697 3.84001 29.7697H47.06V60.2297ZM60.24 38.9197C60.239 39.1171 60.1796 39.3098 60.0693 39.4735C59.959 39.6372 59.8026 39.7646 59.62 39.8397C58.5785 40.2437 57.6835 40.9531 57.0524 41.8748C56.4213 42.7966 56.0836 43.8876 56.0836 45.0047C56.0836 46.1218 56.4213 47.2128 57.0524 48.1345C57.6835 49.0562 58.5785 49.7657 59.62 50.1697C59.8011 50.244 59.9563 50.3699 60.0665 50.5316C60.1768 50.6934 60.2371 50.884 60.24 51.0797V59.1597C60.2374 59.4444 60.1224 59.7165 59.9202 59.9169C59.7179 60.1173 59.4447 60.2297 59.16 60.2297H49.83V29.7697H59.16C59.3018 29.7697 59.4423 29.7976 59.5733 29.8519C59.7043 29.9062 59.8234 29.9857 59.9237 30.086C60.024 30.1863 60.1035 30.3053 60.1578 30.4364C60.2121 30.5674 60.24 30.7078 60.24 30.8497V38.9197Z" fill="#741213"/>
</g>
<defs>
<clipPath id="clip0">
<rect width="63" height="63" fill="white"/>
</clipPath>
</defs>
</svg>
