<svg width="64" height="64" viewBox="0 0 64 64" fill="none" xmlns="http://www.w3.org/2000/svg">
<g clip-path="url(#clip0)">
<path d="M11.47 7.24V10.47C11.47 10.7352 11.3646 10.9896 11.1771 11.1771C10.9896 11.3646 10.7352 11.47 10.47 11.47H7.24L11.47 7.24ZM14.47 0L0 14.47H10.47C11.5309 14.47 12.5483 14.0486 13.2984 13.2984C14.0486 12.5483 14.47 11.5309 14.47 10.47V0Z" fill="#B6B6B5"/>
<path d="M48.2 29.8V60C48.2 60.2652 48.0946 60.5196 47.9071 60.7071C47.7196 60.8946 47.4652 61 47.2 61H4C3.73478 61 3.48043 60.8946 3.29289 60.7071C3.10536 60.5196 3 60.2652 3 60V15.71L15.71 3H47.2C47.4652 3 47.7196 3.10536 47.9071 3.29289C48.0946 3.48043 48.2 3.73478 48.2 4V14L51.2 10.87V4C51.2 2.93913 50.7786 1.92172 50.0284 1.17157C49.2783 0.421427 48.2609 0 47.2 0L14.47 0L0 14.47V60C0 61.0609 0.421427 62.0783 1.17157 62.8284C1.92172 63.5786 2.93913 64 4 64H47.2C48.2609 64 49.2783 63.5786 50.0284 62.8284C50.7786 62.0783 51.2 61.0609 51.2 60V26.66L48.2 29.8Z" fill="#B6B6B5"/>
<path d="M40.3702 34.81L60.3002 14L55.5102 9L35.2402 30.06C37.5102 29.71 40.2802 33.23 40.3702 34.81Z" fill="#741213"/>
<path d="M62.9997 11.2196C63.6551 10.5339 64.0143 9.61793 63.9997 8.66957C64.0157 8.20461 63.9386 7.74113 63.7729 7.3064C63.6072 6.87167 63.3563 6.47445 63.0348 6.13811C62.7134 5.80177 62.328 5.53308 61.9012 5.34787C61.4744 5.16265 61.0149 5.06463 60.5497 5.05957C60.0921 5.05967 59.6393 5.15381 59.2196 5.33616C58.7999 5.5185 58.4221 5.78515 58.1097 6.11957L56.6797 7.52957L61.5597 12.6296L62.9997 11.2196Z" fill="#741213"/>
<path d="M21.8002 27.9399H19.1602L18.1002 30.8599C16.9199 31.144 15.7993 31.635 14.7902 32.3099L12.0002 30.9999L10.1502 32.7199V32.8099L11.4402 35.5199C10.8269 36.5212 10.3905 37.6206 10.1502 38.7699L7.24023 39.8599V42.5099L10.1502 43.5699C10.4265 44.7317 10.8713 45.8468 11.4702 46.8799L10.1502 49.6599L12.0002 51.5199L14.7902 50.1899C15.8011 50.8639 16.9209 51.3579 18.1002 51.6499L19.1602 54.4299H21.8002L22.8602 51.5199C23.2704 51.4244 23.6745 51.3042 24.0702 51.1599H24.1902C24.8823 50.9119 25.5515 50.6041 26.1902 50.2399L29.0002 51.5199L30.8502 49.6599L29.5302 46.8799C30.2016 45.8689 30.6922 44.7489 30.9802 43.5699L33.7602 42.5099V41.5599L32.0002 42.6199H31.2002C30.7842 42.6149 30.3738 42.5234 29.9951 42.3513C29.6164 42.1791 29.2776 41.9301 29.0002 41.6199L28.9002 41.5199L28.8202 41.3999C28.6401 41.1476 28.4954 40.8717 28.3902 40.5799C28.4214 41.1286 28.3878 41.6791 28.2902 42.2199H28.3502C28.0928 44.1187 27.1533 45.8589 25.7069 47.1157C24.2606 48.3725 22.4063 49.06 20.4902 49.0499H19.8002H19.6202C19.4102 49.0499 19.2102 49.0499 19.0002 48.9599H18.8102C18.6002 48.9099 18.3902 48.8599 18.1802 48.7899H18.0902C16.754 48.3575 15.5552 47.5808 14.6143 46.5381C13.6734 45.4954 13.0236 44.2234 12.7302 42.8499C12.7302 42.7699 12.7302 42.6899 12.6802 42.6099C12.6302 42.5299 12.6202 42.2499 12.6002 42.0699C12.5336 41.5052 12.5336 40.9346 12.6002 40.3699C12.6002 40.2199 12.6002 40.0799 12.6702 39.9299C12.7402 39.7799 12.6702 39.6899 12.7302 39.5699C12.7696 39.374 12.8197 39.1804 12.8802 38.9899L12.9302 38.8199C12.9986 38.5881 13.0822 38.3609 13.1802 38.1399C13.6839 36.9579 14.4648 35.9146 15.457 35.0982C16.4491 34.2819 17.6233 33.7165 18.8802 33.4499H19.2002C19.568 33.3984 19.9389 33.3717 20.3102 33.3699C20.719 33.3684 21.1272 33.4019 21.5302 33.4699H21.5802C23.1407 33.683 24.6018 34.3576 25.776 35.4071C26.9503 36.4566 27.784 37.8331 28.1702 39.3599C28.177 39.2024 28.1937 39.0454 28.2202 38.8899L28.2702 38.5999L29.5902 36.0799C29.5102 35.9299 29.4302 35.7799 29.3402 35.6299L30.6702 32.8499L28.8102 30.9999L26.0002 32.1799C25.2887 31.7523 24.526 31.4163 23.7302 31.1799C23.3946 31.0326 23.0359 30.9447 22.6702 30.9199L21.7402 27.9999L21.8002 27.9399Z" fill="#B6B6B5"/>
<path d="M37.4199 32.3502C36.1699 31.2602 35.6599 31.0302 34.4199 31.1102L30.2099 39.1102C30.1669 39.3086 30.167 39.5139 30.2101 39.7123C30.2533 39.9107 30.3384 40.0975 30.4599 40.2602C30.5538 40.3699 30.6703 40.4581 30.8015 40.5185C30.9327 40.5789 31.0754 40.6102 31.2199 40.6102H31.4699L39.1299 35.8602C39.1099 35.7802 39.4399 34.5502 37.4199 32.3502Z" fill="#741213"/>
<path d="M33.4194 9.82031H15.6094V12.8203H33.4194V9.82031Z" fill="#B6B6B5"/>
<path d="M33.7302 16.8096H7.24023V19.8096H33.7302V16.8096Z" fill="#B6B6B5"/>
</g>
<defs>
<clipPath id="clip0">
<rect width="64" height="64" fill="white"/>
</clipPath>
</defs>
</svg>
