<svg width="64" height="64" viewBox="0 0 64 64" fill="none" xmlns="http://www.w3.org/2000/svg">
<path d="M33.6997 37.2797C32.8539 37.0654 31.9755 37.0111 31.1097 37.1197C29.6065 37.3185 28.2137 38.0171 27.1553 39.103C26.0969 40.1889 25.4344 41.5991 25.2742 43.107C25.114 44.6149 25.4654 46.1329 26.2719 47.4169C27.0785 48.701 28.2934 49.6766 29.7213 50.1869C31.1492 50.6973 32.7073 50.7127 34.145 50.2307C35.5827 49.7487 36.8167 48.7973 37.6485 47.5295C38.4803 46.2616 38.8617 44.7509 38.7313 43.2401C38.601 41.7293 37.9664 40.3063 36.9297 39.1997L40.9997 32.3096C41.1209 32.1063 41.1989 31.8801 41.2287 31.6452C41.2584 31.4104 41.2394 31.1719 41.1727 30.9447C41.1061 30.7176 40.9933 30.5066 40.8413 30.3251C40.6894 30.1435 40.5016 29.9953 40.2897 29.8897C39.8357 29.6591 39.3108 29.6103 38.8221 29.7534C38.3334 29.8965 37.9177 30.2206 37.6597 30.6596L33.6997 37.2797Z" fill="#741213"/>
<path d="M60.65 31.63L56.6 34L54.73 30.75L58.73 28.42C56.3261 24.7859 53.2141 21.6739 49.58 19.27L47.26 23.27L44.05 21.38L46.37 17.38C42.4816 15.4111 38.2307 14.2608 33.88 14V18.9H30.12V14C25.7715 14.2514 21.5207 15.3915 17.63 17.35L19.95 21.35L16.7 23.26L14.38 19.26C10.7468 21.6616 7.63758 24.7741 5.24 28.41L9.24 30.74L7.4 34L3.35 31.63C1.39154 35.5207 0.251409 39.7715 0 44.12H10.14C10.6088 38.6452 13.1149 33.5457 17.1626 29.8297C21.2104 26.1137 26.5052 24.0519 32 24.0519C37.4948 24.0519 42.7896 26.1137 46.8374 29.8297C50.8851 33.5457 53.3912 38.6452 53.86 44.12H64C63.7486 39.7715 62.6085 35.5207 60.65 31.63Z" fill="#B6B6B5"/>
</svg>
