<svg width="16" height="16" viewBox="0 0 16 16" fill="none" xmlns="http://www.w3.org/2000/svg">
<g clip-path="url(#clip0)">
<path d="M8.93807 8.00465L15.7966 1.14611C16.0613 0.890455 16.0687 0.468636 15.813 0.203925C15.5574 -0.0607856 15.1355 -0.0681256 14.8708 0.187527C14.8653 0.192876 14.8598 0.198342 14.8544 0.203925L7.99585 7.06247L1.13729 0.203886C0.87258 -0.0517667 0.45076 -0.0444266 0.195107 0.220284C-0.054299 0.478513 -0.054299 0.887878 0.195107 1.14611L7.05366 8.00465L0.195107 14.8632C-0.0650358 15.1234 -0.0650358 15.5452 0.195107 15.8054C0.455289 16.0655 0.877109 16.0655 1.13729 15.8054L7.99585 8.94683L14.8544 15.8054C15.1191 16.061 15.5409 16.0537 15.7966 15.789C16.046 15.5307 16.046 15.1214 15.7966 14.8632L8.93807 8.00465Z" fill="black"/>
</g>
<defs>
<clipPath id="clip0">
<rect width="16" height="16" fill="white"/>
</clipPath>
</defs>
</svg>
