<svg width="164" height="44" viewBox="0 0 164 44" fill="none" xmlns="http://www.w3.org/2000/svg">
<path d="M122.351 6.42383C121.699 6.42383 121.098 6.62694 120.572 7.03318C120.122 7.38863 119.796 7.87103 119.545 8.48038H119.52V6.60155H116.891V17.4429H119.52V11.908C119.52 10.9685 119.746 10.1815 120.172 9.59752C120.597 9.01356 121.173 8.73427 121.875 8.73427C122.1 8.73427 122.376 8.75966 122.676 8.83583C122.952 8.912 123.177 8.98817 123.302 9.08973L123.403 9.16589V6.60155L123.352 6.57617C123.127 6.47461 122.776 6.42383 122.351 6.42383Z" fill="white"/>
<path d="M123.93 8.70875H125.608V14.269C125.608 16.5541 126.735 17.722 128.939 17.722C129.315 17.722 129.69 17.6712 130.066 17.5951C130.467 17.5189 130.742 17.4427 130.892 17.3412L130.917 17.3158V15.2085L130.817 15.2846C130.667 15.3862 130.492 15.4624 130.291 15.5131C130.066 15.5639 129.891 15.5893 129.765 15.5893C129.239 15.5893 128.864 15.4624 128.638 15.1831C128.388 14.9038 128.288 14.4468 128.288 13.7866V8.70875H130.968V6.62681H128.288V3.40234L128.187 3.42773L125.683 4.16403L125.633 4.18942V6.62681H123.955L123.93 8.70875Z" fill="white"/>
<path d="M162.374 6.42383C161.723 6.42383 161.122 6.62694 160.596 7.03318C160.145 7.38863 159.819 7.87103 159.569 8.48038H159.544V6.60155H156.914V17.4429H159.544V11.908C159.544 10.9685 159.769 10.1815 160.195 9.59752C160.621 9.01356 161.197 8.73427 161.898 8.73427C162.124 8.73427 162.399 8.75966 162.7 8.83583C162.975 8.912 163.201 8.98817 163.326 9.08973L163.426 9.16589V6.60155L163.376 6.57617C163.15 6.47461 162.8 6.42383 162.374 6.42383Z" fill="white"/>
<path d="M9.89425 11.8062L9.16792 13.7866H9.11783C8.9926 13.3296 8.76719 12.6695 8.41654 11.8316L4.48435 2.31055H0.652344V17.4427H3.18197V8.15013C3.18197 7.56617 3.15692 6.88066 3.15692 6.09358C3.13188 5.68735 3.10683 5.38268 3.08179 5.12878H3.13188C3.25711 5.68735 3.38234 6.14436 3.48252 6.42365L8.19113 17.4427H9.96939L14.653 6.32209C14.7531 6.06819 14.8784 5.5604 14.9785 5.12878H15.0286C14.9785 6.22053 14.9034 7.23611 14.9034 7.84546V17.4427H17.6084V2.31055H13.9266L9.89425 11.8062Z" fill="white"/>
<path d="M20.1367 17.4429H22.7916V6.60156H20.1367V17.4429Z" fill="white"/>
<path d="M21.4897 2.00586C21.0639 2.00586 20.6882 2.1582 20.3626 2.43748C20.062 2.71677 19.8867 3.07222 19.8867 3.50384C19.8867 3.91007 20.037 4.26553 20.3626 4.54481C20.6631 4.82409 21.0639 4.95104 21.4897 4.95104C21.9405 4.95104 22.3162 4.7987 22.6167 4.54481C22.9173 4.26553 23.0926 3.91007 23.0926 3.50384C23.0926 3.09761 22.9423 2.74215 22.6418 2.46287C22.3412 2.1582 21.9405 2.00586 21.4897 2.00586Z" fill="white"/>
<path d="M32.1365 6.49999C31.6355 6.39844 31.1346 6.34766 30.6587 6.34766C29.4565 6.34766 28.3545 6.60155 27.4529 7.08395C26.5262 7.59174 25.8249 8.27726 25.324 9.19128C24.8481 10.0799 24.5977 11.1463 24.5977 12.3142C24.5977 13.3298 24.8481 14.2692 25.2989 15.107C25.7748 15.9449 26.426 16.5796 27.2776 17.0366C28.1291 17.4936 29.0809 17.7222 30.1578 17.7222C31.4101 17.7222 32.4871 17.4683 33.3387 17.0112L33.3637 16.9859V14.65L33.2635 14.7262C32.8628 15.0055 32.437 15.2086 31.9611 15.3863C31.4853 15.5387 31.0595 15.6148 30.6838 15.6148C29.6569 15.6148 28.8054 15.3102 28.2043 14.6754C27.6032 14.0661 27.3026 13.2028 27.3026 12.1111C27.3026 11.0193 27.6282 10.1307 28.2543 9.47056C28.8805 8.81044 29.707 8.48037 30.7339 8.48037C31.6105 8.48037 32.437 8.75966 33.2385 9.31823L33.3387 9.3944V6.93161L33.3136 6.90623C33.0631 6.7285 32.6624 6.60155 32.1365 6.49999Z" fill="white"/>
<path d="M40.8506 6.42383C40.1994 6.42383 39.5983 6.62694 39.0724 7.03318C38.6215 7.38863 38.2959 7.87103 38.0455 8.48038H38.0204V6.60155H35.3906V17.4429H38.0204V11.908C38.0204 10.9685 38.2458 10.1815 38.6716 9.59752C39.0974 9.01356 39.6735 8.73427 40.3747 8.73427C40.6001 8.73427 40.8757 8.75966 41.1762 8.83583C41.4517 8.912 41.6771 8.98817 41.8023 9.08973L41.9025 9.16589V6.60155L41.8524 6.57617C41.627 6.47461 41.2764 6.42383 40.8506 6.42383Z" fill="white"/>
<path d="M50.1194 14.7008C49.6185 15.3102 48.8672 15.6148 47.8904 15.6148C46.9136 15.6148 46.1622 15.3102 45.6112 14.7008C45.0602 14.0915 44.7847 13.2028 44.7847 12.0857C44.7847 10.9432 45.0602 10.0291 45.6112 9.41979C46.1622 8.78505 46.9136 8.48037 47.8653 8.48037C48.792 8.48037 49.5183 8.78505 50.0693 9.36901C50.5953 9.97836 50.8708 10.867 50.8708 12.0095C50.8708 13.1774 50.6204 14.0915 50.1194 14.7008ZM48.0156 6.34766C46.1622 6.34766 44.6845 6.88084 43.6326 7.89642C42.5807 8.93739 42.0547 10.3592 42.0547 12.1365C42.0547 13.8376 42.5807 15.2086 43.5825 16.1988C44.6094 17.189 45.9869 17.6968 47.715 17.6968C49.5183 17.6968 50.946 17.1636 51.9979 16.1226C53.0498 15.0816 53.5758 13.6598 53.5758 11.908C53.5758 10.1815 53.0748 8.81044 52.0981 7.82025C51.1463 6.85545 49.7688 6.34766 48.0156 6.34766Z" fill="white"/>
<path d="M59.4577 11.0955C58.6312 10.7654 58.0802 10.5115 57.8798 10.3084C57.6544 10.1053 57.5542 9.82602 57.5542 9.47057C57.5542 9.16589 57.6794 8.912 57.9549 8.70888C58.2305 8.50576 58.6061 8.40421 59.082 8.40421C59.5328 8.40421 59.9837 8.48038 60.4345 8.60732C60.8853 8.73427 61.286 8.912 61.6116 9.1405L61.7118 9.21667V6.85545L61.6617 6.83006C61.3612 6.70311 60.9604 6.60155 60.4595 6.49999C59.9586 6.42383 59.5328 6.37305 59.1321 6.37305C57.8798 6.37305 56.8279 6.67772 56.0264 7.28707C55.225 7.89642 54.8242 8.70888 54.8242 9.69907C54.8242 10.2069 54.8994 10.6639 55.0747 11.0447C55.25 11.4256 55.5255 11.781 55.8761 12.0603C56.2268 12.3396 56.7778 12.6443 57.5041 12.9489C58.1052 13.2028 58.5561 13.4059 58.8566 13.5583C59.1321 13.7106 59.3325 13.863 59.4577 14.0407C59.5579 14.193 59.633 14.3961 59.633 14.65C59.633 15.3863 59.057 15.7418 57.9049 15.7418C57.4791 15.7418 56.9782 15.6656 56.4522 15.4879C55.9262 15.3102 55.4003 15.0816 54.9494 14.7516L54.8493 14.6754V17.1636L54.8994 17.189C55.275 17.3667 55.7509 17.4937 56.327 17.6206C56.878 17.7222 57.4039 17.7983 57.8297 17.7983C59.2072 17.7983 60.3093 17.4937 61.1107 16.8589C61.9122 16.2496 62.338 15.4117 62.338 14.3961C62.338 13.6598 62.1126 13.0505 61.6868 12.5427C61.261 11.9587 60.5096 11.5017 59.4577 11.0955Z" fill="white"/>
<path d="M71.5569 14.7008C71.056 15.3102 70.3046 15.6148 69.3279 15.6148C68.3511 15.6148 67.5997 15.3102 67.0487 14.7008C66.4977 14.0915 66.2222 13.2028 66.2222 12.0857C66.2222 10.9432 66.4977 10.0291 67.0487 9.41979C67.5997 8.78505 68.3511 8.48037 69.3028 8.48037C70.2295 8.48037 70.9809 8.78505 71.5068 9.36901C72.0328 9.97836 72.3083 10.867 72.3083 12.0095C72.3083 13.1774 72.0579 14.0915 71.5569 14.7008ZM69.4531 6.34766C67.5997 6.34766 66.122 6.88084 65.0701 7.89642C64.0181 8.93739 63.4922 10.3592 63.4922 12.1365C63.4922 13.8376 64.0182 15.2086 65.045 16.1988C66.0719 17.189 67.4494 17.6968 69.1776 17.6968C70.9809 17.6968 72.4085 17.1636 73.4604 16.1226C74.5123 15.0816 75.0383 13.6598 75.0383 11.908C75.0383 10.1815 74.5374 8.81044 73.5606 7.82025C72.5838 6.85545 71.2063 6.34766 69.4531 6.34766Z" fill="white"/>
<path d="M89.1401 8.68326V6.60132H86.4602V3.37686L86.36 3.40225L83.8554 4.13854L83.8053 4.16393V6.60132H79.8481V5.23029C79.8481 4.59555 79.9984 4.11315 80.2989 3.78309C80.5995 3.45303 81.0002 3.30069 81.5262 3.30069C81.9018 3.30069 82.3026 3.37686 82.6783 3.55458L82.7784 3.60536V1.42186L82.7283 1.39648C82.3527 1.26953 81.8517 1.19336 81.2506 1.19336C80.4742 1.19336 79.7729 1.3457 79.1468 1.67576C78.5207 2.00582 78.0448 2.46283 77.6942 3.04679C77.3435 3.63075 77.1932 4.31627 77.1932 5.07795V6.57593H75.3398V8.65787H77.1932V17.4173H79.8731V8.65787H83.8053V14.2182C83.8053 16.5032 84.9324 17.6711 87.1364 17.6711C87.487 17.6711 87.8878 17.6204 88.2635 17.5442C88.6642 17.468 88.9397 17.3665 89.09 17.2903L89.115 17.2649V15.1576L89.0148 15.2338C88.8646 15.3353 88.6892 15.4115 88.4889 15.4623C88.2885 15.513 88.0882 15.5384 87.9629 15.5384C87.437 15.5384 87.0613 15.4115 86.8359 15.1322C86.5854 14.8529 86.4852 14.3959 86.4852 13.7358V8.60709H89.1401" fill="white"/>
<path d="M102.863 7.10916C102.863 6.27131 102.587 5.61118 102.011 5.15417C101.435 4.69716 100.633 4.46866 99.5565 4.46866H97.7532V9.90201H99.4313C100.508 9.90201 101.36 9.6735 101.961 9.1911C102.562 8.7087 102.863 8.02318 102.863 7.10916ZM105.593 7.03299C105.593 7.99779 105.342 8.83565 104.841 9.59733C104.34 10.359 103.639 10.943 102.737 11.3746C101.836 11.8062 100.784 12.0093 99.6066 12.0093H97.7532V17.4427H95.1484V2.33594H99.9823C101.786 2.33594 103.163 2.74217 104.14 3.55463C105.092 4.34171 105.593 5.50962 105.593 7.03299Z" fill="white"/>
<path d="M107.972 14.2438C107.972 14.7008 108.147 15.0816 108.498 15.3609C108.848 15.6402 109.299 15.7672 109.825 15.7672C110.576 15.7672 111.203 15.5133 111.679 15.0309C112.154 14.5231 112.405 13.9137 112.405 13.152V12.1872L110 12.4919C109.224 12.5935 108.698 12.7712 108.423 13.0505C108.122 13.3044 107.972 13.7106 107.972 14.2438ZM112.405 17.4429V15.9449H112.355C111.578 17.1128 110.476 17.6968 109.049 17.6968C107.947 17.6968 107.095 17.4175 106.444 16.8335C105.818 16.2496 105.492 15.4879 105.492 14.4977C105.492 13.4821 105.793 12.6696 106.419 12.0603C107.045 11.4509 107.947 11.0701 109.149 10.9178L112.405 10.4861C112.405 9.01355 111.704 8.27726 110.276 8.27726C109.6 8.27726 108.923 8.37882 108.272 8.60732C107.621 8.83583 107.045 9.11511 106.544 9.47056V7.31246C106.945 7.05856 107.546 6.85545 108.347 6.65233C109.149 6.44921 109.875 6.34766 110.501 6.34766C111.929 6.34766 113.006 6.70311 113.732 7.4394C114.459 8.15031 114.809 9.21667 114.809 10.5877V17.4175L112.405 17.4429Z" fill="white"/>
<path d="M140.359 17.4429V11.3748C140.359 10.3592 140.184 9.59751 139.833 9.11511C139.482 8.60732 138.906 8.37882 138.13 8.37882C137.353 8.37882 136.727 8.6581 136.226 9.21667C135.725 9.77524 135.475 10.4608 135.475 11.2986V17.4429H132.945V6.65233H135.475V8.37882H135.525C136.352 7.05856 137.579 6.39844 139.157 6.39844C140.334 6.39844 141.261 6.75389 141.912 7.49019C142.563 8.22648 142.889 9.34362 142.889 10.8162V17.4429H140.359Z" fill="white"/>
<path d="M152.33 10.9432C152.33 10.0799 152.129 9.44518 151.704 8.98817C151.278 8.53116 150.702 8.30265 149.95 8.30265C149.274 8.30265 148.673 8.55655 148.172 9.03895C147.671 9.52135 147.346 10.1561 147.22 10.9432H152.33ZM147.22 12.7712C147.27 13.7614 147.571 14.4977 148.147 15.0055C148.723 15.5133 149.525 15.7672 150.576 15.7672C151.203 15.7672 151.829 15.6656 152.405 15.4879C152.981 15.2848 153.507 15.0563 153.933 14.7516V16.8081C153.507 17.0874 152.931 17.2905 152.23 17.4683C151.528 17.646 150.752 17.7222 149.975 17.7222C148.272 17.7222 146.97 17.2398 146.043 16.2496C145.116 15.2594 144.641 13.9137 144.641 12.1619C144.641 11.0193 144.866 10.0037 145.342 9.1405C145.793 8.27726 146.444 7.59175 147.27 7.13473C148.097 6.65233 148.999 6.42383 149.975 6.42383C151.528 6.42383 152.73 6.88084 153.582 7.79486C154.434 8.70888 154.859 9.97836 154.859 11.5779V12.7966L147.22 12.7712Z" fill="white"/>
<path d="M5.33453 42.0447C4.68334 42.4255 3.98206 42.6032 3.18059 42.6032C2.57949 42.6032 2.05353 42.4763 1.57766 42.197C1.10179 41.9177 0.751145 41.5369 0.500687 41.0291C0.250229 40.5213 0.125 39.9627 0.125 39.328C0.125 38.3378 0.42555 37.4999 1.0517 36.8652C1.67784 36.2051 2.47931 35.9004 3.43105 35.9004C4.13233 35.9004 4.70838 36.0273 5.18425 36.2558V37.0937C4.65829 36.7636 4.05719 36.5859 3.33086 36.5859C2.85499 36.5859 2.45426 36.6875 2.07857 36.916C1.70289 37.1445 1.40234 37.4745 1.20197 37.8808C1.0016 38.287 0.876374 38.7694 0.876374 39.2772C0.876374 40.0897 1.07674 40.7498 1.50252 41.2068C1.9283 41.6892 2.50435 41.9177 3.23068 41.9177C3.7316 41.9177 4.15738 41.8161 4.53306 41.613V39.785H3.1305V39.0995H5.28444V42.0447H5.33453Z" fill="#C29809"/>
<path d="M10.895 40.1405C10.895 40.8768 10.6946 41.4608 10.2688 41.9178C9.86809 42.3748 9.29203 42.6033 8.6158 42.6033C7.93956 42.6033 7.38855 42.3748 6.98782 41.9432C6.58709 41.5116 6.38672 40.9276 6.38672 40.2167C6.38672 39.455 6.58709 38.8457 7.01286 38.3886C7.43864 37.9316 7.98965 37.7285 8.71598 37.7285C9.39222 37.7285 9.91818 37.9316 10.3189 38.3633C10.6946 38.8203 10.895 39.4042 10.895 40.1405ZM10.1436 40.1913C10.1436 39.6073 10.0184 39.1503 9.7679 38.8457C9.51744 38.541 9.14176 38.3886 8.66589 38.3886C8.19002 38.3886 7.81433 38.541 7.53883 38.871C7.26332 39.2011 7.13809 39.6327 7.13809 40.2167C7.13809 40.7753 7.28837 41.2069 7.56387 41.5116C7.83938 41.8162 8.21506 41.9686 8.69093 41.9686C9.1668 41.9686 9.54249 41.8162 9.79295 41.5116C10.0184 41.2069 10.1436 40.7499 10.1436 40.1913Z" fill="#C29809"/>
<path d="M12.7459 42.5016H12.0195V35.6211H12.7459V42.5016Z" fill="#C29809"/>
<path d="M18.1077 42.5016H17.3814V41.7146H17.3564C17.0057 42.3239 16.4798 42.6286 15.7785 42.6286C15.2024 42.6286 14.7516 42.4255 14.401 41.9939C14.0503 41.5622 13.875 41.0037 13.875 40.3182C13.875 39.5565 14.0754 38.9471 14.4511 38.4647C14.8267 38.0077 15.3277 37.7792 15.9788 37.7792C16.605 37.7792 17.0558 38.0331 17.3564 38.5409H17.3814V35.6719H18.1077V42.5016ZM17.3814 40.3943V39.7088C17.3814 39.328 17.2562 38.9979 17.0057 38.744C16.7553 38.4901 16.4547 38.3632 16.079 38.3632C15.6282 38.3632 15.2776 38.5409 15.0271 38.871C14.7766 39.201 14.6264 39.658 14.6264 40.242C14.6264 40.7752 14.7516 41.2068 15.0021 41.5115C15.2525 41.8161 15.5781 41.9685 15.9788 41.9685C16.3796 41.9685 16.7052 41.8161 16.9807 41.5368C17.2562 41.2576 17.3814 40.8513 17.3814 40.3943Z" fill="#C29809"/>
<path d="M5.33453 30.9753C4.68334 31.3562 3.98206 31.5339 3.18059 31.5339C2.57949 31.5339 2.05353 31.4069 1.57766 31.1277C1.12683 30.8484 0.751145 30.4675 0.500687 29.9597C0.250229 29.4519 0.125 28.8934 0.125 28.2586C0.125 27.2684 0.42555 26.4306 1.0517 25.7959C1.67784 25.1357 2.47931 24.8311 3.43105 24.8311C4.13233 24.8311 4.70838 24.958 5.18426 25.1865V26.0244C4.65829 25.6943 4.05719 25.5166 3.33086 25.5166C2.85499 25.5166 2.45426 25.6181 2.07857 25.8466C1.70289 26.0751 1.40234 26.4052 1.20197 26.8114C1.0016 27.2177 0.876375 27.7001 0.876375 28.2079C0.876375 29.0203 1.07674 29.6804 1.50252 30.1375C1.9283 30.6199 2.50435 30.8484 3.23068 30.8484C3.7316 30.8484 4.15738 30.7468 4.53306 30.5437V28.7156H3.1305V28.0301H5.28444V30.9753H5.33453Z" fill="#C29809"/>
<path d="M10.895 29.0966C10.895 29.8329 10.6946 30.4168 10.2688 30.8738C9.86809 31.3309 9.29203 31.5594 8.6158 31.5594C7.93956 31.5594 7.38855 31.3308 6.98782 30.8992C6.58709 30.4676 6.38672 29.8836 6.38672 29.1727C6.38672 28.4111 6.58709 27.8017 7.01286 27.3447C7.43864 26.8877 7.98965 26.6846 8.71598 26.6846C9.39222 26.6846 9.91818 26.8877 10.3189 27.3193C10.6946 27.7509 10.895 28.3349 10.895 29.0966ZM10.1436 29.122C10.1436 28.538 10.0184 28.081 9.7679 27.7763C9.51745 27.4716 9.14176 27.3193 8.66589 27.3193C8.19002 27.3193 7.81433 27.4716 7.53883 27.8017C7.26332 28.1318 7.13809 28.5634 7.13809 29.1474C7.13809 29.7059 7.28837 30.1375 7.56387 30.4422C7.83938 30.7469 8.21506 30.8992 8.69093 30.8992C9.1668 30.8992 9.54249 30.7469 9.79295 30.4422C10.0184 30.1375 10.1436 29.6805 10.1436 29.122Z" fill="#C29809"/>
<path d="M12.7459 31.4323H12.0195V24.5518H12.7459V31.4323Z" fill="#C29809"/>
<path d="M18.1077 31.4323H17.3814V30.6452H17.3564C17.0057 31.2546 16.4798 31.5593 15.7785 31.5593C15.2024 31.5593 14.7516 31.3561 14.401 30.9245C14.0503 30.4929 13.875 29.9343 13.875 29.2488C13.875 28.4871 14.0754 27.8778 14.4511 27.3954C14.8267 26.9384 15.3277 26.7099 15.9788 26.7099C16.605 26.7099 17.0558 26.9638 17.3564 27.4716H17.3814V24.5518H18.1077V31.4323ZM17.3814 29.325V28.6395C17.3814 28.2586 17.2562 27.9286 17.0057 27.6747C16.7553 27.4208 16.4547 27.2938 16.079 27.2938C15.6282 27.2938 15.2776 27.4716 15.0271 27.8016C14.7766 28.1317 14.6264 28.5887 14.6264 29.1726C14.6264 29.7058 14.7516 30.1375 15.0021 30.4421C15.2525 30.7468 15.5781 30.8991 15.9788 30.8991C16.3796 30.8991 16.7052 30.7468 16.9807 30.4675C17.2562 30.1882 17.3814 29.782 17.3814 29.325Z" fill="#C29809"/>
<path d="M31.5308 31.4323H30.7042L30.028 29.6043H27.298L26.6468 31.4323H25.8203L28.2748 24.9326H29.0512L31.5308 31.4323ZM29.7776 28.9188L28.7757 26.1513C28.7507 26.0751 28.7256 25.9482 28.6755 25.7197H28.6505C28.6254 25.8974 28.6004 26.0498 28.5503 26.1513L27.5485 28.9188H29.7776Z" fill="#D5D4D3"/>
<path d="M36.5882 28.9696C36.5882 29.7567 36.3879 30.3914 36.0122 30.8484C35.6365 31.3055 35.1356 31.534 34.4844 31.534C33.8833 31.534 33.4324 31.2801 33.1068 30.7469H33.0818V33.5397H32.3555V26.7607H33.0818V27.5732H33.1068C33.4575 26.9639 33.9834 26.6338 34.6847 26.6338C35.2608 26.6338 35.7116 26.8369 36.0623 27.2431C36.4129 27.7001 36.5882 28.2587 36.5882 28.9696ZM35.8368 28.9442C35.8368 28.4364 35.7116 28.0302 35.4862 27.7509C35.2608 27.4463 34.9352 27.2939 34.5345 27.2939C34.1087 27.2939 33.7831 27.4463 33.5076 27.7255C33.2571 28.0302 33.1068 28.4111 33.1068 28.8681V29.5282C33.1068 29.909 33.2321 30.2391 33.4825 30.5184C33.733 30.7723 34.0335 30.9246 34.4092 30.9246C34.8601 30.9246 35.1856 30.7469 35.4361 30.4168C35.7116 30.036 35.8368 29.5536 35.8368 28.9442Z" fill="#D5D4D3"/>
<path d="M41.9476 28.9696C41.9476 29.7567 41.7472 30.3914 41.3715 30.8484C40.9958 31.3055 40.4949 31.534 39.8437 31.534C39.2426 31.534 38.7918 31.2801 38.4662 30.7469H38.4412V33.5397H37.7148V26.7607H38.4412V27.5732H38.4662C38.8169 26.9639 39.3428 26.6338 40.0441 26.6338C40.6202 26.6338 41.071 26.8369 41.4216 27.2431C41.7723 27.7001 41.9476 28.2587 41.9476 28.9696ZM41.1962 28.9442C41.1962 28.4364 41.071 28.0302 40.8456 27.7509C40.6202 27.4463 40.2946 27.2939 39.8938 27.2939C39.468 27.2939 39.1425 27.4463 38.8669 27.7255C38.6165 28.0302 38.4662 28.4111 38.4662 28.8681V29.5282C38.4662 29.909 38.5914 30.2391 38.8419 30.5184C39.0924 30.7723 39.3929 30.9246 39.7686 30.9246C40.2194 30.9246 40.545 30.7469 40.7955 30.4168C41.071 30.036 41.1962 29.5536 41.1962 28.9442Z" fill="#D5D4D3"/>
<path d="M43.8045 31.4323H43.0781V24.5518H43.8045V31.4323Z" fill="#D5D4D3"/>
<path d="M46.1581 25.1103C46.1581 25.2373 46.108 25.3642 46.0078 25.4658C45.9076 25.5673 45.8074 25.5927 45.6572 25.5927C45.5319 25.5927 45.4067 25.542 45.3065 25.4658C45.2063 25.3642 45.1562 25.2627 45.1562 25.1103C45.1562 24.9834 45.2063 24.8564 45.2815 24.7803C45.3817 24.6787 45.4818 24.6279 45.6321 24.6279C45.7573 24.6279 45.8826 24.6787 45.9828 24.7803C46.108 24.8818 46.1581 24.9834 46.1581 25.1103ZM46.0329 31.4323H45.3065V26.786H46.0329V31.4323Z" fill="#D5D4D3"/>
<path d="M50.5914 31.2039C50.2408 31.4324 49.815 31.534 49.3391 31.534C48.9134 31.534 48.5377 31.4324 48.2121 31.2293C47.8865 31.0262 47.611 30.7469 47.4357 30.3914C47.2603 30.036 47.1602 29.6297 47.1602 29.1981C47.1602 28.4364 47.3856 27.8271 47.8113 27.3447C48.2371 26.8877 48.8132 26.6592 49.5395 26.6592C49.9402 26.6592 50.2909 26.7353 50.5914 26.8877V27.6494C50.2408 27.3955 49.8902 27.2939 49.4894 27.2939C49.0136 27.2939 48.6379 27.4716 48.3373 27.8017C48.0368 28.1572 47.8865 28.5888 47.8865 29.122C47.8865 29.6551 48.0368 30.0868 48.3123 30.4168C48.5878 30.7215 48.9635 30.8992 49.4393 30.8992C49.8401 30.8992 50.2158 30.7723 50.5664 30.493V31.2039H50.5914Z" fill="#D5D4D3"/>
<path d="M54.9503 31.4324H54.224V30.6961H54.199C53.8734 31.2547 53.4226 31.534 52.7964 31.534C52.3456 31.534 51.9949 31.407 51.7445 31.1785C51.494 30.95 51.3438 30.6199 51.3438 30.1883C51.3438 29.3251 51.8447 28.8173 52.8465 28.6649L54.224 28.4618C54.224 27.6748 53.8984 27.2939 53.2723 27.2939C52.7213 27.2939 52.2204 27.4716 51.7695 27.8525V27.0908C51.8948 26.9892 52.1452 26.8877 52.4458 26.7861C52.7714 26.6846 53.0719 26.6338 53.3224 26.6338C54.3993 26.6338 54.9253 27.2177 54.9253 28.3603V31.4324H54.9503ZM54.199 29.0712L53.097 29.2235C52.7213 29.2743 52.4458 29.3759 52.2955 29.5028C52.1452 29.6297 52.0701 29.8329 52.0701 30.1375C52.0701 30.366 52.1452 30.5692 52.3205 30.6961C52.4959 30.8484 52.6962 30.8992 52.9467 30.8992C53.3224 30.8992 53.5979 30.7723 53.8483 30.5184C54.0737 30.2645 54.199 29.9344 54.199 29.5536V29.0712Z" fill="#D5D4D3"/>
<path d="M58.4556 31.3816C58.2803 31.4831 58.0549 31.5339 57.7794 31.5339C56.9779 31.5339 56.5772 31.0769 56.5772 30.1629V27.4208H55.8008V26.7861H56.5772V25.6435L57.3035 25.415V26.7861H58.4556V27.4208H57.3035V30.0359C57.3035 30.3406 57.3536 30.5691 57.4538 30.6961C57.554 30.823 57.7293 30.8992 57.9798 30.8992C58.1551 30.8992 58.3304 30.8484 58.4556 30.7468V31.3816Z" fill="#D5D4D3"/>
<path d="M60.2831 25.1103C60.2831 25.2373 60.233 25.3642 60.1328 25.4658C60.0326 25.5673 59.9324 25.5927 59.7822 25.5927C59.6569 25.5927 59.5317 25.542 59.4315 25.4658C59.3313 25.3642 59.2812 25.2627 59.2812 25.1103C59.2812 24.9834 59.3313 24.8564 59.4065 24.7803C59.5067 24.6787 59.6068 24.6279 59.7571 24.6279C59.8823 24.6279 60.0076 24.6787 60.1078 24.7803C60.233 24.8818 60.2831 24.9834 60.2831 25.1103ZM60.1578 31.4323H59.4315V26.786H60.1578V31.4323Z" fill="#D5D4D3"/>
<path d="M65.7934 29.0966C65.7934 29.8329 65.593 30.4168 65.1672 30.8738C64.7665 31.3309 64.1905 31.5594 63.5142 31.5594C62.838 31.5594 62.287 31.3308 61.8863 30.8992C61.4855 30.4676 61.2852 29.8836 61.2852 29.1727C61.2852 28.4111 61.4855 27.8017 61.9113 27.3447C62.3371 26.8877 62.8881 26.6846 63.6144 26.6846C64.2906 26.6846 64.8166 26.8877 65.2173 27.3193C65.6181 27.7509 65.7934 28.3349 65.7934 29.0966ZM65.042 29.122C65.042 28.538 64.9168 28.081 64.6663 27.7763C64.4159 27.4716 64.0402 27.3193 63.5643 27.3193C63.0885 27.3193 62.7128 27.4716 62.4373 27.8017C62.1618 28.1318 62.0365 28.5634 62.0365 29.1474C62.0365 29.7059 62.1868 30.1375 62.4623 30.4422C62.7378 30.7469 63.1135 30.8992 63.5894 30.8992C64.0652 30.8992 64.4409 30.7469 64.6914 30.4422C64.9168 30.1375 65.042 29.6805 65.042 29.122Z" fill="#D5D4D3"/>
<path d="M70.7272 31.4324H70.0009V28.7919C70.0009 27.8017 69.6503 27.3193 68.949 27.3193C68.5983 27.3193 68.2978 27.4463 68.0473 27.7255C67.7969 28.0048 67.6716 28.3603 67.6716 28.7919V31.4324H66.9453V26.7861H67.6716V27.5478H67.6967C68.0473 26.9639 68.5482 26.6592 69.1994 26.6592C69.7003 26.6592 70.076 26.8369 70.3515 27.167C70.627 27.497 70.7523 27.9794 70.7523 28.5888V31.4324H70.7272Z" fill="#D5D4D3"/>
<path d="M79.4954 28.1063C79.4954 28.7664 79.3451 29.3504 79.0696 29.8582C78.7941 30.366 78.3683 30.7468 77.8423 31.0261C77.3164 31.3054 76.7153 31.4323 76.0391 31.4323H74.3359V24.9326H76.1142C78.3683 24.9326 79.4954 25.9736 79.4954 28.1063ZM78.7189 28.1063C78.7189 26.4306 77.8423 25.6181 76.1142 25.6181H75.1124V30.7468H76.0641C76.9157 30.7468 77.5668 30.5183 78.0427 30.0613C78.4935 29.6043 78.7189 28.9442 78.7189 28.1063Z" fill="#D5D4D3"/>
<path d="M84.3003 29.2997H81.0694C81.0694 29.8329 81.2197 30.2137 81.4701 30.493C81.7206 30.7723 82.0963 30.8992 82.5471 30.8992C83.073 30.8992 83.5489 30.7215 83.9747 30.3914V31.0769C83.574 31.3816 83.048 31.534 82.3718 31.534C81.7206 31.534 81.2197 31.3308 80.844 30.8992C80.4683 30.4676 80.293 29.8836 80.293 29.122C80.293 28.6649 80.3932 28.2333 80.5685 27.8525C80.7438 27.4716 80.9943 27.1924 81.3198 26.9639C81.6454 26.7607 81.9961 26.6592 82.3968 26.6592C82.9979 26.6592 83.4487 26.8623 83.7743 27.2431C84.0999 27.624 84.2752 28.1825 84.2752 28.8935V29.2997H84.3003ZM83.5489 28.6649C83.5489 28.2333 83.4487 27.9033 83.2484 27.6748C83.048 27.4463 82.7725 27.3193 82.4219 27.3193C82.0712 27.3193 81.7957 27.4463 81.5453 27.7001C81.2948 27.954 81.1445 28.2841 81.0944 28.6903H83.5489V28.6649Z" fill="#D5D4D3"/>
<path d="M88.986 26.7861L87.1576 31.4324H86.4313L84.7031 26.7861H85.5046L86.6567 30.1629C86.7068 30.3407 86.7819 30.5692 86.807 30.8231H86.832C86.8571 30.5946 86.9072 30.3914 86.9823 30.1883L88.2096 26.8115H88.986V26.7861Z" fill="#D5D4D3"/>
<path d="M93.4175 29.2997H90.1866C90.1866 29.8329 90.3369 30.2137 90.5873 30.493C90.8378 30.7723 91.2134 30.8992 91.6643 30.8992C92.1902 30.8992 92.6661 30.7215 93.0919 30.3914V31.0769C92.6911 31.3816 92.1652 31.534 91.4889 31.534C90.8378 31.534 90.3369 31.3308 89.9612 30.8992C89.5855 30.4676 89.4102 29.8836 89.4102 29.122C89.4102 28.6649 89.5103 28.2333 89.6857 27.8525C89.861 27.4716 90.1114 27.1924 90.437 26.9639C90.7626 26.7607 91.1133 26.6592 91.514 26.6592C92.1151 26.6592 92.5659 26.8623 92.8915 27.2431C93.2171 27.624 93.3924 28.1825 93.3924 28.8935V29.2997H93.4175ZM92.6661 28.6649C92.6661 28.2333 92.5659 27.9033 92.3655 27.6748C92.1652 27.4463 91.8897 27.3193 91.539 27.3193C91.1884 27.3193 90.9129 27.4463 90.6624 27.7001C90.412 27.954 90.2617 28.2841 90.2116 28.6903H92.6661V28.6649Z" fill="#D5D4D3"/>
<path d="M95.2224 31.4323H94.4961V24.5518H95.2224V31.4323Z" fill="#D5D4D3"/>
<path d="M100.856 29.0966C100.856 29.8329 100.656 30.4168 100.23 30.8738C99.829 31.3309 99.253 31.5594 98.5767 31.5594C97.9005 31.5594 97.3495 31.3308 96.9488 30.8992C96.548 30.4676 96.3477 29.8836 96.3477 29.1727C96.3477 28.4111 96.548 27.8017 96.9738 27.3447C97.3996 26.8877 97.9506 26.6846 98.6769 26.6846C99.3531 26.6846 99.8791 26.8877 100.28 27.3193C100.656 27.7509 100.856 28.3349 100.856 29.0966ZM100.105 29.122C100.105 28.538 99.9793 28.081 99.7288 27.7763C99.4784 27.4716 99.1027 27.3193 98.6268 27.3193C98.1509 27.3193 97.7753 27.4716 97.4998 27.8017C97.2243 28.1318 97.099 28.5634 97.099 29.1474C97.099 29.7059 97.2493 30.1375 97.5248 30.4422C97.8003 30.7469 98.176 30.8992 98.6519 30.8992C99.1277 30.8992 99.5034 30.7469 99.7539 30.4422C99.9793 30.1375 100.105 29.6805 100.105 29.122Z" fill="#D5D4D3"/>
<path d="M106.194 28.9696C106.194 29.7567 105.993 30.3914 105.618 30.8484C105.242 31.3055 104.741 31.534 104.09 31.534C103.489 31.534 103.038 31.2801 102.712 30.7469H102.687V33.5397H101.961V26.7607H102.687V27.5732H102.712C103.063 26.9639 103.589 26.6338 104.29 26.6338C104.866 26.6338 105.317 26.8369 105.668 27.2431C106.043 27.7001 106.194 28.2587 106.194 28.9696ZM105.442 28.9442C105.442 28.4364 105.317 28.0302 105.092 27.7509C104.866 27.4463 104.541 27.2939 104.14 27.2939C103.714 27.2939 103.389 27.4463 103.113 27.7255C102.863 28.0302 102.712 28.4111 102.712 28.8681V29.5282C102.712 29.909 102.838 30.2391 103.088 30.5184C103.338 30.7723 103.639 30.9246 104.015 30.9246C104.465 30.9246 104.791 30.7469 105.042 30.4168C105.317 30.036 105.442 29.5536 105.442 28.9442Z" fill="#D5D4D3"/>
<path d="M113.833 31.4324H113.107V28.7665C113.107 28.2587 113.031 27.8779 112.881 27.6494C112.731 27.4209 112.455 27.3193 112.105 27.3193C111.779 27.3193 111.529 27.4716 111.303 27.7509C111.078 28.0302 110.978 28.3857 110.978 28.7919V31.4324H110.251V28.6903C110.251 27.7763 109.901 27.3193 109.199 27.3193C108.874 27.3193 108.623 27.4463 108.398 27.7255C108.198 28.0048 108.097 28.3603 108.097 28.7919V31.4324H107.371V26.7861H108.097V27.5224H108.122C108.448 26.9639 108.924 26.6846 109.55 26.6846C109.851 26.6846 110.126 26.7607 110.352 26.9385C110.602 27.1162 110.752 27.3447 110.852 27.6494C111.203 27.0146 111.704 26.6846 112.38 26.6846C113.382 26.6846 113.883 27.3193 113.883 28.5888V31.4324H113.833Z" fill="#D5D4D3"/>
<path d="M118.867 29.2997H115.636C115.636 29.8329 115.786 30.2137 116.037 30.493C116.287 30.7723 116.663 30.8992 117.114 30.8992C117.639 30.8992 118.115 30.7215 118.541 30.3914V31.0769C118.14 31.3816 117.614 31.534 116.938 31.534C116.287 31.534 115.786 31.3308 115.41 30.8992C115.035 30.4676 114.859 29.8836 114.859 29.122C114.859 28.6649 114.96 28.2333 115.135 27.8525C115.31 27.4716 115.561 27.1924 115.886 26.9639C116.212 26.7607 116.562 26.6592 116.963 26.6592C117.564 26.6592 118.015 26.8623 118.341 27.2431C118.666 27.624 118.842 28.1825 118.842 28.8935V29.2997H118.867ZM118.115 28.6649C118.115 28.2333 118.015 27.9033 117.815 27.6748C117.614 27.4463 117.339 27.3193 116.988 27.3193C116.638 27.3193 116.362 27.4463 116.112 27.7001C115.861 27.954 115.711 28.2841 115.661 28.6903H118.115V28.6649Z" fill="#D5D4D3"/>
<path d="M123.723 31.4324H122.997V28.7919C122.997 27.8017 122.646 27.3193 121.945 27.3193C121.594 27.3193 121.294 27.4463 121.043 27.7255C120.793 28.0048 120.668 28.3603 120.668 28.7919V31.4324H119.941V26.7861H120.668V27.5478H120.693C121.043 26.9639 121.544 26.6592 122.196 26.6592C122.696 26.6592 123.072 26.8369 123.348 27.167C123.623 27.497 123.748 27.9794 123.748 28.5888V31.4324H123.723Z" fill="#D5D4D3"/>
<path d="M127.229 31.3816C127.054 31.4831 126.828 31.5339 126.553 31.5339C125.751 31.5339 125.351 31.0769 125.351 30.1629V27.4208H124.574V26.7861H125.351V25.6435L126.077 25.415V26.7861H127.229V27.4208H126.077V30.0359C126.077 30.3406 126.127 30.5691 126.227 30.6961C126.327 30.823 126.503 30.8992 126.753 30.8992C126.929 30.8992 127.104 30.8484 127.229 30.7468V31.3816Z" fill="#D5D4D3"/>
<path d="M30.9306 42.2224C30.4547 42.4763 29.8787 42.6032 29.1774 42.6032C28.5763 42.6032 28.0503 42.4763 27.5995 42.197C27.1487 41.9177 26.798 41.5368 26.5476 41.0544C26.2971 40.572 26.1719 39.9881 26.1719 39.3534C26.1719 38.6932 26.3221 38.0839 26.5977 37.5507C26.8732 37.0175 27.2739 36.6113 27.7748 36.3066C28.2757 36.0019 28.8267 35.875 29.4529 35.875C30.054 35.875 30.5549 35.9766 30.9556 36.1543V36.9667C30.5048 36.7129 29.9788 36.5859 29.4278 36.5859C28.952 36.5859 28.5262 36.6875 28.1505 36.916C27.7748 37.1445 27.4743 37.4745 27.2739 37.8808C27.0735 38.3124 26.9733 38.7694 26.9733 39.328C26.9733 39.8358 27.0735 40.2928 27.2739 40.699C27.4743 41.1052 27.7498 41.4099 28.1004 41.613C28.451 41.8161 28.8518 41.9431 29.3276 41.9431C29.9788 41.9431 30.5298 41.7907 30.9807 41.5115V42.2224H30.9306Z" fill="#D5D4D3"/>
<path d="M36.3168 40.1405C36.3168 40.8768 36.1165 41.4608 35.6907 41.9178C35.29 42.3748 34.7139 42.6033 34.0377 42.6033C33.3614 42.6033 32.8104 42.3748 32.4097 41.9432C32.009 41.5116 31.8086 40.9276 31.8086 40.2167C31.8086 39.455 32.009 38.8457 32.4347 38.3886C32.8605 37.9316 33.4115 37.7285 34.1379 37.7285C34.8141 37.7285 35.3401 37.9316 35.7408 38.3633C36.1165 38.8203 36.3168 39.4042 36.3168 40.1405ZM35.5655 40.1913C35.5655 39.6073 35.4402 39.1503 35.1898 38.8457C34.9393 38.541 34.5636 38.3886 34.0878 38.3886C33.6119 38.3886 33.2362 38.541 32.9607 38.871C32.6852 39.2011 32.56 39.6327 32.56 40.2167C32.56 40.7753 32.7102 41.2069 32.9857 41.5116C33.2613 41.8162 33.6369 41.9686 34.1128 41.9686C34.5887 41.9686 34.9644 41.8162 35.2148 41.5116C35.4402 41.2069 35.5655 40.7499 35.5655 40.1913Z" fill="#D5D4D3"/>
<path d="M38.1677 42.5016H37.4414V35.6211H38.1677V42.5016Z" fill="#D5D4D3"/>
<path d="M40.3982 42.5016H39.6719V35.6211H40.3982V42.5016Z" fill="#D5D4D3"/>
<path d="M45.1066 42.5017H44.3803V41.7654H44.3552C44.0296 42.324 43.5788 42.6033 42.9527 42.6033C42.5018 42.6033 42.1512 42.4763 41.9007 42.2478C41.6252 41.9939 41.5 41.6893 41.5 41.2577C41.5 40.3944 42.0009 39.8866 43.0027 39.7343L44.3803 39.5312C44.3803 38.7441 44.0547 38.3633 43.4285 38.3633C42.8775 38.3633 42.3766 38.541 41.9258 38.9218V38.1601C42.051 38.0586 42.3015 37.957 42.602 37.8555C42.9276 37.7539 43.2282 37.7031 43.4786 37.7031C44.5556 37.7031 45.0816 38.2871 45.0816 39.4296V42.5017H45.1066ZM44.3803 40.1405L43.2783 40.2929C42.9026 40.3436 42.6271 40.4452 42.4768 40.5721C42.3265 40.6991 42.2514 40.9022 42.2514 41.2069C42.2514 41.4354 42.3265 41.6385 42.5018 41.7654C42.6772 41.9178 42.8775 41.9686 43.128 41.9686C43.5037 41.9686 43.7792 41.8416 44.0296 41.5877C44.255 41.3338 44.3803 41.0038 44.3803 40.6229V40.1405Z" fill="#D5D4D3"/>
<path d="M50.7155 40.0389C50.7155 40.8005 50.5402 41.4353 50.1645 41.9177C49.7888 42.4001 49.2879 42.6286 48.6367 42.6286C48.0356 42.6286 47.5848 42.3747 47.2592 41.8415H47.2341V42.5016H46.5078V35.6211H47.2341V38.6678H47.2592C47.6098 38.0585 48.1358 37.7284 48.8371 37.7284C49.4131 37.7284 49.8639 37.9315 50.2146 38.3378C50.5402 38.7694 50.7155 39.328 50.7155 40.0389ZM49.9641 40.0135C49.9641 39.5057 49.8389 39.0994 49.6135 38.8202C49.3881 38.5155 49.0625 38.3632 48.6618 38.3632C48.236 38.3632 47.9104 38.5155 47.6349 38.7948C47.3844 39.0995 47.2341 39.4803 47.2341 39.9373V40.5974C47.2341 40.9783 47.3594 41.3083 47.6098 41.5876C47.8603 41.8415 48.1608 41.9938 48.5365 41.9938C48.9873 41.9938 49.3129 41.8161 49.5634 41.4861C49.8389 41.1052 49.9641 40.6228 49.9641 40.0135Z" fill="#D5D4D3"/>
<path d="M56.0004 40.1405C56.0004 40.8768 55.8001 41.4608 55.3743 41.9178C54.9736 42.3748 54.3975 42.6033 53.7213 42.6033C53.045 42.6033 52.494 42.3748 52.0933 41.9432C51.6926 41.5116 51.4922 40.9276 51.4922 40.2167C51.4922 39.455 51.6926 38.8457 52.1183 38.3886C52.5441 37.9316 53.0951 37.7285 53.8214 37.7285C54.4977 37.7285 55.0236 37.9316 55.4244 38.3633C55.8001 38.8203 56.0004 39.4042 56.0004 40.1405ZM55.2491 40.1913C55.2491 39.6073 55.1238 39.1503 54.8734 38.8457C54.6229 38.541 54.2472 38.3886 53.7714 38.3886C53.2955 38.3886 52.9198 38.541 52.6443 38.871C52.3688 39.2011 52.2436 39.6327 52.2436 40.2167C52.2436 40.7753 52.3938 41.2069 52.6693 41.5116C52.9448 41.8162 53.3205 41.9686 53.7964 41.9686C54.2723 41.9686 54.648 41.8162 54.8984 41.5116C55.1238 41.2069 55.2491 40.7499 55.2491 40.1913Z" fill="#D5D4D3"/>
<path d="M59.5317 38.5918C59.4065 38.4902 59.2061 38.4394 58.9807 38.4394C58.6551 38.4394 58.4046 38.5918 58.1792 38.8964C57.9789 39.2011 57.8787 39.6073 57.8787 40.1151V42.4764H57.1523V37.8301H57.8787V38.7949H57.9037C58.0039 38.4648 58.1542 38.2109 58.3796 38.0332C58.58 37.8555 58.8304 37.7539 59.1059 37.7539C59.3063 37.7539 59.4315 37.7793 59.5317 37.8047V38.5918Z" fill="#D5D4D3"/>
<path d="M63.5636 42.5017H62.8373V41.7654H62.8123C62.4867 42.324 62.0358 42.6033 61.4097 42.6033C60.9589 42.6033 60.6082 42.4763 60.3578 42.2478C60.0823 41.9939 59.957 41.6893 59.957 41.2577C59.957 40.3944 60.4579 39.8866 61.4598 39.7343L62.8373 39.5312C62.8373 38.7441 62.5117 38.3633 61.8856 38.3633C61.3346 38.3633 60.8336 38.541 60.3828 38.9218V38.1601C60.508 38.0586 60.7585 37.957 61.0591 37.8555C61.3846 37.7539 61.6852 37.7031 61.9357 37.7031C63.0126 37.7031 63.5386 38.2871 63.5386 39.4296V42.5017H63.5636ZM62.8373 40.1405L61.7353 40.2929C61.3596 40.3436 61.0841 40.4452 60.9338 40.5721C60.7835 40.6991 60.7084 40.9022 60.7084 41.2069C60.7084 41.4354 60.7835 41.6385 60.9589 41.7654C61.1342 41.9178 61.3346 41.9686 61.585 41.9686C61.9607 41.9686 62.2362 41.8416 62.4867 41.5877C62.7121 41.3338 62.8373 41.0038 62.8373 40.6229V40.1405Z" fill="#D5D4D3"/>
<path d="M67.0728 42.4509C66.8975 42.5525 66.6721 42.6032 66.3966 42.6032C65.5951 42.6032 65.1944 42.1462 65.1944 41.2322V38.4901H64.418V37.8554H65.1944V36.7129L65.9207 36.4844V37.8554H67.0728V38.4901H65.9207V41.1053C65.9207 41.4099 65.9708 41.6384 66.071 41.7654C66.1712 41.8923 66.3465 41.9685 66.597 41.9685C66.7723 41.9685 66.9476 41.9177 67.0728 41.8162V42.4509Z" fill="#D5D4D3"/>
<path d="M68.9003 36.1797C68.9003 36.3066 68.8502 36.4336 68.75 36.5351C68.6498 36.6367 68.5496 36.6621 68.3993 36.6621C68.2741 36.6621 68.1489 36.6113 68.0487 36.5351C67.9485 36.4336 67.8984 36.332 67.8984 36.1797C67.8984 36.0527 67.9485 35.9258 68.0237 35.8496C68.1238 35.748 68.224 35.6973 68.3743 35.6973C68.4995 35.6973 68.6248 35.748 68.7249 35.8496C68.8502 35.9512 68.9003 36.0527 68.9003 36.1797ZM68.775 42.5016H68.0487V37.8554H68.775V42.5016Z" fill="#D5D4D3"/>
<path d="M74.4106 40.1405C74.4106 40.8768 74.2102 41.4608 73.7844 41.9178C73.3837 42.3748 72.8077 42.6033 72.1314 42.6033C71.4552 42.6033 70.9042 42.3748 70.5034 41.9432C70.1027 41.5116 69.9023 40.9276 69.9023 40.2167C69.9023 39.455 70.1027 38.8457 70.5285 38.3886C70.9543 37.9316 71.5053 37.7285 72.2316 37.7285C72.9078 37.7285 73.4338 37.9316 73.8345 38.3633C74.2353 38.8203 74.4106 39.4042 74.4106 40.1405ZM73.6592 40.1913C73.6592 39.6073 73.534 39.1503 73.2835 38.8457C73.0331 38.541 72.6574 38.3886 72.1815 38.3886C71.7056 38.3886 71.33 38.541 71.0545 38.871C70.7789 39.2011 70.6537 39.6327 70.6537 40.2167C70.6537 40.7753 70.804 41.2069 71.0795 41.5116C71.355 41.8162 71.7307 41.9686 72.2066 41.9686C72.6824 41.9686 73.0581 41.8162 73.3086 41.5116C73.534 41.2069 73.6592 40.7499 73.6592 40.1913Z" fill="#D5D4D3"/>
<path d="M79.3444 42.5017H78.6181V39.8612C78.6181 38.871 78.2675 38.3886 77.5662 38.3886C77.2155 38.3886 76.915 38.5156 76.6645 38.7949C76.4141 39.0742 76.2888 39.4296 76.2888 39.8612V42.5017H75.5625V37.8555H76.2888V38.6171H76.3139C76.6645 38.0332 77.1654 37.7285 77.8166 37.7285C78.3176 37.7285 78.6932 37.9062 78.9687 38.2363C79.2442 38.5664 79.3695 39.0488 79.3695 39.6581V42.5017H79.3444Z" fill="#D5D4D3"/>
<path d="M86.1066 42.5017H85.3803V41.7654H85.3552C85.0296 42.324 84.5788 42.6033 83.9527 42.6033C83.5018 42.6033 83.1512 42.4763 82.9007 42.2478C82.6252 41.9939 82.5 41.6893 82.5 41.2577C82.5 40.3944 83.0009 39.8866 84.0027 39.7343L85.3803 39.5312C85.3803 38.7441 85.0547 38.3633 84.4285 38.3633C83.8775 38.3633 83.3766 38.541 82.9258 38.9218V38.1601C83.051 38.0586 83.3015 37.957 83.602 37.8555C83.9276 37.7539 84.2282 37.7031 84.4786 37.7031C85.5556 37.7031 86.0815 38.2871 86.0815 39.4296V42.5017H86.1066ZM85.3803 40.1405L84.2782 40.2929C83.9026 40.3436 83.6271 40.4452 83.4768 40.5721C83.3265 40.6991 83.2514 40.9022 83.2514 41.2069C83.2514 41.4354 83.3265 41.6385 83.5018 41.7654C83.6771 41.9178 83.8775 41.9686 84.128 41.9686C84.5037 41.9686 84.7792 41.8416 85.0296 41.5877C85.255 41.3338 85.3803 41.0038 85.3803 40.6229V40.1405Z" fill="#D5D4D3"/>
<path d="M91.2897 42.5017H90.5634V39.8612C90.5634 38.871 90.2127 38.3886 89.5115 38.3886C89.1608 38.3886 88.8603 38.5156 88.6098 38.7949C88.3594 39.0742 88.2341 39.4296 88.2341 39.8612V42.5017H87.5078V37.8555H88.2341V38.6171H88.2592C88.6098 38.0332 89.1107 37.7285 89.7619 37.7285C90.2628 37.7285 90.6385 37.9062 90.914 38.2363C91.1895 38.5664 91.3148 39.0488 91.3148 39.6581V42.5017H91.2897Z" fill="#D5D4D3"/>
<path d="M96.5257 42.5016H95.7994V41.7146H95.7743C95.4237 42.3239 94.8977 42.6286 94.1965 42.6286C93.6204 42.6286 93.1696 42.4255 92.8189 41.9939C92.4683 41.5622 92.293 41.0037 92.293 40.3182C92.293 39.5565 92.4933 38.9471 92.869 38.4647C93.2447 38.0077 93.7456 37.7792 94.3968 37.7792C95.023 37.7792 95.4738 38.0331 95.7743 38.5409H95.7994V35.6719H96.5257V42.5016ZM95.7994 40.3943V39.7088C95.7994 39.328 95.6742 38.9979 95.4237 38.744C95.1732 38.4901 94.8727 38.3632 94.497 38.3632C94.0462 38.3632 93.6955 38.5409 93.4451 38.871C93.1946 39.201 93.0443 39.658 93.0443 40.242C93.0443 40.7752 93.1696 41.2068 93.42 41.5115C93.6705 41.8161 93.9961 41.9685 94.3968 41.9685C94.7976 41.9685 95.1232 41.8161 95.3987 41.5368C95.6742 41.2576 95.7994 40.8513 95.7994 40.3943Z" fill="#D5D4D3"/>
<path d="M104.616 42.2224C104.14 42.4763 103.564 42.6032 102.838 42.6032C102.236 42.6032 101.71 42.4763 101.26 42.197C100.809 41.9177 100.458 41.5368 100.208 41.0544C99.9573 40.572 99.832 39.9881 99.832 39.3534C99.832 38.6932 99.9823 38.0839 100.258 37.5507C100.533 37.0175 100.934 36.6113 101.435 36.3066C101.936 36.0019 102.487 35.875 103.113 35.875C103.714 35.875 104.215 35.9766 104.616 36.1543V36.9667C104.165 36.7129 103.639 36.5859 103.088 36.5859C102.612 36.5859 102.186 36.6875 101.811 36.916C101.435 37.1445 101.134 37.4745 100.934 37.8808C100.734 38.3124 100.633 38.7694 100.633 39.328C100.633 39.8358 100.734 40.2928 100.934 40.699C101.134 41.1052 101.41 41.4099 101.761 41.613C102.111 41.8161 102.512 41.9431 102.988 41.9431C103.639 41.9431 104.19 41.7907 104.641 41.5115V42.2224H104.616Z" fill="#D5D4D3"/>
<path d="M109.977 40.1405C109.977 40.8768 109.777 41.4608 109.351 41.9178C108.95 42.3748 108.374 42.6033 107.698 42.6033C107.022 42.6033 106.471 42.3748 106.07 41.9432C105.669 41.5116 105.469 40.9276 105.469 40.2167C105.469 39.455 105.669 38.8457 106.095 38.3886C106.521 37.9316 107.072 37.7285 107.798 37.7285C108.474 37.7285 109 37.9316 109.401 38.3633C109.777 38.8203 109.977 39.4042 109.977 40.1405ZM109.226 40.1913C109.226 39.6073 109.1 39.1503 108.85 38.8457C108.599 38.541 108.224 38.3886 107.748 38.3886C107.272 38.3886 106.896 38.541 106.621 38.871C106.345 39.2011 106.22 39.6327 106.22 40.2167C106.22 40.7753 106.37 41.2069 106.646 41.5116C106.921 41.8162 107.297 41.9686 107.773 41.9686C108.249 41.9686 108.625 41.8162 108.875 41.5116C109.1 41.2069 109.226 40.7499 109.226 40.1913Z" fill="#D5D4D3"/>
<path d="M114.911 42.5017H114.184V39.8612C114.184 38.871 113.834 38.3886 113.133 38.3886C112.782 38.3886 112.481 38.5156 112.231 38.7949C111.98 39.0742 111.855 39.4296 111.855 39.8612V42.5017H111.129V37.8555H111.855V38.6171H111.88C112.231 38.0332 112.732 37.7285 113.383 37.7285C113.884 37.7285 114.26 37.9062 114.535 38.2363C114.811 38.5664 114.936 39.0488 114.936 39.6581V42.5017H114.911Z" fill="#D5D4D3"/>
<path d="M118.417 42.4509C118.241 42.5525 118.016 42.6032 117.74 42.6032C116.939 42.6032 116.538 42.1462 116.538 41.2322V38.4901H115.762V37.8554H116.538V36.7129L117.264 36.4844V37.8554H118.417V38.4901H117.264V41.1053C117.264 41.4099 117.315 41.6384 117.415 41.7654C117.515 41.8923 117.69 41.9685 117.941 41.9685C118.116 41.9685 118.291 41.9177 118.417 41.8162V42.4509Z" fill="#D5D4D3"/>
<path d="M123.05 40.3436H119.819C119.819 40.8768 119.97 41.2576 120.22 41.5369C120.471 41.8162 120.846 41.9432 121.297 41.9432C121.823 41.9432 122.299 41.7654 122.725 41.4354V42.1209C122.324 42.4256 121.798 42.5779 121.122 42.5779C120.471 42.5779 119.97 42.3748 119.594 41.9432C119.218 41.5115 119.043 40.9276 119.043 40.1659C119.043 39.7089 119.143 39.2773 119.318 38.8964C119.494 38.5156 119.744 38.2363 120.07 38.0078C120.395 37.8047 120.746 37.7031 121.147 37.7031C121.748 37.7031 122.199 37.9062 122.524 38.2871C122.85 38.6679 123.025 39.2265 123.025 39.9374V40.3436H123.05ZM122.299 39.7343C122.299 39.3027 122.199 38.9726 121.998 38.7441C121.798 38.5156 121.522 38.3886 121.172 38.3886C120.821 38.3886 120.546 38.5156 120.295 38.7695C120.045 39.0234 119.895 39.3534 119.844 39.7597H122.299V39.7343Z" fill="#D5D4D3"/>
<path d="M127.907 42.5017H127.181V39.8612C127.181 38.871 126.83 38.3886 126.129 38.3886C125.778 38.3886 125.477 38.5156 125.227 38.7949C124.977 39.0742 124.851 39.4296 124.851 39.8612V42.5017H124.125V37.8555H124.851V38.6171H124.876C125.227 38.0332 125.728 37.7285 126.379 37.7285C126.88 37.7285 127.256 37.9062 127.531 38.2363C127.807 38.5664 127.932 39.0488 127.932 39.6581V42.5017H127.907Z" fill="#D5D4D3"/>
<path d="M131.414 42.4509C131.239 42.5525 131.014 42.6032 130.738 42.6032C129.937 42.6032 129.536 42.1462 129.536 41.2322V38.4901H128.734V37.8554H129.511V36.7129L130.237 36.4844V37.8554H131.389V38.4901H130.237V41.1053C130.237 41.4099 130.287 41.6384 130.387 41.7654C130.488 41.8923 130.663 41.9685 130.913 41.9685C131.089 41.9685 131.264 41.9177 131.389 41.8162V42.4509H131.414Z" fill="#D5D4D3"/>
</svg>
