<svg width="64" height="64" viewBox="0 0 64 64" fill="none" xmlns="http://www.w3.org/2000/svg">
<g clip-path="url(#clip0)">
<path d="M32.1736 45.1772C26.2862 51.0143 20.3641 56.7822 14.5459 62.6883C13.2646 63.9662 12.6065 63.8281 11.4291 62.6192C7.96586 58.9927 4.39876 55.5043 0.797025 52.0159C-0.103408 51.1524 -0.276568 50.6689 0.727761 49.7018C6.40741 44.1411 11.9832 38.4768 17.6628 32.9506C18.5979 32.018 18.494 31.6036 17.6282 30.7401C11.9139 25.1449 6.30352 19.446 0.623865 13.8507C-0.13804 13.0909 -0.207304 12.711 0.589233 11.9166C4.2256 8.39364 7.7927 4.80163 11.3598 1.20962C12.8836 -0.344621 13.126 -0.344621 14.6498 1.14054C20.468 6.94302 26.3208 12.7455 32.1736 18.5134C32.7278 18.5825 33.0741 18.997 33.455 19.3424C37.1953 23.038 40.9009 26.7682 44.6412 30.4983C44.9875 30.8437 45.4031 31.1891 45.4377 31.7763V31.9144C45.4031 32.467 44.9875 32.8124 44.6412 33.1923C40.9356 36.9225 37.1953 40.6181 33.455 44.3483C33.0741 44.7282 32.7278 45.1082 32.1736 45.1772Z" fill="#F36F22"/>
<path d="M45.4023 31.7745C41.004 27.3535 36.5711 22.9326 32.1729 18.5117C38.1988 12.5019 44.1902 6.4577 50.2161 0.413443C50.8049 -0.208251 51.1512 -0.139174 51.74 0.447982C55.688 4.41992 59.6361 8.35732 63.5841 12.2602C64.1729 12.8473 64.1382 13.1927 63.5495 13.7799C57.4889 19.7896 51.4283 25.7648 45.4023 31.7745Z" fill="#092432"/>
<path d="M32.1729 45.1769C36.5711 40.7559 41.004 36.335 45.4023 31.9141C47.4109 33.9864 49.4196 36.0932 51.4629 38.1655C55.4109 42.172 59.3936 46.144 63.3763 50.1159C63.8612 50.5994 64.4153 50.9448 63.6187 51.7392C59.4283 55.8493 55.3071 60.0285 51.3244 64.0004C44.8828 57.6798 38.5105 51.4284 32.1729 45.1769Z" fill="#092432"/>
</g>
<defs>
<clipPath id="clip0">
<rect width="64" height="64" fill="white"/>
</clipPath>
</defs>
</svg>
