<svg width="64" height="64" viewBox="0 0 64 64" fill="none" xmlns="http://www.w3.org/2000/svg">
<g clip-path="url(#clip0)">
<path d="M62.6931 31.2538C62.5331 30.6671 62.3464 30.1071 62.1331 29.5204C61.9198 28.9338 61.7331 28.4004 61.4931 27.8404L61.3331 27.4404H61.1731L59.5464 28.0004L57.9464 28.6404L57.2264 28.9338C55.2807 29.7705 53.3999 30.751 51.5998 31.8671C50.7731 32.4004 49.9198 32.9871 48.9331 33.6004L47.7598 34.4804C46.0135 35.8576 44.3897 37.3833 42.9064 39.0404C42.2398 39.7604 41.5998 40.5338 40.9864 41.3338C39.0473 43.8543 37.4095 46.5929 36.1064 49.4938C35.6531 50.5071 35.1998 51.6004 34.7998 52.7204C34.3731 53.9471 33.9731 55.2271 33.5998 56.5604C33.5998 56.9604 33.3864 57.3338 33.3064 57.7071C33.2264 58.0804 33.0398 58.7738 32.9331 59.3338V59.6804L32.6931 60.9604H35.0131C35.0131 60.6404 35.3864 60.2138 35.5731 59.8138L35.8131 59.3338L36.1864 58.6404L36.6664 57.7071C37.9749 55.3927 39.5211 53.221 41.2798 51.2271C43.5262 48.7044 46.1427 46.5374 49.0398 44.8004L50.1598 44.1338L50.4264 44.0004L52.1864 43.1204L53.0664 42.7204L53.7864 42.4538C55.1353 41.9169 56.5156 41.4627 57.9198 41.0938L59.5198 40.7204C60.0531 40.7204 60.6131 40.5071 61.1464 40.4004C61.6798 40.2938 63.0131 40.1071 63.9731 40.0004C63.9474 37.0401 63.5167 34.0973 62.6931 31.2538Z" fill="#74060E"/>
<path d="M35.7866 4V20.6133C38.2803 21.2545 40.5076 22.6673 42.1503 24.65C43.793 26.6328 44.767 29.0839 44.9333 31.6533L45.36 31.3333C46.6586 30.2893 48.0213 29.3274 49.44 28.4533C51.6525 27.0712 53.9813 25.8845 56.3999 24.9067L56.9866 24.6667C56.1777 19.3865 53.6711 14.5134 49.8461 10.7846C46.021 7.05583 41.0857 4.67419 35.7866 4Z" fill="#FDB813"/>
<path d="M32.7199 44.7467H16.3466L23.2799 40.32C21.9612 38.7298 21.0655 36.8324 20.6759 34.8037C20.2862 32.775 20.4152 30.6807 21.0509 28.7152C21.6866 26.7496 22.8083 24.9765 24.3122 23.5601C25.816 22.1438 27.6531 21.1302 29.6532 20.6133V4C23.7501 4.78233 18.3322 7.68269 14.4079 12.1614C10.4835 16.64 8.32 22.3919 8.31989 28.3467V47.44C8.33335 48.6108 8.59782 49.7651 9.09543 50.825C9.59304 51.8849 10.3122 52.8258 11.2044 53.584C12.0967 54.3423 13.1411 54.9003 14.2674 55.2205C15.3937 55.5407 16.5756 55.6155 17.7332 55.44L24.6666 54.3733V61.0667H28.6932V60.3467L28.9332 59.12V58.8533C28.9208 58.7649 28.9208 58.6751 28.9332 58.5867C28.9332 58 29.1732 57.4133 29.3332 56.8533C29.3887 56.5476 29.4599 56.245 29.5466 55.9467V55.6C29.7332 54.9067 29.9466 54.2133 30.1599 53.5467L30.3999 52.7733C31.3125 49.9608 32.4818 47.2383 33.8932 44.64C33.5042 44.6953 33.1125 44.7309 32.7199 44.7467Z" fill="#FDB813"/>
<path d="M1.9737 44.6942H6.1337V32.5342L0.320367 41.5208C0.121544 41.8259 0.00743276 42.1784 -0.0102678 42.5421C-0.0279684 42.9059 0.0513788 43.2677 0.219639 43.5907C0.387899 43.9136 0.639018 44.186 0.947251 44.3799C1.25548 44.5739 1.60974 44.6823 1.9737 44.6942Z" fill="#FDB813"/>
<path d="M35.7871 24.8804C34.8107 24.4943 33.7704 24.2952 32.7205 24.2937C31.2875 24.2744 29.8757 24.6404 28.6325 25.3535C27.3894 26.0665 26.3607 27.1004 25.6538 28.347C24.9087 29.6156 24.5216 31.0625 24.5338 32.5337C24.5316 33.7768 24.8117 35.0042 25.3528 36.1233C25.894 37.2424 26.6821 38.2242 27.6578 38.9944C28.6335 39.7647 29.7713 40.3035 30.9854 40.5701C32.1996 40.8367 33.4585 40.8243 34.6671 40.5337C35.7169 40.2697 36.7035 39.7987 37.5689 39.1485C38.4344 38.4983 39.1613 37.6818 39.7071 36.747C40.4837 35.4782 40.8986 34.0213 40.9071 32.5337C40.9233 30.8909 40.4433 29.2814 39.5298 27.9158C38.6162 26.5503 37.3118 25.4923 35.7871 24.8804Z" fill="#FDB813"/>
</g>
<defs>
<clipPath id="clip0">
<rect width="64" height="57.0667" fill="white" transform="translate(0 4)"/>
</clipPath>
</defs>
</svg>
