<svg width="64" height="65" viewBox="0 0 64 65" fill="none" xmlns="http://www.w3.org/2000/svg">
<g clip-path="url(#clip0)">
<path d="M47.2001 52.1996C46.1001 52.5996 45.1001 52.8996 44.0001 53.2996C41.6001 54.1996 39.3001 54.9996 36.9001 55.8996C36.6941 55.9546 36.5013 56.0507 36.3334 56.1822C36.1655 56.3137 36.0259 56.4779 35.9231 56.6647C35.8203 56.8516 35.7565 57.0574 35.7353 57.2696C35.7142 57.4818 35.7362 57.6961 35.8001 57.8996C35.9849 59.2159 36.5315 60.4551 37.379 61.4792C38.2265 62.5032 39.3416 63.2719 40.6001 63.6996C41.5654 64.0337 42.592 64.1524 43.608 64.0476C44.624 63.9428 45.6047 63.6169 46.4814 63.0928C47.358 62.5687 48.1094 61.8591 48.6827 61.0138C49.256 60.1685 49.6374 59.2079 49.8001 58.1996C49.9001 57.7996 49.9001 57.2996 50.0001 56.7996C49.9952 55.3165 49.5033 53.876 48.6001 52.6996C48.4637 52.464 48.2481 52.2845 47.9918 52.193C47.7354 52.1014 47.4549 52.1038 47.2001 52.1996Z" fill="#B6B6B6"/>
<path d="M50.0003 0C47.6455 0.0036333 45.3296 0.601183 43.267 1.73735C41.2045 2.87352 39.4618 4.5116 38.2003 6.5C37.6866 7.35907 37.2515 8.26273 36.9003 9.2C36.295 10.7274 35.9894 12.3571 36.0003 14C36.0003 17.713 37.4753 21.274 40.1008 23.8995C42.7263 26.525 46.2872 28 50.0003 28C50.4029 28.0164 50.806 27.9828 51.2003 27.9C52.2514 27.8063 53.2901 27.6052 54.3003 27.3C57.4575 26.2624 60.1426 24.1356 61.8754 21.2998C63.6083 18.4641 64.2759 15.1044 63.7588 11.8215C63.2418 8.53872 61.5737 5.54689 59.0531 3.38111C56.5324 1.21532 53.3235 0.0168424 50.0003 0V0ZM54.6003 18.3L50.6003 15.1L50.2003 18.3L49.9003 20.2L47.5003 19.7L47.0003 19.6L47.2003 19L48.6003 14.9V14.8H48.5003L45.4003 15.5L44.0003 15.8L43.9003 13.5V12.9H48.6003L46.2003 8.4L49.0003 7.2L50.4003 12.1L53.8003 8.8L55.7003 11L51.7003 13.5L56.2003 15.9L54.6003 18.3Z" fill="#741414"/>
<path d="M17.13 24.9199H0V27.9199H17.13V24.9199Z" fill="#B6B6B6"/>
<path d="M24.54 31.1797H0V34.1797H24.54V31.1797Z" fill="#B6B6B6"/>
<path d="M20.45 37.4502H0V40.4502H20.45V37.4502Z" fill="#B6B6B6"/>
<path d="M15.3597 21.88C15.7407 20.0651 16.4672 18.3404 17.4997 16.8C18.5578 15.222 19.8766 13.8356 21.3997 12.7C22.0144 12.2609 22.4593 11.6236 22.6596 10.8952C22.8599 10.1668 22.8034 9.39168 22.4997 8.7C22.3997 8.4 22.2997 8.2 22.1997 7.9L22.0997 7.6C21.8963 7.02318 21.8279 6.4074 21.8997 5.8C21.9788 5.03261 22.3394 4.32174 22.9119 3.80464C23.4844 3.28754 24.2282 3.00088 24.9997 3H25.3997C26.0065 3.04529 26.5864 3.26874 27.0668 3.64233C27.5471 4.01592 27.9064 4.523 28.0997 5.1C28.1997 5.4 28.2997 5.7 28.3997 6.1L28.4997 6.4C28.6971 7.06771 29.1062 7.65315 29.6654 8.06802C30.2245 8.48289 30.9034 8.7047 31.5997 8.7H33.5997C33.8955 7.69343 34.2978 6.72127 34.7997 5.8C33.9997 5.7 33.1997 5.7 32.4997 5.6V5.7H31.4997C31.2997 5.7 31.2997 5.6 31.1997 5.5C30.9997 5 30.8997 4.5 30.6997 4C30.3144 2.91949 29.6309 1.97026 28.7283 1.26231C27.8256 0.554368 26.7409 0.116691 25.5997 0L24.8997 0C23.4319 0.00445729 22.0134 0.52949 20.8964 1.48168C19.7794 2.43387 19.0364 3.75145 18.7997 5.2C18.7785 6.28035 18.9132 7.35811 19.1997 8.4C19.2997 8.8 19.4997 9.2 19.5997 9.6C19.6209 9.64575 19.6326 9.69535 19.6339 9.74577C19.6353 9.79618 19.6263 9.84634 19.6076 9.89317C19.5889 9.93999 19.5608 9.98249 19.525 10.0181C19.4893 10.0536 19.4466 10.0815 19.3997 10.1C17.6501 11.4462 16.1304 13.0673 14.8997 14.9C13.4858 17.0031 12.5568 19.394 12.1797 21.9L15.3597 21.88Z" fill="#B6B6B6"/>
<path d="M63.7999 40.2004L62.5999 36.9004C62.3283 36.0057 61.7184 35.2523 60.8999 34.8004C59.3973 33.8813 58.0756 32.6951 56.9999 31.3004C56.6092 30.8531 56.242 30.3858 55.8999 29.9004C54.9116 30.3183 53.867 30.5879 52.7999 30.7004C53.3513 31.5357 53.9524 32.3371 54.5999 33.1004C55.9117 34.7343 57.503 36.1225 59.2999 37.2004C59.5032 37.3437 59.6458 37.5576 59.6999 37.8004C59.9999 38.7004 60.2999 39.5004 60.5999 40.4004L51.9999 43.5004L47.6999 45.1004L40.1999 47.8004L18.8999 55.7004L18.7999 55.5004C18.4999 54.7004 18.2999 54.0004 17.9999 53.2004C17.8965 52.9438 17.8965 52.657 17.9999 52.4004C18.5283 50.8518 18.8314 49.2352 18.8999 47.6004C19.0196 46.1762 19.0196 44.7445 18.8999 43.3204H15.7499C15.8417 44.6117 15.8584 45.9072 15.7999 47.2004C15.7214 48.5562 15.4865 49.8985 15.0999 51.2004C14.8 52.1096 14.8 53.0911 15.0999 54.0004L16.2999 57.3004C16.4155 57.712 16.6652 58.0732 17.0094 58.3268C17.3536 58.5804 17.7725 58.7119 18.1999 58.7004C18.4763 58.6814 18.7471 58.6137 18.9999 58.5004C28.9999 55.2004 38.8999 51.6004 48.8999 48.0004C53.4999 46.3004 57.9999 44.7004 62.5999 43.0004C62.8767 42.9147 63.1315 42.77 63.3468 42.5761C63.5621 42.3823 63.7327 42.1439 63.8468 41.8777C63.961 41.6114 64.0159 41.3235 64.0078 41.0339C63.9997 40.7443 63.9287 40.4599 63.7999 40.2004Z" fill="#B6B6B6"/>
</g>
<defs>
<clipPath id="clip0">
<rect width="64" height="64.08" fill="white"/>
</clipPath>
</defs>
</svg>
