<svg width="574" height="419" viewBox="0 0 574 419" fill="none" xmlns="http://www.w3.org/2000/svg">
<g opacity="0.1">
<path d="M230.176 3.15622C273.941 3.30046 316.739 16.1015 353.456 40.0299C390.174 63.9583 419.259 98.0021 437.236 138.094C469.618 117.896 504.363 101.802 540.679 90.1787C512.951 30.9642 469.036 -19.1081 414.059 -54.1974C359.082 -89.2867 295.308 -107.946 230.176 -108C164.899 -107.892 101.001 -89.1155 45.9538 -53.8651C-9.09369 -18.6147 -53.016 31.6525 -80.678 91.0595C-44.3914 102.759 -9.65559 118.849 22.7646 138.975C40.6369 98.6637 69.7206 64.3996 106.517 40.3044C143.313 16.2091 186.255 3.30914 230.176 3.15622Z" fill="#2B2A29"/>
<path d="M461.735 273.074L455.762 275.881C447.751 323.949 424.757 368.265 390.057 402.517C355.356 436.768 310.718 459.206 262.503 466.636C254.773 467.689 247.042 468.391 239.136 468.742H230.703H222.094C214.13 468.742 206.399 468.04 198.903 466.636C150.851 459.304 106.327 437.054 71.6406 403.037C36.9544 369.021 13.8651 324.964 5.64468 277.11L-1.03152 273.951C-37.1244 259.134 -75.1756 249.618 -114 245.698C-111.397 335.147 -74.0307 420.07 -9.81752 482.473C54.3957 544.876 140.41 579.855 230 580C319.725 579.805 405.841 544.689 470.069 482.109C534.297 419.528 571.579 334.409 574.001 244.82C535.409 248.773 497.595 258.29 461.735 273.074Z" fill="#2B2A29"/>
<path d="M219.22 458.474C189.023 290.927 99.3098 197.904 17.6727 147.693C-14.7775 127.423 -49.6364 111.324 -86.0854 99.7725C-104.421 142.389 -113.919 188.306 -114 234.726C-73.9836 238.708 -34.7662 248.561 2.39868 263.972C87.8128 301.266 155.994 369.623 193.236 455.302C201.839 457.073 210.439 457.997 219.22 458.474Z" fill="#2B2A29"/>
<path d="M543.318 99.7725C506.843 111.157 471.988 127.193 439.614 147.482C358.371 198.174 268.53 291.138 238.524 458.474C247.57 458.474 256.019 457.161 264.845 455.492C301.807 369.825 369.912 301.37 455.407 263.951C492.545 248.586 531.745 238.775 571.744 234.834C571.528 188.352 561.857 142.4 543.318 99.7725Z" fill="#2B2A29"/>
</g>
</svg>
