<svg width="143" height="28" viewBox="0 0 143 28" fill="none" xmlns="http://www.w3.org/2000/svg">
<g clip-path="url(#clip0)">
<path d="M44.6087 6.48007H48.5628V22.2323H44.6087V20.5693C43.937 21.2326 43.1512 21.7694 42.289 22.1538C41.4871 22.4808 40.6284 22.6457 39.7624 22.6391C38.7653 22.6416 37.7792 22.4316 36.8697 22.023C35.9602 21.6144 35.1482 21.0166 34.4879 20.2695C32.9983 18.68 32.1978 16.5658 32.261 14.3883C32.1727 12.1924 32.9404 10.0481 34.4022 8.40717C35.0549 7.66496 35.8603 7.07272 36.7634 6.67109C37.6664 6.26946 38.6457 6.06795 39.6339 6.08038C40.5479 6.07481 41.4535 6.25448 42.2962 6.60854C43.1642 6.99135 43.9496 7.53919 44.6087 8.22159V6.48007ZM40.4833 9.71331C39.9172 9.70445 39.3558 9.81637 38.8364 10.0416C38.3171 10.2668 37.8517 10.6002 37.4713 11.0195C36.6438 11.9246 36.2076 13.1201 36.2579 14.3455C36.2078 15.5794 36.6434 16.7838 37.4713 17.7001C37.8557 18.1171 38.3242 18.4479 38.8459 18.6706C39.3675 18.8933 39.9305 19.0028 40.4976 18.9919C41.0753 19.0065 41.6495 18.8982 42.1823 18.6743C42.715 18.4503 43.1942 18.1158 43.588 17.6929C44.4265 16.7654 44.8651 15.5445 44.8085 14.2955C44.8341 13.6881 44.7394 13.0816 44.53 12.5108C44.3205 11.94 44.0004 11.4162 43.588 10.9695C43.1869 10.555 42.7034 10.2291 42.1686 10.0128C41.6339 9.79642 41.0598 9.69441 40.4833 9.71331Z" fill="#414042"/>
<path d="M56.5071 6.48022V8.22174C57.1696 7.54023 57.9572 6.99259 58.8267 6.60869C59.6693 6.25463 60.575 6.07496 61.489 6.08052C62.4795 6.0665 63.4614 6.26723 64.367 6.6689C65.2726 7.07056 66.0804 7.66363 66.7349 8.40731C68.2001 10.0463 68.9683 12.192 68.8762 14.3884C68.9394 16.566 68.1389 18.6801 66.6493 20.2697C65.9879 21.0173 65.1747 21.6153 64.264 22.024C63.3532 22.4326 62.3658 22.6423 61.3676 22.6393C60.4993 22.6459 59.6382 22.4809 58.8338 22.1539C57.9653 21.7733 57.1742 21.2362 56.4999 20.5694V27.9923H52.5886V6.48022H56.5071ZM60.661 9.71345C60.0846 9.69695 59.5111 9.80149 58.9775 10.0203C58.444 10.2391 57.9622 10.5674 57.5634 10.9839C57.1484 11.4292 56.8262 11.9526 56.6154 12.5236C56.4047 13.0946 56.3096 13.7018 56.3358 14.3099C56.3072 14.9291 56.4009 15.5478 56.6115 16.1308C56.8222 16.7137 57.1456 17.2495 57.5634 17.7073C57.9599 18.1279 58.4409 18.4597 58.9747 18.6812C59.5086 18.9026 60.0833 19.0085 60.661 18.9921C61.2338 19.0019 61.802 18.8892 62.3277 18.6615C62.8533 18.4337 63.3242 18.0963 63.7087 17.6716C64.549 16.7611 64.9953 15.5553 64.9506 14.3171C64.9982 13.0908 64.5596 11.8954 63.7301 10.991C63.3393 10.5715 62.8632 10.2404 62.3339 10.02C61.8045 9.79963 61.2341 9.69511 60.661 9.71345Z" fill="#414042"/>
<path d="M76.0779 6.48061V8.22213C76.743 7.54369 77.53 6.99648 78.3975 6.60908C79.7393 6.05807 81.2186 5.93513 82.6329 6.2571C84.0473 6.57906 85.3276 7.33019 86.2987 8.4077C87.7632 10.047 88.5312 12.1925 88.4399 14.3888C88.5004 16.5672 87.6974 18.6812 86.2059 20.2701C85.5445 21.0177 84.7313 21.6157 83.8205 22.0243C82.9098 22.4329 81.9224 22.6427 80.9242 22.6397C80.0559 22.6457 79.195 22.4808 78.3904 22.1543C77.5231 21.7714 76.7324 21.2346 76.0565 20.5698V27.9927H72.1594V6.48061H76.0779ZM80.239 9.71385C79.6624 9.696 79.0885 9.79992 78.5547 10.0188C78.021 10.2377 77.5394 10.5667 77.1413 10.9843C76.7254 11.4292 76.4021 11.9524 76.1901 12.5234C75.9781 13.0944 75.8818 13.7018 75.9066 14.3103C75.8516 15.5617 76.2957 16.7837 77.1413 17.7077C77.537 18.1293 78.0178 18.462 78.5519 18.6835C79.086 18.905 79.6611 19.0103 80.239 18.9925C80.8115 19.0009 81.3794 18.8876 81.9048 18.66C82.4302 18.4323 82.9013 18.0956 83.2867 17.672C84.1217 16.7587 84.565 15.5542 84.5214 14.3175C84.5687 13.0926 84.1329 11.8982 83.3081 10.9914C82.9167 10.5726 82.4405 10.242 81.9113 10.0217C81.3821 9.80137 80.812 9.69643 80.239 9.71385Z" fill="#414042"/>
<path d="M89.4814 6.48047H93.5141L97.4896 15.7591L101.458 6.48047H105.469L98.7672 22.2327H96.2049L89.4814 6.48047Z" fill="#BCBEC0"/>
<path d="M110.273 -0.000693964C110.602 -0.00977608 110.93 0.0488897 111.235 0.171666C111.541 0.294442 111.818 0.47871 112.05 0.713046C112.286 0.953442 112.471 1.23934 112.594 1.55342C112.717 1.86749 112.774 2.20321 112.763 2.54022C112.772 2.87263 112.713 3.20328 112.59 3.51235C112.467 3.82142 112.284 4.10253 112.05 4.33884C111.825 4.58715 111.551 4.7854 111.245 4.92067C110.939 5.05594 110.607 5.12521 110.273 5.12396C109.936 5.12871 109.602 5.06325 109.293 4.93175C108.983 4.80025 108.704 4.60561 108.474 4.36025C108.237 4.11721 108.052 3.82881 107.929 3.51238C107.806 3.19594 107.749 2.85799 107.76 2.51881C107.751 2.18846 107.81 1.8598 107.933 1.55297C108.056 1.24614 108.24 0.96761 108.474 0.734458C108.706 0.493211 108.986 0.303172 109.295 0.176561C109.605 0.0499505 109.938 -0.0104289 110.273 -0.000693964ZM108.295 6.48006H112.242V22.2323H108.295V6.48006Z" fill="#BCBEC0"/>
<path d="M117.41 0.677979H121.364V6.48068H123.705V9.88522H121.364V22.2329H117.41V9.88522H115.383V6.48068H117.41V0.677979Z" fill="#BCBEC0"/>
<path d="M126.053 6.48047H130.093L134.183 16.3658L138.694 6.48047H142.748L132.884 27.9926H128.83L132.07 21.055L126.053 6.48047Z" fill="#BCBEC0"/>
<path d="M13.9964 4.5037C15.778 4.50954 17.5203 5.0282 19.015 5.9977C20.5098 6.9672 21.6938 8.34655 22.4257 9.97094C23.7439 9.15259 25.1583 8.50051 26.6367 8.02957C25.5079 5.63039 23.7202 3.60162 21.4821 2.17991C19.2441 0.758205 16.6479 0.00217142 13.9964 0C11.339 0.0043661 8.73781 0.76514 6.49687 2.19337C4.25593 3.62161 2.46789 5.65828 1.3418 8.06526C2.81899 8.53928 4.23306 9.19119 5.55286 10.0066C6.28043 8.37335 7.4644 6.98508 8.96235 6.00882C10.4603 5.03256 12.2084 4.50989 13.9964 4.5037Z" fill="#FDB813"/>
<path d="M23.4181 15.5024L23.1754 15.6166C22.85 17.5716 21.9158 19.374 20.5061 20.7671C19.0964 22.1602 17.283 23.0728 15.3242 23.3749C15.0102 23.4178 14.6962 23.4463 14.375 23.4606H14.0324H13.6826C13.3591 23.4606 13.045 23.432 12.7405 23.3749C10.7884 23.0768 8.97959 22.1718 7.57046 20.7883C6.16133 19.4048 5.22333 17.6129 4.88938 15.6666L4.61815 15.5381C3.15188 14.9355 1.60605 14.5484 0.0288086 14.389C0.134542 18.027 1.65256 21.481 4.26122 24.0191C6.86988 26.5571 10.3642 27.9798 14.0038 27.9857C17.6489 27.9778 21.1474 26.5495 23.7566 24.0043C26.3659 21.459 27.8804 17.997 27.9788 14.3533C26.4111 14.514 24.8748 14.9011 23.4181 15.5024Z" fill="#FDB813"/>
<path d="M13.5468 23.0178C12.3191 16.2302 8.67193 12.4616 5.35305 10.4275C4.03381 9.60627 2.61665 8.95404 1.13485 8.48608C0.389412 10.2126 0.00328859 12.0728 0 13.9533C1.62683 14.1146 3.22118 14.5138 4.73209 15.1381C8.20453 16.649 10.9764 19.4183 12.4904 22.8893C12.8402 22.9611 13.1898 22.9985 13.5468 23.0178Z" fill="#74060E"/>
<path d="M26.8293 8.42163C25.3457 8.88489 23.9279 9.53739 22.6111 10.363C19.3065 12.4257 15.6521 16.2085 14.4316 23.0176C14.7996 23.0176 15.1433 22.9642 15.5023 22.8963C17.0057 19.4104 19.7759 16.6249 23.2535 15.1022C24.7641 14.477 26.3586 14.0778 27.9856 13.9174C27.9768 12.026 27.5834 10.1562 26.8293 8.42163Z" fill="#74060E"/>
</g>
<defs>
<clipPath id="clip0">
<rect width="142.748" height="28" fill="white"/>
</clipPath>
</defs>
</svg>
