<svg width="528" height="528" viewBox="0 0 528 528" fill="none" xmlns="http://www.w3.org/2000/svg">
<path d="M35.3693 131.999C12.1985 172.132 4.05132e-06 217.658 0 263.999H177.671C177.671 239.062 188.244 216.595 205.152 200.836C207.868 198.304 208.657 194.238 206.794 191.027L124.491 49.2003C122.338 45.49 117.513 44.3268 113.983 46.7644C81.8588 68.9485 54.9775 98.0368 35.3693 131.999Z" fill="#F3F2F1"/>
<path d="M72.666 146.498H68.646V144.418H78.866V146.498H74.866V158.738H72.666V146.498ZM79.4642 148.538H81.5042V150.038H81.6242C81.8508 149.518 82.2375 149.092 82.7842 148.758C83.3442 148.412 83.9442 148.238 84.5842 148.238C85.0508 148.238 85.4642 148.305 85.8242 148.438V150.678C85.2775 150.438 84.7508 150.318 84.2442 150.318C83.4842 150.318 82.8575 150.612 82.3642 151.198C81.8708 151.785 81.6242 152.498 81.6242 153.338V158.738H79.4642V148.538ZM90.3399 159.058C89.6066 159.058 88.9533 158.918 88.3799 158.638C87.8066 158.345 87.3599 157.938 87.0399 157.418C86.7199 156.898 86.5599 156.305 86.5599 155.638C86.5599 154.932 86.7466 154.325 87.1199 153.818C87.4933 153.298 87.9999 152.905 88.6399 152.638C89.2799 152.358 89.9933 152.218 90.7799 152.218C91.3799 152.218 91.9199 152.278 92.3999 152.398C92.8933 152.505 93.2866 152.632 93.5799 152.778V152.238C93.5799 151.585 93.3399 151.058 92.8599 150.658C92.3799 150.245 91.7599 150.038 90.9999 150.038C90.4799 150.038 89.9866 150.158 89.5199 150.398C89.0533 150.625 88.6799 150.938 88.3999 151.338L86.9199 150.198C87.3599 149.572 87.9399 149.085 88.6599 148.738C89.3933 148.392 90.1933 148.218 91.0599 148.218C92.5266 148.218 93.6599 148.585 94.4599 149.318C95.2733 150.038 95.6799 151.052 95.6799 152.358V158.738H93.5799V157.478H93.4599C93.1666 157.932 92.7466 158.312 92.1999 158.618C91.6533 158.912 91.0333 159.058 90.3399 159.058ZM90.7199 157.298C91.2533 157.298 91.7399 157.172 92.1799 156.918C92.6199 156.652 92.9599 156.298 93.1999 155.858C93.4533 155.418 93.5799 154.945 93.5799 154.438C93.2599 154.252 92.8933 154.105 92.4799 153.998C92.0666 153.892 91.6333 153.838 91.1799 153.838C90.3399 153.838 89.7199 154.005 89.3199 154.338C88.9333 154.672 88.7399 155.112 88.7399 155.658C88.7399 156.138 88.9199 156.532 89.2799 156.838C89.6399 157.145 90.1199 157.298 90.7199 157.298ZM100.318 146.618C100.038 146.898 99.6979 147.038 99.2979 147.038C98.8979 147.038 98.5512 146.898 98.2579 146.618C97.9779 146.325 97.8379 145.978 97.8379 145.578C97.8379 145.178 97.9779 144.838 98.2579 144.558C98.5512 144.278 98.8979 144.138 99.2979 144.138C99.6979 144.138 100.038 144.278 100.318 144.558C100.611 144.838 100.758 145.178 100.758 145.578C100.758 145.978 100.611 146.325 100.318 146.618ZM98.2179 148.538H100.378V158.738H98.2179V148.538ZM103.058 148.538H105.098V149.938H105.218C105.511 149.432 105.951 149.018 106.538 148.698C107.125 148.378 107.758 148.218 108.438 148.218C109.665 148.218 110.598 148.585 111.238 149.318C111.878 150.038 112.198 151.032 112.198 152.298V158.738H110.058V152.578C110.058 151.778 109.858 151.185 109.458 150.798C109.058 150.398 108.511 150.198 107.818 150.198C107.311 150.198 106.858 150.338 106.458 150.618C106.071 150.898 105.765 151.272 105.538 151.738C105.325 152.205 105.218 152.712 105.218 153.258V158.738H103.058V148.538ZM116.919 146.618C116.639 146.898 116.299 147.038 115.899 147.038C115.499 147.038 115.153 146.898 114.859 146.618C114.579 146.325 114.439 145.978 114.439 145.578C114.439 145.178 114.579 144.838 114.859 144.558C115.153 144.278 115.499 144.138 115.899 144.138C116.299 144.138 116.639 144.278 116.919 144.558C117.213 144.838 117.359 145.178 117.359 145.578C117.359 145.978 117.213 146.325 116.919 146.618ZM114.819 148.538H116.979V158.738H114.819V148.538ZM119.659 148.538H121.699V149.938H121.819C122.113 149.432 122.553 149.018 123.139 148.698C123.726 148.378 124.359 148.218 125.039 148.218C126.266 148.218 127.199 148.585 127.839 149.318C128.479 150.038 128.799 151.032 128.799 152.298V158.738H126.659V152.578C126.659 151.778 126.459 151.185 126.059 150.798C125.659 150.398 125.113 150.198 124.419 150.198C123.913 150.198 123.459 150.338 123.059 150.618C122.673 150.898 122.366 151.272 122.139 151.738C121.926 152.205 121.819 152.712 121.819 153.258V158.738H119.659V148.538ZM135.763 163.378C134.523 163.378 133.49 163.092 132.663 162.518C131.85 161.958 131.303 161.278 131.023 160.478L133.023 159.638C133.237 160.185 133.583 160.625 134.063 160.958C134.557 161.292 135.123 161.458 135.763 161.458C136.71 161.458 137.45 161.178 137.983 160.618C138.517 160.058 138.783 159.265 138.783 158.238V157.258H138.663C138.33 157.752 137.883 158.138 137.323 158.418C136.763 158.698 136.123 158.838 135.403 158.838C134.537 158.838 133.737 158.618 133.003 158.178C132.283 157.738 131.703 157.118 131.263 156.318C130.837 155.505 130.623 154.578 130.623 153.538C130.623 152.498 130.837 151.578 131.263 150.778C131.703 149.965 132.283 149.338 133.003 148.898C133.737 148.445 134.537 148.218 135.403 148.218C136.11 148.218 136.743 148.365 137.303 148.658C137.877 148.938 138.33 149.325 138.663 149.818H138.783V148.538H140.843V158.198C140.843 159.292 140.63 160.225 140.203 160.998C139.777 161.785 139.177 162.378 138.403 162.778C137.643 163.178 136.763 163.378 135.763 163.378ZM134.263 156.498C134.73 156.752 135.237 156.878 135.783 156.878C136.33 156.878 136.83 156.745 137.283 156.478C137.737 156.212 138.097 155.832 138.363 155.338C138.643 154.832 138.783 154.232 138.783 153.538C138.783 152.832 138.643 152.225 138.363 151.718C138.097 151.212 137.737 150.832 137.283 150.578C136.83 150.312 136.33 150.178 135.783 150.178C135.237 150.178 134.73 150.312 134.263 150.578C133.81 150.832 133.443 151.212 133.163 151.718C132.897 152.225 132.763 152.832 132.763 153.538C132.763 154.232 132.897 154.832 133.163 155.338C133.443 155.845 133.81 156.232 134.263 156.498ZM69.4999 182.058L70.9199 183.858L69.3399 185.058L68.2999 183.758C67.3665 184.625 66.2399 185.058 64.9199 185.058C63.9465 185.058 63.0599 184.845 62.2599 184.418C61.4599 183.978 60.8265 183.378 60.3599 182.618C59.9065 181.845 59.6799 180.985 59.6799 180.038C59.6799 179.225 59.8865 178.452 60.2999 177.718C60.7265 176.972 61.3132 176.352 62.0599 175.858C61.7532 175.445 61.5132 175.052 61.3399 174.678C61.1799 174.292 61.0999 173.898 61.0999 173.498C61.0999 172.872 61.2532 172.298 61.5599 171.778C61.8799 171.258 62.3065 170.852 62.8399 170.558C63.3865 170.252 63.9865 170.098 64.6399 170.098C65.5065 170.098 66.2199 170.325 66.7799 170.778C67.3532 171.218 67.7665 171.792 68.0199 172.498L66.2399 173.438C65.9199 172.518 65.3932 172.058 64.6599 172.058C64.2332 172.058 63.8799 172.192 63.5999 172.458C63.3332 172.712 63.1999 173.052 63.1999 173.478C63.1999 173.918 63.3665 174.338 63.6999 174.738L68.2599 180.498L69.4999 178.438L71.1199 179.438L69.4999 182.058ZM64.9799 183.118C65.8332 183.118 66.5465 182.832 67.1199 182.258L63.2199 177.338C62.7532 177.645 62.3799 178.032 62.0999 178.498C61.8332 178.965 61.6999 179.458 61.6999 179.978C61.6999 180.578 61.8465 181.118 62.1399 181.598C62.4332 182.078 62.8332 182.452 63.3399 182.718C63.8465 182.985 64.3932 183.118 64.9799 183.118ZM82.1385 185.058C80.9518 185.058 79.8851 184.712 78.9385 184.018C77.9918 183.325 77.3318 182.352 76.9585 181.098L79.0385 180.258C79.2518 181.058 79.6318 181.712 80.1785 182.218C80.7251 182.725 81.3851 182.978 82.1585 182.978C82.8785 182.978 83.4851 182.792 83.9785 182.418C84.4851 182.045 84.7385 181.532 84.7385 180.878C84.7385 180.278 84.5185 179.785 84.0785 179.398C83.6385 178.998 82.8785 178.612 81.7985 178.238L80.8985 177.918C79.9251 177.572 79.1118 177.092 78.4585 176.478C77.8185 175.852 77.4985 175.025 77.4985 173.998C77.4985 173.292 77.6851 172.638 78.0585 172.038C78.4451 171.438 78.9785 170.965 79.6585 170.618C80.3518 170.272 81.1318 170.098 81.9985 170.098C83.2385 170.098 84.2318 170.405 84.9785 171.018C85.7251 171.618 86.2318 172.298 86.4985 173.058L84.5185 173.898C84.3851 173.418 84.1051 173.005 83.6785 172.658C83.2518 172.312 82.6985 172.138 82.0185 172.138C81.3651 172.138 80.8118 172.312 80.3585 172.658C79.9051 173.005 79.6785 173.445 79.6785 173.978C79.6785 174.472 79.8785 174.885 80.2785 175.218C80.6918 175.538 81.3251 175.845 82.1785 176.138L83.0985 176.458C84.3251 176.885 85.2718 177.438 85.9385 178.118C86.6051 178.798 86.9385 179.705 86.9385 180.838C86.9385 181.772 86.6985 182.558 86.2185 183.198C85.7518 183.825 85.1451 184.292 84.3985 184.598C83.6651 184.905 82.9118 185.058 82.1385 185.058ZM92.5294 185.058C91.3027 185.058 90.3627 184.692 89.7094 183.958C89.0694 183.212 88.7494 182.178 88.7494 180.858V174.538H90.9094V180.558C90.9094 181.385 91.1027 182.012 91.4894 182.438C91.8761 182.865 92.3961 183.078 93.0494 183.078C93.5827 183.078 94.0561 182.938 94.4694 182.658C94.8827 182.378 95.1961 182.005 95.4094 181.538C95.6361 181.072 95.7494 180.565 95.7494 180.018V174.538H97.8894V184.738H95.8694V183.358H95.7494C95.4561 183.852 95.0161 184.258 94.4294 184.578C93.8427 184.898 93.2094 185.058 92.5294 185.058ZM100.351 174.538H102.391V175.918H102.511C102.804 175.438 103.238 175.038 103.811 174.718C104.398 174.385 105.058 174.218 105.791 174.218C106.711 174.218 107.544 174.452 108.291 174.918C109.038 175.385 109.624 176.032 110.051 176.858C110.478 177.672 110.691 178.598 110.691 179.638C110.691 180.678 110.478 181.612 110.051 182.438C109.624 183.265 109.038 183.912 108.291 184.378C107.544 184.832 106.711 185.058 105.791 185.058C105.058 185.058 104.398 184.898 103.811 184.578C103.238 184.245 102.804 183.845 102.511 183.378H102.391L102.511 184.798V189.058H100.351V174.538ZM105.471 183.078C106.018 183.078 106.524 182.938 106.991 182.658C107.471 182.365 107.851 181.958 108.131 181.438C108.411 180.918 108.551 180.318 108.551 179.638C108.551 178.958 108.411 178.358 108.131 177.838C107.851 177.318 107.471 176.918 106.991 176.638C106.524 176.345 106.018 176.198 105.471 176.198C104.938 176.198 104.431 176.345 103.951 176.638C103.484 176.918 103.104 177.318 102.811 177.838C102.531 178.358 102.391 178.958 102.391 179.638C102.391 180.318 102.531 180.918 102.811 181.438C103.104 181.958 103.484 182.365 103.951 182.658C104.431 182.938 104.938 183.078 105.471 183.078ZM112.402 174.538H114.442V175.918H114.562C114.855 175.438 115.288 175.038 115.862 174.718C116.448 174.385 117.108 174.218 117.842 174.218C118.762 174.218 119.595 174.452 120.342 174.918C121.088 175.385 121.675 176.032 122.102 176.858C122.528 177.672 122.742 178.598 122.742 179.638C122.742 180.678 122.528 181.612 122.102 182.438C121.675 183.265 121.088 183.912 120.342 184.378C119.595 184.832 118.762 185.058 117.842 185.058C117.108 185.058 116.448 184.898 115.862 184.578C115.288 184.245 114.855 183.845 114.562 183.378H114.442L114.562 184.798V189.058H112.402V174.538ZM117.522 183.078C118.068 183.078 118.575 182.938 119.042 182.658C119.522 182.365 119.902 181.958 120.182 181.438C120.462 180.918 120.602 180.318 120.602 179.638C120.602 178.958 120.462 178.358 120.182 177.838C119.902 177.318 119.522 176.918 119.042 176.638C118.575 176.345 118.068 176.198 117.522 176.198C116.988 176.198 116.482 176.345 116.002 176.638C115.535 176.918 115.155 177.318 114.862 177.838C114.582 178.358 114.442 178.958 114.442 179.638C114.442 180.318 114.582 180.918 114.862 181.438C115.155 181.958 115.535 182.365 116.002 182.658C116.482 182.938 116.988 183.078 117.522 183.078ZM132.268 184.358C131.468 184.825 130.554 185.058 129.528 185.058C128.501 185.058 127.581 184.825 126.768 184.358C125.954 183.878 125.321 183.225 124.868 182.398C124.414 181.572 124.188 180.652 124.188 179.638C124.188 178.625 124.414 177.705 124.868 176.878C125.321 176.052 125.954 175.405 126.768 174.938C127.581 174.458 128.501 174.218 129.528 174.218C130.541 174.218 131.454 174.458 132.268 174.938C133.081 175.418 133.714 176.072 134.168 176.898C134.621 177.725 134.848 178.638 134.848 179.638C134.848 180.652 134.621 181.572 134.168 182.398C133.714 183.225 133.081 183.878 132.268 184.358ZM127.928 182.658C128.421 182.938 128.954 183.078 129.528 183.078C130.101 183.078 130.628 182.938 131.108 182.658C131.588 182.378 131.974 181.978 132.268 181.458C132.561 180.938 132.708 180.332 132.708 179.638C132.708 178.945 132.561 178.338 132.268 177.818C131.974 177.298 131.588 176.898 131.108 176.618C130.628 176.338 130.101 176.198 129.528 176.198C128.954 176.198 128.421 176.338 127.928 176.618C127.448 176.898 127.061 177.298 126.768 177.818C126.474 178.338 126.328 178.945 126.328 179.638C126.328 180.332 126.474 180.938 126.768 181.458C127.061 181.978 127.448 182.378 127.928 182.658ZM136.642 174.538H138.682V176.038H138.802C139.029 175.518 139.415 175.092 139.962 174.758C140.522 174.412 141.122 174.238 141.762 174.238C142.229 174.238 142.642 174.305 143.002 174.438V176.678C142.455 176.438 141.929 176.318 141.422 176.318C140.662 176.318 140.035 176.612 139.542 177.198C139.049 177.785 138.802 178.498 138.802 179.338V184.738H136.642V174.538ZM149.045 184.898C148.591 184.898 148.165 184.832 147.765 184.698C147.378 184.552 147.058 184.352 146.805 184.098C146.231 183.552 145.945 182.778 145.945 181.778V176.418H144.165V174.538H145.945V171.658H148.105V174.538H150.605V176.418H148.105V181.318C148.105 181.878 148.211 182.272 148.425 182.498C148.651 182.752 148.998 182.878 149.465 182.878C149.705 182.878 149.911 182.852 150.085 182.798C150.258 182.732 150.451 182.632 150.665 182.498V184.598C150.211 184.798 149.671 184.898 149.045 184.898Z" fill="#3E3D3D"/>
<path d="M177.671 263.999L87.6036 226.342L0 264C8.49856e-06 310.341 12.1984 355.866 35.3693 395.999C58.5401 436.133 91.8668 469.459 132 492.63L220.828 338.775C195.028 323.847 177.671 295.95 177.671 263.999Z" fill="#D5D4D3"/>
<path d="M61.0604 312.491H64.0204L68.2004 323.391H68.3204L72.5204 312.491H75.4804V326.811H73.3204V318.711L73.4404 316.171H73.3204L69.1404 326.811H67.4004L63.2204 316.171H63.1004L63.2204 318.711V326.811H61.0604V312.491ZM80.6167 314.691C80.3367 314.971 79.9967 315.111 79.5967 315.111C79.1967 315.111 78.85 314.971 78.5567 314.691C78.2767 314.397 78.1367 314.051 78.1367 313.651C78.1367 313.251 78.2767 312.911 78.5567 312.631C78.85 312.351 79.1967 312.211 79.5967 312.211C79.9967 312.211 80.3367 312.351 80.6167 312.631C80.91 312.911 81.0567 313.251 81.0567 313.651C81.0567 314.051 80.91 314.397 80.6167 314.691ZM78.5167 316.611H80.6767V326.811H78.5167V316.611ZM87.859 331.451C86.619 331.451 85.5857 331.164 84.759 330.591C83.9457 330.031 83.399 329.351 83.119 328.551L85.119 327.711C85.3323 328.257 85.679 328.697 86.159 329.031C86.6523 329.364 87.219 329.531 87.859 329.531C88.8057 329.531 89.5457 329.251 90.079 328.691C90.6123 328.131 90.879 327.337 90.879 326.311V325.331H90.759C90.4257 325.824 89.979 326.211 89.419 326.491C88.859 326.771 88.219 326.911 87.499 326.911C86.6323 326.911 85.8323 326.691 85.099 326.251C84.379 325.811 83.799 325.191 83.359 324.391C82.9323 323.577 82.719 322.651 82.719 321.611C82.719 320.571 82.9323 319.651 83.359 318.851C83.799 318.037 84.379 317.411 85.099 316.971C85.8323 316.517 86.6323 316.291 87.499 316.291C88.2057 316.291 88.839 316.437 89.399 316.731C89.9723 317.011 90.4257 317.397 90.759 317.891H90.879V316.611H92.939V326.271C92.939 327.364 92.7257 328.297 92.299 329.071C91.8723 329.857 91.2723 330.451 90.499 330.851C89.739 331.251 88.859 331.451 87.859 331.451ZM86.359 324.571C86.8257 324.824 87.3323 324.951 87.879 324.951C88.4257 324.951 88.9257 324.817 89.379 324.551C89.8323 324.284 90.1923 323.904 90.459 323.411C90.739 322.904 90.879 322.304 90.879 321.611C90.879 320.904 90.739 320.297 90.459 319.791C90.1923 319.284 89.8323 318.904 89.379 318.651C88.9257 318.384 88.4257 318.251 87.879 318.251C87.3323 318.251 86.8257 318.384 86.359 318.651C85.9057 318.904 85.539 319.284 85.259 319.791C84.9923 320.297 84.859 320.904 84.859 321.611C84.859 322.304 84.9923 322.904 85.259 323.411C85.539 323.917 85.9057 324.304 86.359 324.571ZM95.466 316.611H97.506V318.111H97.626C97.8527 317.591 98.2394 317.164 98.786 316.831C99.346 316.484 99.946 316.311 100.586 316.311C101.053 316.311 101.466 316.377 101.826 316.511V318.751C101.279 318.511 100.753 318.391 100.246 318.391C99.486 318.391 98.8594 318.684 98.366 319.271C97.8727 319.857 97.626 320.571 97.626 321.411V326.811H95.466V316.611ZM106.342 327.131C105.608 327.131 104.955 326.991 104.382 326.711C103.808 326.417 103.362 326.011 103.042 325.491C102.722 324.971 102.562 324.377 102.562 323.711C102.562 323.004 102.748 322.397 103.122 321.891C103.495 321.371 104.002 320.977 104.642 320.711C105.282 320.431 105.995 320.291 106.782 320.291C107.382 320.291 107.922 320.351 108.402 320.471C108.895 320.577 109.288 320.704 109.582 320.851V320.311C109.582 319.657 109.342 319.131 108.862 318.731C108.382 318.317 107.762 318.111 107.002 318.111C106.482 318.111 105.988 318.231 105.522 318.471C105.055 318.697 104.682 319.011 104.402 319.411L102.922 318.271C103.362 317.644 103.942 317.157 104.662 316.811C105.395 316.464 106.195 316.291 107.062 316.291C108.528 316.291 109.662 316.657 110.462 317.391C111.275 318.111 111.682 319.124 111.682 320.431V326.811H109.582V325.551H109.462C109.168 326.004 108.748 326.384 108.202 326.691C107.655 326.984 107.035 327.131 106.342 327.131ZM106.722 325.371C107.255 325.371 107.742 325.244 108.182 324.991C108.622 324.724 108.962 324.371 109.202 323.931C109.455 323.491 109.582 323.017 109.582 322.511C109.262 322.324 108.895 322.177 108.482 322.071C108.068 321.964 107.635 321.911 107.182 321.911C106.342 321.911 105.722 322.077 105.322 322.411C104.935 322.744 104.742 323.184 104.742 323.731C104.742 324.211 104.922 324.604 105.282 324.911C105.642 325.217 106.122 325.371 106.722 325.371ZM118.24 326.971C117.786 326.971 117.36 326.904 116.96 326.771C116.573 326.624 116.253 326.424 116 326.171C115.426 325.624 115.14 324.851 115.14 323.851V318.491H113.36V316.611H115.14V313.731H117.3V316.611H119.8V318.491H117.3V323.391C117.3 323.951 117.406 324.344 117.62 324.571C117.846 324.824 118.193 324.951 118.66 324.951C118.9 324.951 119.106 324.924 119.28 324.871C119.453 324.804 119.646 324.704 119.86 324.571V326.671C119.406 326.871 118.866 326.971 118.24 326.971ZM124.249 314.691C123.969 314.971 123.629 315.111 123.229 315.111C122.829 315.111 122.483 314.971 122.189 314.691C121.909 314.397 121.769 314.051 121.769 313.651C121.769 313.251 121.909 312.911 122.189 312.631C122.483 312.351 122.829 312.211 123.229 312.211C123.629 312.211 123.969 312.351 124.249 312.631C124.543 312.911 124.689 313.251 124.689 313.651C124.689 314.051 124.543 314.397 124.249 314.691ZM122.149 316.611H124.309V326.811H122.149V316.611ZM134.432 326.431C133.632 326.897 132.718 327.131 131.692 327.131C130.665 327.131 129.745 326.897 128.932 326.431C128.118 325.951 127.485 325.297 127.032 324.471C126.578 323.644 126.352 322.724 126.352 321.711C126.352 320.697 126.578 319.777 127.032 318.951C127.485 318.124 128.118 317.477 128.932 317.011C129.745 316.531 130.665 316.291 131.692 316.291C132.705 316.291 133.618 316.531 134.432 317.011C135.245 317.491 135.878 318.144 136.332 318.971C136.785 319.797 137.012 320.711 137.012 321.711C137.012 322.724 136.785 323.644 136.332 324.471C135.878 325.297 135.245 325.951 134.432 326.431ZM130.092 324.731C130.585 325.011 131.118 325.151 131.692 325.151C132.265 325.151 132.792 325.011 133.272 324.731C133.752 324.451 134.138 324.051 134.432 323.531C134.725 323.011 134.872 322.404 134.872 321.711C134.872 321.017 134.725 320.411 134.432 319.891C134.138 319.371 133.752 318.971 133.272 318.691C132.792 318.411 132.265 318.271 131.692 318.271C131.118 318.271 130.585 318.411 130.092 318.691C129.612 318.971 129.225 319.371 128.932 319.891C128.638 320.411 128.492 321.017 128.492 321.711C128.492 322.404 128.638 323.011 128.932 323.531C129.225 324.051 129.612 324.451 130.092 324.731ZM138.806 316.611H140.846V318.011H140.966C141.259 317.504 141.699 317.091 142.286 316.771C142.873 316.451 143.506 316.291 144.186 316.291C145.413 316.291 146.346 316.657 146.986 317.391C147.626 318.111 147.946 319.104 147.946 320.371V326.811H145.806V320.651C145.806 319.851 145.606 319.257 145.206 318.871C144.806 318.471 144.259 318.271 143.566 318.271C143.059 318.271 142.606 318.411 142.206 318.691C141.819 318.971 141.513 319.344 141.286 319.811C141.073 320.277 140.966 320.784 140.966 321.331V326.811H138.806V316.611Z" fill="#3E3D3D"/>
<path d="M307.172 338.775C294.472 346.123 279.727 350.329 264 350.329C248.273 350.329 233.528 346.123 220.828 338.775L139.135 401.946L132 492.63C172.133 515.801 217.658 528 264 528C310.342 528 355.867 515.801 396 492.63L307.172 338.775Z" fill="#74060E"/>
<path d="M213.449 431.019C212.409 431.526 211.309 431.779 210.149 431.779C208.762 431.779 207.502 431.446 206.369 430.779C205.235 430.112 204.342 429.212 203.689 428.079C203.049 426.932 202.729 425.672 202.729 424.299C202.729 422.926 203.049 421.672 203.689 420.539C204.342 419.392 205.235 418.486 206.369 417.819C207.502 417.152 208.762 416.819 210.149 416.819C211.535 416.819 212.789 417.152 213.909 417.819C215.042 418.486 215.929 419.392 216.569 420.539C217.222 421.672 217.549 422.926 217.549 424.299C217.549 425.419 217.335 426.466 216.909 427.439C216.482 428.412 215.882 429.239 215.109 429.919L216.149 431.479L214.509 432.579L213.449 431.019ZM210.149 429.699C210.869 429.699 211.569 429.546 212.249 429.239L210.609 426.759L212.249 425.639L213.909 428.099C214.362 427.632 214.715 427.079 214.969 426.439C215.222 425.786 215.349 425.072 215.349 424.299C215.349 423.259 215.115 422.332 214.649 421.519C214.195 420.692 213.569 420.052 212.769 419.599C211.982 419.132 211.109 418.899 210.149 418.899C209.189 418.899 208.309 419.132 207.509 419.599C206.722 420.052 206.095 420.692 205.629 421.519C205.175 422.332 204.949 423.259 204.949 424.299C204.949 425.339 205.175 426.272 205.629 427.099C206.095 427.912 206.722 428.552 207.509 429.019C208.309 429.472 209.189 429.699 210.149 429.699ZM223.429 431.779C222.203 431.779 221.263 431.412 220.609 430.679C219.969 429.932 219.649 428.899 219.649 427.579V421.259H221.809V427.279C221.809 428.106 222.003 428.732 222.389 429.159C222.776 429.586 223.296 429.799 223.949 429.799C224.483 429.799 224.956 429.659 225.369 429.379C225.783 429.099 226.096 428.726 226.309 428.259C226.536 427.792 226.649 427.286 226.649 426.739V421.259H228.789V431.459H226.769V430.079H226.649C226.356 430.572 225.916 430.979 225.329 431.299C224.743 431.619 224.109 431.779 223.429 431.779ZM234.433 431.779C233.7 431.779 233.047 431.639 232.473 431.359C231.9 431.066 231.453 430.659 231.133 430.139C230.813 429.619 230.653 429.026 230.653 428.359C230.653 427.652 230.84 427.046 231.213 426.539C231.587 426.019 232.093 425.626 232.733 425.359C233.373 425.079 234.087 424.939 234.873 424.939C235.473 424.939 236.013 424.999 236.493 425.119C236.987 425.226 237.38 425.352 237.673 425.499V424.959C237.673 424.306 237.433 423.779 236.953 423.379C236.473 422.966 235.853 422.759 235.093 422.759C234.573 422.759 234.08 422.879 233.613 423.119C233.147 423.346 232.773 423.659 232.493 424.059L231.013 422.919C231.453 422.292 232.033 421.806 232.753 421.459C233.487 421.112 234.287 420.939 235.153 420.939C236.62 420.939 237.753 421.306 238.553 422.039C239.367 422.759 239.773 423.772 239.773 425.079V431.459H237.673V430.199H237.553C237.26 430.652 236.84 431.032 236.293 431.339C235.747 431.632 235.127 431.779 234.433 431.779ZM234.813 430.019C235.347 430.019 235.833 429.892 236.273 429.639C236.713 429.372 237.053 429.019 237.293 428.579C237.547 428.139 237.673 427.666 237.673 427.159C237.353 426.972 236.987 426.826 236.573 426.719C236.16 426.612 235.727 426.559 235.273 426.559C234.433 426.559 233.813 426.726 233.413 427.059C233.027 427.392 232.833 427.832 232.833 428.379C232.833 428.859 233.013 429.252 233.373 429.559C233.733 429.866 234.213 430.019 234.813 430.019ZM242.151 417.139H244.311V431.459H242.151V417.139ZM249.118 419.339C248.838 419.619 248.498 419.759 248.098 419.759C247.698 419.759 247.352 419.619 247.058 419.339C246.778 419.046 246.638 418.699 246.638 418.299C246.638 417.899 246.778 417.559 247.058 417.279C247.352 416.999 247.698 416.859 248.098 416.859C248.498 416.859 248.838 416.999 249.118 417.279C249.412 417.559 249.558 417.899 249.558 418.299C249.558 418.699 249.412 419.046 249.118 419.339ZM247.018 421.259H249.178V431.459H247.018V421.259ZM255.941 431.619C255.487 431.619 255.061 431.552 254.661 431.419C254.274 431.272 253.954 431.072 253.701 430.819C253.127 430.272 252.841 429.499 252.841 428.499V423.139H251.061V421.259H252.841V418.379H255.001V421.259H257.501V423.139H255.001V428.039C255.001 428.599 255.107 428.992 255.321 429.219C255.547 429.472 255.894 429.599 256.361 429.599C256.601 429.599 256.807 429.572 256.981 429.519C257.154 429.452 257.347 429.352 257.561 429.219V431.319C257.107 431.519 256.567 431.619 255.941 431.619ZM262.85 430.899L258.59 421.259H260.99L263.91 428.219H264.01L266.83 421.259H269.21L262.91 435.779H260.61L262.85 430.899ZM194.697 443.139H197.197L202.617 457.459H200.197L198.877 453.779H193.037L191.717 457.459H189.297L194.697 443.139ZM198.157 451.739L196.557 447.359L196.017 445.719H195.897L195.357 447.359L193.757 451.739H198.157ZM207.902 457.779C206.742 457.779 205.782 457.526 205.022 457.019C204.276 456.512 203.749 455.852 203.442 455.039L205.382 454.199C205.622 454.746 205.962 455.166 206.402 455.459C206.842 455.739 207.342 455.879 207.902 455.879C208.476 455.879 208.956 455.779 209.342 455.579C209.729 455.366 209.922 455.052 209.922 454.639C209.922 454.266 209.756 453.972 209.422 453.759C209.102 453.532 208.596 453.339 207.902 453.179L206.682 452.899C205.869 452.699 205.196 452.346 204.662 451.839C204.129 451.332 203.862 450.692 203.862 449.919C203.862 449.332 204.036 448.812 204.382 448.359C204.742 447.906 205.216 447.559 205.802 447.319C206.402 447.066 207.056 446.939 207.762 446.939C208.722 446.939 209.556 447.126 210.262 447.499C210.982 447.872 211.502 448.419 211.822 449.139L209.962 449.979C209.549 449.166 208.822 448.759 207.782 448.759C207.276 448.759 206.849 448.866 206.502 449.079C206.169 449.292 206.002 449.559 206.002 449.879C206.002 450.479 206.522 450.912 207.562 451.179L209.042 451.539C210.042 451.792 210.796 452.172 211.302 452.679C211.822 453.186 212.082 453.812 212.082 454.559C212.082 455.199 211.896 455.766 211.522 456.259C211.162 456.739 210.662 457.112 210.022 457.379C209.382 457.646 208.676 457.779 207.902 457.779ZM217.688 457.779C216.528 457.779 215.568 457.526 214.808 457.019C214.061 456.512 213.534 455.852 213.228 455.039L215.168 454.199C215.408 454.746 215.748 455.166 216.188 455.459C216.628 455.739 217.128 455.879 217.688 455.879C218.261 455.879 218.741 455.779 219.128 455.579C219.514 455.366 219.708 455.052 219.708 454.639C219.708 454.266 219.541 453.972 219.208 453.759C218.888 453.532 218.381 453.339 217.688 453.179L216.468 452.899C215.654 452.699 214.981 452.346 214.448 451.839C213.914 451.332 213.648 450.692 213.648 449.919C213.648 449.332 213.821 448.812 214.168 448.359C214.528 447.906 215.001 447.559 215.588 447.319C216.188 447.066 216.841 446.939 217.548 446.939C218.508 446.939 219.341 447.126 220.048 447.499C220.768 447.872 221.288 448.419 221.608 449.139L219.748 449.979C219.334 449.166 218.608 448.759 217.568 448.759C217.061 448.759 216.634 448.866 216.288 449.079C215.954 449.292 215.788 449.559 215.788 449.879C215.788 450.479 216.308 450.912 217.348 451.179L218.828 451.539C219.828 451.792 220.581 452.172 221.088 452.679C221.608 453.186 221.868 453.812 221.868 454.559C221.868 455.199 221.681 455.766 221.308 456.259C220.948 456.739 220.448 457.112 219.808 457.379C219.168 457.646 218.461 457.779 217.688 457.779ZM227.453 457.779C226.226 457.779 225.286 457.412 224.633 456.679C223.993 455.932 223.673 454.899 223.673 453.579V447.259H225.833V453.279C225.833 454.106 226.026 454.732 226.413 455.159C226.799 455.586 227.319 455.799 227.973 455.799C228.506 455.799 228.979 455.659 229.393 455.379C229.806 455.099 230.119 454.726 230.333 454.259C230.559 453.792 230.673 453.286 230.673 452.739V447.259H232.813V457.459H230.793V456.079H230.673C230.379 456.572 229.939 456.979 229.353 457.299C228.766 457.619 228.133 457.779 227.453 457.779ZM235.354 447.259H237.394V448.759H237.514C237.741 448.239 238.128 447.812 238.674 447.479C239.234 447.132 239.834 446.959 240.474 446.959C240.941 446.959 241.354 447.026 241.714 447.159V449.399C241.168 449.159 240.641 449.039 240.134 449.039C239.374 449.039 238.748 449.332 238.254 449.919C237.761 450.506 237.514 451.219 237.514 452.059V457.459H235.354V447.259ZM246.23 457.779C245.497 457.779 244.843 457.639 244.27 457.359C243.697 457.066 243.25 456.659 242.93 456.139C242.61 455.619 242.45 455.026 242.45 454.359C242.45 453.652 242.637 453.046 243.01 452.539C243.383 452.019 243.89 451.626 244.53 451.359C245.17 451.079 245.883 450.939 246.67 450.939C247.27 450.939 247.81 450.999 248.29 451.119C248.783 451.226 249.177 451.352 249.47 451.499V450.959C249.47 450.306 249.23 449.779 248.75 449.379C248.27 448.966 247.65 448.759 246.89 448.759C246.37 448.759 245.877 448.879 245.41 449.119C244.943 449.346 244.57 449.659 244.29 450.059L242.81 448.919C243.25 448.292 243.83 447.806 244.55 447.459C245.283 447.112 246.083 446.939 246.95 446.939C248.417 446.939 249.55 447.306 250.35 448.039C251.163 448.759 251.57 449.772 251.57 451.079V457.459H249.47V456.199H249.35C249.057 456.652 248.637 457.032 248.09 457.339C247.543 457.632 246.923 457.779 246.23 457.779ZM246.61 456.019C247.143 456.019 247.63 455.892 248.07 455.639C248.51 455.372 248.85 455.019 249.09 454.579C249.343 454.139 249.47 453.666 249.47 453.159C249.15 452.972 248.783 452.826 248.37 452.719C247.957 452.612 247.523 452.559 247.07 452.559C246.23 452.559 245.61 452.726 245.21 453.059C244.823 453.392 244.63 453.832 244.63 454.379C244.63 454.859 244.81 455.252 245.17 455.559C245.53 455.866 246.01 456.019 246.61 456.019ZM253.948 447.259H255.988V448.659H256.108C256.401 448.152 256.841 447.739 257.428 447.419C258.015 447.099 258.648 446.939 259.328 446.939C260.555 446.939 261.488 447.306 262.128 448.039C262.768 448.759 263.088 449.752 263.088 451.019V457.459H260.948V451.299C260.948 450.499 260.748 449.906 260.348 449.519C259.948 449.119 259.401 448.919 258.708 448.919C258.201 448.919 257.748 449.059 257.348 449.339C256.961 449.619 256.655 449.992 256.428 450.459C256.215 450.926 256.108 451.432 256.108 451.979V457.459H253.948V447.259ZM270.27 457.779C269.256 457.779 268.35 457.546 267.55 457.079C266.75 456.612 266.123 455.972 265.67 455.159C265.23 454.332 265.01 453.399 265.01 452.359C265.01 451.319 265.23 450.392 265.67 449.579C266.123 448.752 266.75 448.106 267.55 447.639C268.35 447.172 269.256 446.939 270.27 446.939C271.39 446.939 272.336 447.192 273.11 447.699C273.896 448.192 274.463 448.879 274.81 449.759L272.85 450.559C272.37 449.466 271.496 448.919 270.23 448.919C269.67 448.919 269.15 449.066 268.67 449.359C268.203 449.639 267.83 450.039 267.55 450.559C267.283 451.079 267.15 451.679 267.15 452.359C267.15 453.039 267.283 453.639 267.55 454.159C267.83 454.679 268.203 455.086 268.67 455.379C269.15 455.659 269.67 455.799 270.23 455.799C270.87 455.799 271.416 455.659 271.87 455.379C272.336 455.086 272.696 454.666 272.95 454.119L274.89 454.959C274.49 455.826 273.896 456.512 273.11 457.019C272.323 457.526 271.376 457.779 270.27 457.779ZM281.284 457.779C280.297 457.779 279.404 457.546 278.604 457.079C277.817 456.612 277.197 455.972 276.744 455.159C276.304 454.332 276.084 453.406 276.084 452.379C276.084 451.406 276.297 450.506 276.724 449.679C277.164 448.839 277.77 448.172 278.544 447.679C279.317 447.186 280.19 446.939 281.164 446.939C282.19 446.939 283.077 447.166 283.824 447.619C284.57 448.059 285.137 448.672 285.524 449.459C285.924 450.246 286.124 451.139 286.124 452.139C286.124 452.406 286.11 452.632 286.084 452.819H278.204C278.297 453.792 278.644 454.546 279.244 455.079C279.844 455.599 280.544 455.859 281.344 455.859C281.997 455.859 282.557 455.712 283.024 455.419C283.49 455.112 283.864 454.712 284.144 454.219L285.924 455.079C285.457 455.919 284.837 456.579 284.064 457.059C283.29 457.539 282.364 457.779 281.284 457.779ZM283.984 451.199C283.957 450.826 283.837 450.452 283.624 450.079C283.41 449.706 283.097 449.399 282.684 449.159C282.284 448.906 281.784 448.779 281.184 448.779C280.464 448.779 279.85 448.999 279.344 449.439C278.85 449.879 278.51 450.466 278.324 451.199H283.984Z" fill="white"/>
<path d="M307.172 338.776C332.972 323.848 350.329 295.951 350.329 264H528C528 310.342 515.802 355.867 492.631 396C469.46 436.133 436.133 469.46 396 492.631L320.685 420.577L307.172 338.776Z" fill="#D5D4D3"/>
<path d="M346.46 365.608H351.04C352.52 365.608 353.806 365.908 354.9 366.508C356.006 367.108 356.853 367.954 357.44 369.048C358.04 370.128 358.34 371.368 358.34 372.768C358.34 374.168 358.04 375.414 357.44 376.508C356.853 377.588 356.006 378.428 354.9 379.028C353.806 379.628 352.52 379.928 351.04 379.928H346.46V365.608ZM350.98 377.848C352.606 377.848 353.866 377.401 354.76 376.508C355.666 375.601 356.12 374.354 356.12 372.768C356.12 371.181 355.666 369.941 354.76 369.048C353.866 368.141 352.606 367.688 350.98 367.688H348.66V377.848H350.98ZM364.861 380.248C363.874 380.248 362.981 380.014 362.181 379.548C361.394 379.081 360.774 378.441 360.321 377.628C359.881 376.801 359.661 375.874 359.661 374.848C359.661 373.874 359.874 372.974 360.301 372.148C360.741 371.308 361.348 370.641 362.121 370.148C362.894 369.654 363.768 369.408 364.741 369.408C365.768 369.408 366.654 369.634 367.401 370.088C368.148 370.528 368.714 371.141 369.101 371.928C369.501 372.714 369.701 373.608 369.701 374.608C369.701 374.874 369.688 375.101 369.661 375.288H361.781C361.874 376.261 362.221 377.014 362.821 377.548C363.421 378.068 364.121 378.328 364.921 378.328C365.574 378.328 366.134 378.181 366.601 377.888C367.068 377.581 367.441 377.181 367.721 376.688L369.501 377.548C369.034 378.388 368.414 379.048 367.641 379.528C366.868 380.008 365.941 380.248 364.861 380.248ZM367.561 373.668C367.534 373.294 367.414 372.921 367.201 372.548C366.988 372.174 366.674 371.868 366.261 371.628C365.861 371.374 365.361 371.248 364.761 371.248C364.041 371.248 363.428 371.468 362.921 371.908C362.428 372.348 362.088 372.934 361.901 373.668H367.561ZM370.39 369.728H372.79L375.65 377.148H375.75L378.67 369.728H381.03L376.77 379.928H374.61L370.39 369.728ZM386.795 380.248C385.808 380.248 384.915 380.014 384.115 379.548C383.328 379.081 382.708 378.441 382.255 377.628C381.815 376.801 381.595 375.874 381.595 374.848C381.595 373.874 381.808 372.974 382.235 372.148C382.675 371.308 383.281 370.641 384.055 370.148C384.828 369.654 385.701 369.408 386.675 369.408C387.701 369.408 388.588 369.634 389.335 370.088C390.081 370.528 390.648 371.141 391.035 371.928C391.435 372.714 391.635 373.608 391.635 374.608C391.635 374.874 391.621 375.101 391.595 375.288H383.715C383.808 376.261 384.155 377.014 384.755 377.548C385.355 378.068 386.055 378.328 386.855 378.328C387.508 378.328 388.068 378.181 388.535 377.888C389.001 377.581 389.375 377.181 389.655 376.688L391.435 377.548C390.968 378.388 390.348 379.048 389.575 379.528C388.801 380.008 387.875 380.248 386.795 380.248ZM389.495 373.668C389.468 373.294 389.348 372.921 389.135 372.548C388.921 372.174 388.608 371.868 388.195 371.628C387.795 371.374 387.295 371.248 386.695 371.248C385.975 371.248 385.361 371.468 384.855 371.908C384.361 372.348 384.021 372.934 383.835 373.668H389.495ZM393.639 365.608H395.799V379.928H393.639V365.608ZM405.788 379.548C404.988 380.014 404.075 380.248 403.048 380.248C402.021 380.248 401.101 380.014 400.288 379.548C399.475 379.068 398.841 378.414 398.388 377.588C397.935 376.761 397.708 375.841 397.708 374.828C397.708 373.814 397.935 372.894 398.388 372.068C398.841 371.241 399.475 370.594 400.288 370.128C401.101 369.648 402.021 369.408 403.048 369.408C404.061 369.408 404.975 369.648 405.788 370.128C406.601 370.608 407.235 371.261 407.688 372.088C408.141 372.914 408.368 373.828 408.368 374.828C408.368 375.841 408.141 376.761 407.688 377.588C407.235 378.414 406.601 379.068 405.788 379.548ZM401.448 377.848C401.941 378.128 402.475 378.268 403.048 378.268C403.621 378.268 404.148 378.128 404.628 377.848C405.108 377.568 405.495 377.168 405.788 376.648C406.081 376.128 406.228 375.521 406.228 374.828C406.228 374.134 406.081 373.528 405.788 373.008C405.495 372.488 405.108 372.088 404.628 371.808C404.148 371.528 403.621 371.388 403.048 371.388C402.475 371.388 401.941 371.528 401.448 371.808C400.968 372.088 400.581 372.488 400.288 373.008C399.995 373.528 399.848 374.134 399.848 374.828C399.848 375.521 399.995 376.128 400.288 376.648C400.581 377.168 400.968 377.568 401.448 377.848ZM410.18 369.728H412.22V371.108H412.34C412.633 370.628 413.066 370.228 413.64 369.908C414.226 369.574 414.886 369.408 415.62 369.408C416.54 369.408 417.373 369.641 418.12 370.108C418.866 370.574 419.453 371.221 419.88 372.048C420.306 372.861 420.52 373.788 420.52 374.828C420.52 375.868 420.306 376.801 419.88 377.628C419.453 378.454 418.866 379.101 418.12 379.568C417.373 380.021 416.54 380.248 415.62 380.248C414.886 380.248 414.226 380.088 413.64 379.768C413.066 379.434 412.633 379.034 412.34 378.568H412.22L412.34 379.988V384.248H410.18V369.728ZM415.3 378.268C415.846 378.268 416.353 378.128 416.82 377.848C417.3 377.554 417.68 377.148 417.96 376.628C418.24 376.108 418.38 375.508 418.38 374.828C418.38 374.148 418.24 373.548 417.96 373.028C417.68 372.508 417.3 372.108 416.82 371.828C416.353 371.534 415.846 371.388 415.3 371.388C414.766 371.388 414.26 371.534 413.78 371.828C413.313 372.108 412.933 372.508 412.64 373.028C412.36 373.548 412.22 374.148 412.22 374.828C412.22 375.508 412.36 376.108 412.64 376.628C412.933 377.148 413.313 377.554 413.78 377.848C414.26 378.128 414.766 378.268 415.3 378.268ZM422.408 369.728H424.448V371.128H424.568C424.875 370.621 425.308 370.208 425.868 369.888C426.428 369.568 427.041 369.408 427.708 369.408C428.441 369.408 429.075 369.581 429.608 369.928C430.155 370.274 430.548 370.734 430.788 371.308C431.148 370.734 431.615 370.274 432.188 369.928C432.775 369.581 433.461 369.408 434.248 369.408C435.421 369.408 436.308 369.768 436.908 370.488C437.508 371.194 437.808 372.161 437.808 373.388V379.928H435.668V373.748C435.668 372.174 435.001 371.388 433.668 371.388C432.935 371.388 432.335 371.681 431.868 372.268C431.415 372.854 431.188 373.588 431.188 374.468V379.928H429.048V373.748C429.048 372.174 428.361 371.388 426.988 371.388C426.281 371.388 425.701 371.688 425.248 372.288C424.795 372.874 424.568 373.608 424.568 374.488V379.928H422.408V369.728ZM444.92 380.248C443.933 380.248 443.04 380.014 442.24 379.548C441.453 379.081 440.833 378.441 440.38 377.628C439.94 376.801 439.72 375.874 439.72 374.848C439.72 373.874 439.933 372.974 440.36 372.148C440.8 371.308 441.406 370.641 442.18 370.148C442.953 369.654 443.826 369.408 444.8 369.408C445.826 369.408 446.713 369.634 447.46 370.088C448.206 370.528 448.773 371.141 449.16 371.928C449.56 372.714 449.76 373.608 449.76 374.608C449.76 374.874 449.746 375.101 449.72 375.288H441.84C441.933 376.261 442.28 377.014 442.88 377.548C443.48 378.068 444.18 378.328 444.98 378.328C445.633 378.328 446.193 378.181 446.66 377.888C447.126 377.581 447.5 377.181 447.78 376.688L449.56 377.548C449.093 378.388 448.473 379.048 447.7 379.528C446.926 380.008 446 380.248 444.92 380.248ZM447.62 373.668C447.593 373.294 447.473 372.921 447.26 372.548C447.046 372.174 446.733 371.868 446.32 371.628C445.92 371.374 445.42 371.248 444.82 371.248C444.1 371.248 443.486 371.468 442.98 371.908C442.486 372.348 442.146 372.934 441.96 373.668H447.62ZM451.764 369.728H453.804V371.128H453.924C454.217 370.621 454.657 370.208 455.244 369.888C455.83 369.568 456.464 369.408 457.144 369.408C458.37 369.408 459.304 369.774 459.944 370.508C460.584 371.228 460.904 372.221 460.904 373.488V379.928H458.764V373.768C458.764 372.968 458.564 372.374 458.164 371.988C457.764 371.588 457.217 371.388 456.524 371.388C456.017 371.388 455.564 371.528 455.164 371.808C454.777 372.088 454.47 372.461 454.244 372.928C454.03 373.394 453.924 373.901 453.924 374.448V379.928H451.764V369.728ZM467.037 380.088C466.584 380.088 466.157 380.021 465.757 379.888C465.371 379.741 465.051 379.541 464.797 379.288C464.224 378.741 463.937 377.968 463.937 376.968V371.608H462.157V369.728H463.937V366.848H466.097V369.728H468.597V371.608H466.097V376.508C466.097 377.068 466.204 377.461 466.417 377.688C466.644 377.941 466.991 378.068 467.457 378.068C467.697 378.068 467.904 378.041 468.077 377.988C468.251 377.921 468.444 377.821 468.657 377.688V379.788C468.204 379.988 467.664 380.088 467.037 380.088Z" fill="#3E3D3D"/>
<path d="M492.631 132C515.802 172.133 528 217.658 528 264L441.982 309.189L350.329 264C350.329 232.049 332.972 204.152 307.172 189.224L396 35.3691C436.133 58.54 469.46 91.8668 492.631 132Z" fill="#F3F2F1"/>
<path d="M398.81 205.465H403.39C404.87 205.465 406.157 205.765 407.25 206.365C408.357 206.965 409.204 207.812 409.79 208.905C410.39 209.985 410.69 211.225 410.69 212.625C410.69 214.025 410.39 215.272 409.79 216.365C409.204 217.445 408.357 218.285 407.25 218.885C406.157 219.485 404.87 219.785 403.39 219.785H398.81V205.465ZM403.33 217.705C404.957 217.705 406.217 217.258 407.11 216.365C408.017 215.458 408.47 214.212 408.47 212.625C408.47 211.038 408.017 209.798 407.11 208.905C406.217 207.998 404.957 207.545 403.33 207.545H401.01V217.705H403.33ZM417.212 220.105C416.225 220.105 415.332 219.872 414.532 219.405C413.745 218.938 413.125 218.298 412.672 217.485C412.232 216.658 412.012 215.732 412.012 214.705C412.012 213.732 412.225 212.832 412.652 212.005C413.092 211.165 413.699 210.498 414.472 210.005C415.245 209.512 416.119 209.265 417.092 209.265C418.119 209.265 419.005 209.492 419.752 209.945C420.499 210.385 421.065 210.998 421.452 211.785C421.852 212.572 422.052 213.465 422.052 214.465C422.052 214.732 422.039 214.958 422.012 215.145H414.132C414.225 216.118 414.572 216.872 415.172 217.405C415.772 217.925 416.472 218.185 417.272 218.185C417.925 218.185 418.485 218.038 418.952 217.745C419.419 217.438 419.792 217.038 420.072 216.545L421.852 217.405C421.385 218.245 420.765 218.905 419.992 219.385C419.219 219.865 418.292 220.105 417.212 220.105ZM419.912 213.525C419.885 213.152 419.765 212.778 419.552 212.405C419.339 212.032 419.025 211.725 418.612 211.485C418.212 211.232 417.712 211.105 417.112 211.105C416.392 211.105 415.779 211.325 415.272 211.765C414.779 212.205 414.439 212.792 414.252 213.525H419.912ZM427.873 220.105C426.713 220.105 425.753 219.852 424.993 219.345C424.247 218.838 423.72 218.178 423.413 217.365L425.353 216.525C425.593 217.072 425.933 217.492 426.373 217.785C426.813 218.065 427.313 218.205 427.873 218.205C428.447 218.205 428.927 218.105 429.313 217.905C429.7 217.692 429.893 217.378 429.893 216.965C429.893 216.592 429.727 216.298 429.393 216.085C429.073 215.858 428.567 215.665 427.873 215.505L426.653 215.225C425.84 215.025 425.167 214.672 424.633 214.165C424.1 213.658 423.833 213.018 423.833 212.245C423.833 211.658 424.007 211.138 424.353 210.685C424.713 210.232 425.187 209.885 425.773 209.645C426.373 209.392 427.027 209.265 427.733 209.265C428.693 209.265 429.527 209.452 430.233 209.825C430.953 210.198 431.473 210.745 431.793 211.465L429.933 212.305C429.52 211.492 428.793 211.085 427.753 211.085C427.247 211.085 426.82 211.192 426.473 211.405C426.14 211.618 425.973 211.885 425.973 212.205C425.973 212.805 426.493 213.238 427.533 213.505L429.013 213.865C430.013 214.118 430.767 214.498 431.273 215.005C431.793 215.512 432.053 216.138 432.053 216.885C432.053 217.525 431.867 218.092 431.493 218.585C431.133 219.065 430.633 219.438 429.993 219.705C429.353 219.972 428.647 220.105 427.873 220.105ZM436.101 207.665C435.821 207.945 435.481 208.085 435.081 208.085C434.681 208.085 434.334 207.945 434.041 207.665C433.761 207.372 433.621 207.025 433.621 206.625C433.621 206.225 433.761 205.885 434.041 205.605C434.334 205.325 434.681 205.185 435.081 205.185C435.481 205.185 435.821 205.325 436.101 205.605C436.394 205.885 436.541 206.225 436.541 206.625C436.541 207.025 436.394 207.372 436.101 207.665ZM434.001 209.585H436.161V219.785H434.001V209.585ZM443.343 224.425C442.103 224.425 441.07 224.138 440.243 223.565C439.43 223.005 438.883 222.325 438.603 221.525L440.603 220.685C440.817 221.232 441.163 221.672 441.643 222.005C442.137 222.338 442.703 222.505 443.343 222.505C444.29 222.505 445.03 222.225 445.563 221.665C446.097 221.105 446.363 220.312 446.363 219.285V218.305H446.243C445.91 218.798 445.463 219.185 444.903 219.465C444.343 219.745 443.703 219.885 442.983 219.885C442.117 219.885 441.317 219.665 440.583 219.225C439.863 218.785 439.283 218.165 438.843 217.365C438.417 216.552 438.203 215.625 438.203 214.585C438.203 213.545 438.417 212.625 438.843 211.825C439.283 211.012 439.863 210.385 440.583 209.945C441.317 209.492 442.117 209.265 442.983 209.265C443.69 209.265 444.323 209.412 444.883 209.705C445.457 209.985 445.91 210.372 446.243 210.865H446.363V209.585H448.423V219.245C448.423 220.338 448.21 221.272 447.783 222.045C447.357 222.832 446.757 223.425 445.983 223.825C445.223 224.225 444.343 224.425 443.343 224.425ZM441.843 217.545C442.31 217.798 442.817 217.925 443.363 217.925C443.91 217.925 444.41 217.792 444.863 217.525C445.317 217.258 445.677 216.878 445.943 216.385C446.223 215.878 446.363 215.278 446.363 214.585C446.363 213.878 446.223 213.272 445.943 212.765C445.677 212.258 445.317 211.878 444.863 211.625C444.41 211.358 443.91 211.225 443.363 211.225C442.817 211.225 442.31 211.358 441.843 211.625C441.39 211.878 441.023 212.258 440.743 212.765C440.477 213.272 440.343 213.878 440.343 214.585C440.343 215.278 440.477 215.878 440.743 216.385C441.023 216.892 441.39 217.278 441.843 217.545ZM450.95 209.585H452.99V210.985H453.11C453.404 210.478 453.844 210.065 454.43 209.745C455.017 209.425 455.65 209.265 456.33 209.265C457.557 209.265 458.49 209.632 459.13 210.365C459.77 211.085 460.09 212.078 460.09 213.345V219.785H457.95V213.625C457.95 212.825 457.75 212.232 457.35 211.845C456.95 211.445 456.404 211.245 455.71 211.245C455.204 211.245 454.75 211.385 454.35 211.665C453.964 211.945 453.657 212.318 453.43 212.785C453.217 213.252 453.11 213.758 453.11 214.305V219.785H450.95V209.585Z" fill="#3E3D3D"/>
<path d="M307.171 189.224C294.472 181.876 279.727 177.671 264 177.671C253.792 177.671 242.953 179.92 233.471 183.352C229.829 184.671 225.676 183.333 223.767 179.962L143.321 37.8765C141.243 34.2065 142.591 29.5353 146.366 27.6561C182.845 9.49954 223.105 -2.06242e-05 264 0C310.341 2.33711e-05 355.867 12.1985 396 35.3694L384.901 137.55L307.171 189.224Z" fill="#D5D4D3"/>
<path d="M234.614 71.3519H239.194C240.674 71.3519 241.961 71.6519 243.054 72.2519C244.161 72.8519 245.008 73.6985 245.594 74.7919C246.194 75.8719 246.494 77.1119 246.494 78.5119C246.494 79.9119 246.194 81.1585 245.594 82.2519C245.008 83.3319 244.161 84.1719 243.054 84.7719C241.961 85.3719 240.674 85.6719 239.194 85.6719H234.614V71.3519ZM239.134 83.5919C240.761 83.5919 242.021 83.1452 242.914 82.2519C243.821 81.3452 244.274 80.0985 244.274 78.5119C244.274 76.9252 243.821 75.6852 242.914 74.7919C242.021 73.8852 240.761 73.4319 239.134 73.4319H236.814V83.5919H239.134ZM250.909 73.5519C250.629 73.8319 250.289 73.9719 249.889 73.9719C249.489 73.9719 249.142 73.8319 248.849 73.5519C248.569 73.2585 248.429 72.9119 248.429 72.5119C248.429 72.1119 248.569 71.7719 248.849 71.4919C249.142 71.2119 249.489 71.0719 249.889 71.0719C250.289 71.0719 250.629 71.2119 250.909 71.4919C251.202 71.7719 251.349 72.1119 251.349 72.5119C251.349 72.9119 251.202 73.2585 250.909 73.5519ZM248.809 75.4719H250.969V85.6719H248.809V75.4719ZM257.369 85.9919C256.209 85.9919 255.249 85.7385 254.489 85.2319C253.742 84.7252 253.215 84.0652 252.909 83.2519L254.849 82.4119C255.089 82.9585 255.429 83.3785 255.869 83.6719C256.309 83.9519 256.809 84.0919 257.369 84.0919C257.942 84.0919 258.422 83.9919 258.809 83.7919C259.195 83.5785 259.389 83.2652 259.389 82.8519C259.389 82.4785 259.222 82.1852 258.889 81.9719C258.569 81.7452 258.062 81.5519 257.369 81.3919L256.149 81.1119C255.335 80.9119 254.662 80.5585 254.129 80.0519C253.595 79.5452 253.329 78.9052 253.329 78.1319C253.329 77.5452 253.502 77.0252 253.849 76.5719C254.209 76.1185 254.682 75.7719 255.269 75.5319C255.869 75.2785 256.522 75.1519 257.229 75.1519C258.189 75.1519 259.022 75.3385 259.729 75.7119C260.449 76.0852 260.969 76.6319 261.289 77.3519L259.429 78.1919C259.015 77.3785 258.289 76.9719 257.249 76.9719C256.742 76.9719 256.315 77.0785 255.969 77.2919C255.635 77.5052 255.469 77.7719 255.469 78.0919C255.469 78.6919 255.989 79.1252 257.029 79.3919L258.509 79.7519C259.509 80.0052 260.262 80.3852 260.769 80.8919C261.289 81.3985 261.549 82.0252 261.549 82.7719C261.549 83.4119 261.362 83.9785 260.989 84.4719C260.629 84.9519 260.129 85.3252 259.489 85.5919C258.849 85.8585 258.142 85.9919 257.369 85.9919ZM268.252 85.9919C267.238 85.9919 266.332 85.7585 265.532 85.2919C264.732 84.8252 264.105 84.1852 263.652 83.3719C263.212 82.5452 262.992 81.6119 262.992 80.5719C262.992 79.5319 263.212 78.6052 263.652 77.7919C264.105 76.9652 264.732 76.3185 265.532 75.8519C266.332 75.3852 267.238 75.1519 268.252 75.1519C269.372 75.1519 270.318 75.4052 271.092 75.9119C271.878 76.4052 272.445 77.0919 272.792 77.9719L270.832 78.7719C270.352 77.6785 269.478 77.1319 268.212 77.1319C267.652 77.1319 267.132 77.2785 266.652 77.5719C266.185 77.8519 265.812 78.2519 265.532 78.7719C265.265 79.2919 265.132 79.8919 265.132 80.5719C265.132 81.2519 265.265 81.8519 265.532 82.3719C265.812 82.8919 266.185 83.2985 266.652 83.5919C267.132 83.8719 267.652 84.0119 268.212 84.0119C268.852 84.0119 269.398 83.8719 269.852 83.5919C270.318 83.2985 270.678 82.8785 270.932 82.3319L272.872 83.1719C272.472 84.0385 271.878 84.7252 271.092 85.2319C270.305 85.7385 269.358 85.9919 268.252 85.9919ZM282.146 85.2919C281.346 85.7585 280.432 85.9919 279.406 85.9919C278.379 85.9919 277.459 85.7585 276.646 85.2919C275.832 84.8119 275.199 84.1585 274.746 83.3319C274.292 82.5052 274.066 81.5852 274.066 80.5719C274.066 79.5585 274.292 78.6385 274.746 77.8119C275.199 76.9852 275.832 76.3385 276.646 75.8719C277.459 75.3919 278.379 75.1519 279.406 75.1519C280.419 75.1519 281.332 75.3919 282.146 75.8719C282.959 76.3519 283.592 77.0052 284.046 77.8319C284.499 78.6585 284.726 79.5719 284.726 80.5719C284.726 81.5852 284.499 82.5052 284.046 83.3319C283.592 84.1585 282.959 84.8119 282.146 85.2919ZM277.806 83.5919C278.299 83.8719 278.832 84.0119 279.406 84.0119C279.979 84.0119 280.506 83.8719 280.986 83.5919C281.466 83.3119 281.852 82.9119 282.146 82.3919C282.439 81.8719 282.586 81.2652 282.586 80.5719C282.586 79.8785 282.439 79.2719 282.146 78.7519C281.852 78.2319 281.466 77.8319 280.986 77.5519C280.506 77.2719 279.979 77.1319 279.406 77.1319C278.832 77.1319 278.299 77.2719 277.806 77.5519C277.326 77.8319 276.939 78.2319 276.646 78.7519C276.352 79.2719 276.206 79.8785 276.206 80.5719C276.206 81.2652 276.352 81.8719 276.646 82.3919C276.939 82.9119 277.326 83.3119 277.806 83.5919ZM285.302 75.4719H287.702L290.562 82.8919H290.662L293.582 75.4719H295.942L291.682 85.6719H289.522L285.302 75.4719ZM301.707 85.9919C300.721 85.9919 299.827 85.7585 299.027 85.2919C298.241 84.8252 297.621 84.1852 297.167 83.3719C296.727 82.5452 296.507 81.6185 296.507 80.5919C296.507 79.6185 296.721 78.7185 297.147 77.8919C297.587 77.0519 298.194 76.3852 298.967 75.8919C299.741 75.3985 300.614 75.1519 301.587 75.1519C302.614 75.1519 303.501 75.3785 304.247 75.8319C304.994 76.2719 305.561 76.8852 305.947 77.6719C306.347 78.4585 306.547 79.3519 306.547 80.3519C306.547 80.6185 306.534 80.8452 306.507 81.0319H298.627C298.721 82.0052 299.067 82.7585 299.667 83.2919C300.267 83.8119 300.967 84.0719 301.767 84.0719C302.421 84.0719 302.981 83.9252 303.447 83.6319C303.914 83.3252 304.287 82.9252 304.567 82.4319L306.347 83.2919C305.881 84.1319 305.261 84.7919 304.487 85.2719C303.714 85.7519 302.787 85.9919 301.707 85.9919ZM304.407 79.4119C304.381 79.0385 304.261 78.6652 304.047 78.2919C303.834 77.9185 303.521 77.6119 303.107 77.3719C302.707 77.1185 302.207 76.9919 301.607 76.9919C300.887 76.9919 300.274 77.2119 299.767 77.6519C299.274 78.0919 298.934 78.6785 298.747 79.4119H304.407ZM308.551 75.4719H310.591V76.9719H310.711C310.938 76.4519 311.324 76.0252 311.871 75.6919C312.431 75.3452 313.031 75.1719 313.671 75.1719C314.138 75.1719 314.551 75.2385 314.911 75.3719V77.6119C314.364 77.3719 313.838 77.2519 313.331 77.2519C312.571 77.2519 311.944 77.5452 311.451 78.1319C310.958 78.7185 310.711 79.4319 310.711 80.2719V85.6719H308.551V75.4719ZM320.188 85.1119L315.928 75.4719H318.328L321.248 82.4319H321.348L324.168 75.4719H326.548L320.248 89.9919H317.948L320.188 85.1119ZM251.477 97.3519H253.977L259.397 111.672H256.977L255.657 107.992H249.817L248.497 111.672H246.077L251.477 97.3519ZM254.937 105.952L253.337 101.572L252.797 99.9319H252.677L252.137 101.572L250.537 105.952H254.937ZM260.494 101.472H262.534V102.872H262.654C262.948 102.365 263.388 101.952 263.974 101.632C264.561 101.312 265.194 101.152 265.874 101.152C267.101 101.152 268.034 101.519 268.674 102.252C269.314 102.972 269.634 103.965 269.634 105.232V111.672H267.494V105.512C267.494 104.712 267.294 104.119 266.894 103.732C266.494 103.332 265.948 103.132 265.254 103.132C264.748 103.132 264.294 103.272 263.894 103.552C263.508 103.832 263.201 104.205 262.974 104.672C262.761 105.139 262.654 105.645 262.654 106.192V111.672H260.494V101.472ZM275.198 111.992C274.465 111.992 273.812 111.852 273.238 111.572C272.665 111.279 272.218 110.872 271.898 110.352C271.578 109.832 271.418 109.239 271.418 108.572C271.418 107.865 271.605 107.259 271.978 106.752C272.352 106.232 272.858 105.839 273.498 105.572C274.138 105.292 274.852 105.152 275.638 105.152C276.238 105.152 276.778 105.212 277.258 105.332C277.752 105.439 278.145 105.565 278.438 105.712V105.172C278.438 104.519 278.198 103.992 277.718 103.592C277.238 103.179 276.618 102.972 275.858 102.972C275.338 102.972 274.845 103.092 274.378 103.332C273.912 103.559 273.538 103.872 273.258 104.272L271.778 103.132C272.218 102.505 272.798 102.019 273.518 101.672C274.252 101.325 275.052 101.152 275.918 101.152C277.385 101.152 278.518 101.519 279.318 102.252C280.132 102.972 280.538 103.985 280.538 105.292V111.672H278.438V110.412H278.318C278.025 110.865 277.605 111.245 277.058 111.552C276.512 111.845 275.892 111.992 275.198 111.992ZM275.578 110.232C276.112 110.232 276.598 110.105 277.038 109.852C277.478 109.585 277.818 109.232 278.058 108.792C278.312 108.352 278.438 107.879 278.438 107.372C278.118 107.185 277.752 107.039 277.338 106.932C276.925 106.825 276.492 106.772 276.038 106.772C275.198 106.772 274.578 106.939 274.178 107.272C273.792 107.605 273.598 108.045 273.598 108.592C273.598 109.072 273.778 109.465 274.138 109.772C274.498 110.079 274.978 110.232 275.578 110.232ZM282.916 97.3519H285.076V111.672H282.916V97.3519ZM290.783 111.112L286.523 101.472H288.923L291.843 108.432H291.943L294.763 101.472H297.143L290.843 115.992H288.543L290.783 111.112ZM298.041 109.872L303.721 103.352H298.221V101.472H306.361V103.272L300.701 109.792H306.521V111.672H298.041V109.872ZM313.006 111.992C312.019 111.992 311.126 111.759 310.326 111.292C309.539 110.825 308.919 110.185 308.466 109.372C308.026 108.545 307.806 107.619 307.806 106.592C307.806 105.619 308.019 104.719 308.446 103.892C308.886 103.052 309.493 102.385 310.266 101.892C311.039 101.399 311.913 101.152 312.886 101.152C313.913 101.152 314.799 101.379 315.546 101.832C316.293 102.272 316.859 102.885 317.246 103.672C317.646 104.459 317.846 105.352 317.846 106.352C317.846 106.619 317.833 106.845 317.806 107.032H309.926C310.019 108.005 310.366 108.759 310.966 109.292C311.566 109.812 312.266 110.072 313.066 110.072C313.719 110.072 314.279 109.925 314.746 109.632C315.213 109.325 315.586 108.925 315.866 108.432L317.646 109.292C317.179 110.132 316.559 110.792 315.786 111.272C315.013 111.752 314.086 111.992 313.006 111.992ZM315.706 105.412C315.679 105.039 315.559 104.665 315.346 104.292C315.133 103.919 314.819 103.612 314.406 103.372C314.006 103.119 313.506 102.992 312.906 102.992C312.186 102.992 311.573 103.212 311.066 103.652C310.573 104.092 310.233 104.679 310.046 105.412H315.706Z" fill="#3E3D3D"/>
</svg>
